<svg id="Calque_1" data-name="Calque 1" xmlns="http://www.w3.org/2000/svg" width="560" height="554.6" viewBox="0 0 560 554.6"><g id="Layer_4" data-name="Layer 4"><line x1="394" y1="158" x2="429" y2="140" style="fill:none;stroke:#14375a;stroke-miterlimit:10"/><line x1="279.5" y1="422.5" x2="279.5" y2="487.5" style="fill:none;stroke:#14375a;stroke-miterlimit:10"/><line x1="125.5" y1="252.5" x2="102.5" y2="241.5" style="fill:none;stroke:#14375a;stroke-miterlimit:10"/><line x1="199.5" y1="136.5" x2="170.5" y2="118.5" style="fill:none;stroke:#14375a;stroke-miterlimit:10"/><line x1="264.5" y1="113.5" x2="264.5" y2="68.5" style="fill:none;stroke:#14375a;stroke-miterlimit:10"/><g id="Shape_3" data-name="Shape 3"><polygon points="187.9 172.8 187.3 173.2 210.4 206 211 205.6 187.9 172.8" style="fill:#555;fill-rule:evenodd"/></g><g id="Shape_4" data-name="Shape 4"><rect x="154.1" y="172.5" width="33.7" height="1.2" style="fill:#555"/></g><g id="Shape_3-2" data-name="Shape 3"><rect x="281.83" y="135.09" width="1.2" height="66.9" transform="matrix(0.82, -0.57, 0.57, 0.82, -45.77, 168.57)" style="fill:#555"/></g><g id="Shape_4-2" data-name="Shape 4"><rect x="229.8" y="118.9" width="33.7" height="1.2" style="fill:#555"/></g></g><g id="Layer_1" data-name="Layer 1"><path d="M193.8,287.9a86.84,86.84,0,0,1,26.3-62.3l-51.6-53.4c-48.6,46.9-62.7,113.4-37.4,176l69-27.9A84.65,84.65,0,0,1,193.8,287.9Z" transform="translate(0 -21.4)" style="fill:maroon;stroke:#fff;stroke-miterlimit:10;stroke-width:4px"/><path d="M344.2,347.5a87,87,0,0,1-144.1-27.1l-69,27.9c9.3,23.1,21.3,40.4,39.5,57.4,65,60.6,166.8,57.1,227.4-7.9Z" transform="translate(0 -21.4)" style="fill:#c84b96;stroke:#fff;stroke-miterlimit:10;stroke-width:4px"/><path d="M280.3,127.1V201h.5a87,87,0,0,1,63.4,146.6L398,397.8c29.1-31.2,43.2-67.1,43.2-109.7A160.87,160.87,0,0,0,280.3,127.1Z" transform="translate(0 -21.4)" style="fill:#5fb441;stroke:#fff;stroke-miterlimit:10;stroke-width:4px"/><path d="M280.3,200.9V127a157.9,157.9,0,0,0-41.6,5.5l19.1,71.4A92.5,92.5,0,0,1,280.3,200.9Z" transform="translate(0 -21.4)" style="fill:#14375a;stroke:#fff;stroke-miterlimit:10;stroke-width:4px"/><path d="M257.8,204l-19.1-71.4c-27.5,7.4-49.7,19.9-70.1,39.7l51.6,53.4A85.1,85.1,0,0,1,257.8,204Z" transform="translate(0 -21.4)" style="fill:#ffa519;stroke:#fff;stroke-miterlimit:10;stroke-width:4px"/><g style="isolation:isolate"><path d="M484,159a7.28,7.28,0,0,0,3.46,1c2.69,0,3.55-1.71,3.53-3,0-2.18-2-3.12-4-3.12H485.8V152.2H487c1.54,0,3.49-.79,3.49-2.64,0-1.25-.8-2.35-2.74-2.35a5.72,5.72,0,0,0-3.12,1L484,146.7a7.59,7.59,0,0,1,4.11-1.2c3.07,0,4.46,1.83,4.46,3.72a3.91,3.91,0,0,1-2.88,3.7V153a4,4,0,0,1,3.48,4c0,2.5-2,4.68-5.69,4.68a7.82,7.82,0,0,1-4.05-1.06Z" transform="translate(0 -21.4)" style="fill:#14375a"/><path d="M506,145.76v1.4l-6.79,14.21H497l6.77-13.81v0h-7.63v-1.76Z" transform="translate(0 -21.4)" style="fill:#14375a"/><path d="M520.24,150.13c0,3.29-1.71,4.92-3.72,4.92s-3.63-1.56-3.65-4.68,1.68-4.87,3.79-4.87S520.24,147.18,520.24,150.13Zm-5.71.15c0,2,.72,3.5,2,3.5s2-1.49,2-3.53-.55-3.48-2-3.48C515.25,146.77,514.53,148.33,514.53,150.28Zm1.82,11.37,9.19-16.17h1.35l-9.2,16.17Zm14.07-5c0,3.29-1.71,4.92-3.73,4.92s-3.62-1.56-3.64-4.7,1.68-4.87,3.79-4.87S530.42,153.64,530.42,156.61Zm-5.72.15c-.05,2,.72,3.5,2,3.5s2-1.49,2-3.55c0-1.9-.55-3.48-2-3.48C525.42,153.23,524.7,154.79,524.7,156.76Z" transform="translate(0 -21.4)" style="fill:#14375a"/></g><g style="isolation:isolate"><path d="M150.9,522.58V511.19h2l1.76,4.46c.35.88.89,2.35,1.22,3.33h0c-.07-1.2-.22-3.18-.22-5.27v-2.52h1.94v11.39h-2l-1.74-4.32a33.9,33.9,0,0,1-1.16-3.44h0c.07,1.15.15,2.91.15,5.21v2.55Z" transform="translate(0 -21.4)" style="fill:#14375a"/><path d="M165.47,520.06c0,.88,0,1.75.07,2.52h-1.91l-.12-.87h0a2.37,2.37,0,0,1-1.93,1c-1.57,0-2.2-1.17-2.2-3.4v-5h2.22v4.76c0,1.09.22,1.78.83,1.78a.78.78,0,0,0,.72-.56,1.57,1.57,0,0,0,.14-.71v-5.27h2.21Z" transform="translate(0 -21.4)" style="fill:#14375a"/><path d="M171.65,522.45a3.94,3.94,0,0,1-1.41.24c-2.09,0-3.46-1.46-3.46-4.15s1.5-4.33,3.78-4.33a3.27,3.27,0,0,1,1.22.22l-.29,1.75a2.18,2.18,0,0,0-.82-.16c-1.07,0-1.7,1-1.7,2.46s.63,2.4,1.66,2.4a1.81,1.81,0,0,0,.83-.17Z" transform="translate(0 -21.4)" style="fill:#14375a"/><path d="M172.52,510.88h2.22v11.7h-2.22Z" transform="translate(0 -21.4)" style="fill:#14375a"/><path d="M178.19,519.24a1.59,1.59,0,0,0,1.74,1.76,4.8,4.8,0,0,0,1.57-.28l.29,1.59a6.64,6.64,0,0,1-2.25.38c-2.26,0-3.5-1.49-3.5-4.08,0-2.79,1.46-4.45,3.31-4.45s2.81,1.41,2.81,3.93a6.87,6.87,0,0,1-.07,1.15Zm2-1.56c0-1.06-.27-1.89-.93-1.89s-1,1.06-1,1.89Z" transform="translate(0 -21.4)" style="fill:#14375a"/><path d="M189,520.69a13.76,13.76,0,0,0,.12,1.89h-2l-.12-.81h0a2.17,2.17,0,0,1-1.82,1,2.29,2.29,0,0,1-2.18-2.5c0-2.18,1.91-3.06,3.78-3.08V517a1,1,0,0,0-1.16-1.13,3.16,3.16,0,0,0-1.69.49l-.41-1.5a5.58,5.58,0,0,1,2.59-.63c2.52,0,2.92,1.76,2.92,3.45Zm-2.18-2.13c-.73,0-1.76.27-1.76,1.42,0,.81.46,1.12.8,1.12a.94.94,0,0,0,.91-.71,1.54,1.54,0,0,0,.05-.39Z" transform="translate(0 -21.4)" style="fill:#14375a"/><path d="M190.55,516.8c0-.81,0-1.71-.07-2.48h1.91l.12,1.2h.07a1.93,1.93,0,0,1,1.62-1.36,1.7,1.7,0,0,1,.47.05v2.19a3.32,3.32,0,0,0-.47,0,1.45,1.45,0,0,0-1.34,1.17,2.89,2.89,0,0,0-.1.82v4.21h-2.21Z" transform="translate(0 -21.4)" style="fill:#14375a"/><path d="M200.07,519.24a1.58,1.58,0,0,0,1.74,1.76,4.85,4.85,0,0,0,1.57-.28l.29,1.59a6.64,6.64,0,0,1-2.25.38c-2.27,0-3.5-1.49-3.5-4.08,0-2.79,1.45-4.45,3.31-4.45s2.81,1.41,2.81,3.93a8.21,8.21,0,0,1-.07,1.15Zm2-1.56c0-1.06-.27-1.89-.93-1.89s-1,1.06-1,1.89Z" transform="translate(0 -21.4)" style="fill:#14375a"/><path d="M205.29,516.8c0-.89,0-1.69-.07-2.48h1.91l.12.94h0a2.39,2.39,0,0,1,2-1.08c1.57,0,2.2,1.25,2.2,3.1v5.3h-2.22v-5.17c0-.69-.17-1.37-.81-1.37-.37,0-.68.25-.83.75a2,2,0,0,0-.12.76v5h-2.21Z" transform="translate(0 -21.4)" style="fill:#14375a"/><path d="M214.89,519.24a1.59,1.59,0,0,0,1.74,1.76,4.86,4.86,0,0,0,1.58-.28l.28,1.59a6.58,6.58,0,0,1-2.24.38c-2.27,0-3.5-1.49-3.5-4.08,0-2.79,1.45-4.45,3.31-4.45s2.81,1.41,2.81,3.93a8.21,8.21,0,0,1-.07,1.15Zm2-1.56c0-1.06-.27-1.89-.93-1.89s-1,1.06-1,1.89Z" transform="translate(0 -21.4)" style="fill:#14375a"/><path d="M220.12,516.8c0-.81,0-1.71-.07-2.48H222l.12,1.2h.07a1.93,1.93,0,0,1,1.62-1.36,1.75,1.75,0,0,1,.47.05v2.19a3.32,3.32,0,0,0-.47,0,1.44,1.44,0,0,0-1.34,1.17,2.89,2.89,0,0,0-.1.82v4.21h-2.21Z" transform="translate(0 -21.4)" style="fill:#14375a"/><path d="M231.05,521.65c0,1.78-.33,2.76-1,3.4a3.75,3.75,0,0,1-2.69.91,5.26,5.26,0,0,1-2.06-.38l.4-1.71a3.54,3.54,0,0,0,1.57.35c1.12,0,1.56-.74,1.56-2v-.5h0a1.68,1.68,0,0,1-1.49.82c-1.84,0-2.57-2-2.57-4,0-2.76,1.25-4.37,2.77-4.37a1.66,1.66,0,0,1,1.52,1h0l.12-.84h1.94c0,.76-.09,1.62-.09,2.62Zm-2.21-4.32a1.91,1.91,0,0,0-.09-.61c-.1-.36-.33-.68-.71-.68-.79,0-1.11,1.08-1.11,2.44,0,1.53.44,2.31,1.08,2.31a.77.77,0,0,0,.73-.59,1.79,1.79,0,0,0,.1-.66Z" transform="translate(0 -21.4)" style="fill:#14375a"/><path d="M234.25,514.32l.81,4.31c.1.49.17.93.24,1.38h0c.07-.42.14-.89.21-1.35l.67-4.34h2.18l-1.69,6.39a10.94,10.94,0,0,1-1.84,4.21,4.21,4.21,0,0,1-1.88,1.3l-.67-1.91a3.5,3.5,0,0,0,1.1-.68,3,3,0,0,0,.69-1,.73.73,0,0,0,.12-.35,1.09,1.09,0,0,0-.07-.3l-2.28-7.66Z" transform="translate(0 -21.4)" style="fill:#14375a"/></g><g style="isolation:isolate"><path d="M183.25,503.09a7.28,7.28,0,0,0,3.46,1c2.69,0,3.55-1.7,3.53-3,0-2.19-2-3.12-4-3.12H185v-1.59h1.18c1.53,0,3.48-.79,3.48-2.64,0-1.25-.8-2.35-2.74-2.35a5.72,5.72,0,0,0-3.12,1l-.58-1.53a7.59,7.59,0,0,1,4.11-1.2c3.07,0,4.46,1.82,4.46,3.72a3.89,3.89,0,0,1-2.88,3.69v0a4,4,0,0,1,3.48,4c0,2.49-2,4.67-5.69,4.67a8,8,0,0,1-4-1.05Z" transform="translate(0 -21.4)" style="fill:#14375a"/><path d="M195.06,505.49V504.2l1.66-1.61c4-3.8,5.81-5.81,5.81-8.16a2.77,2.77,0,0,0-3.08-3.05,5.32,5.32,0,0,0-3.31,1.32l-.67-1.49a6.91,6.91,0,0,1,4.39-1.58,4.39,4.39,0,0,1,4.78,4.53c0,2.88-2.09,5.21-5.38,8.38L198,503.69v.05h7v1.75Z" transform="translate(0 -21.4)" style="fill:#14375a"/><path d="M219.47,494.26c0,3.29-1.7,4.92-3.72,4.92s-3.63-1.56-3.65-4.68,1.68-4.87,3.79-4.87S219.47,491.31,219.47,494.26Zm-5.71.14c0,2,.72,3.51,2,3.51s2-1.49,2-3.53-.55-3.48-2-3.48C214.48,490.9,213.76,492.46,213.76,494.4Zm1.82,11.38,9.19-16.18h1.35l-9.19,16.18Zm14.07-5c0,3.29-1.71,4.92-3.72,4.92s-3.63-1.56-3.65-4.7,1.68-4.88,3.79-4.88S229.65,497.76,229.65,500.74Zm-5.72.14c0,2,.72,3.51,2,3.51s2-1.49,2-3.56c0-1.89-.55-3.48-2-3.48C224.65,497.35,223.93,498.92,223.93,500.88Z" transform="translate(0 -21.4)" style="fill:#14375a"/></g><g style="isolation:isolate"><path d="M430.87,167.48a13.67,13.67,0,0,1,2.42-.22,4.47,4.47,0,0,1,3,.85,2.9,2.9,0,0,1,.91,2.36,3,3,0,0,1-1.76,2.84v0c.78.32,1.17,1,1.39,2.26a17.61,17.61,0,0,0,.73,3.1h-2.32a14.11,14.11,0,0,1-.57-2.74c-.21-1.4-.56-1.81-1.29-1.81h-.34v4.55h-2.21Zm2.21,5h.41c1,0,1.5-.78,1.5-1.77s-.39-1.66-1.37-1.69a1.67,1.67,0,0,0-.54.06Z" transform="translate(0 -21.4)" style="fill:#14375a"/><path d="M440.42,175.36a1.59,1.59,0,0,0,1.74,1.76,5,5,0,0,0,1.57-.27l.29,1.59a6.65,6.65,0,0,1-2.25.37c-2.26,0-3.5-1.49-3.5-4.07,0-2.79,1.46-4.45,3.32-4.45s2.8,1.4,2.8,3.92a8.71,8.71,0,0,1-.06,1.15Zm2-1.56c0-1.06-.27-1.89-.93-1.89s-1,1.07-1,1.89Z" transform="translate(0 -21.4)" style="fill:#14375a"/><path d="M445.64,172.93c0-.9,0-1.69-.06-2.49h1.91l.12.95h0a2.36,2.36,0,0,1,2-1.08c1.58,0,2.2,1.25,2.2,3.09v5.31h-2.21v-5.18c0-.69-.17-1.36-.81-1.36-.38,0-.68.25-.83.74a2.11,2.11,0,0,0-.12.76v5h-2.22Z" transform="translate(0 -21.4)" style="fill:#14375a"/><path d="M455.25,175.36a1.58,1.58,0,0,0,1.74,1.76,5,5,0,0,0,1.57-.27l.29,1.59a6.65,6.65,0,0,1-2.25.37c-2.27,0-3.5-1.49-3.5-4.07,0-2.79,1.45-4.45,3.31-4.45s2.81,1.4,2.81,3.92a6.87,6.87,0,0,1-.07,1.15Zm2-1.56c0-1.06-.27-1.89-.93-1.89s-1,1.07-1,1.89Z" transform="translate(0 -21.4)" style="fill:#14375a"/><path d="M462,170.44l.44,3.55c.11.91.22,1.73.29,2.52h.05c.12-.79.29-1.69.46-2.49l.73-3.58h1.7l.7,3.5c.18.95.33,1.76.44,2.57h0c.07-.78.17-1.66.29-2.55l.5-3.52h2.2l-2.13,8.27h-1.89l-.61-2.89a23,23,0,0,1-.42-2.59h0a20.48,20.48,0,0,1-.49,2.6l-.69,2.88h-1.91l-2-8.27Z" transform="translate(0 -21.4)" style="fill:#14375a"/><path d="M476.18,176.81a12.57,12.57,0,0,0,.12,1.9h-2l-.12-.81h-.05a2.19,2.19,0,0,1-1.83.94,2.29,2.29,0,0,1-2.18-2.5c0-2.18,1.91-3.06,3.79-3.08v-.18a1,1,0,0,0-1.17-1.13,3.1,3.1,0,0,0-1.69.49l-.4-1.51a5.71,5.71,0,0,1,2.58-.62c2.52,0,2.93,1.75,2.93,3.44ZM474,174.68c-.73,0-1.76.28-1.76,1.42,0,.82.46,1.12.79,1.12a1,1,0,0,0,.92-.71,1.54,1.54,0,0,0,.05-.39Z" transform="translate(0 -21.4)" style="fill:#14375a"/><path d="M477.72,167h2.21v4.26h0a2,2,0,0,1,1.72-1c1.59,0,2.33,1.82,2.33,4.06,0,2.9-1.15,4.49-2.69,4.49a1.7,1.7,0,0,1-1.62-1.11h0l-.12,1h-1.89c0-.73.07-1.68.07-2.45Zm2.21,8.74a1.43,1.43,0,0,0,.09.52c.18.6.49.76.76.76.74,0,1.05-.93,1.05-2.51s-.33-2.35-1.07-2.35c-.34,0-.63.35-.74.76a1.64,1.64,0,0,0-.09.5Z" transform="translate(0 -21.4)" style="fill:#14375a"/><path d="M485.29,167h2.22v11.7h-2.22Z" transform="translate(0 -21.4)" style="fill:#14375a"/><path d="M491,175.36a1.58,1.58,0,0,0,1.74,1.76,5.16,5.16,0,0,0,1.57-.27l.29,1.59a6.65,6.65,0,0,1-2.25.37c-2.27,0-3.5-1.49-3.5-4.07,0-2.79,1.45-4.45,3.31-4.45s2.81,1.4,2.81,3.92a8.21,8.21,0,0,1-.07,1.15Zm2-1.56c0-1.06-.27-1.89-.93-1.89s-1,1.07-1,1.89Z" transform="translate(0 -21.4)" style="fill:#14375a"/><path d="M500.73,175.36a1.58,1.58,0,0,0,1.74,1.76,5.16,5.16,0,0,0,1.57-.27l.29,1.59a6.65,6.65,0,0,1-2.25.37c-2.27,0-3.5-1.49-3.5-4.07,0-2.79,1.45-4.45,3.31-4.45s2.81,1.4,2.81,3.92a6.87,6.87,0,0,1-.07,1.15Zm2-1.56c0-1.06-.27-1.89-.93-1.89s-1,1.07-1,1.89Z" transform="translate(0 -21.4)" style="fill:#14375a"/><path d="M506,172.93c0-.9,0-1.69-.07-2.49h1.91l.12.95h0a2.36,2.36,0,0,1,2-1.08c1.57,0,2.2,1.25,2.2,3.09v5.31h-2.22v-5.18c0-.69-.16-1.36-.81-1.36-.37,0-.67.25-.82.74a2.11,2.11,0,0,0-.12.76v5H506Z" transform="translate(0 -21.4)" style="fill:#14375a"/><path d="M515.55,175.36a1.59,1.59,0,0,0,1.75,1.76,5.16,5.16,0,0,0,1.57-.27l.29,1.59a6.65,6.65,0,0,1-2.25.37c-2.27,0-3.5-1.49-3.5-4.07,0-2.79,1.45-4.45,3.31-4.45s2.81,1.4,2.81,3.92a8.21,8.21,0,0,1-.07,1.15Zm2-1.56c0-1.06-.27-1.89-.93-1.89s-1,1.07-1,1.89Z" transform="translate(0 -21.4)" style="fill:#14375a"/><path d="M520.78,172.93c0-.82,0-1.71-.07-2.49h1.91l.12,1.2h.07a1.91,1.91,0,0,1,1.62-1.35,1.65,1.65,0,0,1,.47.05v2.18a3.25,3.25,0,0,0-.47,0,1.45,1.45,0,0,0-1.34,1.17,3,3,0,0,0-.1.83v4.21h-2.21Z" transform="translate(0 -21.4)" style="fill:#14375a"/><path d="M531.72,177.78c0,1.77-.34,2.75-1,3.4a3.79,3.79,0,0,1-2.69.91,5.25,5.25,0,0,1-2.06-.39l.4-1.71a3.42,3.42,0,0,0,1.58.36c1.11,0,1.55-.75,1.55-2v-.51h0a1.68,1.68,0,0,1-1.49.83c-1.84,0-2.57-2-2.57-4,0-2.76,1.25-4.36,2.77-4.36a1.67,1.67,0,0,1,1.53,1h0l.12-.85h1.94c0,.76-.08,1.62-.08,2.62Zm-2.22-4.33a2.25,2.25,0,0,0-.08-.61.8.8,0,0,0-.71-.67c-.8,0-1.12,1.08-1.12,2.43,0,1.54.44,2.32,1.08,2.32a.78.78,0,0,0,.73-.6,1.56,1.56,0,0,0,.1-.65Z" transform="translate(0 -21.4)" style="fill:#14375a"/><path d="M534.91,170.44l.81,4.31c.11.49.17.93.24,1.39h0c.07-.42.14-.9.21-1.35l.67-4.35h2.18l-1.69,6.39a10.73,10.73,0,0,1-1.84,4.21,4.12,4.12,0,0,1-1.88,1.3l-.67-1.91a3.46,3.46,0,0,0,1.1-.67,3.15,3.15,0,0,0,.69-1,.81.81,0,0,0,.12-.36,1.09,1.09,0,0,0-.07-.3l-2.28-7.66Z" transform="translate(0 -21.4)" style="fill:#14375a"/></g><g style="isolation:isolate"><path d="M32.14,246.74h0l-2.72,1.47L29,246.6l3.41-1.83h1.8v15.61h-2Z" transform="translate(0 -21.4)" style="fill:#14375a"/><path d="M41.09,258.89a9,9,0,0,0,1.71-.08,5.64,5.64,0,0,0,3.26-1.51,6.84,6.84,0,0,0,2.07-4.13h-.08a4.7,4.7,0,0,1-8.28-3.12,5.35,5.35,0,0,1,5.33-5.54c3.19,0,5.16,2.57,5.16,6.6a9.87,9.87,0,0,1-2.68,7.3A7.9,7.9,0,0,1,43,260.5a10.19,10.19,0,0,1-1.95.12Zm.77-9a3,3,0,0,0,3,3.32,3.48,3.48,0,0,0,3.07-1.64,1.46,1.46,0,0,0,.2-.79c0-2.66-1-4.7-3.22-4.7C43.13,246.12,41.86,247.7,41.86,249.93Z" transform="translate(0 -21.4)" style="fill:#14375a"/><path d="M64.28,249.14c0,3.29-1.71,4.92-3.72,4.92s-3.63-1.56-3.65-4.68,1.68-4.87,3.79-4.87S64.28,246.19,64.28,249.14Zm-5.71.15c0,2,.72,3.5,2,3.5s2-1.49,2-3.53-.55-3.48-2-3.48C59.29,245.78,58.57,247.34,58.57,249.29Zm1.82,11.37,9.19-16.17h1.35l-9.2,16.17Zm14.07-5c0,3.29-1.71,4.92-3.73,4.92s-3.62-1.56-3.64-4.7S68.77,251,70.88,251,74.46,252.65,74.46,255.62Zm-5.72.15c0,2,.72,3.5,2,3.5s2-1.49,2-3.55c0-1.9-.55-3.48-2-3.48C69.46,252.24,68.74,253.8,68.74,255.77Z" transform="translate(0 -21.4)" style="fill:#14375a"/></g><g style="isolation:isolate"><path d="M27.21,276.33a4.4,4.4,0,0,0,1.87.43c1,0,1.56-.54,1.56-1.28s-.51-1.23-1.47-1.86A3.84,3.84,0,0,1,27,270.44a3.27,3.27,0,0,1,3.58-3.35,3.88,3.88,0,0,1,1.8.41L32,269.41A2.72,2.72,0,0,0,30.6,269a1.24,1.24,0,0,0-1.4,1.19c0,.67.34,1,1.56,1.77a3.68,3.68,0,0,1,2.06,3.26,3.42,3.42,0,0,1-3.75,3.45,5.1,5.1,0,0,1-2.19-.45Z" transform="translate(0 -21.4)" style="fill:#14375a"/><path d="M40.11,274.43c0,3.45-1.91,4.3-3.17,4.3-2,0-3.16-1.56-3.16-4.25,0-3,1.56-4.31,3.2-4.31C38.94,270.17,40.11,271.81,40.11,274.43Zm-4.13,0c0,1.42.22,2.61,1,2.61s.92-1.39.92-2.61-.19-2.57-.95-2.57S36,273.3,36,274.43Z" transform="translate(0 -21.4)" style="fill:#14375a"/><path d="M41.36,266.89h2.21v11.7H41.36Z" transform="translate(0 -21.4)" style="fill:#14375a"/><path d="M47.38,268.14a1.14,1.14,0,0,1-1.17,1.2,1.11,1.11,0,0,1-1.1-1.2,1.14,1.14,0,1,1,2.27,0Zm-2.22,10.45v-8.27h2.22v8.27Z" transform="translate(0 -21.4)" style="fill:#14375a"/><path d="M54.93,266.89v9.25c0,.78,0,1.69.07,2.45H53.09l-.12-.93h0a2,2,0,0,1-1.71,1.07c-1.76,0-2.57-2-2.57-4.26,0-2.88,1.27-4.3,2.66-4.3a1.42,1.42,0,0,1,1.38.85h0v-4.13Zm-2.21,6.61a2,2,0,0,0,0-.49c-.06-.51-.33-1-.77-1-.78,0-1.07,1.13-1.07,2.47,0,1.57.42,2.4,1,2.4.29,0,.61-.16.78-.73a1.45,1.45,0,0,0,.07-.52Z" transform="translate(0 -21.4)" style="fill:#14375a"/><path d="M59.57,278.59V271.9H58.45v-1.58h1.12V270a3.36,3.36,0,0,1,.86-2.48,2.61,2.61,0,0,1,2-.76,4.48,4.48,0,0,1,1.33.18l-.25,1.73a1.88,1.88,0,0,0-.68-.1c-.74,0-1,.64-1,1.36v.39h1.44v1.58H61.78v6.69Z" transform="translate(0 -21.4)" style="fill:#14375a"/><path d="M70.06,276.07c0,.88,0,1.74.07,2.52H68.22l-.12-.88h0a2.35,2.35,0,0,1-1.93,1c-1.57,0-2.2-1.17-2.2-3.4v-5h2.22v4.77c0,1.08.22,1.78.83,1.78a.78.78,0,0,0,.72-.56,1.57,1.57,0,0,0,.14-.71v-5.28h2.21Z" transform="translate(0 -21.4)" style="fill:#14375a"/><path d="M73.51,275.24A1.59,1.59,0,0,0,75.25,277a4.89,4.89,0,0,0,1.58-.27l.28,1.59a6.59,6.59,0,0,1-2.24.37c-2.27,0-3.5-1.49-3.5-4.07,0-2.79,1.45-4.45,3.31-4.45s2.81,1.4,2.81,3.92a8,8,0,0,1-.07,1.15Zm2-1.55c0-1.07-.27-1.9-.93-1.9s-1,1.07-1,1.9Z" transform="translate(0 -21.4)" style="fill:#14375a"/><path d="M78.74,266.89H81v11.7H78.74Z" transform="translate(0 -21.4)" style="fill:#14375a"/><path d="M82.47,276.6A3.12,3.12,0,0,0,84,277c.58,0,.9-.26.9-.75s-.24-.69-1-1.11a2.72,2.72,0,0,1-1.67-2.39,2.55,2.55,0,0,1,2.72-2.62,3.69,3.69,0,0,1,1.68.39l-.39,1.62a2.36,2.36,0,0,0-1.15-.34c-.58,0-.83.34-.83.71s.18.58,1,1a2.8,2.8,0,0,1,1.68,2.5c0,1.69-1.22,2.6-2.93,2.6a3.55,3.55,0,0,1-1.88-.47Z" transform="translate(0 -21.4)" style="fill:#14375a"/></g><g style="isolation:isolate"><path d="M98,132.47a3.86,3.86,0,0,1-2.5-3.5c0-2.48,2.09-4.16,4.85-4.16,3,0,4.56,1.88,4.56,3.84a4,4,0,0,1-2.59,3.65v.07c1.94.77,3.14,2.16,3.14,4,0,2.73-2.33,4.53-5.3,4.53-3.27,0-5.23-1.92-5.23-4.2a4.48,4.48,0,0,1,3.09-4.2Zm5.33,4.15c0-1.87-1.32-2.81-3.44-3.41a3.42,3.42,0,0,0-2.8,3.24,2.88,2.88,0,0,0,3.12,3A2.83,2.83,0,0,0,103.31,136.62Zm-5.81-7.8c0,1.56,1.17,2.4,3,2.88a3.06,3.06,0,0,0,2.38-2.83,2.42,2.42,0,0,0-2.64-2.54A2.48,2.48,0,0,0,97.5,128.82Z" transform="translate(0 -21.4)" style="fill:#14375a"/><path d="M119.51,129.45c0,3.28-1.71,4.92-3.72,4.92s-3.63-1.56-3.65-4.68,1.68-4.88,3.79-4.88S119.51,126.49,119.51,129.45Zm-5.72.14c0,2,.72,3.5,2,3.5s2-1.48,2-3.52-.55-3.49-2-3.49C114.51,126.08,113.79,127.65,113.79,129.59ZM115.62,141l9.19-16.18h1.34L117,141Zm14.06-5c0,3.28-1.7,4.92-3.72,4.92s-3.62-1.56-3.65-4.71,1.68-4.87,3.8-4.87S129.68,133,129.68,135.93Zm-5.71.14c0,2,.72,3.5,2,3.5s2-1.48,2-3.55c0-1.89-.55-3.48-2-3.48C124.69,132.54,124,134.1,124,136.07Z" transform="translate(0 -21.4)" style="fill:#14375a"/></g><g style="isolation:isolate"><path d="M90,158.89V147.5h2L93.79,152c.35.88.89,2.35,1.21,3.33h0c-.07-1.2-.22-3.17-.22-5.27V147.5h1.94v11.39h-2L93,154.57a34,34,0,0,1-1.17-3.44h0c.07,1.15.15,2.91.15,5.21v2.55Z" transform="translate(0 -21.4)" style="fill:#14375a"/><path d="M104.1,157a12.35,12.35,0,0,0,.12,1.89h-2l-.12-.81h-.05a2.18,2.18,0,0,1-1.83.95,2.29,2.29,0,0,1-2.18-2.5c0-2.18,1.91-3.06,3.79-3.08v-.19a1.05,1.05,0,0,0-1.17-1.13,3.19,3.19,0,0,0-1.69.49l-.4-1.5a5.56,5.56,0,0,1,2.58-.63c2.52,0,2.93,1.76,2.93,3.45Zm-2.18-2.13c-.73,0-1.76.27-1.76,1.42,0,.81.46,1.12.79,1.12a1,1,0,0,0,.92-.71,1.54,1.54,0,0,0,0-.39Z" transform="translate(0 -21.4)" style="fill:#14375a"/><path d="M108.09,148.48v2.15h1.62v1.57h-1.62V156c0,1,.4,1.2.83,1.2a3.7,3.7,0,0,0,.59,0l0,1.72a5.09,5.09,0,0,1-1.36.16,2.29,2.29,0,0,1-1.6-.53,3,3,0,0,1-.7-2.37v-3.9h-1v-1.57h1v-1.46Z" transform="translate(0 -21.4)" style="fill:#14375a"/><path d="M116.79,156.38c0,.87,0,1.74.07,2.51H115l-.12-.87h0a2.35,2.35,0,0,1-1.93,1c-1.57,0-2.2-1.17-2.2-3.4v-5h2.22v4.76c0,1.09.22,1.78.83,1.78a.8.8,0,0,0,.73-.56,1.73,1.73,0,0,0,.13-.71v-5.27h2.21Z" transform="translate(0 -21.4)" style="fill:#14375a"/><path d="M118.38,153.11c0-.81,0-1.7-.06-2.48h1.91l.12,1.2h.06a2,2,0,0,1,1.63-1.36,1.37,1.37,0,0,1,.47.06v2.18a3.32,3.32,0,0,0-.47,0,1.44,1.44,0,0,0-1.34,1.17,2.57,2.57,0,0,0-.1.82v4.21h-2.22Z" transform="translate(0 -21.4)" style="fill:#14375a"/><path d="M128.93,157a13.76,13.76,0,0,0,.12,1.89h-2l-.11-.81h0a2.18,2.18,0,0,1-1.83.95,2.29,2.29,0,0,1-2.18-2.5c0-2.18,1.91-3.06,3.79-3.08v-.19a1.06,1.06,0,0,0-1.17-1.13,3.19,3.19,0,0,0-1.69.49l-.41-1.5a5.61,5.61,0,0,1,2.59-.63c2.52,0,2.92,1.76,2.92,3.45Zm-2.18-2.13c-.72,0-1.75.27-1.75,1.42,0,.81.45,1.12.79,1.12a.94.94,0,0,0,.91-.71,1.19,1.19,0,0,0,0-.39Z" transform="translate(0 -21.4)" style="fill:#14375a"/><path d="M130.49,147.2h2.21v11.69h-2.21Z" transform="translate(0 -21.4)" style="fill:#14375a"/><path d="M143,158c0,1.78-.34,2.76-1,3.4a3.75,3.75,0,0,1-2.69.92,5.25,5.25,0,0,1-2.06-.39l.4-1.71a3.55,3.55,0,0,0,1.58.35c1.11,0,1.55-.74,1.55-2V158h0a1.67,1.67,0,0,1-1.49.82c-1.84,0-2.57-2-2.57-4,0-2.76,1.25-4.37,2.77-4.37a1.69,1.69,0,0,1,1.53,1h0l.12-.84h1.94c0,.76-.08,1.62-.08,2.62Zm-2.22-4.32a2.25,2.25,0,0,0-.08-.61.8.8,0,0,0-.71-.68c-.8,0-1.12,1.08-1.12,2.44,0,1.53.44,2.31,1.08,2.31a.77.77,0,0,0,.73-.59,1.61,1.61,0,0,0,.1-.66Z" transform="translate(0 -21.4)" style="fill:#14375a"/><path d="M150.12,157a12.35,12.35,0,0,0,.12,1.89h-2l-.12-.81h0a2.18,2.18,0,0,1-1.83.95,2.29,2.29,0,0,1-2.18-2.5c0-2.18,1.91-3.06,3.79-3.08v-.19a1.05,1.05,0,0,0-1.17-1.13,3.19,3.19,0,0,0-1.69.49l-.4-1.5a5.56,5.56,0,0,1,2.58-.63c2.52,0,2.93,1.76,2.93,3.45Zm-2.18-2.13c-.73,0-1.76.27-1.76,1.42,0,.81.46,1.12.79,1.12a1,1,0,0,0,.92-.71,1.54,1.54,0,0,0,.05-.39Z" transform="translate(0 -21.4)" style="fill:#14375a"/><path d="M151.61,156.9a3.12,3.12,0,0,0,1.48.44c.58,0,.9-.25.9-.74s-.24-.7-1-1.12a2.7,2.7,0,0,1-1.68-2.38,2.57,2.57,0,0,1,2.73-2.63,3.64,3.64,0,0,1,1.67.39l-.39,1.63a2.25,2.25,0,0,0-1.15-.34c-.57,0-.83.34-.83.71s.19.57,1,1a2.82,2.82,0,0,1,1.67,2.5c0,1.69-1.22,2.61-2.93,2.61a3.49,3.49,0,0,1-1.87-.48Z" transform="translate(0 -21.4)" style="fill:#14375a"/></g><g style="isolation:isolate"><path d="M206.51,90.06V85.79h-7.25V84.42l7-10h2.28v9.7h2.18v1.63H208.5v4.27Zm0-5.9V79c0-.82,0-1.64.07-2.45h-.07c-.48.91-.87,1.58-1.3,2.3l-3.82,5.31v0Z" transform="translate(0 -21.4)" style="fill:#14375a"/><path d="M224.39,78.83c0,3.29-1.71,4.92-3.72,4.92S217,82.19,217,79.07s1.68-4.88,3.79-4.88S224.39,75.87,224.39,78.83Zm-5.72.14c0,2,.72,3.5,2,3.5s2-1.48,2-3.52-.55-3.48-2-3.48C219.39,75.47,218.67,77,218.67,79Zm1.83,11.38,9.19-16.18H231l-9.2,16.18Zm14.06-5c0,3.29-1.7,4.92-3.72,4.92s-3.62-1.56-3.65-4.71,1.69-4.87,3.8-4.87S234.56,82.33,234.56,85.31Zm-5.71.14c0,2,.72,3.51,2,3.51s2-1.49,2-3.56c0-1.89-.55-3.48-2-3.48C229.57,81.92,228.85,83.48,228.85,85.45Z" transform="translate(0 -21.4)" style="fill:#14375a"/></g><g style="isolation:isolate"><path d="M205.34,106.11a4.51,4.51,0,0,1-1.71.27c-2.92,0-4.31-2.39-4.31-5.63,0-4.3,2.39-6,4.6-6a3.08,3.08,0,0,1,1.54.3l-.37,1.86a2.41,2.41,0,0,0-1-.22c-1.25,0-2.38,1.09-2.38,3.91s1,3.79,2.38,3.79a4.06,4.06,0,0,0,1.07-.17Z" transform="translate(0 -21.4)" style="fill:#14375a"/><path d="M206.46,100.49c0-.81,0-1.7-.07-2.48h1.91l.12,1.2h.06a1.94,1.94,0,0,1,1.63-1.35,1.42,1.42,0,0,1,.47,0v2.18a3.32,3.32,0,0,0-.47,0,1.44,1.44,0,0,0-1.34,1.17,2.6,2.6,0,0,0-.1.83v4.21h-2.21Z" transform="translate(0 -21.4)" style="fill:#14375a"/><path d="M217.48,103.76c0,.88,0,1.74.07,2.52h-1.91l-.12-.88h0a2.32,2.32,0,0,1-1.92,1c-1.58,0-2.2-1.16-2.2-3.4V98h2.21v4.77c0,1.08.22,1.77.83,1.77a.79.79,0,0,0,.73-.56,1.7,1.7,0,0,0,.13-.71V98h2.22Z" transform="translate(0 -21.4)" style="fill:#14375a"/><path d="M225.07,94.58v9.25c0,.77,0,1.69.07,2.45h-1.91l-.12-.93h-.05a2,2,0,0,1-1.71,1.06c-1.76,0-2.57-1.94-2.57-4.26,0-2.87,1.27-4.29,2.65-4.29a1.44,1.44,0,0,1,1.39.84h0V94.58Zm-2.22,6.61a2.69,2.69,0,0,0,0-.49c-.07-.51-.34-1-.78-1-.77,0-1.06,1.14-1.06,2.47,0,1.57.42,2.4,1,2.4.29,0,.61-.15.78-.72a1.54,1.54,0,0,0,.06-.53Z" transform="translate(0 -21.4)" style="fill:#14375a"/><path d="M228.49,102.93a1.58,1.58,0,0,0,1.74,1.76,5.16,5.16,0,0,0,1.57-.27l.29,1.59a6.65,6.65,0,0,1-2.25.37c-2.27,0-3.5-1.49-3.5-4.08,0-2.79,1.45-4.44,3.31-4.44s2.81,1.4,2.81,3.92a8.21,8.21,0,0,1-.07,1.15Zm2-1.56c0-1.06-.27-1.89-.93-1.89s-1,1.06-1,1.89Z" transform="translate(0 -21.4)" style="fill:#14375a"/><path d="M242.43,102.12c0,3.45-1.91,4.29-3.16,4.29-2,0-3.16-1.55-3.16-4.24,0-3,1.56-4.31,3.19-4.31C241.27,97.86,242.43,99.5,242.43,102.12Zm-4.12,0c0,1.42.22,2.6,1,2.6s.91-1.39.91-2.6-.18-2.57-.94-2.57S238.31,101,238.31,102.12Z" transform="translate(0 -21.4)" style="fill:#14375a"/><path d="M245.9,95.83a1.14,1.14,0,1,1-2.27,0,1.14,1.14,0,0,1,1.14-1.22A1.12,1.12,0,0,1,245.9,95.83Zm-2.22,10.45V98h2.22v8.27Z" transform="translate(0 -21.4)" style="fill:#14375a"/><path d="M247.45,94.58h2.22v11.7h-2.22Z" transform="translate(0 -21.4)" style="fill:#14375a"/></g><rect width="560" height="49.3" style="fill:none"/><g style="isolation:isolate"><path d="M80.86,39.7a6.4,6.4,0,0,0,2.78.65c1.53,0,2.3-.8,2.3-1.9s-.75-1.83-2.18-2.76c-2.3-1.4-3.18-3.18-3.18-4.71,0-2.71,1.8-5,5.31-5a5.6,5.6,0,0,1,2.66.6L88,29.45a4,4,0,0,0-2.14-.58,1.83,1.83,0,0,0-2.08,1.76c0,1,.51,1.53,2.31,2.63a5.46,5.46,0,0,1,3.06,4.84c0,3.08-2.28,5.11-5.57,5.11a7.45,7.45,0,0,1-3.23-.68Z" transform="translate(0 -21.4)" style="fill:#14375a"/><path d="M91,25.71h3.29v6.37h0a4.1,4.1,0,0,1,1.05-1A3.4,3.4,0,0,1,97,30.6c2.25,0,3.13,1.91,3.13,5v7.45H96.88V35.61c0-1.2-.23-2.25-1.21-2.25-.55,0-1,.32-1.28,1.15a4.89,4.89,0,0,0-.12.93v7.62H91Z" transform="translate(0 -21.4)" style="fill:#14375a"/><path d="M110.74,40.25a20.5,20.5,0,0,0,.17,2.81H108l-.18-1.2h-.07a3.22,3.22,0,0,1-2.71,1.4c-1.85,0-3.23-1.55-3.23-3.71,0-3.23,2.83-4.54,5.61-4.56v-.28A1.55,1.55,0,0,0,105.67,33a4.67,4.67,0,0,0-2.5.73l-.6-2.23a8.32,8.32,0,0,1,3.83-.93c3.74,0,4.34,2.61,4.34,5.11Zm-3.24-3.16c-1.07,0-2.6.41-2.6,2.11,0,1.2.67,1.65,1.18,1.65a1.4,1.4,0,0,0,1.35-1.05,2,2,0,0,0,.07-.58Z" transform="translate(0 -21.4)" style="fill:#14375a"/><path d="M113,34.49c0-1.21-.05-2.54-.1-3.69h2.84l.17,1.78h.1a2.86,2.86,0,0,1,2.41-2,2.41,2.41,0,0,1,.7.07v3.23c-.2,0-.43,0-.7,0a2.15,2.15,0,0,0-2,1.73,4,4,0,0,0-.15,1.23v6.24H113Z" transform="translate(0 -21.4)" style="fill:#14375a"/><path d="M123.07,38.1a2.35,2.35,0,0,0,2.58,2.6,7.35,7.35,0,0,0,2.33-.4l.43,2.36a9.78,9.78,0,0,1-3.33.55c-3.36,0-5.19-2.21-5.19-6,0-4.14,2.15-6.59,4.91-6.59S129,32.66,129,36.39a11.47,11.47,0,0,1-.1,1.71ZM126,35.79c0-1.58-.4-2.81-1.38-2.81s-1.5,1.58-1.53,2.81Z" transform="translate(0 -21.4)" style="fill:#14375a"/><path d="M143.75,36.89c0,5.12-2.83,6.37-4.69,6.37-2.93,0-4.68-2.3-4.68-6.29,0-4.41,2.3-6.39,4.73-6.39C142,30.58,143.75,33,143.75,36.89Zm-6.11,0c0,2.11.32,3.86,1.5,3.86s1.35-2,1.35-3.86-.27-3.81-1.4-3.81S137.64,35.21,137.64,36.89Z" transform="translate(0 -21.4)" style="fill:#14375a"/><path d="M146.18,43.06V33.13h-1.65V30.8h1.65v-.47a5,5,0,0,1,1.28-3.69,3.93,3.93,0,0,1,2.91-1.13,6.53,6.53,0,0,1,2,.28L152,28.34a2.91,2.91,0,0,0-1-.15c-1.1,0-1.5,1-1.5,2v.58h2.13v2.33h-2.13v9.93Z" transform="translate(0 -21.4)" style="fill:#14375a"/><path d="M164.18,35.64h-3.83V40.2h4.33v2.86h-7.62V26.16h7.35V29h-4.06v3.89h3.83Z" transform="translate(0 -21.4)" style="fill:#14375a"/><path d="M170.12,26.16v11c0,2.49.73,3.24,1.61,3.24s1.63-.68,1.63-3.24v-11h3.28V36.57c0,4.33-1.65,6.69-4.89,6.69-3.53,0-4.91-2.43-4.91-6.67V26.16Z" transform="translate(0 -21.4)" style="fill:#14375a"/><path d="M185.92,38.1a2.34,2.34,0,0,0,2.58,2.6,7.35,7.35,0,0,0,2.33-.4l.43,2.36a9.8,9.8,0,0,1-3.34.55c-3.36,0-5.19-2.21-5.19-6,0-4.14,2.16-6.59,4.92-6.59s4.16,2.08,4.16,5.81a11.47,11.47,0,0,1-.1,1.71Zm2.91-2.31c0-1.58-.41-2.81-1.38-2.81s-1.51,1.58-1.53,2.81Z" transform="translate(0 -21.4)" style="fill:#14375a"/><path d="M193.66,34.49c0-1.33,0-2.51-.1-3.69h2.84l.17,1.41h.05a3.49,3.49,0,0,1,3-1.61c2.33,0,3.26,1.86,3.26,4.59v7.87h-3.28V35.39c0-1-.26-2-1.21-2-.55,0-1,.37-1.23,1.1a3.23,3.23,0,0,0-.17,1.13v7.47h-3.29Z" transform="translate(0 -21.4)" style="fill:#14375a"/><path d="M207.9,38.1a2.36,2.36,0,0,0,2.59,2.6,7.46,7.46,0,0,0,2.33-.4l.42,2.36a9.69,9.69,0,0,1-3.33.55c-3.36,0-5.19-2.21-5.19-6,0-4.14,2.16-6.59,4.91-6.59s4.16,2.08,4.16,5.81a11.47,11.47,0,0,1-.1,1.71Zm2.91-2.31c0-1.58-.4-2.81-1.38-2.81s-1.5,1.58-1.53,2.81Z" transform="translate(0 -21.4)" style="fill:#14375a"/><path d="M215.65,34.49c0-1.21-.05-2.54-.1-3.69h2.83l.18,1.78h.1a2.85,2.85,0,0,1,2.4-2,2.45,2.45,0,0,1,.71.07v3.23c-.2,0-.43,0-.71,0a2.15,2.15,0,0,0-2,1.73,4,4,0,0,0-.15,1.23v6.24h-3.28Z" transform="translate(0 -21.4)" style="fill:#14375a"/><path d="M231.87,41.68c0,2.63-.5,4.09-1.48,5a5.59,5.59,0,0,1-4,1.35,7.88,7.88,0,0,1-3.06-.57L224,45a5.18,5.18,0,0,0,2.33.52c1.65,0,2.3-1.1,2.3-3v-.75h-.05a2.47,2.47,0,0,1-2.2,1.23c-2.73,0-3.81-3-3.81-6,0-4.08,1.85-6.46,4.11-6.46a2.47,2.47,0,0,1,2.26,1.47h.05l.17-1.25H232c-.07,1.13-.12,2.41-.12,3.89Zm-3.29-6.42a3.5,3.5,0,0,0-.12-.9c-.15-.53-.5-1-1.05-1-1.18,0-1.66,1.6-1.66,3.61,0,2.28.65,3.43,1.61,3.43a1.13,1.13,0,0,0,1.07-.87,2.46,2.46,0,0,0,.15-1Z" transform="translate(0 -21.4)" style="fill:#14375a"/><path d="M236.61,30.8l1.2,6.39c.15.73.25,1.38.35,2.06h.05c.1-.63.2-1.33.3-2l1-6.44h3.24l-2.51,9.48a16.1,16.1,0,0,1-2.73,6.24,6.14,6.14,0,0,1-2.78,1.93l-1-2.83a5,5,0,0,0,1.63-1,4.55,4.55,0,0,0,1-1.48,1.19,1.19,0,0,0,.18-.53,1.46,1.46,0,0,0-.1-.45L233.07,30.8Z" transform="translate(0 -21.4)" style="fill:#14375a"/><path d="M247.89,34.69c0-1.48,0-2.71-.1-3.89h2.85l.18,1.41h.05a2.81,2.81,0,0,1,2.58-1.63c2.68,0,3.79,2.93,3.79,6.34,0,4.36-1.91,6.34-4,6.34a2.4,2.4,0,0,1-2-1.2h-.05v5.81h-3.28Zm3.28,3.91a2.38,2.38,0,0,0,.18,1c.25.75.67.95,1.05.95,1.15,0,1.58-1.71,1.58-3.64,0-2.33-.58-3.58-1.56-3.58a1.26,1.26,0,0,0-1.1,1,2.12,2.12,0,0,0-.15.88Z" transform="translate(0 -21.4)" style="fill:#14375a"/><path d="M259.12,34.49c0-1.21-.05-2.54-.1-3.69h2.83l.18,1.78h.1a2.85,2.85,0,0,1,2.4-2,2.49,2.49,0,0,1,.71.07v3.23c-.21,0-.43,0-.71,0a2.15,2.15,0,0,0-2,1.73,4,4,0,0,0-.15,1.23v6.24h-3.28Z" transform="translate(0 -21.4)" style="fill:#14375a"/><path d="M275.34,36.89c0,5.12-2.84,6.37-4.69,6.37C267.72,43.26,266,41,266,37c0-4.41,2.31-6.39,4.74-6.39C273.61,30.58,275.34,33,275.34,36.89Zm-6.12,0c0,2.11.33,3.86,1.5,3.86s1.36-2,1.36-3.86-.28-3.81-1.41-3.81S269.22,35.21,269.22,36.89Z" transform="translate(0 -21.4)" style="fill:#14375a"/><path d="M286.09,25.71V39.43c0,1.15.05,2.5.1,3.63h-2.83l-.18-1.38h-.07a3,3,0,0,1-2.53,1.58c-2.61,0-3.81-2.88-3.81-6.32,0-4.26,1.88-6.36,3.93-6.36a2.13,2.13,0,0,1,2.06,1.25h.05V25.71Zm-3.28,9.8a3.49,3.49,0,0,0-.05-.72c-.1-.75-.5-1.43-1.16-1.43C280.45,33.36,280,35,280,37c0,2.33.62,3.56,1.52,3.56.43,0,.91-.23,1.16-1.08a2.27,2.27,0,0,0,.1-.78Z" transform="translate(0 -21.4)" style="fill:#14375a"/><path d="M297.37,39.33c0,1.3.05,2.58.1,3.73h-2.83l-.18-1.3h0a3.49,3.49,0,0,1-2.86,1.5c-2.33,0-3.26-1.73-3.26-5V30.8h3.28v7.07c0,1.61.33,2.63,1.23,2.63a1.17,1.17,0,0,0,1.08-.82,2.56,2.56,0,0,0,.2-1.06V30.8h3.28Z" transform="translate(0 -21.4)" style="fill:#14375a"/><path d="M306.52,42.86a5.75,5.75,0,0,1-2.08.35c-3.11,0-5.14-2.16-5.14-6.14,0-3.79,2.23-6.42,5.62-6.42a4.74,4.74,0,0,1,1.8.33l-.42,2.58a3.48,3.48,0,0,0-1.23-.23c-1.58,0-2.51,1.51-2.51,3.64s.93,3.56,2.46,3.56a2.76,2.76,0,0,0,1.23-.25Z" transform="translate(0 -21.4)" style="fill:#14375a"/><path d="M312.16,27.62V30.8h2.41v2.33h-2.41v5.59c0,1.43.61,1.78,1.23,1.78a5,5,0,0,0,.88-.07l0,2.56a8.14,8.14,0,0,1-2,.22,3.37,3.37,0,0,1-2.38-.78c-.66-.65-1-1.58-1-3.51V33.13h-1.46V30.8h1.46V28.65Z" transform="translate(0 -21.4)" style="fill:#14375a"/><path d="M319.38,27.57a1.68,1.68,0,1,1-3.36,0,1.69,1.69,0,0,1,1.68-1.81A1.66,1.66,0,0,1,319.38,27.57ZM316.1,43.06V30.8h3.28V43.06Z" transform="translate(0 -21.4)" style="fill:#14375a"/><path d="M330.64,36.89c0,5.12-2.83,6.37-4.69,6.37-2.93,0-4.69-2.3-4.69-6.29,0-4.41,2.31-6.39,4.74-6.39C328.91,30.58,330.64,33,330.64,36.89Zm-6.12,0c0,2.11.33,3.86,1.51,3.86s1.35-2,1.35-3.86-.28-3.81-1.4-3.81S324.52,35.21,324.52,36.89Z" transform="translate(0 -21.4)" style="fill:#14375a"/><path d="M332.49,34.49c0-1.33-.05-2.51-.1-3.69h2.84l.17,1.41h.05a3.49,3.49,0,0,1,3-1.61c2.33,0,3.26,1.86,3.26,4.59v7.87h-3.28V35.39c0-1-.26-2-1.21-2-.55,0-1,.37-1.23,1.1a3.23,3.23,0,0,0-.17,1.13v7.47h-3.29Z" transform="translate(0 -21.4)" style="fill:#14375a"/><path d="M347.94,25.71h3.28V32h0a2.92,2.92,0,0,1,2.56-1.45c2.35,0,3.46,2.7,3.46,6,0,4.31-1.71,6.67-4,6.67a2.55,2.55,0,0,1-2.41-1.65h-.07l-.18,1.45h-2.8c.05-1.08.1-2.48.1-3.63Zm3.28,13a2.07,2.07,0,0,0,.13.78c.27.88.72,1.13,1.12,1.13,1.11,0,1.56-1.38,1.56-3.74,0-2.13-.48-3.48-1.58-3.48-.5,0-.93.52-1.1,1.13a2.32,2.32,0,0,0-.13.75Z" transform="translate(0 -21.4)" style="fill:#14375a"/><path d="M361.42,30.8l1.21,6.39c.15.73.25,1.38.35,2.06h0c.1-.63.2-1.33.3-2l1-6.44h3.24l-2.51,9.48a16.25,16.25,0,0,1-2.73,6.24,6.2,6.2,0,0,1-2.79,1.93l-1-2.83a5.13,5.13,0,0,0,1.63-1,4.71,4.71,0,0,0,1-1.48,1.17,1.17,0,0,0,.17-.53,1.46,1.46,0,0,0-.1-.45L357.89,30.8Z" transform="translate(0 -21.4)" style="fill:#14375a"/><path d="M372.63,40.1a4.61,4.61,0,0,0,2.2.65c.86,0,1.33-.37,1.33-1.1s-.35-1-1.42-1.65c-2-1.13-2.49-2.41-2.49-3.54a3.79,3.79,0,0,1,4-3.88,5.47,5.47,0,0,1,2.48.57l-.58,2.41a3.33,3.33,0,0,0-1.7-.5c-.85,0-1.23.5-1.23,1s.28.85,1.43,1.53a4.16,4.16,0,0,1,2.48,3.71c0,2.51-1.8,3.86-4.34,3.86a5.21,5.21,0,0,1-2.78-.7Z" transform="translate(0 -21.4)" style="fill:#14375a"/><path d="M389.8,36.89c0,5.12-2.83,6.37-4.69,6.37-2.93,0-4.69-2.3-4.69-6.29,0-4.41,2.31-6.39,4.74-6.39C388.07,30.58,389.8,33,389.8,36.89Zm-6.12,0c0,2.11.33,3.86,1.51,3.86s1.35-2,1.35-3.86-.27-3.81-1.4-3.81S383.68,35.21,383.68,36.89Z" transform="translate(0 -21.4)" style="fill:#14375a"/><path d="M400.63,39.33c0,1.3.05,2.58.1,3.73H397.9l-.18-1.3h-.05a3.48,3.48,0,0,1-2.85,1.5c-2.34,0-3.26-1.73-3.26-5V30.8h3.28v7.07c0,1.61.33,2.63,1.23,2.63a1.17,1.17,0,0,0,1.08-.82,2.56,2.56,0,0,0,.2-1.06V30.8h3.28Z" transform="translate(0 -21.4)" style="fill:#14375a"/><path d="M403,34.49c0-1.21-.05-2.54-.1-3.69h2.83l.18,1.78h.1a2.85,2.85,0,0,1,2.4-2,2.37,2.37,0,0,1,.7.07v3.23c-.2,0-.42,0-.7,0a2.15,2.15,0,0,0-2,1.73,4,4,0,0,0-.15,1.23v6.24H403Z" transform="translate(0 -21.4)" style="fill:#14375a"/><path d="M417.05,42.86a5.8,5.8,0,0,1-2.08.35c-3.11,0-5.14-2.16-5.14-6.14,0-3.79,2.23-6.42,5.62-6.42a4.79,4.79,0,0,1,1.8.33l-.42,2.58a3.48,3.48,0,0,0-1.23-.23c-1.58,0-2.51,1.51-2.51,3.64s.93,3.56,2.46,3.56a2.82,2.82,0,0,0,1.23-.25Z" transform="translate(0 -21.4)" style="fill:#14375a"/><path d="M421.11,38.1a2.35,2.35,0,0,0,2.58,2.6,7.47,7.47,0,0,0,2.34-.4l.42,2.36a9.78,9.78,0,0,1-3.33.55c-3.36,0-5.19-2.21-5.19-6,0-4.14,2.15-6.59,4.91-6.59S427,32.66,427,36.39a11.47,11.47,0,0,1-.1,1.71ZM424,35.79c0-1.58-.4-2.81-1.38-2.81s-1.5,1.58-1.53,2.81Z" transform="translate(0 -21.4)" style="fill:#14375a"/><path d="M427.71,46.19a38.19,38.19,0,0,0,1.67-6.66l3.34-.25A35.8,35.8,0,0,1,429.81,46Z" transform="translate(0 -21.4)" style="fill:#14375a"/><path d="M437.91,43.06V40.85l1.6-2.08c2.11-2.68,3.84-4.91,3.84-7.24a2,2,0,0,0-2.08-2.23,4.53,4.53,0,0,0-2.44.82l-.6-2.53a7.09,7.09,0,0,1,3.64-1c3.56,0,4.71,2.39,4.71,4.72,0,3.06-1.9,5.51-3.78,7.69l-1,1.16v0h5v2.88Z" transform="translate(0 -21.4)" style="fill:#14375a"/><path d="M458.06,34.84c0,5.84-2.13,8.42-4.76,8.42-3.56,0-4.76-4.09-4.76-8.27,0-4.69,1.5-8.43,4.86-8.43C457.21,26.56,458.06,31,458.06,34.84Zm-6.21.07c-.05,3.81.42,5.54,1.53,5.54s1.37-1.8,1.37-5.54c0-3.51-.32-5.54-1.37-5.54S451.82,31.13,451.85,34.91Z" transform="translate(0 -21.4)" style="fill:#14375a"/><path d="M463.13,29.85h-.05l-2.76,1.43-.55-2.58,3.73-1.94h2.89v16.3h-3.26Z" transform="translate(0 -21.4)" style="fill:#14375a"/><path d="M471.17,40.53a6.74,6.74,0,0,0,1.48-.13,4,4,0,0,0,1.93-1,6.12,6.12,0,0,0,1.58-3.29h-.07a3,3,0,0,1-2.33,1c-2.11,0-3.84-1.88-3.84-4.86,0-2.81,1.7-5.72,4.84-5.72s4.64,2.76,4.64,6.7a11.18,11.18,0,0,1-2.69,7.87,6.93,6.93,0,0,1-4,2.06,10.91,10.91,0,0,1-1.51.07Zm2-8.53c0,1.58.53,2.89,1.53,2.89a1.45,1.45,0,0,0,1.26-.85,4.91,4.91,0,0,0,.15-1.73c0-2.16-.6-3.36-1.51-3.36S473.1,30,473.15,32Z" transform="translate(0 -21.4)" style="fill:#14375a"/></g><line x1="453.5" y1="139.5" x2="428.5" y2="139.5" style="fill:none;stroke:#14375a;stroke-miterlimit:10"/><line x1="246.5" y1="487.5" x2="279.5" y2="487.5" style="fill:none;stroke:#14375a;stroke-miterlimit:10"/><line x1="85.5" y1="241.5" x2="102.5" y2="241.5" style="fill:none;stroke:#14375a;stroke-miterlimit:10"/><line x1="144.5" y1="118.5" x2="170.5" y2="118.5" style="fill:none;stroke:#14375a;stroke-miterlimit:10"/><line x1="246.5" y1="68.5" x2="264.5" y2="68.5" style="fill:none;stroke:#14375a;stroke-miterlimit:10"/><rect x="421.4" y="509" width="138.6" height="45.6" style="fill:none"/><g id="EUflag"><polygon points="544.8 539.4 544.8 524.2 521.9 524.2 521.9 539.4 544.8 539.4" style="fill:#164193"/></g><polygon points="533.7 526.5 534.5 526.5 533.9 527 534.1 527.8 533.5 527.3 532.9 527.8 533.1 527 532.5 526.5 533.3 526.5 533.5 525.8 533.7 526.5" style="fill:#ffec00"/><polygon points="533.8 536.7 534.5 536.7 533.9 537.1 534.2 537.9 533.6 537.4 532.9 537.9 533.2 537.1 532.6 536.7 533.3 536.7 533.6 536 533.8 536.7" style="fill:#ffec00"/><polygon points="536.3 536 537 536 536.4 536.5 536.7 537.2 536.1 536.8 535.4 537.2 535.7 536.5 535.1 536 535.8 536 536.1 535.3 536.3 536" style="fill:#ffec00"/><polygon points="536.3 527.2 537 527.2 536.4 527.7 536.7 528.4 536.1 528 535.4 528.4 535.7 527.7 535.1 527.2 535.8 527.2 536.1 526.5 536.3 527.2" style="fill:#ffec00"/><polygon points="538.1 529.1 538.9 529.1 538.3 529.5 538.5 530.3 537.9 529.8 537.3 530.3 537.6 529.5 536.9 529.1 537.7 529.1 537.9 528.4 538.1 529.1" style="fill:#ffec00"/><polygon points="538.1 534.2 538.9 534.2 538.3 534.6 538.5 535.4 537.9 534.9 537.3 535.4 537.6 534.6 536.9 534.2 537.7 534.2 537.9 533.5 538.1 534.2" style="fill:#ffec00"/><polygon points="538.8 531.6 539.6 531.6 539 532 539.2 532.8 538.6 532.3 538 532.8 538.3 532 537.6 531.6 538.4 531.6 538.6 530.9 538.8 531.6" style="fill:#ffec00"/><polygon points="531.2 527.2 531.9 527.2 531.3 527.7 531.6 528.4 531 528 530.3 528.4 530.6 527.7 530 527.2 530.7 527.2 531 526.5 531.2 527.2" style="fill:#ffec00"/><polygon points="529.4 529.1 530.1 529.1 529.5 529.5 529.8 530.3 529.1 529.8 528.5 530.3 528.8 529.5 528.2 529.1 528.9 529.1 529.1 528.4 529.4 529.1" style="fill:#ffec00"/><polygon points="528.7 531.6 529.5 531.6 528.8 532.1 529.1 532.8 528.5 532.3 527.9 532.8 528.1 532.1 527.5 531.6 528.2 531.6 528.5 530.9 528.7 531.6" style="fill:#ffec00"/><polygon points="529.4 534.2 530.1 534.2 529.5 534.6 529.8 535.4 529.1 534.9 528.5 535.4 528.8 534.6 528.2 534.2 528.9 534.2 529.1 533.5 529.4 534.2" style="fill:#ffec00"/><polygon points="531.2 536 532 536 531.4 536.5 531.6 537.2 531 536.8 530.4 537.2 530.6 536.5 530 536 530.8 536 531 535.3 531.2 536" style="fill:#ffec00"/><path d="M434.6,557.8a2.82,2.82,0,0,0,2.1.7,3.1,3.1,0,0,0,1.7-.5,2,2,0,0,0,.9-1h2.8a5.79,5.79,0,0,1-2.1,3,6.16,6.16,0,0,1-3.4.9,6.57,6.57,0,0,1-2.5-.4,5,5,0,0,1-1.9-1.3,5.61,5.61,0,0,1-1.2-2,8,8,0,0,1,0-5,6.66,6.66,0,0,1,1.2-2,5,5,0,0,1,1.9-1.3,6.44,6.44,0,0,1,2.4-.5,5.26,5.26,0,0,1,2.6.6,4.64,4.64,0,0,1,1.8,1.6,6.25,6.25,0,0,1,1,2.2,7.44,7.44,0,0,1,.2,2.6h-8.5A3.85,3.85,0,0,0,434.6,557.8Zm3.6-6.1a2.44,2.44,0,0,0-1.8-.6,2.77,2.77,0,0,0-1.3.3,5.55,5.55,0,0,0-.8.6,3,3,0,0,0-.4.8,2.2,2.2,0,0,0-.1.8h5.3A3.74,3.74,0,0,0,438.2,551.7Zm80.5-2.9v2.6h-2.1v5.5c0,.5,0,.9.2,1.1a1.44,1.44,0,0,0,1.1.3h.4c.2,0,.4,0,.4-.1v2.5a5.38,5.38,0,0,1-.8.1H517a6.15,6.15,0,0,1-1.4-.1,5.64,5.64,0,0,1-1.2-.4,2.7,2.7,0,0,1-.7-.8,3,3,0,0,1-.2-1.4v-6.6h-2.1v-2.6h2.1v-3.2h3.2v3.2h2Zm-12.5,6.4c-.2.1-.4.1-.6.2s-.5.1-.7.1-.5.1-.8.1a1.85,1.85,0,0,0-.7.2l-.6.3a1,1,0,0,0-.4.5,1.33,1.33,0,0,0,0,1.4,1.76,1.76,0,0,0,.4.5,1.42,1.42,0,0,0,.6.2c.2,0,.5.1.7.1a3.34,3.34,0,0,0,1.5-.3,3,3,0,0,0,.8-.8,1.49,1.49,0,0,0,.2-.9V555c0,.1-.2.2-.4.2m-6.3-4.6a3.74,3.74,0,0,1,1.3-1.2,4.92,4.92,0,0,1,1.7-.6,12.25,12.25,0,0,1,1.9-.2,10.87,10.87,0,0,1,1.8.1,4.28,4.28,0,0,1,1.6.5,2.66,2.66,0,0,1,1.1,1,2.86,2.86,0,0,1,.4,1.7V558a7.72,7.72,0,0,0,.2,1.5,2.82,2.82,0,0,0,.4,1.1h-3.2a1.27,1.27,0,0,1-.1-.6c0-.2-.1-.4-.1-.6a4.18,4.18,0,0,1-1.8,1.1,7.61,7.61,0,0,1-2.1.3,7.77,7.77,0,0,1-1.6-.2,3.1,3.1,0,0,1-1.3-.6,2.26,2.26,0,0,1-.8-1.1,3.81,3.81,0,0,1-.3-1.6,2.54,2.54,0,0,1,.4-1.6,2.19,2.19,0,0,1,.9-1,5.17,5.17,0,0,1,1.3-.6l1.4-.3c.5-.1,1-.1,1.4-.2a3.73,3.73,0,0,0,1.2-.2,1.51,1.51,0,0,0,.8-.4,1,1,0,0,0,.3-.8,1.88,1.88,0,0,0-.2-.8,2.18,2.18,0,0,0-.4-.5,1.45,1.45,0,0,0-.7-.2c-.2,0-.5-.1-.8-.1a3.34,3.34,0,0,0-1.5.3,1.49,1.49,0,0,0-.6,1.3h-3.2a8.23,8.23,0,0,1,.6-1.6m-2.2-1.8v2.6h-2.6v5.5a1.26,1.26,0,0,0,1.5,1.4h.6c.2,0,.5,0,.5-.1v2.5c-.5,0-.6.1-1,.1h-1a6.15,6.15,0,0,1-1.4-.1,5.64,5.64,0,0,1-1.2-.4,3.45,3.45,0,0,1-.9-.8,2.89,2.89,0,0,1-.4-1.4v-6.6h-1.6v-2.6h1.6v-3.2H495v3.2h2.7Zm-16,8.9a1.87,1.87,0,0,0,.6.7,2,2,0,0,0,.8.4,2.77,2.77,0,0,0,.9.1,1.7,1.7,0,0,0,.7-.1,1.45,1.45,0,0,0,.7-.2,2.18,2.18,0,0,0,.5-.4,1.45,1.45,0,0,0,.2-.7c0-.5-.3-.8-1-1.1a16.83,16.83,0,0,0-2.7-.7,7.37,7.37,0,0,1-1.4-.4,3.38,3.38,0,0,1-1.2-.6,2.36,2.36,0,0,1-.8-.9,2.77,2.77,0,0,1-.3-1.3,3.21,3.21,0,0,1,.4-1.8,2.54,2.54,0,0,1,1.2-1.1,4.42,4.42,0,0,1,1.6-.6,8.2,8.2,0,0,1,3.6,0,4.42,4.42,0,0,1,1.6.6,4.56,4.56,0,0,1,1.2,1.2,4.07,4.07,0,0,1,.5,1.8h-3a1.86,1.86,0,0,0-.7-1.3,3.34,3.34,0,0,0-1.5-.3H483c-.2,0-.4.1-.6.1a1.38,1.38,0,0,0-.4.3.85.85,0,0,0-.2.6.91.91,0,0,0,.3.7,2,2,0,0,0,.8.4,10.38,10.38,0,0,0,1.2.3l1.3.3a7.37,7.37,0,0,1,1.4.4l1.2.6a6.47,6.47,0,0,1,.8.9,2.9,2.9,0,0,1,.3,1.4,3.56,3.56,0,0,1-.5,1.9,4.89,4.89,0,0,1-1.2,1.3,8.65,8.65,0,0,1-1.7.7,12.31,12.31,0,0,1-2,.2,13.55,13.55,0,0,1-2-.2,4.36,4.36,0,0,1-1.7-.7,3.33,3.33,0,0,1-1.2-1.4,3.58,3.58,0,0,1-.5-2.1h3.1a6.21,6.21,0,0,0,.3,1m-15.9-5.4a5.16,5.16,0,0,1,1.2-1.9,6.15,6.15,0,0,1,1.9-1.2,6.57,6.57,0,0,1,2.5-.4,6.9,6.9,0,0,1,2.5.4,5.1,5.1,0,0,1,3.1,3.1,7.1,7.1,0,0,1,.4,2.6,6.57,6.57,0,0,1-.4,2.5,5.16,5.16,0,0,1-1.2,1.9,6.15,6.15,0,0,1-1.9,1.2,6.57,6.57,0,0,1-2.5.4,6.9,6.9,0,0,1-2.5-.4,5.1,5.1,0,0,1-3.1-3.1,6.9,6.9,0,0,1-.4-2.5,5.49,5.49,0,0,1,.4-2.6m2.9,3.9a3.08,3.08,0,0,0,.5,1.2,1.76,1.76,0,0,0,.9.8,2.9,2.9,0,0,0,1.4.3,3.19,3.19,0,0,0,1.4-.3,2.36,2.36,0,0,0,.9-.8,4.2,4.2,0,0,0,.6-2.6,6.6,6.6,0,0,0-.1-1.4,3.08,3.08,0,0,0-.5-1.2,2.36,2.36,0,0,0-.9-.8,2.9,2.9,0,0,0-1.4-.3,3.19,3.19,0,0,0-1.4.3,2.36,2.36,0,0,0-.9.8,3.34,3.34,0,0,0-.5,1.2,6.6,6.6,0,0,0-.1,1.4,3.21,3.21,0,0,0,.1,1.4m-7.8-7.4v2.6h-.1a2.87,2.87,0,0,1,.6-1.1,6.47,6.47,0,0,1,.9-.8,3.7,3.7,0,0,1,1.1-.5,4.25,4.25,0,0,1,1.1-.2c.2,0,.6,0,.6.1v3a2,2,0,0,0-.5-.1H464a3.34,3.34,0,0,0-1.5.3,3.92,3.92,0,0,0-1,.8,3.34,3.34,0,0,0-.5,1.2,6.8,6.8,0,0,0-.2,1.5V561h-3.2V548.9h3.3ZM452,560.9v-1.6h0a4.39,4.39,0,0,1-1.6,1.4,4.48,4.48,0,0,1-2,.4,4.14,4.14,0,0,1-2.1-.4,2.68,2.68,0,0,1-1.3-1,3.48,3.48,0,0,1-.7-1.5,12.31,12.31,0,0,1-.2-2v-7.4h3.2v6.8a4.2,4.2,0,0,0,.5,2.2,1.75,1.75,0,0,0,1.6.7,2.14,2.14,0,0,0,1.9-.8,4.33,4.33,0,0,0,.6-2.6v-6.4h3.2v12.1H452Z" transform="translate(0 -21.4)" style="fill:#7c7b7b"/></g></svg>