<?xml version="1.0" encoding="utf-8"?>
<!-- Generator: Adobe Illustrator 25.2.3, SVG Export Plug-In . SVG Version: 6.00 Build 0)  -->
<svg version="1.1" id="Calque_1" xmlns="http://www.w3.org/2000/svg" xmlns:xlink="http://www.w3.org/1999/xlink" x="0px" y="0px"
	 viewBox="0 0 560 547" style="enable-background:new 0 0 560 547;" xml:space="preserve">
<style type="text/css">
	.st0{fill:#14375A;}
	.st1{fill:#FAA519;}
	.st2{fill:none;}
	.st3{fill:#164193;}
	.st4{fill:#FFEC00;}
	.st5{fill:#7C7B7B;}
	.st6{fill:none;stroke:#C6C6C6;stroke-width:0.5;stroke-miterlimit:10;}
</style>
<g id="Layer_4">
	<rect x="226.5" y="485.9" class="st0" width="10" height="10"/>
	<g>
		<path class="st0" d="M240.9,494.9v-0.7l0.8-0.8c2-1.9,2.9-2.9,2.9-4.1c0.1-0.8-0.5-1.4-1.2-1.5c-0.1,0-0.2,0-0.3,0
			c-0.6,0-1.2,0.3-1.6,0.7l-0.3-0.8c0.6-0.5,1.4-0.8,2.2-0.8c1.2-0.1,2.3,0.8,2.4,2c0,0.1,0,0.2,0,0.3c0,1.4-1,2.6-2.7,4.2l-0.6,0.6
			l0,0h3.5v0.9L240.9,494.9z"/>
		<path class="st0" d="M252.2,490.9c0,2.7-1,4.1-2.7,4.1c-1.5,0-2.6-1.4-2.6-4s1.1-4,2.7-4S252.2,488.4,252.2,490.9z M248,491
			c0,2,0.6,3.2,1.6,3.2s1.6-1.3,1.6-3.2s-0.5-3.2-1.6-3.2C248.6,487.8,248,488.9,248,491z"/>
		<path class="st0" d="M258.4,490.9c0,2.7-1,4.1-2.7,4.1c-1.5,0-2.6-1.4-2.6-4s1.1-4,2.7-4S258.4,488.4,258.4,490.9z M254.1,491
			c0,2,0.6,3.2,1.6,3.2c1,0,1.6-1.3,1.6-3.2s-0.5-3.2-1.6-3.2C254.8,487.8,254.1,488.9,254.1,491L254.1,491z"/>
		<path class="st0" d="M264.5,490.9c0,2.7-1,4.1-2.7,4.1c-1.5,0-2.6-1.4-2.6-4s1.1-4,2.7-4S264.5,488.4,264.5,490.9z M260.3,491
			c0,2,0.6,3.2,1.6,3.2s1.6-1.3,1.6-3.2s-0.5-3.2-1.6-3.2C261,487.8,260.3,488.9,260.3,491L260.3,491z"/>
	</g>
	<rect x="291" y="485.9" class="st1" width="10" height="10"/>
	<g>
		<path class="st1" d="M305.4,494.9v-0.7l0.8-0.8c2-1.9,2.9-2.9,2.9-4.1c0.1-0.8-0.5-1.4-1.2-1.5c-0.1,0-0.2,0-0.3,0
			c-0.6,0-1.2,0.3-1.7,0.7l-0.3-0.8c0.6-0.5,1.4-0.8,2.2-0.8c1.2-0.1,2.3,0.8,2.4,2c0,0.1,0,0.2,0,0.3c0,1.4-1,2.6-2.7,4.2l-0.6,0.6
			l0,0h3.5v0.9L305.4,494.9z"/>
		<path class="st1" d="M316.7,490.9c0,2.7-1,4.1-2.7,4.1c-1.5,0-2.6-1.4-2.6-4s1.1-4,2.7-4S316.7,488.4,316.7,490.9z M312.5,491
			c0,2,0.6,3.2,1.6,3.2s1.6-1.3,1.6-3.2s-0.5-3.2-1.6-3.2C313.1,487.8,312.5,488.9,312.5,491L312.5,491z"/>
		<path class="st1" d="M320,488.1L320,488.1l-1.4,0.7l-0.2-0.8l1.7-0.9h0.9v7.8h-1L320,488.1z"/>
		<path class="st1" d="M324.4,494.1c0.3,0,0.6,0,0.9,0c0.6-0.1,1.2-0.3,1.6-0.8c0.6-0.6,0.9-1.3,1-2.1l0,0c-0.5,0.5-1.1,0.9-1.9,0.8
			c-1.2,0-2.3-1-2.3-2.2c0-0.1,0-0.1,0-0.2c-0.1-1.5,1.1-2.7,2.6-2.8c0,0,0.1,0,0.1,0c1.6,0,2.6,1.3,2.6,3.3
			c0.1,1.3-0.4,2.7-1.3,3.6c-0.6,0.6-1.4,1-2.3,1.1c-0.3,0.1-0.7,0.1-1,0.1L324.4,494.1z M324.8,489.7c-0.1,0.8,0.5,1.6,1.3,1.7
			c0.1,0,0.1,0,0.2,0c0.6,0,1.2-0.3,1.5-0.8c0.1-0.1,0.1-0.3,0.1-0.4c0-1.3-0.5-2.3-1.6-2.3C325.5,487.8,324.8,488.6,324.8,489.7
			L324.8,489.7z"/>
	</g>
</g>
<g id="Layer_1">
	<rect class="st2" width="560" height="47.4"/>
	<g>
		<path class="st0" d="M166.6,14.2h-3.8v4.6h4.3v2.8h-7.6V4.8h7.4v2.9h-4.1v3.9h3.8L166.6,14.2z"/>
		<path class="st0" d="M169.1,13.1c0-1.3-0.1-2.5-0.1-3.7h2.8l0.2,1.4l0,0c0.7-1,1.8-1.6,3-1.6c2.3,0,3.3,1.9,3.3,4.6v7.9H175V14
			c0-1-0.2-2-1.2-2c-0.6,0-1.1,0.5-1.2,1.1c-0.1,0.4-0.2,0.7-0.2,1.1v7.5h-3.3L169.1,13.1z"/>
		<path class="st0" d="M183.4,16.7c-0.2,1.3,0.8,2.5,2.1,2.6c0.2,0,0.3,0,0.5,0c0.8,0,1.6-0.1,2.3-0.4l0.4,2.3
			c-1.1,0.4-2.2,0.6-3.3,0.5c-3.4,0-5.2-2.2-5.2-6c0-4.1,2.2-6.6,4.9-6.6s4.2,2.1,4.2,5.8c0,0.6,0,1.1-0.1,1.7L183.4,16.7z
			 M186.3,14.4c0-1.6-0.4-2.8-1.4-2.8s-1.5,1.6-1.5,2.8H186.3z"/>
		<path class="st0" d="M191.1,13.1c0-1.2-0.1-2.5-0.1-3.7h2.8l0.2,1.8h0.1c0.3-1.1,1.3-1.9,2.4-2c0.2,0,0.5,0,0.7,0.1v3.2
			c-0.2,0-0.5,0-0.7,0c-1,0.1-1.8,0.8-2,1.7c-0.1,0.4-0.2,0.8-0.1,1.2v6.2h-3.3L191.1,13.1z"/>
		<path class="st0" d="M207.3,20.3c0,2.6-0.5,4.1-1.5,5c-1.1,1-2.5,1.5-4,1.4c-1,0-2.1-0.2-3.1-0.6l0.6-2.5c0.7,0.4,1.5,0.5,2.3,0.5
			c1.7,0,2.3-1.1,2.3-3v-0.8h0c-0.5,0.8-1.3,1.3-2.2,1.2c-2.7,0-3.8-3-3.8-5.9c0-4.1,1.9-6.5,4.1-6.5c1,0,1.9,0.6,2.3,1.5l0,0
			l0.2-1.3h2.9c-0.1,1.1-0.1,2.4-0.1,3.9L207.3,20.3z M204,13.9c0-0.3,0-0.6-0.1-0.9c-0.1-0.5-0.5-1-1.1-1c-1.2,0-1.6,1.6-1.6,3.6
			c0,2.3,0.6,3.4,1.6,3.4c0.5,0,1-0.4,1.1-0.9c0.1-0.3,0.2-0.7,0.1-1V13.9z"/>
		<path class="st0" d="M212.1,9.4l1.2,6.4c0.1,0.7,0.2,1.4,0.4,2l0,0c0.1-0.6,0.2-1.3,0.3-2l1-6.5h3.2l-2.5,9.5
			c-0.4,2.2-1.3,4.4-2.6,6.2c-0.7,0.9-1.7,1.5-2.8,1.9l-1-2.8c0.6-0.2,1.2-0.6,1.6-1c0.4-0.4,0.8-0.9,1-1.5c0.1-0.2,0.2-0.3,0.2-0.5
			c0-0.2,0-0.3-0.1-0.5l-3.4-11.4L212.1,9.4z"/>
		<path class="st0" d="M232.3,4.3V18c0,1.2,0.1,2.5,0.1,3.6h-2.8l-0.2-1.4h-0.1c-0.5,0.9-1.5,1.5-2.5,1.6c-2.6,0-3.8-2.9-3.8-6.3
			c0-4.3,1.9-6.4,3.9-6.4c0.9,0,1.7,0.5,2,1.2h0.1V4.3H232.3z M229,14.1c0-0.2,0-0.5-0.1-0.7c-0.1-0.8-0.5-1.4-1.1-1.4
			c-1.1,0-1.6,1.7-1.6,3.7c0,2.3,0.6,3.6,1.5,3.6c0.4,0,0.9-0.2,1.1-1.1c0.1-0.2,0.1-0.5,0.1-0.8V14.1z"/>
		<path class="st0" d="M237.3,16.7c-0.2,1.3,0.8,2.5,2.1,2.6c0.2,0,0.3,0,0.5,0c0.8,0,1.6-0.1,2.3-0.4l0.4,2.3
			c-1.1,0.4-2.2,0.6-3.3,0.5c-3.4,0-5.2-2.2-5.2-6c0-4.1,2.1-6.6,4.9-6.6s4.2,2.1,4.2,5.8c0,0.6,0,1.1-0.1,1.7L237.3,16.7z
			 M240.2,14.4c0-1.6-0.4-2.8-1.4-2.8s-1.5,1.6-1.5,2.8H240.2z"/>
		<path class="st0" d="M245,13.3c0-1.5,0-2.7-0.1-3.9h2.9l0.2,1.4l0,0c0.5-1,1.5-1.6,2.6-1.6c2.7,0,3.8,2.9,3.8,6.3
			c0,4.4-1.9,6.3-4,6.3c-0.8,0-1.6-0.5-2-1.2l0,0v5.8H245V13.3z M248.3,17.2c0,0.3,0,0.7,0.2,1c0.2,0.8,0.7,1,1.1,1
			c1.2,0,1.6-1.7,1.6-3.6c0-2.3-0.6-3.6-1.6-3.6c-0.5,0.1-1,0.5-1.1,1c-0.1,0.3-0.2,0.6-0.1,0.9V17.2z"/>
		<path class="st0" d="M259,16.7c-0.2,1.3,0.8,2.5,2.1,2.6c0.2,0,0.3,0,0.5,0c0.8,0,1.6-0.1,2.3-0.4l0.4,2.3
			c-1.1,0.4-2.2,0.6-3.3,0.5c-3.4,0-5.2-2.2-5.2-6c0-4.1,2.1-6.6,4.9-6.6s4.2,2.1,4.2,5.8c0,0.6,0,1.1-0.1,1.7L259,16.7z
			 M261.9,14.4c0-1.6-0.4-2.8-1.4-2.8s-1.5,1.6-1.5,2.8H261.9z"/>
		<path class="st0" d="M266.8,13.1c0-1.3,0-2.5-0.1-3.7h2.8l0.2,1.4h0c0.7-1,1.8-1.6,3-1.6c2.3,0,3.3,1.9,3.3,4.6v7.9h-3.3V14
			c0-1-0.2-2-1.2-2c-0.5,0-1,0.4-1.2,1.1c-0.1,0.4-0.2,0.7-0.2,1.1v7.5h-3.3L266.8,13.1z"/>
		<path class="st0" d="M287.2,4.3V18c0,1.2,0,2.5,0.1,3.6h-2.8l-0.2-1.4h-0.1c-0.5,0.9-1.5,1.5-2.5,1.6c-2.6,0-3.8-2.9-3.8-6.3
			c0-4.3,1.9-6.4,3.9-6.4c0.9-0.1,1.7,0.4,2,1.2h0V4.3H287.2z M283.9,14.1c0-0.2,0-0.5,0-0.7c-0.1-0.8-0.5-1.4-1.1-1.4
			c-1.1,0-1.6,1.7-1.6,3.7c0,2.3,0.6,3.6,1.5,3.6c0.4,0,0.9-0.2,1.1-1.1c0.1-0.2,0.1-0.5,0.1-0.8L283.9,14.1z"/>
		<path class="st0" d="M292.2,16.7c-0.2,1.3,0.8,2.5,2.1,2.6c0.2,0,0.3,0,0.5,0c0.8,0,1.6-0.1,2.3-0.4l0.4,2.3
			c-1.1,0.4-2.2,0.6-3.3,0.5c-3.4,0-5.2-2.2-5.2-6c0-4.1,2.1-6.6,4.9-6.6s4.2,2.1,4.2,5.8c0,0.6,0,1.1-0.1,1.7L292.2,16.7z
			 M295.1,14.4c0-1.6-0.4-2.8-1.4-2.8s-1.5,1.6-1.5,2.8H295.1z"/>
		<path class="st0" d="M300,13.1c0-1.3,0-2.5-0.1-3.7h2.8l0.2,1.4l0,0c0.7-1,1.8-1.6,3-1.6c2.3,0,3.3,1.9,3.3,4.6v7.9h-3.3V14
			c0-1-0.2-2-1.2-2c-0.6,0-1,0.4-1.2,1.1c-0.1,0.4-0.2,0.7-0.2,1.1v7.5H300V13.1z"/>
		<path class="st0" d="M318.2,21.5c-0.7,0.2-1.4,0.4-2.1,0.3c-3.1,0-5.1-2.2-5.1-6.1c0-3.8,2.2-6.4,5.6-6.4c0.6,0,1.2,0.1,1.8,0.3
			l-0.4,2.6c-0.4-0.1-0.8-0.2-1.2-0.2c-1.6,0-2.5,1.5-2.5,3.6s0.9,3.6,2.5,3.6c0.4,0,0.8-0.1,1.2-0.2L318.2,21.5z"/>
		<path class="st0" d="M322.7,9.4l1.2,6.4c0.1,0.7,0.2,1.4,0.4,2h0c0.1-0.6,0.2-1.3,0.3-2l1-6.5h3.2l-2.5,9.5
			c-0.5,2.3-1.4,4.4-2.7,6.2c-0.7,0.9-1.7,1.5-2.8,1.9l-1-2.8c0.6-0.2,1.2-0.6,1.6-1c0.4-0.4,0.8-0.9,1-1.5c0.1-0.2,0.2-0.3,0.2-0.5
			c0-0.2,0-0.3-0.1-0.5l-3.4-11.4L322.7,9.4z"/>
		<path class="st0" d="M334,13.1c0-1.2,0-2.5-0.1-3.7h2.8l0.2,1.8h0.1c0.3-1.1,1.3-1.9,2.4-2c0.2,0,0.5,0,0.7,0.1v3.2
			c-0.2,0-0.5,0-0.7,0c-1,0.1-1.8,0.8-2,1.7c-0.1,0.4-0.2,0.8-0.1,1.2v6.2H334V13.1z"/>
		<path class="st0" d="M349.6,18.8c0,0.9,0.1,1.9,0.2,2.8h-2.9l-0.2-1.2h-0.1c-0.6,0.9-1.6,1.4-2.7,1.4c-1.9,0-3.2-1.5-3.2-3.7
			c0-3.2,2.8-4.5,5.6-4.6v-0.3c0.1-0.9-0.5-1.6-1.4-1.7c-0.1,0-0.2,0-0.3,0c-0.9,0-1.8,0.2-2.5,0.7l-0.6-2.2
			c1.2-0.6,2.5-0.9,3.8-0.9c3.7,0,4.3,2.6,4.3,5.1L349.6,18.8z M346.4,15.7c-1.1,0-2.6,0.4-2.6,2.1c0,1.2,0.7,1.7,1.2,1.7
			c0.6,0,1.2-0.4,1.4-1c0.1-0.2,0.1-0.4,0.1-0.6V15.7z"/>
		<path class="st0" d="M355.6,6.2v3.2h2.4v2.3h-2.4v5.6c0,1.4,0.6,1.8,1.2,1.8c0.3,0,0.6,0,0.9-0.1v2.6c-0.7,0.2-1.3,0.2-2,0.2
			c-0.9,0.1-1.7-0.2-2.4-0.8c-0.6-0.7-1-1.6-1-3.5v-5.8h-1.5V9.4h1.5V7.2L355.6,6.2z"/>
		<path class="st0" d="M362.1,16.7c-0.1,1.3,0.8,2.5,2.1,2.6c0.2,0,0.3,0,0.5,0c0.8,0,1.6-0.1,2.3-0.4l0.4,2.3
			c-1.1,0.4-2.2,0.6-3.3,0.5c-3.4,0-5.2-2.2-5.2-6c0-4.1,2.1-6.6,4.9-6.6s4.2,2,4.2,5.8c0,0.6,0,1.1-0.1,1.7L362.1,16.7z M365,14.4
			c0-1.6-0.4-2.8-1.4-2.8s-1.5,1.6-1.5,2.8H365z"/>
		<path class="st0" d="M378.7,4.3c-1.9,3.1-2.8,6.6-2.6,10.2c-0.1,3.6,0.8,7.1,2.6,10.1h-2.4c-2-3-3-6.5-2.9-10.2
			c0.1-4.9,1.5-8.3,2.9-10.2H378.7z"/>
		<path class="st0" d="M386.1,10.1c0,3.5-1.6,5-3.2,5c-2.3,0-3.3-2.5-3.3-4.9c0-2.6,1.2-5,3.3-5C385.4,5.2,386.1,7.8,386.1,10.1z
			 M381.8,10.1c0,2.1,0.3,3.3,1.1,3.3s1-1.2,1-3.2s-0.2-3.3-1-3.3S381.8,8.1,381.8,10.1L381.8,10.1z M382.1,21.9l8.8-16.8h1.7
			l-8.8,16.8H382.1z M395.1,16.8c0,3.5-1.6,5-3.2,5c-2.3,0-3.3-2.5-3.3-4.9c0-2.6,1.2-5,3.3-5C394.4,11.8,395.2,14.5,395.1,16.8
			L395.1,16.8z M390.8,16.8c0,2.1,0.3,3.3,1.1,3.3s1-1.2,1-3.2s-0.2-3.3-1-3.3S390.9,14.8,390.8,16.8L390.8,16.8z"/>
		<path class="st0" d="M396,24.7c1.8-3.1,2.8-6.6,2.7-10.2c0.1-3.6-0.8-7.1-2.7-10.1h2.4c1.4,1.8,2.9,5.2,2.9,10.1
			s-1.5,8.3-2.9,10.2H396z"/>
	</g>
	<rect x="421.4" y="501.4" class="st2" width="138.6" height="45.6"/>
	<g id="EUflag">
		<polygon class="st3" points="544.8,531.8 544.8,516.6 521.9,516.6 521.9,531.8 		"/>
	</g>
	<polygon class="st4" points="533.7,518.9 534.5,518.9 533.9,519.4 534.1,520.2 533.5,519.7 532.9,520.2 533.1,519.4 532.5,518.9 
		533.3,518.9 533.5,518.2 	"/>
	<polygon class="st4" points="533.8,529.1 534.5,529.1 533.9,529.5 534.2,530.3 533.6,529.8 532.9,530.3 533.2,529.5 532.6,529.1 
		533.3,529.1 533.6,528.4 	"/>
	<polygon class="st4" points="536.3,528.4 537,528.4 536.4,528.9 536.7,529.6 536.1,529.2 535.4,529.6 535.7,528.9 535.1,528.4 
		535.8,528.4 536.1,527.7 	"/>
	<polygon class="st4" points="536.3,519.6 537,519.6 536.4,520.1 536.7,520.8 536.1,520.4 535.4,520.8 535.7,520.1 535.1,519.6 
		535.8,519.6 536.1,518.9 	"/>
	<polygon class="st4" points="538.1,521.5 538.9,521.5 538.3,521.9 538.5,522.7 537.9,522.2 537.3,522.7 537.6,521.9 536.9,521.5 
		537.7,521.5 537.9,520.8 	"/>
	<polygon class="st4" points="538.1,526.6 538.9,526.6 538.3,527 538.5,527.8 537.9,527.3 537.3,527.8 537.6,527 536.9,526.6 
		537.7,526.6 537.9,525.9 	"/>
	<polygon class="st4" points="538.8,524 539.6,524 539,524.4 539.2,525.2 538.6,524.7 538,525.2 538.3,524.4 537.6,524 538.4,524 
		538.6,523.3 	"/>
	<polygon class="st4" points="531.2,519.6 531.9,519.6 531.3,520.1 531.6,520.8 531,520.4 530.3,520.8 530.6,520.1 530,519.6 
		530.7,519.6 531,518.9 	"/>
	<polygon class="st4" points="529.4,521.5 530.1,521.5 529.5,521.9 529.8,522.7 529.1,522.2 528.5,522.7 528.8,521.9 528.2,521.5 
		528.9,521.5 529.1,520.8 	"/>
	<polygon class="st4" points="528.7,524 529.5,524 528.8,524.5 529.1,525.2 528.5,524.7 527.9,525.2 528.1,524.5 527.5,524 
		528.2,524 528.5,523.3 	"/>
	<polygon class="st4" points="529.4,526.6 530.1,526.6 529.5,527 529.8,527.8 529.1,527.3 528.5,527.8 528.8,527 528.2,526.6 
		528.9,526.6 529.1,525.9 	"/>
	<polygon class="st4" points="531.2,528.4 532,528.4 531.4,528.9 531.6,529.6 531,529.2 530.4,529.6 530.6,528.9 530,528.4 
		530.8,528.4 531,527.7 	"/>
	<path class="st5" d="M434.6,528.8c0.6,0.5,1.3,0.8,2.1,0.7c0.6,0,1.2-0.2,1.7-0.5c0.4-0.2,0.7-0.6,0.9-1h2.8
		c-0.4,1.2-1.1,2.3-2.1,3c-1,0.6-2.2,0.9-3.4,0.9c-0.9,0-1.7-0.1-2.5-0.4c-0.7-0.3-1.4-0.7-1.9-1.3c-0.5-0.6-0.9-1.3-1.2-2
		c-0.5-1.6-0.5-3.4,0-5c0.3-0.7,0.7-1.4,1.2-2c0.5-0.6,1.2-1,1.9-1.3c0.8-0.3,1.6-0.5,2.4-0.5c0.9,0,1.8,0.2,2.6,0.6
		c0.7,0.4,1.4,0.9,1.8,1.6c0.5,0.7,0.8,1.4,1,2.2c0.2,0.8,0.3,1.7,0.2,2.6h-8.5C433.6,527.3,434,528.1,434.6,528.8z M438.2,522.7
		c-0.5-0.4-1.1-0.7-1.8-0.6c-0.5,0-0.9,0.1-1.3,0.3c-0.3,0.2-0.6,0.4-0.8,0.6c-0.2,0.2-0.3,0.5-0.4,0.8c-0.1,0.3-0.1,0.5-0.1,0.8
		h5.3C439,523.9,438.7,523.2,438.2,522.7z M518.7,519.8v2.6h-2.1v5.5c0,0.5,0,0.9,0.2,1.1c0.3,0.2,0.7,0.4,1.1,0.3h0.4
		c0.2,0,0.4,0,0.4-0.1v2.5c-0.3,0.1-0.5,0.1-0.8,0.1H517c-0.5,0-0.9,0-1.4-0.1c-0.4-0.1-0.8-0.2-1.2-0.4c-0.3-0.2-0.5-0.5-0.7-0.8
		c-0.2-0.4-0.2-0.9-0.2-1.4v-6.6h-2.1v-2.6h2.1v-3.2h3.2v3.2L518.7,519.8L518.7,519.8z M506.2,526.2c-0.2,0.1-0.4,0.1-0.6,0.2
		s-0.5,0.1-0.7,0.1s-0.5,0.1-0.8,0.1c-0.2,0-0.5,0.1-0.7,0.2l-0.6,0.3c-0.2,0.1-0.3,0.3-0.4,0.5c-0.3,0.4-0.3,1,0,1.4
		c0.1,0.2,0.2,0.4,0.4,0.5c0.2,0.1,0.4,0.2,0.6,0.2c0.2,0,0.5,0.1,0.7,0.1c0.5,0,1-0.1,1.5-0.3c0.3-0.2,0.6-0.5,0.8-0.8
		c0.2-0.3,0.2-0.6,0.2-0.9V526C506.6,526.1,506.4,526.2,506.2,526.2 M499.9,521.6c0.3-0.5,0.8-0.9,1.3-1.2c0.5-0.3,1.1-0.5,1.7-0.6
		c0.6-0.1,1.3-0.2,1.9-0.2c0.6,0,1.2,0,1.8,0.1c0.6,0.1,1.1,0.2,1.6,0.5c0.5,0.2,0.8,0.6,1.1,1c0.3,0.5,0.4,1.1,0.4,1.7v6.1
		c0,0.5,0.1,1,0.2,1.5c0.1,0.4,0.2,0.8,0.4,1.1h-3.2c-0.1-0.2-0.1-0.4-0.1-0.6c0-0.2-0.1-0.4-0.1-0.6c-0.5,0.5-1.1,0.9-1.8,1.1
		c-0.7,0.2-1.4,0.3-2.1,0.3c-0.5,0-1.1-0.1-1.6-0.2c-0.5-0.1-0.9-0.3-1.3-0.6c-0.4-0.3-0.7-0.7-0.8-1.1c-0.2-0.5-0.3-1.1-0.3-1.6
		c0-0.6,0.1-1.1,0.4-1.6c0.2-0.4,0.5-0.8,0.9-1c0.4-0.3,0.8-0.5,1.3-0.6l1.4-0.3c0.5-0.1,1-0.1,1.4-0.2c0.4,0,0.8-0.1,1.2-0.2
		c0.3,0,0.6-0.2,0.8-0.4c0.2-0.2,0.3-0.5,0.3-0.8c0-0.3-0.1-0.6-0.2-0.8c-0.1-0.2-0.2-0.4-0.4-0.5c-0.2-0.1-0.5-0.2-0.7-0.2
		c-0.2,0-0.5-0.1-0.8-0.1c-0.5,0-1,0.1-1.5,0.3c-0.4,0.3-0.6,0.8-0.6,1.3h-3.2C499.4,522.6,499.6,522.1,499.9,521.6 M497.7,519.8
		v2.6h-2.6v5.5c-0.1,0.7,0.4,1.3,1.1,1.4c0.1,0,0.3,0,0.4,0h0.6c0.2,0,0.5,0,0.5-0.1v2.5c-0.5,0-0.6,0.1-1,0.1h-1
		c-0.5,0-0.9,0-1.4-0.1c-0.4-0.1-0.8-0.2-1.2-0.4c-0.3-0.2-0.6-0.5-0.9-0.8c-0.3-0.4-0.4-0.9-0.4-1.4v-6.6h-1.6v-2.6h1.6v-3.2h3.2
		v3.2h2.7L497.7,519.8z M481.7,528.7c0.1,0.3,0.3,0.5,0.6,0.7c0.2,0.2,0.5,0.3,0.8,0.4c0.3,0.1,0.6,0.1,0.9,0.1c0.2,0,0.5,0,0.7-0.1
		c0.2,0,0.5-0.1,0.7-0.2c0.2-0.1,0.4-0.2,0.5-0.4c0.1-0.2,0.2-0.5,0.2-0.7c0-0.5-0.3-0.8-1-1.1c-0.9-0.3-1.8-0.5-2.7-0.7
		c-0.5-0.1-0.9-0.2-1.4-0.4c-0.4-0.1-0.8-0.3-1.2-0.6c-0.3-0.2-0.6-0.5-0.8-0.9c-0.2-0.4-0.3-0.8-0.3-1.3c0-0.6,0.1-1.3,0.4-1.8
		c0.3-0.5,0.7-0.9,1.2-1.1c0.5-0.3,1-0.5,1.6-0.6c1.2-0.3,2.4-0.3,3.6,0c0.6,0.1,1.1,0.3,1.6,0.6c0.5,0.3,0.9,0.7,1.2,1.2
		c0.3,0.6,0.5,1.2,0.5,1.8h-3c0-0.5-0.3-1-0.7-1.3c-0.5-0.2-1-0.3-1.5-0.3H483c-0.2,0-0.4,0.1-0.6,0.1c-0.2,0.1-0.3,0.2-0.4,0.3
		c-0.1,0.2-0.2,0.4-0.2,0.6c0,0.3,0.1,0.5,0.3,0.7c0.2,0.2,0.5,0.3,0.8,0.4c0.4,0.1,0.8,0.2,1.2,0.3l1.3,0.3
		c0.5,0.1,0.9,0.2,1.4,0.4l1.2,0.6c0.3,0.3,0.6,0.6,0.8,0.9c0.2,0.4,0.3,0.9,0.3,1.4c0,0.7-0.2,1.3-0.5,1.9
		c-0.3,0.5-0.7,0.9-1.2,1.3c-0.5,0.3-1.1,0.5-1.7,0.7c-0.7,0.1-1.3,0.2-2,0.2c-0.7,0-1.3-0.1-2-0.2c-0.6-0.1-1.2-0.3-1.7-0.7
		c-0.5-0.3-0.9-0.8-1.2-1.4c-0.4-0.6-0.6-1.4-0.5-2.1h3.1C481.5,528,481.6,528.4,481.7,528.7 M465.8,523.3c0.3-0.7,0.7-1.4,1.2-1.9
		c0.6-0.5,1.2-0.9,1.9-1.2c0.8-0.3,1.6-0.4,2.5-0.4c0.9,0,1.7,0.1,2.5,0.4c1.4,0.5,2.6,1.7,3.1,3.1c0.3,0.8,0.4,1.7,0.4,2.6
		c0,0.9-0.1,1.7-0.4,2.5c-0.3,0.7-0.7,1.4-1.2,1.9c-0.6,0.5-1.2,0.9-1.9,1.2c-0.8,0.3-1.6,0.4-2.5,0.4c-0.9,0-1.7-0.1-2.5-0.4
		c-1.4-0.5-2.6-1.7-3.1-3.1c-0.3-0.8-0.4-1.6-0.4-2.5C465.3,525,465.5,524.1,465.8,523.3 M468.7,527.2c0.1,0.4,0.2,0.8,0.5,1.2
		c0.2,0.4,0.5,0.6,0.9,0.8c0.4,0.2,0.9,0.3,1.4,0.3c0.5,0,1-0.1,1.4-0.3c0.4-0.2,0.7-0.5,0.9-0.8c0.5-0.8,0.7-1.7,0.6-2.6
		c0-0.5,0-0.9-0.1-1.4c-0.1-0.4-0.2-0.8-0.5-1.2c-0.2-0.3-0.5-0.6-0.9-0.8c-0.4-0.2-0.9-0.3-1.4-0.3c-0.5,0-1,0.1-1.4,0.3
		c-0.4,0.2-0.7,0.5-0.9,0.8c-0.2,0.4-0.4,0.8-0.5,1.2c-0.1,0.5-0.1,0.9-0.1,1.4C468.5,526.3,468.6,526.7,468.7,527.2 M460.9,519.8
		v2.6h-0.1c0.1-0.4,0.3-0.8,0.6-1.1c0.3-0.3,0.6-0.6,0.9-0.8c0.3-0.2,0.7-0.4,1.1-0.5c0.4-0.1,0.7-0.2,1.1-0.2c0.2,0,0.6,0,0.6,0.1
		v3c-0.2-0.1-0.3-0.1-0.5-0.1H464c-0.5,0-1,0.1-1.5,0.3c-0.4,0.2-0.7,0.5-1,0.8c-0.2,0.4-0.4,0.8-0.5,1.2c-0.1,0.5-0.2,1-0.2,1.5
		v5.4h-3.2v-12.1L460.9,519.8L460.9,519.8z M452,531.9v-1.6l0,0c-0.4,0.6-1,1.1-1.6,1.4c-0.6,0.3-1.3,0.4-2,0.4
		c-0.7,0.1-1.4-0.1-2.1-0.4c-0.5-0.2-1-0.5-1.3-1c-0.4-0.4-0.6-1-0.7-1.5c-0.1-0.7-0.2-1.3-0.2-2v-7.4h3.2v6.8
		c0,0.8,0.1,1.5,0.5,2.2c0.4,0.5,1,0.8,1.6,0.7c0.7,0.1,1.4-0.2,1.9-0.8c0.5-0.8,0.7-1.7,0.6-2.6v-6.4h3.2v12.1L452,531.9L452,531.9
		z"/>
</g>
<g id="Layer_8">
	<g>
		<path class="st0" d="M33.3,383.5v0.9H30v-0.9H33.3z"/>
		<path class="st0" d="M38,387.6v-2.4h-4.1v-0.8l3.9-5.6h1.3v5.5h1.2v0.9h-1.2v2.4H38z M38,384.3v-3c0-0.5,0-0.9,0-1.4l0,0
			c-0.3,0.5-0.5,0.9-0.7,1.3l-2.1,3l0,0L38,384.3z"/>
		<path class="st0" d="M47.1,383.1c0,3-1.1,4.7-3,4.7c-1.7,0-2.9-1.6-2.9-4.5s1.3-4.6,3-4.6S47.1,380.3,47.1,383.1z M42.3,383.3
			c0,2.3,0.7,3.6,1.8,3.6s1.8-1.4,1.8-3.7s-0.5-3.6-1.8-3.6C43.1,379.6,42.3,380.9,42.3,383.3z"/>
	</g>
	<g>
		<path class="st0" d="M33.3,337.7v0.9H30v-0.9H33.3z"/>
		<path class="st0" d="M34.3,341.8v-0.7l0.9-0.9c2.2-2.1,3.3-3.3,3.3-4.6c0.1-0.9-0.5-1.6-1.4-1.7c-0.1,0-0.2,0-0.4,0
			c-0.7,0-1.3,0.3-1.8,0.8l-0.4-0.8c0.7-0.6,1.6-0.9,2.5-0.9c1.4-0.1,2.6,0.9,2.7,2.2c0,0.1,0,0.2,0,0.3c0,1.6-1.2,3-3,4.8l-0.7,0.6
			l0,0h3.9v1L34.3,341.8z"/>
		<path class="st0" d="M47.1,337.3c0,3-1.1,4.7-3,4.7c-1.7,0-2.9-1.6-2.9-4.5s1.3-4.6,3-4.6S47.1,334.5,47.1,337.3z M42.3,337.5
			c0,2.3,0.7,3.6,1.8,3.6s1.8-1.4,1.8-3.7s-0.5-3.6-1.8-3.6C43.1,333.8,42.3,335,42.3,337.5z"/>
	</g>
	<g>
		<path class="st0" d="M48.3,291.5c0,3-1.1,4.7-3,4.7c-1.7,0-2.9-1.6-2.9-4.5s1.2-4.6,3-4.6S48.3,288.7,48.3,291.5z M43.6,291.6
			c0,2.3,0.7,3.6,1.8,3.6s1.8-1.4,1.8-3.7s-0.5-3.6-1.8-3.6C44.3,288,43.6,289.2,43.6,291.6z"/>
	</g>
	<g>
		<path class="st0" d="M34.5,250.2v-0.7l0.9-0.9c2.2-2.1,3.3-3.3,3.3-4.6c0.1-0.9-0.5-1.6-1.4-1.7c-0.1,0-0.2,0-0.3,0
			c-0.7,0-1.3,0.3-1.9,0.8l-0.4-0.9c0.7-0.6,1.6-0.9,2.5-0.9c1.4-0.1,2.6,0.9,2.7,2.2c0,0.1,0,0.2,0,0.3c0,1.6-1.2,3-3,4.7l-0.7,0.7
			l0,0H40v1L34.5,250.2z"/>
		<path class="st0" d="M47.2,245.7c0,3-1.1,4.7-3,4.7c-1.7,0-2.9-1.6-2.9-4.5s1.3-4.6,3-4.6S47.2,242.9,47.2,245.7z M42.4,245.8
			c0,2.3,0.7,3.6,1.8,3.6s1.8-1.4,1.8-3.7s-0.5-3.6-1.8-3.6C43.2,242.1,42.4,243.4,42.4,245.8L42.4,245.8z"/>
	</g>
	<g>
		<path class="st0" d="M38.1,204.4V202H34v-0.8l3.9-5.6h1.3v5.5h1.2v0.9h-1.2v2.4L38.1,204.4z M38.1,201.1v-2.9c0-0.5,0-0.9,0-1.4
			l0,0c-0.3,0.5-0.5,0.9-0.7,1.3l-2.1,3l0,0L38.1,201.1z"/>
		<path class="st0" d="M47.2,199.9c0,3-1.1,4.7-3,4.7c-1.7,0-2.9-1.6-2.9-4.5s1.3-4.6,3-4.6S47.2,197.1,47.2,199.9z M42.4,200
			c0,2.3,0.7,3.6,1.8,3.6s1.8-1.4,1.8-3.6s-0.5-3.6-1.8-3.6C43.2,196.4,42.4,197.6,42.4,200L42.4,200z"/>
	</g>
	<g>
		<path class="st0" d="M39.5,150.6c-0.3,0-0.6,0-0.9,0.1c-1.6,0.2-2.8,1.5-3,3.1l0,0c0.9-1.2,2.6-1.4,3.7-0.5c0.7,0.5,1.1,1.4,1,2.3
			c0.1,1.7-1.2,3.1-2.9,3.1c0,0,0,0-0.1,0c-1.9,0-3.1-1.5-3.1-3.8c-0.1-1.5,0.5-2.9,1.5-4c0.8-0.7,1.7-1.2,2.8-1.3
			c0.3,0,0.6-0.1,0.9-0.1L39.5,150.6z M39.1,155.7c0.1-1-0.6-1.9-1.6-2c-0.1,0-0.2,0-0.2,0c-0.7,0-1.4,0.4-1.7,1.1
			c-0.1,0.2-0.1,0.3-0.1,0.5c0,1.5,0.7,2.6,1.9,2.6C38.4,157.8,39.1,157,39.1,155.7z"/>
		<path class="st0" d="M47.2,154.1c0,3-1.1,4.7-3,4.7c-1.7,0-2.9-1.6-2.9-4.5s1.3-4.6,3-4.6S47.2,151.3,47.2,154.1z M42.4,154.2
			c0,2.3,0.7,3.6,1.8,3.6s1.8-1.4,1.8-3.7s-0.5-3.6-1.8-3.6C43.2,150.5,42.4,151.8,42.4,154.2z"/>
	</g>
	<g>
		<path class="st0" d="M36.1,108.1c-0.8-0.3-1.4-1.1-1.4-2c0.1-1.4,1.2-2.4,2.6-2.4c0.1,0,0.1,0,0.2,0c1.2-0.2,2.4,0.7,2.5,2
			c0,0.1,0,0.2,0,0.2c0,0.9-0.6,1.7-1.5,2.1l0,0c1,0.3,1.7,1.2,1.8,2.3c-0.1,1.5-1.3,2.6-2.8,2.6c-0.1,0-0.1,0-0.2,0
			c-1.8,0-2.9-1.1-2.9-2.4C34.3,109.5,35,108.5,36.1,108.1L36.1,108.1z M39.1,110.5c0-1.1-0.7-1.6-1.9-1.9c-0.9,0.2-1.5,0.9-1.6,1.8
			c0,0.9,0.7,1.6,1.6,1.7c0.1,0,0.1,0,0.2,0c0.9,0.1,1.7-0.6,1.7-1.4C39.1,110.6,39.1,110.5,39.1,110.5L39.1,110.5z M35.8,106.1
			c0,0.9,0.7,1.4,1.7,1.6c0.8-0.2,1.3-0.8,1.3-1.6c0-0.8-0.5-1.4-1.3-1.4c-0.1,0-0.1,0-0.2,0c-0.8-0.1-1.5,0.5-1.5,1.3
			C35.8,106,35.8,106,35.8,106.1L35.8,106.1z"/>
		<path class="st0" d="M47.2,108.3c0,3-1.1,4.7-3,4.7c-1.7,0-2.9-1.6-2.9-4.5s1.3-4.6,3-4.6S47.2,105.5,47.2,108.3z M42.4,108.4
			c0,2.3,0.7,3.6,1.8,3.6s1.8-1.4,1.8-3.7s-0.5-3.6-1.8-3.6C43.2,104.7,42.4,106,42.4,108.4z"/>
	</g>
	<g>
		<path class="st0" d="M29.5,59.3L29.5,59.3L28,60.1l-0.2-0.9l1.9-1h1V67h-1.1V59.3z"/>
		<path class="st0" d="M39.7,62.5c0,3-1.1,4.7-3,4.7c-1.7,0-2.9-1.6-2.9-4.5s1.2-4.6,3-4.6S39.7,59.7,39.7,62.5z M35,62.6
			c0,2.3,0.7,3.6,1.8,3.6s1.8-1.4,1.8-3.7s-0.5-3.6-1.8-3.6C35.7,58.9,35,60.2,35,62.6z"/>
		<path class="st0" d="M46.6,62.5c0,3-1.1,4.7-3,4.7c-1.7,0-2.9-1.6-2.9-4.5s1.2-4.6,3-4.6S46.6,59.7,46.6,62.5z M41.9,62.6
			c0,2.3,0.7,3.6,1.8,3.6s1.8-1.4,1.8-3.7s-0.5-3.6-1.8-3.6C42.6,58.9,41.9,60.2,41.9,62.6z"/>
	</g>
	<line class="st6" x1="56.3" y1="386.2" x2="536" y2="386.2"/>
	<line class="st6" x1="56.3" y1="340.4" x2="536" y2="340.4"/>
	<line class="st6" x1="56.3" y1="294.6" x2="536" y2="294.6"/>
	<line class="st6" x1="56.3" y1="248.8" x2="536" y2="248.8"/>
	<line class="st6" x1="56.3" y1="203" x2="536" y2="203"/>
	<line class="st6" x1="56.3" y1="157.2" x2="536" y2="157.2"/>
	<line class="st6" x1="56.3" y1="111.3" x2="536" y2="111.3"/>
	<line class="st6" x1="56.3" y1="65.5" x2="536" y2="65.5"/>
	<rect x="65.4" y="72" class="st1" width="6" height="222.6"/>
	<rect x="82.6" y="76.7" class="st1" width="6" height="217.9"/>
	<rect x="99.7" y="82" class="st1" width="6" height="212.6"/>
	<rect x="116.9" y="117.1" class="st1" width="6" height="177.5"/>
	<rect x="134.1" y="119" class="st1" width="6" height="175.6"/>
	<rect x="151.3" y="122.3" class="st1" width="6" height="172.3"/>
	<rect x="168.5" y="122.9" class="st1" width="6" height="171.7"/>
	<rect x="185.7" y="124.8" class="st1" width="6" height="169.7"/>
	<rect x="202.9" y="125.4" class="st1" width="6" height="169.1"/>
	<rect x="220.1" y="130.3" class="st1" width="6" height="164.3"/>
	<rect x="237.2" y="134.8" class="st1" width="6" height="159.8"/>
	<rect x="254.4" y="134.9" class="st1" width="6" height="159.6"/>
	<rect x="271.6" y="137.9" class="st1" width="6" height="156.6"/>
	<rect x="288.8" y="139.7" class="st1" width="6" height="154.9"/>
	<rect x="306" y="146.3" class="st1" width="6" height="148.2"/>
	<rect x="323.2" y="155.5" class="st1" width="6" height="139"/>
	<rect x="340.4" y="165.8" class="st1" width="6" height="128.8"/>
	<rect x="357.6" y="175.2" class="st1" width="6" height="119.4"/>
	<rect x="374.7" y="185.6" class="st1" width="6" height="109"/>
	<rect x="391.9" y="187.3" class="st1" width="6" height="107.2"/>
	<rect x="409.1" y="193.9" class="st1" width="6" height="100.7"/>
	<rect x="426.3" y="198.2" class="st1" width="6" height="96.4"/>
	<rect x="443.5" y="200.9" class="st1" width="6" height="93.7"/>
	<rect x="460.7" y="205.8" class="st1" width="6" height="88.8"/>
	<rect x="477.9" y="207.3" class="st1" width="6" height="87.3"/>
	<rect x="495.1" y="225" class="st1" width="6" height="69.6"/>
	<rect x="512.3" y="225.3" class="st1" width="6" height="69.3"/>
	<rect x="529.4" y="283.5" class="st1" width="6" height="11.1"/>
	<rect x="58.5" y="65" class="st0" width="6" height="229.6"/>
	<rect x="75.7" y="66.5" class="st0" width="6" height="228.1"/>
	<rect x="92.9" y="68.7" class="st0" width="6" height="225.9"/>
	<rect x="110.1" y="96.4" class="st0" width="6" height="198.2"/>
	<rect x="127.2" y="115.6" class="st0" width="6" height="179"/>
	<rect x="144.4" y="162.2" class="st0" width="6" height="132.3"/>
	<rect x="161.6" y="118.7" class="st0" width="6" height="175.9"/>
	<rect x="178.8" y="136.4" class="st0" width="6" height="158.2"/>
	<rect x="196" y="99.2" class="st0" width="6" height="195.3"/>
	<rect x="213.2" y="144.5" class="st0" width="6" height="150.1"/>
	<rect x="230.4" y="145.6" class="st0" width="6" height="149"/>
	<rect x="247.6" y="168.7" class="st0" width="6" height="125.9"/>
	<rect x="264.7" y="98.9" class="st0" width="6" height="195.7"/>
	<rect x="281.9" y="158.4" class="st0" width="6" height="136.1"/>
	<rect x="299.1" y="206.9" class="st0" width="6" height="87.6"/>
	<rect x="316.3" y="165.7" class="st0" width="6" height="128.9"/>
	<rect x="333.5" y="183.6" class="st0" width="6" height="111"/>
	<rect x="350.7" y="175.8" class="st0" width="6" height="118.8"/>
	<rect x="367.9" y="177.2" class="st0" width="6" height="117.4"/>
	<rect x="385.1" y="270" class="st0" width="6" height="24.6"/>
	<rect x="402.3" y="154.8" class="st0" width="6" height="139.7"/>
	<rect x="419.4" y="167.5" class="st0" width="6" height="127.1"/>
	<rect x="436.6" y="242.6" class="st0" width="6" height="52"/>
	<rect x="453.8" y="294.6" class="st0" width="6" height="82.3"/>
	<rect x="471" y="188.3" class="st0" width="6" height="106.3"/>
	<rect x="488.2" y="244.5" class="st0" width="6" height="50.1"/>
	<rect x="505.4" y="204.5" class="st0" width="6" height="90"/>
	<rect x="522.6" y="217.2" class="st0" width="6" height="77.4"/>
</g>
<g id="Layer_5">
	<g>
		<path class="st0" d="M451.8,445.7c-0.1-0.7-0.2-1.5-0.2-2.2c-0.1-1.2,0.3-2.3,1-3.3c0.7-0.8,1.8-1.2,2.9-1.2
			c1.2-0.1,2.3,0.4,3.1,1.2c0.8,1,1.3,2.3,1.2,3.6c0,0.6,0,1.3-0.1,1.9H451.8z M459,444.7c0-0.4,0.1-0.7,0-1.1
			c0.2-1.7-1-3.2-2.7-3.4c-0.2,0-0.5,0-0.7,0c-1.9,0-3.1,1.1-3.1,3.3c0,0.4,0,0.8,0.1,1.2H459z"/>
		<path class="st0" d="M457.1,437.1c1,0.1,1.9-0.7,2-1.7c0-0.1,0-0.2,0-0.3c0-0.6-0.1-1.1-0.3-1.6l0.8-0.2c0.3,0.6,0.4,1.3,0.4,1.9
			c0.1,1.5-1,2.8-2.5,2.9c-0.1,0-0.3,0-0.4,0c-1.8,0-3.1-1-3.1-2.7c0-1.3,1.1-2.4,2.5-2.4c0.1,0,0.2,0,0.3,0c0.2,0,0.3,0,0.5,0
			L457.1,437.1z M456.3,434c-0.8-0.1-1.6,0.5-1.7,1.3c0,0.1,0,0.1,0,0.2c0.1,0.9,0.8,1.6,1.7,1.6V434z"/>
		<path class="st0" d="M455.5,431.7c-0.6,0-1.1,0-1.6,0v-0.9l1-0.1l0,0c-0.7-0.4-1.1-1.1-1.1-1.9c0-0.8,0.5-2,2.5-2h3.5v1.1h-3.3
			c-0.9,0-1.7,0.4-1.7,1.3c0,0.7,0.5,1.2,1.1,1.4c0.2,0,0.3,0.1,0.5,0.1h3.5v1L455.5,431.7z"/>
		<path class="st0" d="M455.5,425c-0.6,0-1.1,0-1.6,0v-0.9l1,0l0,0c-0.7-0.4-1.1-1.1-1.1-1.8c0-0.7,0.5-1.4,1.2-1.6l0,0
			c-0.3-0.2-0.6-0.4-0.8-0.7c-0.3-0.4-0.4-0.8-0.4-1.3c0-0.8,0.5-1.9,2.5-1.9h3.4v1h-3.3c-1.1,0-1.8,0.4-1.8,1.2
			c0,0.6,0.4,1.1,1,1.3c0.2,0.1,0.3,0.1,0.5,0.1h3.6v1h-3.5c-0.9,0-1.6,0.4-1.6,1.2c0,0.6,0.5,1.1,1.1,1.3c0.2,0.1,0.3,0.1,0.5,0.1
			h3.5v1L455.5,425z"/>
		<path class="st0" d="M458.4,411c0.5,0,0.9,0,1.4-0.1v1L459,412l0,0c0.6,0.4,0.9,1.1,0.9,1.8c0.1,0.9-0.6,1.7-1.5,1.8
			c0,0-0.1,0-0.1,0c-1.4,0-2.2-1.2-2.2-3.5H456c-0.7-0.1-1.2,0.4-1.3,1c0,0.1,0,0.2,0,0.3c0,0.5,0.1,1.1,0.4,1.5l-0.7,0.2
			c-0.3-0.6-0.5-1.2-0.5-1.9c0-1.8,1.2-2.2,2.4-2.2L458.4,411z M456.8,412c0,1.1,0.2,2.5,1.3,2.5c0.5,0,1-0.3,1-0.9c0,0,0-0.1,0-0.1
			c0-0.6-0.4-1.2-1-1.4c-0.1,0-0.2-0.1-0.3,0L456.8,412z"/>
		<path class="st0" d="M455.8,409.3c-0.7,0-1.3,0-1.8,0v-0.9l1.1,0l0,0c-0.7-0.2-1.2-0.9-1.3-1.6c0-0.1,0-0.2,0-0.3h1
			c0,0.1,0,0.2,0,0.4c0,0.7,0.6,1.4,1.4,1.4c0.2,0,0.3,0,0.5,0h3.1v1L455.8,409.3z"/>
		<path class="st0" d="M456.6,404.2L456.6,404.2c-0.2-0.1-0.5-0.3-0.7-0.5l-2-1.8v-1.3l2.4,2.2l3.4-2.5v1.3l-2.8,2l0.6,0.5h2.2v1
			h-8.5v-1L456.6,404.2z"/>
	</g>
	<g>
		<path class="st0" d="M524.8,431.7v3.1h2.9v-3.5h0.9v4.5h-8.1v-4.4h0.9v3.3h2.6v-3.1L524.8,431.7z"/>
		<path class="st0" d="M527.5,430.1c0.3-0.4,0.4-0.9,0.4-1.4c0-0.8-0.4-1.1-0.9-1.1s-0.8,0.3-1.1,1.1c-0.4,1-1,1.5-1.6,1.5
			c-1,0-1.8-0.9-1.7-1.9c0,0,0-0.1,0-0.1c0-0.5,0.1-1,0.4-1.4l0.8,0.3c-0.2,0.4-0.3,0.8-0.3,1.2c0,0.6,0.4,1,0.8,1s0.7-0.3,1-1.1
			c0.4-1,0.9-1.5,1.7-1.5c1,0,1.8,0.8,1.8,2.2c0,0.6-0.1,1.1-0.4,1.6L527.5,430.1z"/>
		<path class="st0" d="M521.4,423.9h1.4v-1.5h0.8v1.5h3.1c0.7,0,1.1-0.2,1.1-0.8c0-0.2,0-0.4-0.1-0.6l0.8,0c0.1,0.3,0.1,0.6,0.1,0.9
			c0,0.4-0.1,0.8-0.4,1.1c-0.4,0.3-1,0.5-1.5,0.4h-3.2v0.9h-0.8V425h-1.1L521.4,423.9z"/>
		<path class="st0" d="M525.6,416.1c1.6-0.1,2.9,1,3.1,2.6c0,0.1,0,0.2,0,0.3c0,1.5-1.2,2.8-2.7,2.8c-0.1,0-0.2,0-0.3,0
			c-1.6,0.1-2.9-1-3.1-2.6c0-0.1,0-0.2,0-0.3c0-1.5,1.2-2.8,2.7-2.8C525.4,416,525.5,416.1,525.6,416.1z M525.7,420.6
			c1.3,0,2.2-0.7,2.2-1.8s-1-1.8-2.2-1.8c-1,0-2.2,0.5-2.2,1.7S524.6,420.6,525.7,420.6z"/>
		<path class="st0" d="M524.3,414.7c-0.6,0-1.1,0-1.6,0v-0.9l1-0.1l0,0c-0.7-0.4-1.1-1.1-1.1-1.9c0-0.8,0.5-2,2.5-2h3.5v1.1h-3.3
			c-0.9,0-1.7,0.4-1.7,1.3c0,0.7,0.5,1.2,1.1,1.4c0.2,0,0.3,0.1,0.5,0.1h3.5v1L524.3,414.7z"/>
		<path class="st0" d="M521.2,406.9c0.4,0,0.6,0.4,0.6,0.7c0,0.3-0.3,0.5-0.6,0.6c-0.4,0-0.7-0.3-0.7-0.6c0,0,0,0,0,0
			C520.5,407.2,520.8,406.9,521.2,406.9C521.1,406.9,521.1,406.9,521.2,406.9z M528.6,408.1h-5.8V407h5.8V408.1z"/>
		<path class="st0" d="M527.2,401.2c0.5,0,0.9,0,1.4-0.1v1l-0.7,0.1l0,0c0.6,0.4,0.9,1.1,0.9,1.8c0.1,0.9-0.6,1.7-1.5,1.8
			c0,0-0.1,0-0.1,0c-1.4,0-2.2-1.2-2.2-3.5h-0.1c-0.6-0.1-1.2,0.4-1.3,1c0,0.1,0,0.2,0,0.3c0,0.5,0.1,1.1,0.4,1.5l-0.7,0.2
			c-0.3-0.6-0.5-1.2-0.5-1.9c0-1.8,1.2-2.2,2.4-2.2L527.2,401.2z M525.6,402.2c0,1.1,0.2,2.5,1.3,2.5c0.5,0,1-0.3,1-0.9
			c0,0,0-0.1,0-0.1c0-0.6-0.4-1.2-1-1.4c-0.1,0-0.2-0.1-0.3,0L525.6,402.2z"/>
	</g>
	<g>
		<path class="st0" d="M339.1,428.6c0.3,0.7,0.4,1.4,0.4,2.1c0.1,2.1-1.4,3.9-3.5,4c-0.2,0-0.4,0-0.6,0c-2.2,0.1-4.1-1.5-4.2-3.7
			c0-0.2,0-0.3,0-0.5c0-0.7,0.1-1.3,0.4-1.9l0.9,0.3c-0.2,0.5-0.3,1.1-0.3,1.6c-0.1,1.7,1.2,3.1,2.8,3.2c0.2,0,0.4,0,0.5,0
			c1.6,0.2,3.1-1,3.2-2.6c0-0.2,0-0.3,0-0.5c0-0.6-0.1-1.2-0.3-1.7L339.1,428.6z"/>
		<path class="st0" d="M335.4,427.4c-0.7,0-1.3,0-1.8,0v-0.9h1.1l0,0c-0.7-0.2-1.2-0.9-1.3-1.6c0-0.1,0-0.2,0-0.3h1
			c0,0.1,0,0.2,0,0.4c0,0.7,0.6,1.4,1.4,1.4c0.2,0,0.3,0,0.5,0h3.1v1L335.4,427.4z"/>
		<path class="st0" d="M336.4,418.4c1.6-0.1,2.9,1,3.1,2.6c0,0.1,0,0.2,0,0.3c0,1.5-1.2,2.8-2.7,2.8c-0.1,0-0.2,0-0.3,0
			c-1.6,0.1-2.9-1-3.1-2.6c0-0.1,0-0.2,0-0.3c0-1.5,1.2-2.8,2.7-2.8C336.2,418.3,336.3,418.3,336.4,418.4z M336.5,422.9
			c1.3,0,2.2-0.7,2.2-1.8s-1-1.8-2.2-1.8c-1,0-2.2,0.5-2.2,1.7S335.4,422.9,336.5,422.9z"/>
		<path class="st0" d="M338,412.9c0.5,0,0.9,0,1.4-0.1v1l-0.7,0.1l0,0c0.6,0.4,0.9,1.1,0.9,1.8c0.1,0.9-0.6,1.7-1.5,1.8
			c0,0-0.1,0-0.1,0c-1.4,0-2.2-1.2-2.2-3.5h-0.1c-0.7-0.1-1.2,0.4-1.3,1c0,0.1,0,0.2,0,0.3c0,0.5,0.1,1.1,0.4,1.5L334,417
			c-0.3-0.6-0.5-1.2-0.5-1.9c0-1.8,1.2-2.2,2.4-2.2L338,412.9z M336.4,413.9c0,1.1,0.2,2.5,1.3,2.5c0.5,0,1-0.3,1-0.8
			c0-0.1,0-0.1,0-0.2c0-0.6-0.4-1.2-1-1.4c-0.1,0-0.2-0.1-0.3,0L336.4,413.9z"/>
		<path class="st0" d="M332.2,410h1.4v-1.5h0.8v1.5h3.1c0.7,0,1.1-0.2,1.1-0.8c0-0.2,0-0.4-0.1-0.6l0.8,0c0.1,0.3,0.1,0.6,0.1,0.9
			c0,0.4-0.1,0.8-0.4,1.1c-0.4,0.3-1,0.5-1.5,0.4h-3.2v0.9h-0.8V411h-1.1L332.2,410z"/>
		<path class="st0" d="M331.9,406.1c0.4,0,0.6,0.4,0.6,0.7c0,0.3-0.3,0.5-0.6,0.6c-0.4,0-0.7-0.3-0.7-0.6c0,0,0,0,0,0
			C331.3,406.4,331.5,406.1,331.9,406.1C331.9,406.1,331.9,406.1,331.9,406.1z M339.4,407.3h-5.8v-1h5.8V407.3z"/>
		<path class="st0" d="M338,400.4c0.5,0,0.9,0,1.4-0.1v1l-0.7,0.1l0,0c0.6,0.4,0.9,1.1,0.9,1.8c0.1,0.9-0.6,1.7-1.5,1.8
			c0,0-0.1,0-0.1,0c-1.4,0-2.2-1.2-2.2-3.5h-0.1c-0.7-0.1-1.2,0.4-1.3,1c0,0.1,0,0.2,0,0.3c0,0.5,0.1,1.1,0.4,1.5l-0.7,0.2
			c-0.3-0.6-0.5-1.2-0.5-1.9c0-1.8,1.2-2.2,2.4-2.2L338,400.4z M336.4,401.4c0,1.1,0.2,2.5,1.3,2.5c0.5,0,1-0.3,1-0.9
			c0,0,0-0.1,0-0.1c0-0.6-0.4-1.2-1-1.4c-0.1,0-0.2-0.1-0.3,0L336.4,401.4z"/>
	</g>
	<g>
		<path class="st0" d="M125,439.9c-0.1-0.6-0.2-1.3-0.2-1.9c-0.1-0.8,0.1-1.6,0.6-2.2c0.3-0.4,0.9-0.7,1.4-0.7
			c0.8,0,1.5,0.6,1.8,1.4l0,0c0.2-1,1-1.6,2-1.7c0.6,0,1.2,0.2,1.6,0.7c0.6,0.8,0.9,1.8,0.8,2.8c0,0.5,0,1.1-0.1,1.6H125z
			 M128.3,438.9v-1c0-1.1-0.6-1.7-1.4-1.7c-0.9,0-1.3,0.7-1.3,1.8c0,0.3,0,0.6,0.1,0.9L128.3,438.9z M132.2,438.9c0-0.3,0-0.6,0-0.9
			c0-1.1-0.4-2.1-1.6-2.1s-1.6,1-1.6,2.1v0.9H132.2z"/>
		<path class="st0" d="M130.2,432.8c1,0.1,1.9-0.7,2-1.7c0-0.1,0-0.2,0-0.3c0-0.6-0.1-1.1-0.3-1.6l0.8-0.2c0.3,0.6,0.4,1.3,0.4,1.9
			c0.1,1.5-1.1,2.8-2.5,2.9c-0.1,0-0.3,0-0.4,0c-1.8,0-3.1-1-3.1-2.7c0-1.3,1.1-2.4,2.5-2.4c0.1,0,0.2,0,0.3,0c0.2,0,0.3,0,0.5,0
			L130.2,432.8z M129.5,429.7c-0.8-0.1-1.6,0.5-1.7,1.3c0,0.1,0,0.1,0,0.2c0.1,0.9,0.8,1.6,1.7,1.6V429.7z"/>
		<path class="st0" d="M124.4,427.4v-1.1h8.5v1.1H124.4z"/>
		<path class="st0" d="M132.1,419.6c1-0.1,1.9,0.2,2.7,0.8c0.5,0.6,0.7,1.4,0.7,2.1c0,0.7-0.1,1.3-0.5,1.9l-0.8-0.3
			c0.3-0.5,0.5-1.1,0.5-1.7c0-1.1-0.6-1.9-2-1.9H132l0,0c0.6,0.4,1,1.1,1,1.8c-0.1,1.4-1.3,2.5-2.7,2.5c0,0-0.1,0-0.1,0
			c-1.5,0.2-2.9-0.9-3.1-2.5c0-0.1,0-0.1,0-0.2c0-0.7,0.3-1.5,1-1.8l0,0h-0.9v-0.9c0.4,0,0.9,0,1.6,0L132.1,419.6z M129.4,420.6
			c-0.2,0-0.3,0-0.5,0.1c-0.7,0.2-1.1,0.8-1.1,1.5c0,1,0.9,1.7,2.2,1.7c1.1,0,2.1-0.6,2.1-1.7c0-0.7-0.4-1.3-1.1-1.5
			c-0.2-0.1-0.4-0.1-0.6-0.1L129.4,420.6z"/>
		<path class="st0" d="M125.5,416.7c0.4,0,0.6,0.3,0.7,0.6c0,0,0,0,0,0.1c0,0.3-0.3,0.6-0.6,0.6c0,0,0,0,0,0c-0.4,0-0.7-0.2-0.7-0.6
			c0-0.4,0.2-0.7,0.6-0.7C125.4,416.7,125.4,416.7,125.5,416.7z M132.9,417.9h-5.8v-1.1h5.8V417.9z"/>
		<path class="st0" d="M131.4,410.2c0.6,0,1.1,0,1.6,0v0.9l-0.9,0.1l0,0c0.7,0.4,1.1,1.1,1.1,1.9c0,0.9-0.5,2-2.5,2h-3.4v-1.1h3.2
			c1.1,0,1.9-0.4,1.9-1.3c0-0.6-0.4-1.2-1-1.4c-0.2-0.1-0.4-0.1-0.5-0.1h-3.6v-1.1L131.4,410.2z"/>
		<path class="st0" d="M128.7,408.5c-0.6,0-1.1,0-1.6,0v-0.9h0.9l0,0c-0.7-0.4-1.1-1.1-1.1-1.8c0-0.7,0.5-1.4,1.2-1.6l0,0
			c-0.3-0.2-0.6-0.4-0.8-0.7c-0.3-0.4-0.4-0.8-0.4-1.3c0-0.8,0.5-1.9,2.5-1.9h3.4v1h-3.3c-1.1,0-1.8,0.4-1.8,1.3
			c0,0.6,0.4,1.1,1,1.3c0.2,0.1,0.3,0.1,0.5,0.1h3.6v1h-3.5c-0.9,0-1.6,0.4-1.6,1.2c0,0.6,0.5,1.1,1.1,1.3c0.2,0.1,0.3,0.1,0.5,0.1
			h3.5v1L128.7,408.5z"/>
	</g>
	<g>
		<path class="st0" d="M234.9,439.4c0.3-0.6,0.5-1.2,0.5-1.9c0-1.1-0.6-1.7-1.4-1.7s-1.2,0.4-1.6,1.5c-0.5,1.3-1.2,2.1-2.3,2.1
			c-1.3-0.1-2.3-1.1-2.2-2.4c0-0.1,0-0.1,0-0.2c0-0.6,0.1-1.2,0.4-1.8l0.9,0.3c-0.3,0.5-0.4,1-0.4,1.5c0,1.1,0.7,1.5,1.2,1.5
			c0.8,0,1.1-0.5,1.6-1.6c0.5-1.4,1.2-2,2.4-2s2.3,0.9,2.3,2.8c0,0.7-0.2,1.4-0.5,2.1L234.9,439.4z"/>
		<path class="st0" d="M227.6,433.4v-1h8.5v1H227.6z"/>
		<path class="st0" d="M233.2,425.4c1.6-0.1,2.9,1,3.1,2.6c0,0.1,0,0.2,0,0.3c0,1.5-1.2,2.8-2.7,2.8c-0.1,0-0.2,0-0.3,0
			c-1.6,0.1-2.9-1-3.1-2.6c0-0.1,0-0.2,0-0.3c0-1.5,1.2-2.8,2.7-2.8C233,425.3,233.1,425.3,233.2,425.4z M233.3,429.9
			c1.3,0,2.2-0.7,2.2-1.8s-1-1.8-2.2-1.8c-1,0-2.2,0.5-2.2,1.7S232.2,429.9,233.3,429.9z"/>
		<path class="st0" d="M230.4,423.7l3.2-1.1c0.5-0.2,1-0.4,1.5-0.5l0,0c-0.5-0.1-1-0.3-1.5-0.5l-3.2-1.1v-1.1l5.8,2.3v1l-5.8,2.2
			V423.7z"/>
		<path class="st0" d="M234.8,414.3c0.5,0,0.9,0,1.4-0.1v1l-0.7,0.1l0,0c0.6,0.4,0.9,1.1,0.9,1.8c0.1,0.9-0.6,1.7-1.5,1.8
			c0,0-0.1,0-0.1,0c-1.4,0-2.2-1.2-2.2-3.5h-0.1c-0.6-0.1-1.2,0.4-1.3,1c0,0.1,0,0.2,0,0.3c0,0.5,0.1,1.1,0.4,1.5l-0.7,0.2
			c-0.3-0.6-0.5-1.2-0.5-1.9c0-1.8,1.2-2.2,2.4-2.2L234.8,414.3z M233.2,415.3c0,1.1,0.2,2.5,1.3,2.5c0.5,0,1-0.3,1-0.8
			c0-0.1,0-0.1,0-0.2c0.1-0.7-0.5-1.4-1.2-1.5c0,0-0.1,0-0.1,0L233.2,415.3z"/>
		<path class="st0" d="M233,411.5L233,411.5c-0.2-0.1-0.5-0.3-0.7-0.5l-2-1.7V408l2.4,2.2l3.4-2.5v1.3l-2.8,2l0.6,0.5h2.2v1h-8.5v-1
			H233z"/>
		<path class="st0" d="M228.7,405.6c0.3,0,0.6,0.3,0.6,0.6c0,0,0,0,0,0.1c0,0.3-0.3,0.6-0.6,0.6c0,0,0,0,0,0c-0.4,0-0.6-0.3-0.7-0.6
			c0,0,0,0,0,0C228,405.9,228.3,405.6,228.7,405.6C228.7,405.6,228.7,405.6,228.7,405.6z M236.1,406.8h-5.8v-1h5.8V406.8z"/>
		<path class="st0" d="M234.8,399.9c0.5,0,0.9,0,1.4-0.1v0.9l-0.7,0.1l0,0c0.6,0.4,0.9,1.1,0.9,1.8c0.1,0.9-0.6,1.7-1.5,1.8
			c0,0-0.1,0-0.1,0c-1.4,0-2.2-1.2-2.2-3.5h-0.1c-0.6-0.1-1.2,0.4-1.3,1c0,0.1,0,0.2,0,0.3c0,0.5,0.1,1.1,0.4,1.5l-0.7,0.2
			c-0.3-0.6-0.5-1.2-0.5-1.9c0-1.8,1.2-2.2,2.4-2.2L234.8,399.9z M233.2,400.9c0,1.1,0.2,2.5,1.3,2.5c0.5,0,1-0.3,1-0.9
			c0,0,0-0.1,0-0.1c0-0.6-0.4-1.2-1-1.4c-0.1,0-0.2-0.1-0.3,0L233.2,400.9z"/>
	</g>
	<g>
		<path class="st0" d="M400.1,428.5v-1h7.2V424h0.9v4.5L400.1,428.5z"/>
		<path class="st0" d="M406.8,418.8c0.5,0,0.9,0,1.4-0.1v1l-0.7,0.1l0,0c0.6,0.4,0.9,1.1,0.9,1.8c0.1,0.9-0.6,1.7-1.5,1.8
			c0,0-0.1,0-0.1,0c-1.4,0-2.2-1.2-2.2-3.5h-0.1c-0.7-0.1-1.3,0.4-1.3,1c0,0.1,0,0.2,0,0.3c0,0.5,0.1,1.1,0.4,1.5l-0.7,0.2
			c-0.3-0.6-0.5-1.2-0.5-1.9c0-1.8,1.2-2.2,2.4-2.2L406.8,418.8z M405.2,419.8c0,1.2,0.2,2.5,1.3,2.5c0.5,0,1-0.3,1-0.8
			c0-0.1,0-0.1,0-0.2c0.1-0.7-0.5-1.4-1.2-1.5c0,0-0.1,0-0.1,0L405.2,419.8z"/>
		<path class="st0" d="M401,415.9h1.4v-1.5h0.8v1.5h3.1c0.7,0,1.1-0.2,1.1-0.8c0-0.2,0-0.4-0.1-0.6l0.8,0c0.1,0.3,0.1,0.6,0.1,0.9
			c0,0.4-0.1,0.8-0.4,1.1c-0.4,0.3-1,0.5-1.5,0.4h-3.2v0.9h-0.8v-0.9h-1.1L401,415.9z"/>
		<path class="st0" d="M402.4,412.7l3.2-1.1c0.5-0.2,1-0.4,1.5-0.5l0,0c-0.5-0.1-1-0.3-1.5-0.5l-3.2-1.1v-1.1l5.8,2.3v1l-5.8,2.2
			V412.7z"/>
		<path class="st0" d="M400.7,406.1c0.3,0,0.6,0.3,0.7,0.6c0,0,0,0,0,0.1c0,0.3-0.3,0.6-0.6,0.6c0,0,0,0-0.1,0
			c-0.4,0-0.7-0.3-0.7-0.6c0,0,0,0,0,0C400.1,406.4,400.3,406.1,400.7,406.1C400.7,406.1,400.7,406.1,400.7,406.1z M408.2,407.3
			h-5.8v-1h5.8V407.3z"/>
		<path class="st0" d="M406.8,400.4c0.5,0,0.9,0,1.4-0.1v0.9l-0.7,0.1l0,0c0.6,0.4,0.9,1.1,0.9,1.8c0.1,0.9-0.6,1.7-1.5,1.8
			c0,0-0.1,0-0.1,0c-1.4,0-2.2-1.2-2.2-3.5h-0.1c-0.7-0.1-1.3,0.4-1.3,1c0,0.1,0,0.2,0,0.3c0,0.5,0.1,1.1,0.4,1.5l-0.7,0.2
			c-0.3-0.6-0.5-1.2-0.5-1.9c0-1.8,1.2-2.2,2.4-2.2L406.8,400.4z M405.2,401.4c0,1.1,0.2,2.5,1.3,2.5c0.5,0,1-0.3,1-0.9
			c0,0,0-0.1,0-0.1c0-0.6-0.4-1.2-1-1.4c-0.1,0-0.2-0.1-0.3,0L405.2,401.4z"/>
	</g>
	<g>
		<path class="st0" d="M365.7,432v-4.3h0.9v3.3h2.7v-3h0.9v3h3.6v1H365.7z"/>
		<path class="st0" d="M369.8,426.5c-0.7,0-1.3,0-1.8,0v-0.9l1.1,0l0,0c-0.7-0.2-1.2-0.9-1.3-1.6c0-0.1,0-0.2,0-0.3h1
			c0,0.1,0,0.2,0,0.4c0,0.7,0.6,1.3,1.4,1.4c0.2,0,0.3,0,0.5,0h3.1v1L369.8,426.5z"/>
		<path class="st0" d="M372.4,418.6c0.5,0,0.9,0,1.4-0.1v0.9l-0.7,0.1l0,0c0.6,0.4,0.9,1.1,0.9,1.8c0.1,0.9-0.6,1.7-1.5,1.8
			c0,0-0.1,0-0.1,0c-1.4,0-2.2-1.2-2.2-3.5H370c-0.7-0.1-1.2,0.4-1.3,1c0,0.1,0,0.2,0,0.3c0,0.5,0.1,1.1,0.4,1.5l-0.7,0.2
			c-0.3-0.6-0.5-1.2-0.5-1.9c0-1.8,1.2-2.2,2.4-2.2L372.4,418.6z M370.8,419.6c0,1.1,0.2,2.5,1.3,2.5c0.5,0,1-0.3,1-0.9
			c0,0,0-0.1,0-0.1c0-0.6-0.4-1.2-1-1.4c-0.1,0-0.2-0.1-0.3,0L370.8,419.6z"/>
		<path class="st0" d="M369.5,416.9c-0.6,0-1.1,0-1.6,0V416l1-0.1l0,0c-0.7-0.4-1.1-1.1-1.1-1.9c0-0.8,0.5-2,2.5-2h3.5v1h-3.3
			c-0.9,0-1.7,0.4-1.7,1.3c0,0.7,0.5,1.2,1.1,1.4c0.2,0.1,0.3,0.1,0.5,0.1h3.5v1.1L369.5,416.9z"/>
		<path class="st0" d="M373.6,406.1c0.2,0.5,0.3,1.1,0.3,1.7c0.1,1.5-1.1,2.8-2.6,2.9c-0.1,0-0.3,0-0.4,0c-1.7,0.1-3-1.3-3.1-2.9
			c0-0.1,0-0.1,0-0.2c0-0.5,0.1-1,0.3-1.5l0.8,0.2c-0.2,0.4-0.3,0.8-0.3,1.2c0,1.1,0.9,2,2,2c0.1,0,0.1,0,0.2,0
			c1.1,0.1,2.1-0.7,2.2-1.8c0-0.1,0-0.1,0-0.2c0-0.4-0.1-0.9-0.3-1.3L373.6,406.1z"/>
		<path class="st0" d="M371,404.3c1,0.1,1.9-0.7,2-1.7c0-0.1,0-0.2,0-0.3c0-0.5-0.1-1.1-0.3-1.6l0.8-0.2c0.3,0.6,0.4,1.3,0.4,2
			c0.1,1.5-1.1,2.8-2.6,2.9c-0.1,0-0.3,0-0.4,0c-1.8,0-3.1-1-3.1-2.7c0-1.3,1.1-2.4,2.5-2.4c0.1,0,0.2,0,0.3,0c0.2,0,0.3,0,0.5,0
			L371,404.3z M370.3,401.2c-0.8-0.1-1.6,0.5-1.7,1.3c0,0.1,0,0.1,0,0.2c0.1,0.9,0.8,1.6,1.7,1.6V401.2z"/>
	</g>
	<g>
		<path class="st0" d="M245.3,442.3h3.4v-3.9h-3.4v-1.1h8.1v1.1h-3.8v3.9h3.8v1h-8.1V442.3z"/>
		<path class="st0" d="M251.8,430.7c0.6,0,1.1,0,1.6,0v0.9l-0.9,0.1l0,0c0.7,0.4,1.1,1.1,1.1,1.9c0,0.9-0.5,2-2.5,2h-3.4v-1.1h3.2
			c1.1,0,1.9-0.3,1.9-1.3c0-0.6-0.4-1.2-1-1.4c-0.2-0.1-0.4-0.1-0.5-0.1h-3.6v-1L251.8,430.7z"/>
		<path class="st0" d="M249.1,428.9c-0.6,0-1.1,0-1.6,0v-1l1-0.1l0,0c-0.7-0.4-1.1-1.1-1.1-1.9c0-0.8,0.5-2,2.5-2h3.5v1H250
			c-0.9,0-1.7,0.4-1.7,1.4c0,0.7,0.5,1.2,1.1,1.4c0.2,0.1,0.3,0.1,0.5,0.1h3.5v1L249.1,428.9z"/>
		<path class="st0" d="M252.5,417.3c1-0.1,1.9,0.2,2.7,0.8c0.5,0.6,0.7,1.4,0.7,2.1c0,0.7-0.2,1.3-0.5,1.9l-0.8-0.3
			c0.3-0.5,0.5-1.1,0.5-1.7c0-1.1-0.6-1.9-2-1.9h-0.6l0,0c0.6,0.4,1,1.1,1,1.9c-0.1,1.4-1.3,2.5-2.7,2.5c0,0-0.1,0-0.1,0
			c-1.5,0.2-2.9-0.9-3.1-2.5c0-0.1,0-0.1,0-0.2c0-0.7,0.4-1.4,1-1.8l0,0h-0.9v-0.9c0.4,0,0.9,0,1.6,0L252.5,417.3z M249.8,418.4
			c-0.2,0-0.3,0-0.5,0.1c-0.7,0.2-1.1,0.8-1.1,1.5c0,1,0.9,1.7,2.2,1.7c1.1,0,2.1-0.6,2.1-1.7c0-0.7-0.4-1.3-1.1-1.5
			c-0.2-0.1-0.4-0.1-0.6-0.1L249.8,418.4z"/>
		<path class="st0" d="M252,411.5c0.5,0,0.9,0,1.4-0.1v1l-0.7,0.1l0,0c0.6,0.4,0.9,1.1,0.9,1.8c0.1,0.9-0.6,1.7-1.5,1.8
			c0,0-0.1,0-0.1,0c-1.4,0-2.2-1.2-2.2-3.5h-0.1c-0.7-0.1-1.2,0.4-1.3,1c0,0.1,0,0.2,0,0.3c0,0.5,0.1,1.1,0.4,1.5l-0.7,0.2
			c-0.3-0.6-0.5-1.2-0.5-1.9c0-1.8,1.2-2.2,2.4-2.2L252,411.5z M250.4,412.5c0,1.2,0.2,2.5,1.3,2.5c0.5,0,1-0.3,1-0.9
			c0,0,0-0.1,0-0.1c0.1-0.7-0.5-1.4-1.2-1.5c0,0-0.1,0-0.1,0L250.4,412.5z"/>
		<path class="st0" d="M249.4,409.8c-0.7,0-1.3,0-1.8,0v-0.9h1.1l0,0c-0.7-0.2-1.2-0.9-1.3-1.6c0-0.1,0-0.2,0-0.3h1
			c0,0.1,0,0.2,0,0.4c0,0.7,0.6,1.4,1.3,1.4c0.2,0,0.3,0,0.5,0h3.1v1.1L249.4,409.8z"/>
		<path class="st0" d="M247.6,405.2l3.4-1.3c0.4-0.1,0.8-0.3,1.2-0.4l0,0c-0.4-0.1-0.8-0.2-1.2-0.4l-3.4-1.1v-1.1l4.1,1.6
			c2,0.8,3,1.3,3.6,2c0.3,0.4,0.6,0.8,0.7,1.3l-0.9,0.3c-0.1-0.3-0.3-0.6-0.5-0.9c-0.3-0.4-0.7-0.7-1.2-0.9c-0.1,0-0.2-0.1-0.3-0.1
			c-0.1,0-0.2,0-0.3,0.1l-5.4,2.1L247.6,405.2z"/>
	</g>
	<g>
		<path class="st0" d="M442.3,432.2c0.3,0.7,0.4,1.4,0.4,2.1c0.1,2.1-1.4,3.9-3.5,4c-0.2,0-0.4,0-0.6,0c-2.2,0.1-4.1-1.5-4.2-3.7
			c0-0.2,0-0.3,0-0.5c0-0.7,0.1-1.3,0.4-1.9l0.9,0.3c-0.2,0.5-0.3,1.1-0.3,1.6c-0.1,1.7,1.2,3.1,2.8,3.2c0.2,0,0.4,0,0.5,0
			c1.6,0.2,3.1-1,3.2-2.6c0-0.2,0-0.3,0-0.5c0-0.6-0.1-1.2-0.3-1.7L442.3,432.2z"/>
		<path class="st0" d="M442,431.5l-3.4-2.6l-0.9-0.8l0,0v3.1h-0.8v-4.4h0.7l3.4,2.6c0.3,0.2,0.6,0.5,0.9,0.7l0,0v-3.4h0.8v4.7H442z"
			/>
		<path class="st0" d="M439.9,425.2c1,0.1,1.9-0.7,2-1.7c0-0.1,0-0.2,0-0.3c0-0.6-0.1-1.1-0.3-1.6l0.8-0.2c0.3,0.6,0.4,1.3,0.4,1.9
			c0.1,1.5-1,2.8-2.5,2.9c-0.1,0-0.3,0-0.4,0c-1.8,0-3.1-1-3.1-2.7c0-1.3,1.1-2.4,2.5-2.4c0.1,0,0.2,0,0.2,0c0.2,0,0.3,0,0.5,0
			L439.9,425.2z M439.1,422.1c-0.8-0.1-1.6,0.4-1.7,1.3c0,0.1,0,0.1,0,0.2c0.1,0.9,0.8,1.6,1.7,1.6V422.1z"/>
		<path class="st0" d="M442.4,415.6c0.2,0.5,0.3,1.1,0.3,1.7c0.1,1.5-1.1,2.8-2.6,2.9c-0.1,0-0.3,0-0.4,0c-1.7,0.1-3-1.3-3.1-2.9
			c0-0.1,0-0.1,0-0.2c0-0.5,0.1-1,0.3-1.5l0.8,0.2c-0.2,0.4-0.3,0.8-0.3,1.2c0,1.1,0.8,2,1.9,2.1c0.1,0,0.2,0,0.2,0
			c1.1,0.1,2.1-0.7,2.2-1.8c0-0.1,0-0.1,0-0.2c0-0.4-0.1-0.9-0.3-1.3L442.4,415.6z"/>
		<path class="st0" d="M434.1,414.4v-1.1h3.6l0,0c-0.3-0.2-0.6-0.4-0.8-0.8c-0.2-0.3-0.3-0.7-0.3-1.1c0-0.8,0.5-2,2.5-2h3.5v1h-3.3
			c-0.9,0-1.7,0.4-1.7,1.4c0,0.6,0.4,1.2,1,1.4c0.2,0.1,0.3,0.1,0.5,0.1h3.5v1.1L434.1,414.4z"/>
		<path class="st0" d="M435.1,406.6c0.3,0,0.6,0.3,0.6,0.6c0,0,0,0,0,0.1c0,0.3-0.3,0.6-0.6,0.6c0,0,0,0-0.1,0
			c-0.4,0-0.6-0.3-0.7-0.6c0,0,0,0,0,0C434.5,406.9,434.7,406.6,435.1,406.6C435.1,406.6,435.1,406.6,435.1,406.6z M442.6,407.7
			h-5.8v-1.1h5.8V407.7z"/>
		<path class="st0" d="M441.2,400.9c0.5,0,0.9,0,1.4-0.1v1l-0.7,0.1l0,0c0.6,0.4,0.9,1.1,0.9,1.8c0.1,0.9-0.6,1.7-1.5,1.8
			c0,0-0.1,0-0.1,0c-1.4,0-2.2-1.2-2.2-3.5h-0.1c-0.7-0.1-1.2,0.4-1.3,1c0,0.1,0,0.2,0,0.3c0,0.5,0.1,1.1,0.4,1.5l-0.7,0.2
			c-0.3-0.6-0.5-1.2-0.5-1.9c0-1.8,1.2-2.2,2.4-2.2L441.2,400.9z M439.6,401.9c0,1.1,0.2,2.5,1.3,2.5c0.5,0,1-0.3,1-0.8
			c0-0.1,0-0.1,0-0.2c0-0.6-0.4-1.2-1-1.4c-0.1,0-0.2-0.1-0.3,0L439.6,401.9z"/>
	</g>
	<g>
		<path class="st0" d="M383,433.8c-0.1-0.7-0.2-1.3-0.2-2c-0.1-0.8,0.2-1.6,0.7-2.3c0.4-0.5,1.1-0.7,1.7-0.7c0.6,0,1.3,0.2,1.7,0.6
			c0.6,0.7,0.9,1.6,0.9,2.5c0,0.3,0,0.6-0.1,0.8h3.2v1L383,433.8z M386.9,432.8c0.1-0.3,0.1-0.6,0.1-0.9c0-1.3-0.6-2-1.7-2
			s-1.6,0.8-1.6,1.9c0,0.3,0,0.7,0.1,1L386.9,432.8z"/>
		<path class="st0" d="M388,422.5c1.6-0.1,2.9,1,3.1,2.6c0,0.1,0,0.2,0,0.3c0,1.5-1.2,2.8-2.7,2.8c-0.1,0-0.2,0-0.3,0
			c-1.6,0.1-2.9-1-3.1-2.6c0-0.1,0-0.2,0-0.3c0-1.5,1.2-2.8,2.7-2.8C387.8,422.5,387.9,422.5,388,422.5z M388.1,427.1
			c1.3,0,2.2-0.7,2.2-1.8s-1-1.8-2.3-1.8c-1,0-2.2,0.5-2.2,1.7S387,427.1,388.1,427.1L388.1,427.1z"/>
		<path class="st0" d="M382.5,421.2v-1.1h8.5v1.1H382.5z"/>
		<path class="st0" d="M389.6,414.2c0.5,0,0.9,0,1.4-0.1v1l-0.7,0.1l0,0c0.6,0.4,0.9,1.1,0.9,1.8c0.1,0.9-0.6,1.7-1.5,1.8
			c0,0-0.1,0-0.1,0c-1.4,0-2.2-1.2-2.2-3.5h-0.1c-0.7-0.1-1.2,0.4-1.3,1c0,0.1,0,0.2,0,0.3c0,0.5,0.1,1.1,0.4,1.5l-0.7,0.2
			c-0.3-0.6-0.5-1.2-0.5-1.9c0-1.8,1.2-2.2,2.4-2.2L389.6,414.2z M388,415.2c0,1.1,0.2,2.5,1.3,2.5c0.5,0,1-0.3,1-0.8
			c0-0.1,0-0.1,0-0.2c0-0.6-0.4-1.2-1-1.4c-0.1,0-0.2,0-0.3,0L388,415.2z"/>
		<path class="st0" d="M386.7,412.5c-0.6,0-1.1,0-1.6,0v-0.9l1-0.1l0,0c-0.7-0.4-1.1-1.1-1.1-1.9c0-0.8,0.5-2,2.5-2h3.4v1h-3.4
			c-0.9,0-1.7,0.4-1.7,1.4c0,0.7,0.5,1.2,1.1,1.4c0.2,0.1,0.3,0.1,0.5,0.1h3.5v1.1L386.7,412.5z"/>
		<path class="st0" d="M382.5,400.9h7c0.5,0,1.1,0,1.5,0v0.9h-1l0,0c0.7,0.4,1.2,1.2,1.1,2c0,1.4-1.2,2.5-3,2.5
			c-1.9,0-3.1-1.2-3.1-2.6c0-0.7,0.3-1.4,0.9-1.8l0,0h-3.5L382.5,400.9z M387.5,401.9c-0.2,0-0.3,0-0.5,0c-0.7,0.2-1.2,0.8-1.2,1.5
			c0,1.1,1,1.7,2.2,1.7s2.1-0.6,2.1-1.7c0-0.7-0.5-1.3-1.2-1.5c-0.2,0-0.3-0.1-0.5,0L387.5,401.9z"/>
	</g>
	<g>
		<path class="st0" d="M355.3,441c0.3-0.6,0.5-1.2,0.5-1.9c0-1.1-0.6-1.7-1.4-1.7s-1.2,0.4-1.6,1.5c-0.5,1.3-1.2,2.1-2.3,2.1
			c-1.3-0.1-2.3-1.1-2.2-2.4c0-0.1,0-0.1,0-0.2c0-0.6,0.1-1.2,0.4-1.8l0.9,0.3c-0.3,0.5-0.4,1-0.4,1.5c0,1.1,0.7,1.5,1.2,1.5
			c0.8,0,1.1-0.5,1.6-1.6c0.5-1.4,1.2-2,2.4-2s2.3,0.9,2.3,2.8c0,0.7-0.2,1.4-0.5,2.1L355.3,441z"/>
		<path class="st0" d="M348,434.9v-1.1h8.5v1.1H348z"/>
		<path class="st0" d="M353.6,426.9c1.6-0.1,2.9,1,3.1,2.6c0,0.1,0,0.2,0,0.3c0,1.5-1.2,2.8-2.8,2.8c-0.1,0-0.2,0-0.2,0
			c-1.6,0.1-2.9-1-3.1-2.6c0-0.1,0-0.2,0-0.3c0-1.5,1.2-2.8,2.7-2.8C353.4,426.8,353.5,426.8,353.6,426.9z M353.7,431.4
			c1.3,0,2.2-0.7,2.2-1.8s-0.9-1.8-2.2-1.8c-1,0-2.2,0.5-2.2,1.7S352.6,431.4,353.7,431.4L353.7,431.4z"/>
		<path class="st0" d="M350.8,425.2l3.2-1.1c0.5-0.2,1-0.4,1.5-0.5l0,0c-0.5-0.1-1-0.3-1.5-0.5l-3.2-1.1v-1.1l5.8,2.3v1l-5.8,2.2
			V425.2z"/>
		<path class="st0" d="M353.9,419.4c1,0.1,1.9-0.7,2-1.7c0-0.1,0-0.2,0-0.3c0-0.6-0.1-1.1-0.3-1.6l0.8-0.2c0.3,0.6,0.4,1.3,0.4,1.9
			c0.1,1.5-1.1,2.8-2.5,2.9c-0.1,0-0.3,0-0.4,0c-1.8,0-3.1-1-3.1-2.7c0-1.3,1.1-2.4,2.5-2.4c0.1,0,0.2,0,0.2,0c0.2,0,0.3,0,0.5,0
			L353.9,419.4z M353.1,416.3c-0.8-0.1-1.6,0.5-1.7,1.3c0,0.1,0,0.1,0,0.2c0.1,0.9,0.8,1.6,1.7,1.6V416.3z"/>
		<path class="st0" d="M352.3,413.9c-0.6,0-1.1,0-1.6,0V413l1-0.1l0,0c-0.7-0.4-1.1-1.1-1.1-1.9c0-0.8,0.5-2,2.5-2h3.5v1.1h-3.3
			c-0.9,0-1.7,0.4-1.7,1.3c0,0.7,0.5,1.2,1.1,1.4c0.2,0.1,0.3,0.1,0.5,0.1h3.5v1L352.3,413.9z"/>
		<path class="st0" d="M349.1,406.1c0.3,0,0.6,0.3,0.7,0.6c0,0,0,0,0,0.1c0,0.3-0.3,0.6-0.6,0.6c0,0,0,0-0.1,0
			c-0.4,0-0.7-0.3-0.7-0.6c0,0,0,0,0,0C348.5,406.4,348.7,406.1,349.1,406.1C349.1,406.1,349.1,406.1,349.1,406.1z M356.6,407.3
			h-5.8v-1h5.8V407.3z"/>
		<path class="st0" d="M355.2,400.4c0.5,0,0.9,0,1.4-0.1v0.9l-0.7,0.1l0,0c0.6,0.4,0.9,1.1,0.9,1.8c0.1,0.9-0.6,1.7-1.5,1.8
			c0,0-0.1,0-0.1,0c-1.4,0-2.2-1.2-2.2-3.5h-0.1c-0.7-0.1-1.2,0.4-1.3,1c0,0.1,0,0.2,0,0.3c0,0.5,0.1,1.1,0.4,1.5l-0.7,0.2
			c-0.3-0.6-0.5-1.2-0.5-1.9c0-1.8,1.2-2.2,2.4-2.2L355.2,400.4z M353.6,401.4c0,1.1,0.2,2.5,1.3,2.5c0.5,0,1-0.3,1-0.9
			c0,0,0-0.1,0-0.1c0-0.6-0.4-1.2-1-1.4c-0.1,0-0.2,0-0.3,0L353.6,401.4z"/>
	</g>
	<g>
		<path class="st0" d="M287.4,439c0.3,0.8,0.4,1.6,0.4,2.5c0.2,2.1-1.3,3.9-3.4,4.1c-0.2,0-0.4,0-0.7,0c-2.2,0.1-4.1-1.6-4.2-3.8
			c0-0.2,0-0.4,0-0.6c0-0.7,0.1-1.4,0.4-2l0.9,0.3c-0.3,0.6-0.4,1.2-0.4,1.8c-0.1,1.7,1.1,3.1,2.7,3.2c0.2,0,0.3,0,0.5,0
			c1.6,0.2,3.1-1.1,3.3-2.7c0-0.1,0-0.3,0-0.4c0-0.5,0-1-0.2-1.4h-2.4v1.6h-0.8V439H287.4z"/>
		<path class="st0" d="M285,436.8c1,0.1,1.9-0.7,2-1.7c0-0.1,0-0.2,0-0.3c0-0.5-0.1-1.1-0.3-1.6l0.8-0.2c0.3,0.6,0.4,1.3,0.4,2
			c0.1,1.5-1.1,2.8-2.6,2.9c-0.1,0-0.3,0-0.4,0c-1.8,0-3.1-1-3.1-2.7c0-1.3,1.1-2.4,2.5-2.4c0.1,0,0.2,0,0.3,0c0.2,0,0.3,0,0.5,0
			L285,436.8z M284.3,433.7c-0.8-0.1-1.6,0.5-1.7,1.3c0,0.1,0,0.1,0,0.2c0.1,0.9,0.8,1.6,1.7,1.6V433.7z"/>
		<path class="st0" d="M283.8,431.3c-0.7,0-1.3,0-1.8,0v-0.9h1.1l0,0c-0.7-0.2-1.2-0.9-1.3-1.6c0-0.1,0-0.2,0-0.3h1
			c0,0.1,0,0.2,0,0.4c0,0.7,0.6,1.4,1.3,1.4c0.2,0,0.3,0,0.5,0h3.1v1.1L283.8,431.3z"/>
		<path class="st0" d="M283.5,427.4c-0.6,0-1.1,0-1.6,0v-0.9l1,0l0,0c-0.7-0.4-1.1-1.1-1.1-1.8c0-0.7,0.5-1.4,1.2-1.6l0,0
			c-0.3-0.2-0.6-0.4-0.8-0.7c-0.3-0.4-0.4-0.8-0.4-1.3c0-0.8,0.5-1.9,2.5-1.9h3.4v1h-3.3c-1.1,0-1.8,0.4-1.8,1.3
			c0,0.6,0.4,1.1,0.9,1.3c0.2,0.1,0.4,0.1,0.5,0.1h3.6v1h-3.5c-0.9,0-1.6,0.4-1.6,1.2c0,0.6,0.5,1.1,1,1.3c0.2,0.1,0.3,0.1,0.5,0.1
			h3.5v1L283.5,427.4z"/>
		<path class="st0" d="M286.4,413.3c0.5,0,0.9,0,1.4-0.1v1l-0.7,0.1l0,0c0.6,0.4,0.9,1.1,0.9,1.8c0.1,0.9-0.6,1.7-1.5,1.8
			c0,0-0.1,0-0.1,0c-1.4,0-2.2-1.2-2.2-3.5h-0.1c-0.7-0.1-1.2,0.4-1.3,1c0,0.1,0,0.2,0,0.3c0,0.5,0.1,1.1,0.4,1.5l-0.7,0.2
			c-0.3-0.6-0.5-1.2-0.5-1.9c0-1.8,1.2-2.2,2.4-2.2L286.4,413.3z M284.8,414.3c0,1.1,0.2,2.5,1.3,2.5c0.5,0,1-0.3,1-0.9
			c0,0,0-0.1,0-0.1c0-0.6-0.4-1.2-1-1.4c-0.1,0-0.2-0.1-0.3,0L284.8,414.3z"/>
		<path class="st0" d="M283.5,411.6c-0.6,0-1.1,0-1.6,0v-0.9l1-0.1l0,0c-0.7-0.4-1.1-1.1-1.1-1.9c0-0.8,0.5-2.1,2.5-2.1h3.5v1.1
			h-3.4c-0.9,0-1.7,0.4-1.7,1.3c0,0.7,0.5,1.2,1.1,1.4c0.2,0.1,0.3,0.1,0.5,0.1h3.5v1.1L283.5,411.6z"/>
		<path class="st0" d="M282,404.7l3.4-1.3c0.4-0.1,0.8-0.3,1.2-0.4l0,0c-0.4-0.1-0.8-0.2-1.2-0.4l-3.4-1.2v-1.1l4.1,1.6
			c2,0.8,3,1.3,3.6,2c0.3,0.4,0.6,0.8,0.7,1.3l-0.9,0.3c-0.1-0.3-0.3-0.7-0.5-0.9c-0.3-0.4-0.7-0.7-1.2-0.9c-0.1,0-0.2-0.1-0.2-0.1
			c-0.1,0-0.2,0-0.3,0.1l-5.4,2.1V404.7z"/>
	</g>
	<g>
		<path class="st0" d="M305,460.1h-8.1v-1.1l4.1-2.6c0.8-0.5,1.7-1,2.6-1.4l0,0c-1.1,0.1-2.1,0.1-3.3,0.1h-3.4v-1h8.1v1l-4.1,2.6
			c-0.9,0.6-1.8,1.1-2.7,1.5l0,0c1-0.1,2-0.1,3.3-0.1h3.5V460.1z"/>
		<path class="st0" d="M302.2,451.6c1,0.1,1.9-0.7,2-1.7c0-0.1,0-0.2,0-0.3c0-0.6,0-1.1-0.2-1.6l0.8-0.2c0.3,0.6,0.4,1.3,0.4,1.9
			c0.1,1.5-1.1,2.8-2.5,2.9c-0.1,0-0.3,0-0.4,0c-1.8,0-3.1-1-3.1-2.7c0-1.3,1.1-2.4,2.5-2.4c0.1,0,0.2,0,0.3,0c0.2,0,0.3,0,0.5,0
			L302.2,451.6z M301.5,448.5c-0.8-0.1-1.6,0.5-1.7,1.3c0,0.1,0,0.1,0,0.2c0.1,0.9,0.8,1.6,1.7,1.6V448.5z"/>
		<path class="st0" d="M297.8,444.9h1.4v-1.5h0.8v1.5h3.1c0.7,0,1.1-0.2,1.1-0.8c0-0.2,0-0.4-0.1-0.6h0.8c0.1,0.3,0.1,0.6,0.1,0.9
			c0,0.4-0.1,0.8-0.4,1.1c-0.4,0.3-1,0.5-1.5,0.4H300v0.9h-0.8V446h-1.1L297.8,444.9z"/>
		<path class="st0" d="M296.4,442.2v-1h3.6l0,0c-0.3-0.2-0.6-0.4-0.8-0.8c-0.2-0.3-0.3-0.7-0.3-1.1c0-0.8,0.5-2,2.5-2h3.5v1.1h-3.3
			c-0.9,0-1.7,0.4-1.7,1.3c0,0.6,0.4,1.2,1,1.4c0.2,0.1,0.3,0.1,0.5,0.1h3.5v1L296.4,442.2z"/>
		<path class="st0" d="M302.2,435c1,0.1,1.9-0.7,2-1.7c0-0.1,0-0.2,0-0.3c0-0.5-0.1-1.1-0.3-1.6l0.8-0.2c0.3,0.6,0.4,1.3,0.4,1.9
			c0.1,1.5-1,2.8-2.5,2.9c-0.1,0-0.3,0-0.4,0c-1.8,0-3.1-1-3.1-2.7c0-1.4,1.1-2.4,2.5-2.4c0.1,0,0.2,0,0.2,0c0.2,0,0.3,0,0.5,0
			L302.2,435z M301.5,431.9c-0.8-0.1-1.6,0.5-1.7,1.3c0,0.1,0,0.1,0,0.2c0.1,0.9,0.8,1.6,1.7,1.6V431.9z"/>
		<path class="st0" d="M301,429.5c-0.7,0-1.3,0-1.8,0v-0.9l1.1,0l0,0c-0.8-0.2-1.3-0.8-1.3-1.6c0-0.1,0-0.2,0-0.3h1
			c0,0.1,0,0.2,0,0.4c0,0.7,0.6,1.4,1.3,1.4c0.2,0,0.3,0,0.5,0h3.2v1L301,429.5z"/>
		<path class="st0" d="M296.4,425.6v-1.1h8.6v1.1H296.4z"/>
		<path class="st0" d="M303.6,418.7c0.5,0,0.9,0,1.4-0.1v0.9l-0.7,0.1l0,0c0.6,0.4,0.9,1.1,0.9,1.8c0.1,0.9-0.6,1.7-1.5,1.8
			c0,0-0.1,0-0.1,0c-1.4,0-2.2-1.2-2.2-3.5h-0.1c-0.7-0.1-1.2,0.4-1.3,1c0,0.1,0,0.2,0,0.3c0,0.5,0.1,1.1,0.4,1.5l-0.7,0.2
			c-0.3-0.6-0.5-1.2-0.5-1.9c0-1.8,1.2-2.2,2.4-2.2L303.6,418.7z M302,419.7c0,1.1,0.2,2.5,1.3,2.5c0.5,0,1-0.3,1-0.9
			c0,0,0-0.1,0-0.1c0-0.6-0.4-1.2-1-1.4c-0.1,0-0.2-0.1-0.3,0L302,419.7z"/>
		<path class="st0" d="M300.7,417c-0.6,0-1.1,0-1.6,0v-0.9l1-0.1l0,0c-0.7-0.4-1.1-1.1-1.1-1.9c0-0.8,0.5-2,2.5-2h3.5v1.1h-3.4
			c-0.9,0-1.7,0.4-1.7,1.3c0,0.7,0.5,1.2,1.1,1.4c0.2,0,0.3,0.1,0.5,0.1h3.5v1L300.7,417z"/>
		<path class="st0" d="M296.4,405.3h7c0.5,0,1.1,0,1.5,0v0.9l-1,0l0,0c0.7,0.4,1.2,1.2,1.1,2c0,1.4-1.2,2.5-3,2.5
			c-1.9,0-3.1-1.2-3.1-2.6c0-0.7,0.3-1.4,0.9-1.8l0,0h-3.5L296.4,405.3z M301.5,406.3c-0.1,0-0.3,0-0.5,0c-0.7,0.2-1.2,0.8-1.2,1.5
			c0,1.1,1,1.7,2.2,1.7s2.1-0.6,2.1-1.7c0-0.7-0.5-1.4-1.3-1.5c-0.2,0-0.3,0-0.5,0H301.5z"/>
		<path class="st0" d="M303.9,403.7c0.2-0.4,0.4-0.9,0.4-1.4c0-0.8-0.4-1.1-0.9-1.1s-0.8,0.3-1.1,1.1c-0.4,1-1,1.5-1.6,1.5
			c-1,0-1.8-0.9-1.7-1.9c0,0,0-0.1,0-0.1c0-0.5,0.1-1,0.4-1.4l0.8,0.2c-0.2,0.4-0.3,0.8-0.4,1.2c0,0.6,0.4,1,0.8,1s0.7-0.3,1-1.1
			c0.4-1,0.9-1.5,1.7-1.5c1,0,1.8,0.8,1.8,2.2c0,0.6-0.1,1.1-0.4,1.6L303.9,403.7z"/>
	</g>
	<g>
		<path class="st0" d="M318.3,408.4v3.1h2.9V408h0.9v4.5H314v-4.4h0.9v3.3h2.6v-3.1L318.3,408.4z"/>
		<path class="st0" d="M314,405.6h4.8c1.8,0,2.6-0.8,2.6-1.9s-0.8-2-2.6-2H314v-1h4.7c2.5,0,3.5,1.3,3.5,3.1s-0.9,2.9-3.5,2.9H314
			V405.6z"/>
	</g>
	<g>
		<path class="st0" d="M166.1,427.1c0.3-0.6,0.5-1.2,0.5-1.9c0-1.1-0.6-1.7-1.4-1.7s-1.2,0.5-1.6,1.5c-0.5,1.3-1.2,2.1-2.3,2.1
			c-1.3-0.1-2.3-1.1-2.2-2.4c0-0.1,0-0.1,0-0.2c0-0.6,0.1-1.2,0.4-1.8l0.9,0.3c-0.3,0.5-0.4,1-0.4,1.5c0,1.1,0.7,1.5,1.2,1.5
			c0.8,0,1.1-0.5,1.6-1.6c0.5-1.4,1.2-2,2.4-2s2.3,0.9,2.3,2.8c0,0.7-0.2,1.4-0.5,2.1L166.1,427.1z"/>
		<path class="st0" d="M163.4,421c-0.7,0-1.3,0-1.9,0v-0.9l1-0.1l0,0c-0.7-0.4-1.2-1.2-1.1-2.1c0-1.4,1.2-2.5,2.9-2.5
			c2.1,0,3.1,1.3,3.1,2.6c0,0.7-0.3,1.4-0.9,1.8l0,0h3.2v1L163.4,421z M165,420c0.1,0,0.3,0,0.4,0c0.7-0.2,1.2-0.8,1.2-1.6
			c0-1.1-0.9-1.8-2.2-1.8c-1.2,0-2.1,0.6-2.1,1.7c0,0.8,0.5,1.4,1.3,1.6c0.1,0,0.3,0.1,0.4,0.1L165,420z"/>
		<path class="st0" d="M166,410.1c0.5,0,0.9,0,1.4-0.1v0.9l-0.7,0.1l0,0c0.6,0.4,0.9,1.1,0.9,1.8c0.1,0.9-0.6,1.7-1.5,1.8
			c0,0-0.1,0-0.1,0c-1.4,0-2.2-1.2-2.2-3.5h-0.1c-0.7-0.1-1.2,0.4-1.3,1c0,0.1,0,0.2,0,0.3c0,0.5,0.1,1.1,0.4,1.5l-0.7,0.2
			c-0.3-0.6-0.5-1.2-0.5-1.9c0-1.8,1.2-2.2,2.4-2.2L166,410.1z M164.4,411.1c0,1.1,0.2,2.5,1.3,2.5c0.5,0,1-0.3,1-0.8
			c0-0.1,0-0.1,0-0.2c0-0.6-0.4-1.2-1-1.4c-0.1,0-0.2,0-0.3,0L164.4,411.1z"/>
		<path class="st0" d="M159.9,407.3c0.3,0,0.6,0.3,0.7,0.6c0,0,0,0,0,0.1c0,0.3-0.3,0.6-0.6,0.6c0,0,0,0,0,0c-0.4,0-0.6-0.3-0.7-0.6
			c0,0,0,0,0,0C159.2,407.6,159.5,407.3,159.9,407.3C159.9,407.3,159.9,407.3,159.9,407.3z M167.3,408.4h-5.8v-1h5.8V408.4z"/>
		<path class="st0" d="M163.1,405.6c-0.6,0-1.1,0-1.6,0v-0.9l1-0.1l0,0c-0.7-0.4-1.1-1.1-1.1-1.9c0-0.8,0.5-2,2.5-2h3.4v1.1H164
			c-0.9,0-1.7,0.3-1.7,1.3c0,0.7,0.5,1.2,1.1,1.4c0.2,0.1,0.3,0.1,0.5,0.1h3.5v1L163.1,405.6z"/>
	</g>
	<g>
		<path class="st0" d="M262.5,433h8.1v1.1h-8.1V433z"/>
		<path class="st0" d="M266.6,431.1c-0.7,0-1.3,0-1.8,0v-0.9l1.1,0l0,0c-0.7-0.2-1.2-0.9-1.3-1.6c0-0.1,0-0.2,0-0.3h1
			c0,0.1,0,0.2,0,0.4c0,0.7,0.6,1.3,1.4,1.4c0.2,0,0.3,0,0.5,0h3.1v1.1L266.6,431.1z"/>
		<path class="st0" d="M267.8,426.7c1,0.1,1.9-0.7,2-1.7c0-0.1,0-0.2,0-0.3c0-0.6-0.1-1.1-0.3-1.6l0.8-0.2c0.3,0.6,0.4,1.3,0.4,2
			c0.1,1.5-1.1,2.8-2.6,2.9c-0.1,0-0.3,0-0.4,0c-1.8,0-3.1-1-3.1-2.7c0-1.3,1.1-2.4,2.5-2.4c0.1,0,0.2,0,0.3,0c0.2,0,0.3,0,0.5,0
			L267.8,426.7z M267.1,423.6c-0.8-0.1-1.6,0.5-1.7,1.3c0,0.1,0,0.1,0,0.2c0.1,0.9,0.8,1.6,1.7,1.6V423.6z"/>
		<path class="st0" d="M262,421.3v-1.1h8.5v1.1H262z"/>
		<path class="st0" d="M269.2,414.4c0.5,0,0.9,0,1.4-0.1v0.9l-0.7,0.1l0,0c0.6,0.4,0.9,1.1,0.9,1.8c0.1,0.9-0.6,1.7-1.5,1.8
			c0,0-0.1,0-0.1,0c-1.4,0-2.2-1.2-2.2-3.5h-0.1c-0.7-0.1-1.2,0.4-1.3,1c0,0.1,0,0.2,0,0.3c0,0.5,0.1,1.1,0.4,1.5l-0.7,0.2
			c-0.3-0.6-0.5-1.2-0.5-1.9c0-1.8,1.2-2.2,2.4-2.2L269.2,414.4z M267.6,415.4c0,1.1,0.2,2.5,1.3,2.5c0.5,0,1-0.3,1-0.9
			c0,0,0-0.1,0-0.1c0-0.6-0.4-1.2-1-1.4c-0.1,0-0.2,0-0.3,0L267.6,415.4z"/>
		<path class="st0" d="M266.3,412.7c-0.6,0-1.1,0-1.6,0v-0.9l1-0.1l0,0c-0.7-0.4-1.1-1.1-1.1-1.9c0-0.8,0.5-2,2.5-2h3.5v1.1h-3.3
			c-0.9,0-1.7,0.3-1.7,1.3c0,0.7,0.5,1.2,1.1,1.4c0.2,0,0.3,0.1,0.5,0.1h3.5v1L266.3,412.7z"/>
		<path class="st0" d="M262,401h7c0.5,0,1.1,0,1.5,0v0.9h-1l0,0c0.7,0.4,1.2,1.2,1.1,2c0,1.4-1.2,2.5-3,2.5c-1.9,0-3.1-1.2-3.1-2.6
			c0-0.7,0.3-1.4,0.9-1.8l0,0H262V401z M267.1,402c-0.1,0-0.3,0-0.4,0c-0.7,0.2-1.2,0.8-1.2,1.5c0,1.1,1,1.7,2.2,1.7
			s2.1-0.6,2.1-1.7c0-0.7-0.5-1.4-1.2-1.5c-0.2,0-0.3,0-0.5,0H267.1z"/>
	</g>
	<g>
		<path class="st0" d="M216.4,432.6l2.5,0.8v1.1l-8.1-2.8v-1.2l8.1-2.8v1.1l-2.5,0.9V432.6z M215.6,429.9l-2.3,0.8
			c-0.5,0.2-1,0.3-1.5,0.4l0,0c0.5,0.1,1,0.2,1.5,0.4l2.3,0.8V429.9z"/>
		<path class="st0" d="M217.4,421.9c0.6,0,1.1,0,1.6,0v0.9l-0.9,0.1l0,0c0.7,0.4,1.1,1.1,1.1,1.9c0,0.9-0.5,2-2.5,2h-3.4v-1h3.2
			c1.1,0,1.9-0.4,1.9-1.3c0-0.6-0.4-1.2-1-1.4c-0.2-0.1-0.4-0.1-0.5-0.1h-3.6v-1.1H217.4z"/>
		<path class="st0" d="M217.9,420.3c0.3-0.4,0.4-0.9,0.4-1.4c0-0.8-0.4-1.1-0.9-1.1s-0.8,0.3-1.1,1.1c-0.4,1.1-1,1.5-1.6,1.5
			c-1,0-1.8-0.9-1.7-1.9c0,0,0-0.1,0-0.1c0-0.5,0.1-1,0.4-1.4l0.8,0.3c-0.2,0.4-0.3,0.8-0.4,1.2c0,0.6,0.4,1,0.8,1s0.7-0.3,1-1.1
			c0.4-1,0.9-1.5,1.7-1.5c1,0,1.8,0.8,1.8,2.2c0,0.6-0.1,1.1-0.4,1.6L217.9,420.3z"/>
		<path class="st0" d="M211.8,414.1h1.4v-1.5h0.9v1.5h3.1c0.7,0,1.1-0.2,1.1-0.8c0-0.2,0-0.4-0.1-0.6l0.8,0c0.1,0.3,0.1,0.6,0.1,0.9
			c0,0.4-0.1,0.8-0.4,1.1c-0.4,0.3-1,0.5-1.5,0.4H214v0.9h-0.8v-0.9h-1.1L211.8,414.1z"/>
		<path class="st0" d="M215,411.4c-0.7,0-1.3,0-1.8,0v-0.9h1.2l0,0c-0.7-0.2-1.2-0.9-1.3-1.6c0-0.1,0-0.2,0-0.3h1c0,0.1,0,0.2,0,0.4
			c0,0.7,0.6,1.4,1.3,1.4c0.2,0,0.3,0,0.5,0h3.1v1.1L215,411.4z"/>
		<path class="st0" d="M211.5,406.3c0.3,0,0.6,0.3,0.7,0.6c0,0,0,0,0,0.1c0,0.3-0.3,0.6-0.6,0.6c0,0,0,0-0.1,0
			c-0.4,0-0.7-0.3-0.7-0.6c0,0,0,0,0,0C210.8,406.6,211.1,406.3,211.5,406.3C211.5,406.3,211.5,406.3,211.5,406.3z M218.9,407.4
			h-5.8v-1.1h5.9L218.9,407.4z"/>
		<path class="st0" d="M217.6,400.6c0.5,0,0.9,0,1.4-0.1v0.9l-0.7,0.1l0,0c0.6,0.4,0.9,1.1,0.9,1.8c0.1,0.9-0.6,1.7-1.5,1.8
			c0,0-0.1,0-0.1,0c-1.4,0-2.2-1.2-2.2-3.5h-0.1c-0.7-0.1-1.3,0.4-1.3,1c0,0.1,0,0.2,0,0.3c0,0.5,0.1,1.1,0.4,1.5l-0.7,0.2
			c-0.3-0.6-0.5-1.2-0.5-1.9c0-1.8,1.2-2.2,2.4-2.2L217.6,400.6z M216,401.6c0,1.1,0.2,2.5,1.3,2.5c0.5,0,1-0.3,1-0.9
			c0,0,0-0.1,0-0.1c0-0.6-0.4-1.2-1-1.4c-0.1,0-0.2-0.1-0.3,0L216,401.6z"/>
	</g>
	<g>
		<path class="st0" d="M73.2,463.3v-1h7.2v-3.5h0.9v4.5L73.2,463.3z"/>
		<path class="st0" d="M79.7,453c0.6,0,1.1,0,1.6,0v0.9l-0.9,0.1l0,0c0.7,0.4,1.1,1.1,1.1,1.9c0,0.9-0.5,2-2.6,2h-3.4v-1.1h3.2
			c1.1,0,1.9-0.3,1.9-1.3c0-0.6-0.4-1.2-1-1.4c-0.2-0.1-0.4-0.1-0.5-0.1h-3.5v-1L79.7,453z"/>
		<path class="st0" d="M75.5,450.7l1.2-0.8c0.3-0.2,0.6-0.4,0.9-0.6l0,0c-0.3-0.2-0.6-0.4-0.9-0.6l-1.2-0.8v-1.1l2.8,2l3-2v1.2
			l-1.3,0.9c-0.3,0.2-0.7,0.4-1,0.6l0,0c0.3,0.2,0.7,0.4,1,0.6l1.3,0.8v1.1l-3-2.1l-2.8,2L75.5,450.7z"/>
		<path class="st0" d="M78.6,445.2c1,0.1,1.9-0.7,2-1.7c0-0.1,0-0.2,0-0.3c0-0.6-0.1-1.1-0.3-1.6l0.8-0.2c0.3,0.6,0.4,1.3,0.4,1.9
			c0.1,1.5-1.1,2.8-2.5,2.9c-0.1,0-0.3,0-0.4,0c-1.8,0-3.1-1-3.1-2.7c0-1.4,1.1-2.4,2.5-2.4c0.1,0,0.2,0,0.2,0c0.2,0,0.3,0,0.5,0
			L78.6,445.2z M77.9,442.1c-0.8-0.1-1.6,0.5-1.7,1.3c0,0.1,0,0.1,0,0.2c0.1,0.9,0.8,1.6,1.7,1.6V442.1z"/>
		<path class="st0" d="M77.1,439.8c-0.6,0-1.1,0-1.6,0V439l1,0l0,0c-0.7-0.4-1.2-1.1-1.1-2c0-0.7,0.5-1.4,1.2-1.6l0,0
			c-0.3-0.2-0.6-0.4-0.8-0.7c-0.3-0.4-0.4-0.8-0.4-1.3c0-0.8,0.5-1.9,2.5-1.9h3.4v1h-3.3c-1.1,0-1.8,0.4-1.8,1.3
			c0,0.6,0.4,1.1,1,1.3c0.2,0,0.4,0.1,0.5,0.1h3.6v1h-3.5c-0.9,0-1.6,0.4-1.6,1.2c0,0.6,0.5,1.1,1.1,1.3c0.2,0.1,0.3,0.1,0.5,0.1
			h3.5v1L77.1,439.8z"/>
		<path class="st0" d="M72.8,429.8v-1h3.7l0,0c-0.7-0.4-1.1-1.2-1.1-2c0-1.5,1.2-2.5,3-2.5c2.1,0,3.1,1.3,3.1,2.6
			c0,0.8-0.4,1.6-1.1,2l0,0h0.9v0.9c-0.4,0-1,0-1.5,0L72.8,429.8z M79,428.8c0.1,0,0.3,0,0.4,0c0.7-0.2,1.2-0.8,1.2-1.6
			c0-1.1-0.9-1.8-2.2-1.8c-1.2,0-2.2,0.6-2.2,1.7c0,0.8,0.5,1.4,1.3,1.6c0.1,0,0.3,0.1,0.4,0.1L79,428.8z"/>
		<path class="st0" d="M78.4,417.7c1.6-0.1,2.9,1,3.1,2.6c0,0.1,0,0.2,0,0.3c0,1.5-1.2,2.8-2.7,2.8c-0.1,0-0.2,0-0.3,0
			c-1.6,0.1-2.9-1-3.1-2.6c0-0.1,0-0.2,0-0.3c0-1.5,1.2-2.8,2.7-2.8C78.2,417.7,78.3,417.7,78.4,417.7z M78.4,422.3
			c1.3,0,2.2-0.7,2.2-1.8s-1-1.8-2.3-1.8c-1,0-2.2,0.5-2.2,1.7S77.3,422.3,78.4,422.3z"/>
		<path class="st0" d="M79.7,411.5c0.6,0,1.1,0,1.6,0v0.9l-0.9,0.1l0,0c0.7,0.4,1.1,1.1,1.1,1.9c0,0.9-0.5,2-2.6,2h-3.4v-1.1h3.2
			c1.1,0,1.9-0.4,1.9-1.3c0-0.6-0.4-1.2-1-1.4c-0.2-0.1-0.4-0.1-0.5-0.1h-3.5v-1.1L79.7,411.5z"/>
		<path class="st0" d="M77.3,409.8c-0.7,0-1.3,0-1.8,0v-0.9h1.2l0,0c-0.7-0.2-1.2-0.9-1.3-1.6c0-0.1,0-0.2,0-0.3h1
			c0,0.1,0,0.2,0,0.4c0,0.7,0.6,1.4,1.3,1.4c0.2,0,0.3,0,0.5,0h3.1v1.1H77.3z"/>
		<path class="st0" d="M80.5,401c1-0.1,1.9,0.2,2.7,0.8c0.5,0.6,0.7,1.4,0.7,2.1c0,0.7-0.2,1.3-0.5,1.9l-0.8-0.3
			c0.3-0.5,0.5-1.1,0.5-1.7c0-1.1-0.6-1.9-2-1.9h-0.6l0,0c0.6,0.4,1,1.1,1,1.9c-0.1,1.4-1.3,2.5-2.7,2.5c0,0-0.1,0-0.1,0
			c-1.5,0.2-2.9-0.9-3.1-2.5c0-0.1,0-0.1,0-0.2c0-0.7,0.4-1.4,1-1.8l0,0h-0.9V401c0.4,0,0.9,0,1.6,0L80.5,401z M77.8,402
			c-0.2,0-0.3,0-0.5,0.1c-0.7,0.2-1.1,0.8-1.1,1.5c0,1,0.8,1.7,2.2,1.7c1.1,0,2.1-0.6,2.1-1.7c0-0.7-0.4-1.3-1.1-1.5
			c-0.2-0.1-0.4-0.1-0.6-0.1L77.8,402z"/>
	</g>
	<g>
		<path class="st0" d="M184.2,427.3c0.3,0.8,0.4,1.6,0.4,2.5c0.2,2.1-1.3,3.9-3.4,4.1c-0.2,0-0.5,0-0.7,0c-2.2,0.1-4.1-1.6-4.2-3.8
			c0-0.2,0-0.4,0-0.6c0-0.7,0.1-1.4,0.4-2l0.9,0.3c-0.3,0.6-0.4,1.2-0.4,1.8c-0.1,1.7,1.1,3.1,2.7,3.2c0.2,0,0.3,0,0.5,0
			c1.6,0.2,3.1-1.1,3.3-2.7c0-0.1,0-0.3,0-0.4c0-0.5-0.1-0.9-0.2-1.4h-2.4v1.6h-0.8v-2.7L184.2,427.3z"/>
		<path class="st0" d="M180.6,425.7c-0.7,0-1.3,0-1.8,0v-0.9h1.1l0,0c-0.7-0.2-1.2-0.9-1.3-1.6c0-0.1,0-0.2,0-0.3h1
			c0,0.1,0,0.2,0,0.4c0,0.7,0.6,1.3,1.3,1.4c0.2,0,0.3,0,0.5,0h3.1v1.1L180.6,425.7z"/>
		<path class="st0" d="M181.8,421.3c1,0.1,1.9-0.7,2-1.7c0-0.1,0-0.2,0-0.3c0-0.5-0.1-1.1-0.3-1.6l0.8-0.2c0.3,0.6,0.4,1.3,0.4,1.9
			c0.1,1.5-1.1,2.8-2.6,2.9c-0.1,0-0.3,0-0.4,0c-1.8,0-3.1-1-3.1-2.7c0-1.3,1.1-2.4,2.5-2.4c0.1,0,0.2,0,0.3,0c0.2,0,0.3,0,0.5,0
			L181.8,421.3z M181.1,418.2c-0.8-0.1-1.6,0.5-1.7,1.3c0,0.1,0,0.1,0,0.2c0.1,0.9,0.8,1.6,1.7,1.6V418.2z"/>
		<path class="st0" d="M181.8,415.3c1,0.1,1.9-0.7,2-1.7c0-0.1,0-0.2,0-0.3c0-0.6-0.1-1.1-0.3-1.6l0.8-0.2c0.3,0.6,0.4,1.3,0.4,1.9
			c0.1,1.5-1.1,2.8-2.5,2.9c-0.1,0-0.3,0-0.4,0c-1.8,0-3.1-1-3.1-2.7c0-1.3,1.1-2.4,2.5-2.4c0.1,0,0.2,0,0.3,0c0.2,0,0.3,0,0.5,0
			L181.8,415.3z M181.1,412.2c-0.8-0.1-1.6,0.5-1.7,1.3c0,0.1,0,0.1,0,0.2c0.1,0.9,0.8,1.6,1.7,1.6V412.2z"/>
		<path class="st0" d="M184.3,405.8c0.2,0.5,0.3,1.1,0.3,1.7c0.1,1.5-1.1,2.8-2.6,2.9c-0.1,0-0.3,0-0.4,0c-1.7,0.1-3-1.2-3.1-2.9
			c0-0.1,0-0.1,0-0.2c0-0.5,0.1-1,0.3-1.5l0.8,0.2c-0.2,0.4-0.3,0.8-0.3,1.2c0,1.1,0.8,2,1.9,2.1c0.1,0,0.2,0,0.3,0
			c1.1,0.1,2.1-0.7,2.2-1.8c0-0.1,0-0.1,0-0.2c0-0.4-0.1-0.9-0.3-1.3L184.3,405.8z"/>
		<path class="st0" d="M181.8,404c1,0.1,1.9-0.7,2-1.7c0-0.1,0-0.2,0-0.3c0-0.6-0.1-1.1-0.3-1.6l0.8-0.2c0.3,0.6,0.4,1.3,0.4,1.9
			c0.1,1.5-1,2.8-2.5,2.9c-0.1,0-0.3,0-0.4,0c-1.8,0-3.1-1-3.1-2.7c0-1.4,1.1-2.4,2.5-2.4c0.1,0,0.2,0,0.2,0c0.2,0,0.3,0,0.5,0
			L181.8,404z M181.1,400.9c-0.8-0.1-1.6,0.5-1.7,1.3c0,0.1,0,0.1,0,0.2c0.1,0.9,0.8,1.6,1.7,1.6V400.9z"/>
	</g>
	<g>
		<path class="st0" d="M193.8,442.1c-0.1-0.7-0.2-1.3-0.2-2c-0.1-0.8,0.2-1.6,0.7-2.3c0.4-0.5,1.1-0.7,1.7-0.7
			c0.6,0,1.3,0.2,1.7,0.6c0.6,0.7,0.9,1.6,0.9,2.5c0,0.3,0,0.6-0.1,0.8h3.2v1L193.8,442.1z M197.7,441.1c0.1-0.3,0.1-0.6,0.1-0.9
			c0-1.3-0.6-2-1.7-2s-1.6,0.8-1.6,1.9c0,0.3,0,0.7,0.1,1L197.7,441.1z"/>
		<path class="st0" d="M198.8,430.8c1.6-0.1,2.9,1,3.1,2.6c0,0.1,0,0.2,0,0.3c0,1.5-1.2,2.8-2.7,2.8c-0.1,0-0.2,0-0.3,0
			c-1.6,0.1-2.9-1-3.1-2.6c0-0.1,0-0.2,0-0.3c0-1.5,1.2-2.8,2.7-2.8C198.6,430.8,198.7,430.8,198.8,430.8z M198.9,435.4
			c1.3,0,2.2-0.7,2.2-1.8s-1-1.8-2.3-1.8c-1,0-2.2,0.5-2.2,1.7S197.8,435.4,198.9,435.4L198.9,435.4z"/>
		<path class="st0" d="M197.8,429.5c-0.7,0-1.3,0-1.8,0v-0.9l1.1,0l0,0c-0.7-0.2-1.2-0.9-1.3-1.6c0-0.1,0-0.2,0-0.3h1
			c0,0.1,0,0.2,0,0.4c0,0.7,0.6,1.3,1.3,1.4c0.2,0,0.3,0,0.5,0h3.1v1L197.8,429.5z"/>
		<path class="st0" d="M194.6,424h1.4v-1.5h0.8v1.5h3.1c0.7,0,1.1-0.2,1.1-0.8c0-0.2,0-0.4-0.1-0.6l0.8,0c0.1,0.3,0.1,0.6,0.1,0.9
			c0,0.4-0.1,0.8-0.4,1.1c-0.4,0.3-1,0.5-1.5,0.4h-3.2v0.9h-0.8V425h-1.1L194.6,424z"/>
		<path class="st0" d="M200.1,416.5c0.6,0,1.1,0,1.6,0v0.9l-0.9,0.1l0,0c0.7,0.4,1.1,1.1,1.1,1.9c0,0.9-0.5,2-2.5,2h-3.4v-1h3.2
			c1.1,0,1.9-0.4,1.9-1.3c0-0.6-0.4-1.2-1-1.4c-0.2-0.1-0.4-0.1-0.5-0.1h-3.6v-1.1L200.1,416.5z"/>
		<path class="st0" d="M200.9,409.7c1-0.1,1.9,0.2,2.7,0.8c0.5,0.6,0.7,1.4,0.7,2.1c0,0.7-0.1,1.3-0.5,1.9l-0.8-0.3
			c0.3-0.5,0.5-1.1,0.5-1.7c0-1.1-0.6-1.9-2-1.9h-0.6l0,0c0.6,0.4,1,1.1,1,1.8c-0.1,1.4-1.3,2.5-2.7,2.5c0,0-0.1,0-0.1,0
			c-1.5,0.2-2.9-0.9-3.1-2.5c0-0.1,0-0.1,0-0.2c0-0.7,0.3-1.5,1-1.8l0,0H196v-0.9c0.4,0,0.9,0,1.6,0L200.9,409.7z M198.2,410.8
			c-0.2,0-0.3,0-0.5,0.1c-0.7,0.2-1.1,0.8-1.1,1.5c0,1,0.9,1.7,2.2,1.7c1.1,0,2.1-0.6,2.1-1.7c0-0.7-0.4-1.3-1.1-1.5
			c-0.2-0.1-0.4-0.1-0.6-0.1L198.2,410.8z"/>
		<path class="st0" d="M200.4,403.9c0.5,0,0.9,0,1.4-0.1v0.9l-0.7,0.1l0,0c0.6,0.4,0.9,1.1,0.9,1.8c0.1,0.9-0.6,1.7-1.5,1.8
			c0,0-0.1,0-0.1,0c-1.4,0-2.2-1.2-2.2-3.5h-0.1c-0.7-0.1-1.2,0.4-1.3,1c0,0.1,0,0.2,0,0.3c0,0.5,0.1,1.1,0.4,1.5l-0.7,0.2
			c-0.3-0.6-0.5-1.2-0.5-1.9c0-1.8,1.2-2.2,2.4-2.2L200.4,403.9z M198.8,404.9c0,1.1,0.2,2.5,1.3,2.5c0.5,0,1-0.3,1-0.9
			c0,0,0-0.1,0-0.1c0-0.6-0.4-1.2-1-1.4c-0.1,0-0.2-0.1-0.3,0L198.8,404.9z"/>
		<path class="st0" d="M193.2,402.2v-1h8.5v1H193.2z"/>
	</g>
	<g>
		<path class="st0" d="M98.3,427.2c0.3,0.7,0.4,1.4,0.4,2.1c0.1,2.1-1.5,3.9-3.5,4c-0.2,0-0.4,0-0.6,0c-2.2,0.1-4.1-1.5-4.2-3.7
			c0-0.2,0-0.3,0-0.5c0-0.7,0.1-1.3,0.4-1.9l0.8,0.3c-0.2,0.5-0.3,1.1-0.3,1.6c-0.1,1.7,1.2,3.1,2.8,3.2c0.2,0,0.3,0,0.5,0
			c1.6,0.2,3.1-1,3.2-2.6c0-0.2,0-0.3,0-0.5c0-0.6-0.1-1.2-0.3-1.7L98.3,427.2z"/>
		<path class="st0" d="M92.7,425.8l3.4-1.3c0.4-0.1,0.8-0.3,1.2-0.4l0,0c-0.3-0.1-0.8-0.2-1.2-0.4l-3.4-1.1v-1.1l4.1,1.6
			c2,0.8,3,1.3,3.6,2c0.3,0.4,0.6,0.8,0.7,1.3l-0.9,0.3c-0.1-0.3-0.3-0.7-0.5-0.9c-0.3-0.4-0.7-0.7-1.2-0.9c-0.1,0-0.2-0.1-0.2-0.1
			c-0.1,0-0.2,0-0.3,0.1l-5.4,2.1V425.8z"/>
		<path class="st0" d="M94.6,420.5c-0.8,0-1.3,0-1.9,0v-0.9l1-0.1l0,0c-0.7-0.4-1.2-1.2-1.1-2.1c0-1.4,1.2-2.5,2.9-2.5
			c2.1,0,3.1,1.3,3.1,2.6c0,0.7-0.3,1.4-0.9,1.8l0,0h3.2v1L94.6,420.5z M96.2,419.5c0.1,0,0.3,0,0.4,0c0.7-0.2,1.2-0.8,1.2-1.6
			c0-1.1-0.9-1.8-2.2-1.8c-1.2,0-2.2,0.6-2.2,1.7c0,0.8,0.6,1.4,1.3,1.6c0.1,0,0.3,0.1,0.4,0.1L96.2,419.5z"/>
		<path class="st0" d="M94.5,413.7c-0.7,0-1.3,0-1.8,0v-0.9l1.2,0l0,0c-0.7-0.2-1.2-0.9-1.3-1.6c0-0.1,0-0.2,0-0.3h1
			c0,0.1,0,0.2,0,0.4c0,0.7,0.6,1.3,1.3,1.4c0.2,0,0.3,0,0.5,0h3.1v1L94.5,413.7z"/>
		<path class="st0" d="M96.9,404.9c0.6,0,1.1,0,1.6,0v0.9l-1,0.1l0,0c0.7,0.4,1.1,1.1,1.1,1.9c0,0.9-0.5,2-2.5,2h-3.4v-1h3.2
			c1.1,0,1.9-0.4,1.9-1.3c0-0.6-0.4-1.2-1-1.4c-0.2-0.1-0.4-0.1-0.5-0.1h-3.5v-1.1L96.9,404.9z"/>
		<path class="st0" d="M97.5,403.3c0.2-0.4,0.4-0.9,0.4-1.4c0-0.8-0.4-1.1-0.9-1.1s-0.8,0.3-1.1,1.1c-0.4,1.1-0.9,1.5-1.6,1.5
			c-1,0-1.8-0.9-1.7-1.9c0,0,0-0.1,0-0.1c0-0.5,0.1-1,0.4-1.4l0.8,0.2c-0.2,0.4-0.3,0.8-0.3,1.2c0,0.6,0.4,1,0.8,1s0.7-0.3,1-1.1
			c0.4-1,0.9-1.5,1.7-1.5c1,0,1.8,0.8,1.8,2.2c0,0.6-0.1,1.1-0.4,1.6L97.5,403.3z"/>
	</g>
	<g>
		<path class="st0" d="M60.6,420.1c-1.1,0.1-2.5,0.1-3.5,0.1l0,0c0.9,0.3,2,0.6,3.1,1l3.9,1.4v0.8l-3.8,1.3
			c-1.2,0.4-2.2,0.7-3.2,0.9l0,0c1,0,2.3,0.1,3.6,0.2l3.5,0.2v1l-8.1-0.6v-1.3l3.9-1.3c1-0.3,1.9-0.6,2.7-0.8l0,0
			c-0.8-0.2-1.7-0.5-2.7-0.9l-3.9-1.4v-1.3l8.1-0.5v1L60.6,420.1z"/>
		<path class="st0" d="M62.7,413.2c0.5,0,0.9,0,1.4-0.1v1l-0.7,0.1l0,0c0.6,0.4,0.9,1.1,0.9,1.8c0.1,0.9-0.6,1.7-1.5,1.8
			c0,0-0.1,0-0.1,0c-1.4,0-2.2-1.2-2.2-3.5h-0.1c-0.6-0.1-1.2,0.4-1.3,1c0,0.1,0,0.2,0,0.3c0,0.5,0.1,1.1,0.4,1.5l-0.7,0.2
			c-0.3-0.6-0.5-1.2-0.5-1.9c0-1.8,1.2-2.2,2.4-2.2H62.7z M61.2,414.2c0,1.1,0.2,2.5,1.3,2.5c0.5,0,1-0.3,1-0.9c0,0,0-0.1,0-0.1
			c0-0.6-0.4-1.2-1-1.4c-0.1,0-0.2-0.1-0.3,0L61.2,414.2z"/>
		<path class="st0" d="M55.6,411.5v-1.1h8.5v1.1H55.6z"/>
		<path class="st0" d="M56.9,407.4h1.4v-1.5h0.8v1.5h3.1c0.7,0,1.1-0.2,1.1-0.8c0-0.2,0-0.4-0.1-0.6l0.8,0c0.1,0.3,0.2,0.6,0.2,0.9
			c0,0.4-0.1,0.8-0.4,1.1c-0.4,0.3-1,0.4-1.5,0.4h-3.2v0.9h-0.8v-0.9h-1.1L56.9,407.4z"/>
		<path class="st0" d="M62.7,400.6c0.5,0,0.9,0,1.4-0.1v1l-0.7,0.1l0,0c0.6,0.4,0.9,1.1,0.9,1.8c0.1,0.9-0.6,1.7-1.5,1.8
			c0,0-0.1,0-0.1,0c-1.4,0-2.2-1.2-2.2-3.5h-0.1c-0.7-0.1-1.2,0.4-1.3,1c0,0.1,0,0.2,0,0.4c0,0.5,0.1,1.1,0.4,1.5l-0.7,0.2
			c-0.3-0.6-0.5-1.2-0.5-1.9c0-1.8,1.2-2.2,2.4-2.2L62.7,400.6z M61.2,401.6c0,1.2,0.2,2.5,1.3,2.5c0.5,0,1-0.3,1-0.9
			c0,0,0-0.1,0-0.1c0.1-0.7-0.5-1.4-1.2-1.5c0,0-0.1,0-0.1,0L61.2,401.6z"/>
	</g>
	<g>
		<path class="st0" d="M469,439.5c-0.1-0.6-0.2-1.3-0.2-1.9c-0.1-0.8,0.1-1.6,0.6-2.2c0.3-0.4,0.9-0.7,1.4-0.7
			c0.8,0,1.5,0.6,1.8,1.4l0,0c0.2-1,1-1.7,2-1.7c0.6,0,1.2,0.2,1.6,0.7c0.6,0.8,0.9,1.8,0.8,2.8c0,0.5,0,1.1-0.1,1.6H469z
			 M472.3,438.5v-0.9c0-1.1-0.6-1.7-1.4-1.7c-0.9,0-1.3,0.7-1.3,1.8c0,0.3,0,0.6,0.1,0.9L472.3,438.5z M476.2,438.5
			c0-0.3,0.1-0.6,0-0.9c0-1.1-0.4-2.1-1.6-2.1s-1.6,1-1.6,2.1v0.9H476.2z"/>
		<path class="st0" d="M475.4,428.2c0.6,0,1.1,0,1.6,0v0.9l-1,0.1l0,0c0.7,0.4,1.1,1.1,1.1,1.9c0,0.9-0.5,2-2.5,2h-3.4V432h3.2
			c1.1,0,1.9-0.4,1.9-1.3c0-0.6-0.4-1.2-1-1.4c-0.2-0.1-0.4-0.1-0.5-0.1h-3.5v-1.1L475.4,428.2z"/>
		<path class="st0" d="M468.5,426.4v-1.1h8.5v1.1H468.5z"/>
		<path class="st0" d="M476.1,418.6c1-0.1,1.9,0.2,2.7,0.8c0.5,0.6,0.7,1.4,0.7,2.1c0,0.7-0.1,1.3-0.5,1.9l-0.8-0.3
			c0.3-0.5,0.5-1.1,0.5-1.7c0-1.1-0.6-1.9-2-1.9H476l0,0c0.6,0.4,1,1.1,1,1.9c-0.1,1.4-1.3,2.5-2.7,2.5c0,0-0.1,0-0.1,0
			c-1.5,0.2-2.9-0.9-3.1-2.5c0-0.1,0-0.1,0-0.2c0-0.7,0.3-1.5,1-1.8l0,0h-0.9v-0.9c0.4,0,0.9,0,1.6,0L476.1,418.6z M473.5,419.7
			c-0.2,0-0.3,0-0.5,0.1c-0.7,0.2-1.1,0.8-1.1,1.5c0,1,0.9,1.7,2.2,1.7c1.1,0,2.1-0.6,2.1-1.7c0-0.7-0.4-1.3-1.1-1.5
			c-0.2-0.1-0.4-0.1-0.6-0.1L473.5,419.7z"/>
		<path class="st0" d="M475.6,412.8c0.5,0,0.9,0,1.4-0.1v0.9l-0.7,0.1l0,0c0.6,0.4,0.9,1.1,0.9,1.8c0.1,0.9-0.6,1.7-1.5,1.8
			c0,0-0.1,0-0.1,0c-1.4,0-2.2-1.2-2.2-3.5h-0.1c-0.7-0.1-1.2,0.4-1.3,1c0,0.1,0,0.2,0,0.3c0,0.5,0.1,1.1,0.4,1.5l-0.7,0.2
			c-0.3-0.6-0.5-1.2-0.5-1.9c0-1.8,1.2-2.2,2.4-2.2L475.6,412.8z M474,413.8c0,1.1,0.2,2.5,1.3,2.5c0.5,0,1-0.3,1-0.9
			c0,0,0-0.1,0-0.1c0-0.6-0.4-1.2-1-1.4c-0.1,0-0.2-0.1-0.3,0L474,413.8z"/>
		<path class="st0" d="M473,411.1c-0.7,0-1.3,0-1.8,0v-0.9l1.1,0l0,0c-0.7-0.2-1.2-0.9-1.3-1.6c0-0.1,0-0.2,0-0.3h1
			c0,0.1,0,0.2,0,0.4c0,0.7,0.6,1.3,1.3,1.4c0.2,0,0.3,0,0.5,0h3.1v1L473,411.1z"/>
		<path class="st0" d="M469.5,406c0.4,0,0.6,0.4,0.6,0.7c0,0.3-0.3,0.5-0.6,0.6c-0.4,0-0.7-0.3-0.7-0.6c0,0,0,0,0,0
			C468.9,406.3,469.1,406,469.5,406C469.5,406,469.5,406,469.5,406z M477,407.2h-5.8v-1h5.8L477,407.2z"/>
		<path class="st0" d="M475.6,400.3c0.5,0,0.9,0,1.4-0.1v1l-0.7,0.1l0,0c0.6,0.4,0.9,1.1,0.9,1.8c0.1,0.9-0.6,1.7-1.5,1.8
			c0,0-0.1,0-0.1,0c-1.4,0-2.2-1.2-2.2-3.5h-0.1c-0.7-0.1-1.2,0.4-1.3,1c0,0.1,0,0.2,0,0.3c0,0.5,0.1,1.1,0.4,1.5l-0.7,0.2
			c-0.3-0.6-0.5-1.2-0.5-1.9c0-1.8,1.2-2.2,2.4-2.2L475.6,400.3z M474,401.3c0,1.1,0.2,2.5,1.3,2.5c0.5,0,1-0.3,1-0.8
			c0-0.1,0-0.1,0-0.2c0-0.6-0.4-1.2-1-1.4c-0.1,0-0.2,0-0.3,0L474,401.3z"/>
	</g>
	<g>
		<path class="st0" d="M142.1,445.7v-1h7.2v-3.5h0.9v4.5L142.1,445.7z"/>
		<path class="st0" d="M142.7,438.9c0.3,0,0.6,0.3,0.6,0.6c0,0,0,0,0,0.1c0,0.3-0.3,0.6-0.6,0.6c0,0,0,0-0.1,0
			c-0.4,0-0.6-0.3-0.7-0.6c0,0,0,0,0,0C142,439.2,142.3,438.9,142.7,438.9C142.7,438.9,142.7,438.9,142.7,438.9z M150.1,440.1h-5.8
			V439h5.8V440.1z"/>
		<path class="st0" d="M143,436h1.4v-1.5h0.8v1.5h3.1c0.7,0,1.1-0.2,1.1-0.8c0-0.2,0-0.4-0.1-0.6h0.8c0.1,0.3,0.1,0.6,0.1,0.9
			c0,0.4-0.1,0.8-0.4,1.1c-0.4,0.3-1,0.4-1.5,0.4h-3.2v0.9h-0.8v-1h-1.1L143,436z"/>
		<path class="st0" d="M141.6,433.3v-1h3.6l0,0c-0.3-0.2-0.6-0.4-0.8-0.8c-0.2-0.3-0.3-0.7-0.3-1.1c0-0.8,0.5-2,2.5-2h3.4v1.1h-3.3
			c-0.9,0-1.7,0.3-1.7,1.3c0,0.8,0.7,1.5,1.5,1.5c0,0,0,0,0,0h3.5v1L141.6,433.3z"/>
		<path class="st0" d="M148.6,421.8c0.6,0,1.1,0,1.6,0v0.9l-0.9,0.1l0,0c0.7,0.4,1.1,1.1,1.1,1.9c0,0.9-0.5,2-2.5,2h-3.4v-1.1h3.2
			c1.1,0,1.9-0.4,1.9-1.3c0-0.6-0.4-1.2-1-1.4c-0.2-0.1-0.4-0.1-0.5-0.1h-3.6v-1L148.6,421.8z"/>
		<path class="st0" d="M148.8,415.9c0.5,0,0.9,0,1.4-0.1v1l-0.7,0.1l0,0c0.6,0.4,0.9,1.1,0.9,1.8c0.1,0.9-0.6,1.7-1.5,1.8
			c0,0-0.1,0-0.1,0c-1.4,0-2.2-1.2-2.2-3.5h-0.1c-0.6-0.1-1.2,0.4-1.3,1c0,0.1,0,0.2,0,0.3c0,0.5,0.1,1.1,0.4,1.5l-0.7,0.2
			c-0.3-0.6-0.5-1.2-0.5-1.9c0-1.8,1.2-2.2,2.4-2.2L148.8,415.9z M147.2,416.9c0,1.1,0.2,2.5,1.3,2.5c0.5,0,1-0.3,1-0.8
			c0-0.1,0-0.1,0-0.2c0-0.6-0.4-1.2-1-1.4c-0.1,0-0.2-0.1-0.3,0L147.2,416.9z"/>
		<path class="st0" d="M145.9,414.2c-0.6,0-1.1,0-1.6,0v-0.9l1-0.1l0,0c-0.7-0.4-1.1-1.1-1.1-1.9c0-0.8,0.5-2,2.5-2h3.4v1h-3.4
			c-0.9,0-1.7,0.4-1.7,1.3c0,0.7,0.5,1.2,1.1,1.4c0.2,0.1,0.3,0.1,0.5,0.1h3.5v1.1L145.9,414.2z"/>
		<path class="st0" d="M142.7,406.4c0.3,0,0.6,0.3,0.6,0.6c0,0,0,0,0,0.1c0,0.3-0.2,0.6-0.6,0.6c0,0,0,0-0.1,0
			c-0.4,0-0.7-0.3-0.7-0.6c0,0,0,0,0,0C142,406.7,142.3,406.4,142.7,406.4C142.7,406.4,142.7,406.4,142.7,406.4z M150.1,407.6h-5.8
			v-1.1h5.8V407.6z"/>
		<path class="st0" d="M148.8,400.7c0.5,0,0.9,0,1.4-0.1v0.9l-0.7,0.1l0,0c0.6,0.4,0.9,1.1,0.9,1.8c0.1,0.9-0.6,1.7-1.5,1.8
			c0,0-0.1,0-0.1,0c-1.4,0-2.2-1.2-2.2-3.5h-0.1c-0.7-0.1-1.2,0.4-1.3,1c0,0.1,0,0.2,0,0.3c0,0.5,0.1,1.1,0.4,1.5l-0.7,0.2
			c-0.3-0.6-0.5-1.2-0.5-1.9c0-1.8,1.2-2.2,2.4-2.2L148.8,400.7z M147.2,401.7c0,1.1,0.2,2.5,1.3,2.5c0.5,0,1-0.3,1-0.8
			c0-0.1,0-0.1,0-0.2c0-0.6-0.4-1.2-1-1.4c-0.1,0-0.2-0.1-0.3,0L147.2,401.7z"/>
	</g>
	<g>
		<path class="st0" d="M107.7,419.5h8.1v1.1h-8.1V419.5z"/>
		<path class="st0" d="M108.5,416.3h1.4v-1.5h0.8v1.5h3.1c0.7,0,1.1-0.2,1.1-0.8c0-0.2,0-0.4-0.1-0.6h0.8c0.1,0.3,0.1,0.6,0.1,0.9
			c0,0.4-0.1,0.8-0.4,1.1c-0.4,0.3-1,0.5-1.5,0.4h-3.2v0.9h-0.8v-0.9h-1.1L108.5,416.3z"/>
		<path class="st0" d="M114.3,409.5c0.5,0,0.9,0,1.4-0.1v0.9l-0.7,0.1l0,0c0.6,0.4,0.9,1.1,0.9,1.8c0.1,0.9-0.6,1.7-1.5,1.8
			c-0.1,0-0.1,0-0.2,0c-1.4,0-2.2-1.2-2.2-3.5h-0.1c-0.7-0.1-1.3,0.4-1.3,1c0,0.1,0,0.2,0,0.3c0,0.5,0.1,1.1,0.4,1.5l-0.7,0.2
			c-0.3-0.6-0.5-1.2-0.5-1.9c0-1.8,1.2-2.2,2.4-2.2L114.3,409.5z M112.8,410.5c0,1.1,0.2,2.5,1.3,2.5c0.5,0,1-0.3,1-0.9
			c0,0,0-0.1,0-0.1c0-0.6-0.4-1.2-1-1.4c-0.1,0-0.2-0.1-0.3,0L112.8,410.5z"/>
		<path class="st0" d="M107.2,407.8v-1h8.5v1H107.2z"/>
		<path class="st0" d="M109.9,404.6l3.4-1.3c0.4-0.1,0.8-0.3,1.2-0.4l0,0c-0.3-0.1-0.8-0.2-1.2-0.4l-3.4-1.1v-1.1l4.1,1.6
			c2,0.8,3,1.3,3.6,2c0.3,0.4,0.6,0.8,0.7,1.3l-0.9,0.3c-0.1-0.3-0.3-0.7-0.5-0.9c-0.3-0.4-0.7-0.7-1.2-0.9c-0.1,0-0.2-0.1-0.2-0.1
			c-0.1,0-0.2,0-0.3,0.1l-5.3,2.1V404.6z"/>
	</g>
	<g>
		<path class="st0" d="M510.1,439c0.3-0.6,0.5-1.2,0.5-1.9c0-1.1-0.6-1.7-1.4-1.7s-1.2,0.4-1.6,1.5c-0.5,1.3-1.2,2.1-2.3,2.1
			c-1.3-0.1-2.3-1.2-2.2-2.5c0-0.1,0-0.1,0-0.2c0-0.6,0.1-1.2,0.4-1.8l0.9,0.3c-0.3,0.5-0.4,1-0.4,1.5c0,1.1,0.7,1.5,1.2,1.5
			c0.8,0,1.1-0.5,1.6-1.6c0.5-1.4,1.2-2,2.4-2s2.3,0.9,2.3,2.8c0,0.7-0.2,1.4-0.5,2.1L510.1,439z"/>
		<path class="st0" d="M505.6,432.6l3-0.8c0.7-0.1,1.2-0.3,1.8-0.4l0,0c-0.6-0.1-1.2-0.3-1.8-0.5l-3-1v-0.9l2.9-0.9
			c0.7-0.2,1.3-0.4,1.9-0.5l0,0c-0.6-0.1-1.3-0.3-1.9-0.5l-2.9-0.8v-1l5.8,1.9v1l-2.8,0.9c-0.7,0.2-1.2,0.4-1.9,0.5l0,0
			c0.7,0.1,1.3,0.3,1.9,0.5l2.8,0.9v1l-5.8,1.8L505.6,432.6z"/>
		<path class="st0" d="M508.7,423.8c1,0.1,1.9-0.7,2-1.7c0-0.1,0-0.2,0-0.3c0-0.6-0.1-1.1-0.3-1.6l0.8-0.2c0.3,0.6,0.4,1.3,0.4,1.9
			c0.1,1.5-1.1,2.8-2.5,2.9c-0.1,0-0.3,0-0.4,0c-1.8,0-3.1-1-3.1-2.7c0-1.4,1.1-2.4,2.5-2.4c0.1,0,0.2,0,0.2,0c0.2,0,0.3,0,0.5,0
			L508.7,423.8z M507.9,420.7c-0.8-0.1-1.6,0.5-1.7,1.3c0,0.1,0,0.1,0,0.2c0.1,0.9,0.8,1.6,1.7,1.6V420.7z"/>
		<path class="st0" d="M502.9,413.4h7c0.5,0,1.1,0,1.5,0v0.9h-1l0,0c0.7,0.4,1.2,1.1,1.1,2c-0.1,1.5-1.3,2.6-2.8,2.5
			c-0.1,0-0.1,0-0.2,0c-1.9,0-3.1-1.2-3.1-2.6c0-0.7,0.3-1.4,0.9-1.8l0,0h-3.5L502.9,413.4z M507.9,414.4c-0.2,0-0.3,0-0.5,0
			c-0.7,0.2-1.2,0.8-1.2,1.5c0,1.1,1,1.7,2.2,1.7s2.2-0.6,2.2-1.7c0-0.7-0.5-1.4-1.3-1.5c-0.2,0-0.3-0.1-0.5,0H507.9z"/>
		<path class="st0" d="M508.7,411c1,0.1,1.9-0.7,2-1.7c0-0.1,0-0.2,0-0.3c0-0.6-0.1-1.1-0.3-1.6l0.8-0.2c0.3,0.6,0.4,1.3,0.4,2
			c0.1,1.5-1.1,2.8-2.6,2.9c-0.1,0-0.3,0-0.4,0c-1.8,0-3.1-1-3.1-2.7c0-1.4,1.1-2.4,2.5-2.4c0.1,0,0.2,0,0.2,0c0.2,0,0.3,0,0.5,0
			L508.7,411z M507.9,407.9c-0.8-0.1-1.6,0.5-1.7,1.3c0,0.1,0,0.1,0,0.2c0.1,0.9,0.8,1.6,1.7,1.6V407.9z"/>
		<path class="st0" d="M507.2,405.6c-0.6,0-1.1,0-1.6,0v-0.9l1-0.1l0,0c-0.7-0.4-1.1-1.1-1.1-1.9c0-0.8,0.5-2,2.5-2h3.5v1H508
			c-0.9,0-1.7,0.4-1.7,1.4c0,0.7,0.5,1.2,1.1,1.4c0.2,0.1,0.3,0.1,0.5,0.1h3.5v1.1L507.2,405.6z"/>
	</g>
	<g>
		<path class="st0" d="M417.3,435.7v-4.4h0.9v3.3h2.7v-3h0.9v3h3.7v1L417.3,435.7z"/>
		<path class="st0" d="M417.9,429c0.4,0,0.6,0.4,0.6,0.7c0,0.3-0.3,0.5-0.6,0.6c-0.4,0-0.7-0.3-0.7-0.6c0,0,0,0,0,0
			C417.3,429.4,417.5,429.1,417.9,429C417.9,429,417.9,429,417.9,429z M425.4,430.2h-5.8v-1h5.8V430.2z"/>
		<path class="st0" d="M421.1,427.4c-0.6,0-1.1,0-1.6,0v-0.9l1-0.1l0,0c-0.7-0.4-1.1-1.1-1.1-1.9c0-0.8,0.5-2.1,2.5-2.1h3.5v1.1H422
			c-0.9,0-1.7,0.4-1.7,1.3c0,0.7,0.5,1.2,1.1,1.4c0.2,0.1,0.3,0.1,0.5,0.1h3.5v1.1L421.1,427.4z"/>
		<path class="st0" d="M416.9,420.8v-1h8.5v1H416.9z"/>
		<path class="st0" d="M424,413.9c0.5,0,0.9,0,1.4-0.1v1l-0.7,0.1l0,0c0.6,0.4,0.9,1.1,0.9,1.8c0.1,0.9-0.6,1.7-1.5,1.8
			c0,0-0.1,0-0.1,0c-1.4,0-2.2-1.2-2.2-3.5h-0.1c-0.6-0.1-1.2,0.4-1.3,1c0,0.1,0,0.2,0,0.3c0,0.5,0.1,1.1,0.4,1.5L420,418
			c-0.3-0.6-0.5-1.2-0.5-1.9c0-1.8,1.2-2.2,2.4-2.2L424,413.9z M422.4,414.9c0,1.1,0.2,2.5,1.3,2.5c0.5,0,1-0.3,1-0.8
			c0-0.1,0-0.1,0-0.2c0-0.6-0.4-1.2-1-1.4c-0.1,0-0.2,0-0.3,0L422.4,414.9z"/>
		<path class="st0" d="M421.1,412.1c-0.6,0-1.1,0-1.6,0v-0.9l1-0.1l0,0c-0.7-0.4-1.1-1.1-1.1-1.9c0-0.8,0.5-2,2.5-2h3.5v1H422
			c-0.9,0-1.7,0.4-1.7,1.4c0,0.7,0.5,1.2,1.1,1.4c0.2,0.1,0.3,0.1,0.5,0.1h3.5v1.1L421.1,412.1z"/>
		<path class="st0" d="M416.9,400.5h7c0.5,0,1.1,0,1.5,0v0.9h-1l0,0c0.7,0.4,1.2,1.2,1.1,2c0,1.4-1.2,2.5-3,2.5
			c-1.9,0-3.1-1.2-3.1-2.6c0-0.7,0.3-1.4,0.9-1.8l0,0h-3.5V400.5z M421.9,401.5c-0.1,0-0.3,0-0.4,0c-0.7,0.2-1.2,0.8-1.2,1.5
			c0,1.1,1,1.7,2.2,1.7s2.1-0.6,2.1-1.7c0-0.7-0.5-1.4-1.3-1.5c-0.1,0-0.3-0.1-0.5,0H421.9z"/>
	</g>
	<g>
		<path class="st0" d="M486.2,445c-0.1-0.7-0.2-1.3-0.2-2c-0.1-0.8,0.2-1.7,0.7-2.3c0.4-0.4,1-0.6,1.5-0.6c0.9,0,1.8,0.6,2,1.5l0,0
			c0.3-0.7,0.9-1.1,1.6-1.2c0.8-0.1,1.5-0.3,2.2-0.6v1.1c-0.6,0.2-1.3,0.4-1.9,0.5c-1.1,0.2-1.5,0.7-1.6,1.6v1h3.5v1L486.2,445z
			 M489.9,444v-1.1c0-1.1-0.6-1.8-1.5-1.8s-1.5,0.8-1.5,1.9c0,0.3,0,0.7,0.1,1L489.9,444z"/>
		<path class="st0" d="M491.2,433.3c1.6-0.1,2.9,1,3.1,2.6c0,0.1,0,0.2,0,0.3c0,1.5-1.2,2.8-2.7,2.8c-0.1,0-0.2,0-0.3,0
			c-1.6,0.1-2.9-1-3.1-2.6c0-0.1,0-0.2,0-0.3c0-1.5,1.2-2.8,2.7-2.8C491,433.3,491.1,433.3,491.2,433.3z M491.3,437.9
			c1.3,0,2.2-0.7,2.2-1.8s-1-1.8-2.3-1.8c-1,0-2.2,0.5-2.2,1.7S490.2,437.9,491.3,437.9z"/>
		<path class="st0" d="M489.9,432c-0.6,0-1.1,0-1.6,0v-0.9l1,0l0,0c-0.7-0.4-1.1-1.1-1.1-1.8c0-0.7,0.5-1.4,1.2-1.6l0,0
			c-0.3-0.2-0.6-0.4-0.8-0.7c-0.3-0.4-0.4-0.8-0.4-1.3c0-0.8,0.5-1.9,2.5-1.9h3.4v1h-3.3c-1.1,0-1.8,0.4-1.8,1.3
			c0,0.6,0.4,1.1,0.9,1.3c0.2,0.1,0.4,0.1,0.5,0.1h3.6v1h-3.5c-0.9,0-1.6,0.4-1.6,1.2c0,0.6,0.5,1.1,1,1.3c0.2,0.1,0.3,0.1,0.5,0.1
			h3.5v1L489.9,432z"/>
		<path class="st0" d="M492.8,417.9c0.5,0,0.9,0,1.4-0.1v0.9l-0.7,0.1l0,0c0.6,0.4,0.9,1.1,0.9,1.8c0.1,0.9-0.6,1.7-1.5,1.8
			c0,0-0.1,0-0.1,0c-1.4,0-2.2-1.2-2.2-3.5h-0.1c-0.7-0.1-1.3,0.4-1.3,1.1c0,0.1,0,0.2,0,0.3c0,0.5,0.1,1.1,0.4,1.5l-0.7,0.2
			c-0.3-0.6-0.5-1.2-0.5-1.9c0-1.8,1.2-2.2,2.4-2.2L492.8,417.9z M491.2,418.9c0,1.1,0.2,2.5,1.3,2.5c0.5,0,1-0.3,1-0.9
			c0,0,0-0.1,0-0.1c0-0.6-0.4-1.2-1-1.4c-0.1,0-0.2-0.1-0.3,0L491.2,418.9z"/>
		<path class="st0" d="M489.9,416.1c-0.6,0-1.1,0-1.6,0v-0.9l1-0.1l0,0c-0.7-0.4-1.1-1.1-1.1-1.9c0-0.8,0.5-2,2.5-2h3.5v1.1h-3.4
			c-0.9,0-1.7,0.4-1.7,1.3c0,0.6,0.4,1.2,1,1.4c0.2,0.1,0.3,0.1,0.5,0.1h3.5v1L489.9,416.1z"/>
		<path class="st0" d="M486.7,408.3c0.3,0,0.6,0.3,0.7,0.6c0,0,0,0,0,0.1c0,0.3-0.3,0.6-0.6,0.6c0,0,0,0-0.1,0
			c-0.4,0-0.7-0.3-0.7-0.6c0,0,0,0,0,0C486.1,408.6,486.3,408.3,486.7,408.3C486.7,408.3,486.7,408.3,486.7,408.3z M494.2,409.5
			h-5.8v-1h5.8V409.5z"/>
		<path class="st0" d="M492.8,402.6c0.5,0,0.9,0,1.4-0.1v0.9l-0.7,0.1l0,0c0.6,0.4,0.9,1.1,0.9,1.8c0.1,0.9-0.6,1.7-1.5,1.8
			c0,0-0.1,0-0.1,0c-1.4,0-2.2-1.2-2.2-3.5h-0.1c-0.6-0.1-1.3,0.3-1.4,1c0,0.1,0,0.3,0,0.4c0,0.5,0.1,1.1,0.4,1.5l-0.7,0.2
			c-0.3-0.6-0.5-1.2-0.5-1.9c0-1.8,1.2-2.2,2.4-2.2L492.8,402.6z M491.2,403.6c0,1.1,0.2,2.5,1.3,2.5c0.5,0,1-0.3,1-0.9
			c0,0,0-0.1,0-0.1c0-0.6-0.4-1.2-1-1.4c-0.1,0-0.2-0.1-0.3,0L491.2,403.6z"/>
	</g>
</g>
</svg>
