<?xml version="1.0" encoding="utf-8"?>
<!-- Generator: Adobe Illustrator 25.2.3, SVG Export Plug-In . SVG Version: 6.00 Build 0)  -->
<svg version="1.1" id="Calque_1" xmlns="http://www.w3.org/2000/svg" xmlns:xlink="http://www.w3.org/1999/xlink" x="0px" y="0px"
	 viewBox="0 0 623.6 623.6" style="enable-background:new 0 0 623.6 623.6;" xml:space="preserve">
<style type="text/css">
	.st0{fill:#318380;}
</style>
<g id="Vrstva_2">
	<g id="Vrstva_2-2">
		<path class="st0" d="M155.9,623.6c-7.8,0-14.2-6.3-14.2-14.2c0-3.2,1.1-6.3,3.1-8.8c1.2-1.5,31-38.2,103.7-76.3
			c42.1-22.1,90.2-40.3,143-54.1c65.6-17.1,138.8-27.5,217.4-30.8c7.8-0.1,14.3,6.1,14.4,14c0.1,7.6-5.7,13.9-13.3,14.4
			c-75.9,3.2-146.5,13.1-209.8,29.5c-50.5,13.1-96.5,30.3-136.6,51.2c-54.6,28.4-87.1,58.2-96.7,70
			C164.2,621.7,160.2,623.6,155.9,623.6z"/>
		<path class="st0" d="M411,467.2c0.3,7.8-5.8,14.4-13.6,14.7c-3.8,0.2-7.4-1.2-10.2-3.7c-8.4-7.7-17-15.1-25.8-22.1
			c-31.7-25.4-66.7-46.4-104-62.5c-38-16.3-78.1-27.4-119.1-32.9c-56.4-7.6-104-3-121.3,0.6c-7.7,1.6-15.2-3.4-16.7-11
			c-1.6-7.7,3.4-15.2,11-16.7l0,0c2.2-0.5,54.6-11,129.6-1.1c79.7,10.4,155.5,40.7,220.5,88.1c9.7,7,19.1,14.5,28.4,22.2v29
			L411,467.2z"/>
		<path class="st0" d="M517.3,340.2H375.6c-7.8,0-14.2,6.3-14.2,14.2V489c0,7.8,6.4,14.2,14.2,14.2c1,0,1.9-0.1,2.9-0.3l141.7-29.3
			c6.6-1.4,11.3-7.2,11.3-13.9V354.4C531.5,346.5,525.2,340.2,517.3,340.2L517.3,340.2z M503.1,448.2l-92.1,19l-21.2,4.4v-103h113.4
			L503.1,448.2L503.1,448.2z"/>
		<path class="st0" d="M481.9,368.5H411c-7.8,0-14.2-6.3-14.2-14.2c0-0.3,0-0.6,0-0.8L411,112.6c0.4-7.5,6.6-13.4,14.2-13.4h42.5
			c7.5,0,13.7,5.9,14.1,13.3l14.2,241c0.5,7.8-5.5,14.5-13.3,15C482.4,368.5,482.1,368.5,481.9,368.5L481.9,368.5z M426.1,340.2
			h40.8l-12.5-212.6h-15.8L426.1,340.2z"/>
		<path class="st0" d="M453.5,85.1c-7.8,0-14.2-6.4-14.2-14.2c0-3,0.9-5.9,2.7-8.3c8.2-10.6,18.7-19.4,30.6-25.6
			c18.1-9.5,47.8-17.4,85.9-0.4c12.6,5.6,18.6,2.5,20.6,1.5c10.1-5.2,15.3-21.1,16.5-26.7c1.5-7.7,9-12.7,16.7-11.2
			s12.7,9,11.2,16.6c-0.7,3.4-7.2,33.9-31.1,46.4c-9.2,4.8-24.5,8.5-45.2-0.7c-21.9-9.7-42.1-10-60.2-0.9
			c-8.4,4.2-15.9,10.2-21.8,17.5C462.4,82.9,458.1,85.1,453.5,85.1z"/>
		<path class="st0" d="M168.3,241c-25.4,0-46.1-20.6-46.1-46.1s20.6-46.1,46.1-46.1s46.1,20.6,46.1,46.1l0,0
			C214.3,220.4,193.7,241,168.3,241z M168.3,177.2c-9.8,0-17.7,7.9-17.7,17.7s7.9,17.7,17.7,17.7s17.7-7.9,17.7-17.7c0,0,0,0,0-0.1
			C186,185.1,178.1,177.2,168.3,177.2L168.3,177.2z"/>
		<path class="st0" d="M168.3,7.1c1.4,0.8,2.6,2,3.6,3.3c0.7,1,1.2,2.1,1.4,3.3l1.1,6.7c0.8,4.4,1.5,8.9,2.2,13.3
			c1.4,8.9,2.8,17.7,4,26.6c0.6,4.4,1.2,8.9,1.8,13.3l1.6,13.3c1,8.9,2,17.7,2.6,26.6c0.6,10.2-7.3,19-17.5,19.6
			c-10,0.6-18.6-6.9-19.5-16.9c-0.1-0.9-0.1-1.8,0-2.7c0.6-8.9,1.6-17.7,2.7-26.6l1.6-13.3c0.6-4.4,1.2-8.9,1.8-13.3
			c1.3-8.9,2.6-17.7,4-26.6c0.7-4.4,1.4-8.9,2.2-13.3l1.1-6.6c0.2-1.2,0.7-2.3,1.4-3.3C165.6,9.1,166.9,8,168.3,7.1z"/>
		<path class="st0" d="M326,290.6c-1.5,0.8-3.1,1.2-4.7,1.3c-1.2,0.1-2.4-0.1-3.6-0.5l-6.2-2.5c-4.2-1.7-8.3-3.4-12.5-5.1
			c-8.3-3.4-16.6-6.9-24.8-10.4c-4.1-1.8-8.2-3.6-12.3-5.4l-12.2-5.5c-8.1-3.8-16.2-7.5-24-11.6c-9.1-4.7-12.7-15.9-7.9-25
			c4.7-9.1,15.9-12.7,25-7.9l0,0c0.8,0.4,1.5,0.9,2.3,1.4c7.2,5.2,14.2,10.7,21.3,16.1l10.5,8.4c3.5,2.8,6.9,5.6,10.4,8.5
			c6.9,5.7,13.8,11.5,20.5,17.3c3.4,2.9,6.8,5.9,10.2,8.8l5.1,4.4c0.9,0.8,1.6,1.8,2,2.9C325.7,287.3,326,288.9,326,290.6z"/>
		<path class="st0" d="M0,273.7c0.1-1.6,0.6-3.2,1.4-4.7c0.6-1.1,1.4-2,2.3-2.7l5.5-3.9c3.6-2.6,7.3-5.2,11-7.8
			c7.3-5.2,14.7-10.3,22.1-15.4c3.7-2.5,7.4-5,11.1-7.5l11.2-7.4c7.5-4.8,15-9.6,22.7-14.1c9.1-4.8,20.3-1.4,25.1,7.7
			c4.5,8.5,1.8,19.1-6.4,24.3c-0.8,0.4-1.6,0.8-2.4,1.2c-8.2,3.3-16.6,6.3-25,9.3l-12.7,4.4c-4.2,1.4-8.5,2.8-12.7,4.2
			c-8.5,2.8-17,5.5-25.6,8.1c-4.3,1.3-8.6,2.6-12.9,3.9l-6.5,1.9c-1.2,0.3-2.4,0.4-3.6,0.2C3,275.1,1.4,274.6,0,273.7z"/>
		<path class="st0" d="M170.1,361.5c-7.8,0-14.2-6.3-14.2-14.2l0,0V226.8c0-7.8,6.3-14.2,14.2-14.2c7.8,0,14.2,6.3,14.2,14.2l0,0
			v120.5C184.2,355.1,177.9,361.5,170.1,361.5L170.1,361.5z"/>
		<path class="st0" d="M57.1,504.7c-25.8,0-43-1.5-44.2-1.6c-7.8-0.7-13.5-7.6-12.8-15.4s7.6-13.5,15.4-12.8l0,0
			c39,2.7,78.3,1.7,117.1-3.1c55.3-7.1,128-25.9,160.3-75.5c4.3-6.6,13-8.4,19.6-4.2c6.6,4.3,8.4,13,4.2,19.6l0,0
			c-17.1,26.4-44.3,47.6-80.6,63c-28.1,11.9-61.9,20.4-100.4,25.3C109.6,503.2,83.4,504.8,57.1,504.7z"/>
	</g>
</g>
</svg>
