<svg xmlns="http://www.w3.org/2000/svg" viewBox="0 0 623.63 623.63"><defs><style>.cls-1{fill:#fff;}</style></defs><g id="Vrstva_2" data-name="Vrstva 2"><g id="Vrstva_2-2" data-name="Vrstva 2"><path class="cls-1" d="M155.9,623.63a14.16,14.16,0,0,1-11.06-23c1.23-1.54,31-38.19,103.69-76.34,42.1-22.1,90.2-40.3,143-54.09,65.63-17.15,138.76-27.51,217.36-30.79A14.18,14.18,0,0,1,610,467.74c-75.93,3.16-146.51,13.08-209.77,29.47-50.49,13.08-96.46,30.3-136.63,51.17-54.6,28.37-87.13,58.19-96.7,70A14.16,14.16,0,0,1,155.9,623.63Z"/><path class="cls-1" d="M411,467.22a14.17,14.17,0,0,1-23.76,11q-12.6-11.6-25.84-22.14a455,455,0,0,0-104-62.55A454.69,454.69,0,0,0,138.34,360.6c-56.45-7.63-104-3-121.32.56A14.17,14.17,0,0,1,11.3,333.4c2.19-.45,54.6-11,129.63-1.06A479.38,479.38,0,0,1,361.41,420.4q14.5,10.56,28.35,22.24v29Z"/><path class="cls-1" d="M517.32,340.19H375.59a14.18,14.18,0,0,0-14.18,14.18V489a14.2,14.2,0,0,0,14.18,14.18,13.9,13.9,0,0,0,2.86-.3l141.74-29.27a14.17,14.17,0,0,0,11.3-13.88V354.37A14.17,14.17,0,0,0,517.32,340.19Zm-14.17,108-92.14,19-21.25,4.39V368.54H503.15Z"/><path class="cls-1" d="M481.89,368.54H411a14.16,14.16,0,0,1-14.14-15l14.17-240.94A14.17,14.17,0,0,1,425.2,99.24h42.52a14.18,14.18,0,0,1,14.15,13.35L496,353.53a14.18,14.18,0,0,1-14.15,15Zm-55.83-28.35h40.8l-12.51-212.6H438.56Z"/><path class="cls-1" d="M453.53,85.12A14.19,14.19,0,0,1,442,62.66,92.45,92.45,0,0,1,472.63,37.1c18.13-9.54,47.75-17.36,85.88-.41,12.59,5.59,18.59,2.5,20.56,1.48,10.1-5.2,15.32-21.07,16.48-26.74a14.17,14.17,0,0,1,27.81,5.49c-.67,3.44-7.25,33.94-31.14,46.37-9.18,4.77-24.47,8.52-45.22-.7-21.88-9.73-42.14-10-60.2-.91A66.84,66.84,0,0,0,465,79.21,14.09,14.09,0,0,1,453.53,85.12Z"/><path class="cls-1" d="M168.31,241a46.07,46.07,0,1,1,46.06-46.07A46.12,46.12,0,0,1,168.31,241Zm0-63.78A17.72,17.72,0,1,0,186,194.91,17.73,17.73,0,0,0,168.31,177.2Z"/><path class="cls-1" d="M168.31,7.12a11.85,11.85,0,0,1,3.57,3.32,8.58,8.58,0,0,1,1.42,3.32l1.13,6.65c.77,4.43,1.49,8.85,2.21,13.28q2.15,13.29,4,26.58c.64,4.43,1.23,8.86,1.83,13.29l1.65,13.28c1,8.86,2,17.72,2.65,26.58a18.55,18.55,0,0,1-37,2.66,21.46,21.46,0,0,1,0-2.66c.64-8.86,1.65-17.72,2.66-26.58l1.65-13.28q.88-6.65,1.82-13.29,1.89-13.29,4-26.58c.72-4.43,1.43-8.85,2.2-13.28l1.14-6.65a8.58,8.58,0,0,1,1.42-3.32A11.85,11.85,0,0,1,168.31,7.12Z"/><path class="cls-1" d="M326,290.58a11.83,11.83,0,0,1-4.7,1.31,8.52,8.52,0,0,1-3.58-.52l-6.25-2.51c-4.18-1.66-8.33-3.36-12.49-5.06q-12.45-5.12-24.77-10.44c-4.11-1.77-8.19-3.58-12.28-5.39l-12.19-5.53c-8.08-3.77-16.16-7.54-24-11.62a18.55,18.55,0,0,1,17.07-32.95,21.49,21.49,0,0,1,2.27,1.39c7.22,5.17,14.24,10.67,21.27,16.15l10.47,8.35c3.46,2.82,6.93,5.64,10.37,8.5q10.35,8.55,20.55,17.33c3.4,2.93,6.8,5.86,10.18,8.83l5.07,4.44A8.51,8.51,0,0,1,325,285.8,11.91,11.91,0,0,1,326,290.58Z"/><path class="cls-1" d="M0,273.69A11.78,11.78,0,0,1,1.41,269a8.74,8.74,0,0,1,2.35-2.74l5.46-3.94c3.64-2.65,7.3-5.24,11-7.84q11-7.8,22.06-15.36,5.55-3.78,11.12-7.49l11.2-7.35c7.5-4.81,15-9.63,22.68-14.1a18.55,18.55,0,0,1,18.71,32,21.1,21.1,0,0,1-2.39,1.17c-8.23,3.34-16.63,6.34-25,9.34l-12.65,4.38c-4.24,1.42-8.48,2.84-12.73,4.22q-12.76,4.18-25.63,8.1c-4.3,1.3-8.59,2.62-12.9,3.88l-6.47,1.91a8.54,8.54,0,0,1-3.6.19A11.86,11.86,0,0,1,0,273.69Z"/><path class="cls-1" d="M170.08,361.45a14.17,14.17,0,0,1-14.17-14.17V226.8a14.17,14.17,0,1,1,28.34,0V347.28A14.17,14.17,0,0,1,170.08,361.45Z"/><path class="cls-1" d="M57.13,504.74c-25.84,0-43-1.5-44.23-1.62a14.17,14.17,0,0,1,2.54-28.23h0a612.19,612.19,0,0,0,117.1-3.11c55.32-7.06,128-25.9,160.3-75.53a14.17,14.17,0,0,1,23.77,15.44c-17.15,26.39-44.26,47.58-80.58,63C207.9,486.57,174.11,495.09,135.61,500A632.7,632.7,0,0,1,57.13,504.74Z"/></g></g></svg>