<?xml version="1.0" encoding="utf-8"?>
<!-- Generator: Adobe Illustrator 25.2.3, SVG Export Plug-In . SVG Version: 6.00 Build 0)  -->
<svg version="1.1" id="Calque_1" xmlns="http://www.w3.org/2000/svg" xmlns:xlink="http://www.w3.org/1999/xlink" x="0px" y="0px"
	 viewBox="0 0 786.7 590.4" style="enable-background:new 0 0 786.7 590.4;" xml:space="preserve">
<style type="text/css">
	.st0{fill:none;stroke:#C6C6C6;stroke-width:0.5117;stroke-miterlimit:10;}
	.st1{fill:none;stroke:#C84B96;stroke-width:4;stroke-miterlimit:10;}
	.st2{fill:none;stroke:#C84B96;stroke-width:4;stroke-miterlimit:10;stroke-dasharray:4.0154,4.0154;}
	.st3{fill:none;}
	.st4{fill:#14375A;}
	.st5{fill:none;stroke:#14375A;stroke-width:2.8346;stroke-linecap:round;stroke-linejoin:round;}
	.st6{fill:#164193;}
	.st7{fill:#FFEC00;}
	.st8{fill:#7C7B7B;}
	.st9{fill:none;stroke:#14375A;stroke-miterlimit:10;}
	.st10{fill:none;stroke:#C84B96;stroke-width:4;stroke-miterlimit:10;stroke-dasharray:4;}
	.st11{fill:none;stroke:#14375A;stroke-width:3;stroke-linecap:round;stroke-miterlimit:10;}
	.st12{fill:#C84B96;}
</style>
<g id="Layer_3">
	<g id="Layer_6">
		<line class="st0" x1="59.9" y1="86.9" x2="719.2" y2="86.9"/>
		<line class="st0" x1="59.9" y1="254.1" x2="719.2" y2="254.1"/>
		<line class="st0" x1="59.9" y1="170.8" x2="719.2" y2="170.8"/>
		<line class="st0" x1="59.9" y1="338.1" x2="719.2" y2="338.1"/>
	</g>
	<line class="st1" x1="59.9" y1="86.9" x2="61.8" y2="87.6"/>
	<polyline class="st2" points="65.6,88.9 555,255.2 715.3,417.3 	"/>
	<line class="st1" x1="716.7" y1="418.7" x2="718.1" y2="420.1"/>
	<g id="Layer_5">
		<rect x="51.7" y="430.2" class="st3" width="25.5" height="13.5"/>
		<g>
			<path class="st4" d="M54.5,431.9L54.5,431.9l-1.3,0.7l-0.2-0.8l1.7-0.9h0.9v7.8h-1L54.5,431.9z"/>
			<path class="st4" d="M59,438c0.3,0,0.6,0,0.9,0c0.6-0.1,1.2-0.3,1.6-0.8c0.6-0.6,0.9-1.3,1-2.1l0,0c-0.8,1-2.3,1.1-3.3,0.3
				c-0.5-0.5-0.8-1.1-0.8-1.8c-0.1-1.5,1.1-2.7,2.5-2.8c0,0,0.1,0,0.1,0c1.6,0,2.6,1.3,2.6,3.3c0.1,1.4-0.4,2.7-1.3,3.6
				c-0.6,0.6-1.4,0.9-2.3,1c-0.3,0.1-0.7,0.1-1,0.1L59,438z M59.4,433.5c-0.1,0.8,0.5,1.6,1.3,1.6c0.1,0,0.1,0,0.2,0
				c0.6,0,1.2-0.3,1.5-0.8c0.1-0.1,0.1-0.3,0.1-0.4c0-1.3-0.5-2.4-1.6-2.4C60,431.6,59.4,432.4,59.4,433.5L59.4,433.5z"/>
			<path class="st4" d="M65.1,438c0.3,0,0.6,0,0.8,0c0.6-0.1,1.2-0.3,1.6-0.8c0.6-0.6,0.9-1.3,1-2.1l0,0c-0.5,0.5-1.1,0.9-1.8,0.8
				c-1.2,0-2.3-1-2.3-2.2c0-0.1,0-0.1,0-0.2c0-1.5,1.1-2.7,2.6-2.8c0,0,0,0,0.1,0c1.6,0,2.6,1.3,2.6,3.3c0.1,1.3-0.4,2.7-1.3,3.6
				c-0.6,0.6-1.4,0.9-2.3,1c-0.3,0.1-0.7,0.1-1,0.1L65.1,438z M65.5,433.5c-0.1,0.8,0.5,1.6,1.3,1.6c0.1,0,0.1,0,0.2,0
				c0.6,0,1.2-0.3,1.5-0.8c0.1-0.1,0.1-0.3,0.1-0.4c0-1.3-0.5-2.4-1.6-2.4C66.2,431.6,65.5,432.4,65.5,433.5z"/>
			<path class="st4" d="M75.9,434.8c0,2.6-1,4.1-2.7,4.1c-1.5,0-2.6-1.4-2.6-4s1.1-4.1,2.7-4.1S75.9,432.3,75.9,434.8z M71.6,434.9
				c0,2,0.6,3.2,1.6,3.2s1.6-1.3,1.6-3.2s-0.5-3.2-1.6-3.2C72.3,431.6,71.6,432.8,71.6,434.9z"/>
		</g>
		<rect x="130.1" y="430.2" class="st3" width="25.5" height="13.5"/>
		<g>
			<path class="st4" d="M133,431.9L133,431.9l-1.4,0.7l-0.2-0.8l1.7-0.9h0.9v7.8h-1L133,431.9z"/>
			<path class="st4" d="M137.4,438c0.3,0,0.6,0,0.9,0c0.6-0.1,1.2-0.3,1.6-0.8c0.6-0.6,0.9-1.3,1-2.1l0,0c-0.5,0.5-1.1,0.9-1.9,0.8
				c-1.2,0-2.3-1-2.3-2.2c0-0.1,0-0.1,0-0.2c0-1.5,1.1-2.7,2.6-2.8c0,0,0,0,0.1,0c1.6,0,2.6,1.3,2.6,3.3c0.1,1.3-0.4,2.7-1.3,3.6
				c-0.6,0.6-1.4,0.9-2.3,1c-0.3,0.1-0.7,0.1-1,0.1L137.4,438z M137.8,433.5c-0.1,0.8,0.5,1.6,1.3,1.6c0.1,0,0.1,0,0.2,0
				c0.6,0,1.2-0.3,1.5-0.8c0.1-0.1,0.1-0.3,0.1-0.4c0-1.3-0.5-2.4-1.6-2.4C138.5,431.6,137.8,432.4,137.8,433.5z"/>
			<path class="st4" d="M143.6,438c0.3,0,0.6,0,0.9,0c0.6-0.1,1.2-0.3,1.6-0.8c0.6-0.6,0.9-1.3,1-2.1l0,0c-0.8,1-2.3,1.1-3.3,0.3
				c-0.5-0.5-0.8-1.1-0.8-1.8c0-1.5,1.1-2.7,2.6-2.8c0,0,0.1,0,0.1,0c1.6,0,2.6,1.3,2.6,3.3c0.1,1.3-0.4,2.7-1.3,3.6
				c-0.6,0.6-1.4,0.9-2.3,1c-0.3,0.1-0.7,0.1-1,0.1L143.6,438z M144,433.5c-0.1,0.8,0.5,1.6,1.3,1.6c0.1,0,0.1,0,0.2,0
				c0.6,0,1.2-0.3,1.5-0.8c0.1-0.1,0.1-0.3,0.1-0.4c0-1.3-0.5-2.4-1.6-2.4C144.6,431.6,144,432.4,144,433.5L144,433.5z"/>
			<path class="st4" d="M153.8,431.9h-3l-0.3,2c0.2,0,0.4,0,0.6,0c0.6,0,1.2,0.1,1.7,0.4c0.7,0.4,1.1,1.2,1.1,2
				c0,1.5-1.3,2.7-2.8,2.7c-0.1,0-0.1,0-0.2,0c-0.7,0-1.3-0.2-1.9-0.5l0.3-0.8c0.5,0.3,1.1,0.4,1.7,0.4c0.9,0.1,1.8-0.6,1.8-1.6
				c0,0,0-0.1,0-0.1c0-1-0.7-1.7-2.2-1.7c-0.4,0-0.7,0-1.1,0.1l0.5-3.7h3.7L153.8,431.9z"/>
		</g>
		<rect x="211.7" y="430.2" class="st3" width="25.5" height="13.5"/>
		<g>
			<path class="st4" d="M212.2,438.8v-0.6l0.8-0.8c2-1.9,2.9-2.9,2.9-4.1c0.1-0.8-0.5-1.4-1.2-1.5c-0.1,0-0.2,0-0.3,0
				c-0.6,0-1.2,0.3-1.7,0.7l-0.3-0.7c0.6-0.5,1.4-0.8,2.2-0.8c1.2-0.1,2.3,0.8,2.4,2c0,0.1,0,0.2,0,0.2c0,1.4-1.1,2.6-2.7,4.2
				l-0.6,0.6l0,0h3.5v0.9L212.2,438.8z"/>
			<path class="st4" d="M223.6,434.8c0,2.6-1,4.1-2.7,4.1c-1.5,0-2.6-1.4-2.6-4s1.1-4.1,2.7-4.1S223.6,432.3,223.6,434.8z
				 M219.4,434.9c0,2,0.6,3.2,1.6,3.2s1.6-1.3,1.6-3.2s-0.5-3.2-1.6-3.2C220,431.6,219.4,432.8,219.4,434.9z"/>
			<path class="st4" d="M229.7,434.8c0,2.6-1,4.1-2.7,4.1c-1.5,0-2.6-1.4-2.6-4s1.1-4.1,2.7-4.1S229.7,432.3,229.7,434.8z
				 M225.5,434.9c0,2,0.6,3.2,1.6,3.2s1.6-1.3,1.6-3.2s-0.5-3.2-1.6-3.2C226.2,431.6,225.5,432.8,225.5,434.9L225.5,434.9z"/>
			<path class="st4" d="M235.9,434.8c0,2.6-1,4.1-2.7,4.1c-1.5,0-2.6-1.4-2.6-4s1.1-4.1,2.7-4.1S235.9,432.3,235.9,434.8z
				 M231.7,434.9c0,2,0.6,3.2,1.6,3.2s1.6-1.3,1.6-3.2s-0.5-3.2-1.6-3.2C232.3,431.6,231.7,432.8,231.7,434.9z"/>
		</g>
		<rect x="293.5" y="430.2" class="st3" width="25.5" height="13.5"/>
		<g>
			<path class="st4" d="M294.1,438.8v-0.6l0.8-0.8c2-1.9,2.9-2.9,2.9-4.1c0.1-0.8-0.5-1.4-1.2-1.5c-0.1,0-0.2,0-0.3,0
				c-0.6,0-1.2,0.3-1.7,0.7l-0.3-0.7c0.6-0.5,1.4-0.8,2.2-0.8c1.2-0.1,2.3,0.8,2.4,2c0,0.1,0,0.2,0,0.3c0,1.4-1,2.6-2.7,4.2
				l-0.6,0.6l0,0h3.5v0.9L294.1,438.8z"/>
			<path class="st4" d="M305.4,434.8c0,2.6-1,4.1-2.7,4.1c-1.5,0-2.6-1.4-2.6-4s1.1-4.1,2.7-4.1S305.4,432.3,305.4,434.8z
				 M301.2,434.9c0,2,0.6,3.2,1.6,3.2s1.6-1.3,1.6-3.2s-0.5-3.2-1.6-3.2C301.9,431.6,301.2,432.8,301.2,434.9L301.2,434.9z"/>
			<path class="st4" d="M311.6,434.8c0,2.6-1,4.1-2.7,4.1c-1.5,0-2.6-1.4-2.6-4s1.1-4.1,2.7-4.1S311.6,432.3,311.6,434.8z
				 M307.4,434.9c0,2,0.6,3.2,1.6,3.2s1.6-1.3,1.6-3.2s-0.5-3.2-1.6-3.2C308,431.6,307.4,432.8,307.4,434.9z"/>
			<path class="st4" d="M317.2,431.9h-3l-0.3,2c0.2,0,0.4,0,0.6,0c0.6,0,1.2,0.1,1.7,0.4c0.7,0.4,1.1,1.2,1.1,2
				c0,1.5-1.2,2.7-2.7,2.7c-0.1,0-0.1,0-0.2,0c-0.7,0-1.3-0.2-1.9-0.5l0.3-0.8c0.5,0.3,1.1,0.4,1.7,0.4c0.9,0.1,1.8-0.6,1.8-1.6
				c0,0,0-0.1,0-0.1c0-1-0.7-1.7-2.2-1.7c-0.4,0-0.7,0-1.1,0.1l0.5-3.7h3.7L317.2,431.9z"/>
		</g>
		<rect x="376.3" y="430.2" class="st3" width="25.5" height="13.5"/>
		<g>
			<path class="st4" d="M376.8,438.8v-0.6l0.8-0.8c2-1.9,2.9-2.9,2.9-4.1c0.1-0.8-0.5-1.4-1.2-1.5c-0.1,0-0.2,0-0.3,0
				c-0.6,0-1.2,0.3-1.7,0.7l-0.3-0.7c0.6-0.5,1.4-0.8,2.2-0.8c1.2-0.1,2.3,0.8,2.4,2c0,0.1,0,0.2,0,0.3c0,1.4-1,2.6-2.7,4.2
				l-0.6,0.6l0,0h3.5v0.9L376.8,438.8z"/>
			<path class="st4" d="M388.1,434.8c0,2.6-1,4.1-2.7,4.1c-1.5,0-2.6-1.4-2.6-4s1.1-4.1,2.7-4.1S388.1,432.3,388.1,434.8z
				 M383.9,434.9c0,2,0.6,3.2,1.6,3.2s1.6-1.3,1.6-3.2s-0.5-3.2-1.6-3.2C384.6,431.6,383.9,432.8,383.9,434.9z"/>
			<path class="st4" d="M391.4,431.9L391.4,431.9l-1.4,0.7l-0.2-0.8l1.7-0.9h0.9v7.8h-1L391.4,431.9z"/>
			<path class="st4" d="M400.5,434.8c0,2.6-1,4.1-2.7,4.1c-1.5,0-2.6-1.4-2.6-4s1.1-4.1,2.7-4.1S400.5,432.3,400.5,434.8z
				 M396.2,434.9c0,2,0.6,3.2,1.6,3.2s1.6-1.3,1.6-3.2s-0.5-3.2-1.6-3.2C396.9,431.6,396.2,432.8,396.2,434.9z"/>
		</g>
		<rect x="460" y="430.2" class="st3" width="25.5" height="13.5"/>
		<g>
			<path class="st4" d="M460.5,438.8v-0.6l0.8-0.8c2-1.9,2.9-2.9,2.9-4.1c0.1-0.8-0.5-1.4-1.2-1.5c-0.1,0-0.2,0-0.3,0
				c-0.6,0-1.2,0.3-1.6,0.7l-0.3-0.7c0.6-0.5,1.4-0.8,2.2-0.8c1.2-0.1,2.3,0.8,2.4,2c0,0.1,0,0.2,0,0.3c0,1.4-1,2.6-2.7,4.2
				l-0.6,0.6l0,0h3.5v0.9L460.5,438.8z"/>
			<path class="st4" d="M471.9,434.8c0,2.6-1,4.1-2.7,4.1c-1.5,0-2.6-1.4-2.6-4s1.1-4.1,2.7-4.1S471.9,432.3,471.9,434.8z
				 M467.6,434.9c0,2,0.6,3.2,1.6,3.2s1.6-1.3,1.6-3.2s-0.5-3.2-1.6-3.2C468.3,431.6,467.6,432.8,467.6,434.9z"/>
			<path class="st4" d="M475.1,431.9L475.1,431.9l-1.4,0.7l-0.2-0.8l1.7-0.9h0.9v7.8h-1L475.1,431.9z"/>
			<path class="st4" d="M483.6,431.9h-3l-0.3,2c0.2,0,0.4,0,0.6,0c0.6,0,1.2,0.1,1.7,0.4c0.7,0.4,1.1,1.2,1.1,2
				c0,1.5-1.3,2.7-2.8,2.7c-0.1,0-0.1,0-0.2,0c-0.7,0-1.3-0.2-1.9-0.5l0.3-0.8c0.5,0.3,1.1,0.4,1.7,0.4c0.9,0.1,1.8-0.6,1.8-1.6
				c0,0,0-0.1,0-0.1c0-1-0.7-1.7-2.2-1.7c-0.4,0-0.7,0-1.1,0.1l0.5-3.7h3.7L483.6,431.9z"/>
		</g>
		<rect x="541.7" y="430.2" class="st3" width="25.5" height="13.5"/>
		<g>
			<path class="st4" d="M542.2,438.8v-0.6l0.8-0.8c2-1.9,2.9-2.9,2.9-4.1c0.1-0.8-0.5-1.4-1.2-1.5c-0.1,0-0.2,0-0.3,0
				c-0.6,0-1.2,0.3-1.7,0.7l-0.3-0.7c0.6-0.5,1.4-0.8,2.2-0.8c1.2-0.1,2.3,0.8,2.4,2c0,0.1,0,0.2,0,0.3c0,1.4-1,2.6-2.7,4.2
				l-0.6,0.6l0,0h3.5v0.9L542.2,438.8z"/>
			<path class="st4" d="M553.6,434.8c0,2.6-1,4.1-2.7,4.1c-1.5,0-2.6-1.4-2.6-4s1.1-4.1,2.7-4.1S553.6,432.3,553.6,434.8z
				 M549.3,434.9c0,2,0.6,3.2,1.6,3.2s1.6-1.3,1.6-3.2s-0.5-3.2-1.6-3.2C550,431.6,549.3,432.8,549.3,434.9z"/>
			<path class="st4" d="M554.5,438.8v-0.6l0.8-0.8c2-1.9,2.9-2.9,2.9-4.1c0.1-0.8-0.5-1.4-1.2-1.5c-0.1,0-0.2,0-0.3,0
				c-0.6,0-1.2,0.3-1.7,0.7l-0.3-0.7c0.6-0.5,1.4-0.8,2.2-0.8c1.2-0.1,2.3,0.8,2.4,2c0,0.1,0,0.2,0,0.3c0,1.4-1,2.6-2.7,4.2
				l-0.6,0.6l0,0h3.5v0.9L554.5,438.8z"/>
			<path class="st4" d="M565.9,434.8c0,2.6-1,4.1-2.7,4.1c-1.5,0-2.6-1.4-2.6-4s1.1-4.1,2.7-4.1S565.9,432.3,565.9,434.8z
				 M561.6,434.9c0,2,0.6,3.2,1.6,3.2s1.6-1.3,1.6-3.2s-0.5-3.2-1.6-3.2C562.3,431.6,561.6,432.8,561.6,434.9z"/>
		</g>
		<rect x="623.4" y="430.2" class="st3" width="25.5" height="13.5"/>
		<g>
			<path class="st4" d="M623.9,438.8v-0.6l0.8-0.8c2-1.9,2.9-2.9,2.9-4.1c0.1-0.8-0.5-1.4-1.2-1.5c-0.1,0-0.2,0-0.3,0
				c-0.6,0-1.2,0.3-1.7,0.7l-0.3-0.7c0.6-0.5,1.4-0.8,2.2-0.8c1.2-0.1,2.3,0.8,2.4,2c0,0.1,0,0.2,0,0.3c0,1.4-1,2.6-2.7,4.2
				l-0.6,0.6l0,0h3.5v0.9L623.9,438.8z"/>
			<path class="st4" d="M635.3,434.8c0,2.6-1,4.1-2.7,4.1c-1.5,0-2.6-1.4-2.6-4s1.1-4.1,2.7-4.1S635.3,432.3,635.3,434.8z
				 M631,434.9c0,2,0.6,3.2,1.6,3.2s1.6-1.3,1.6-3.2s-0.5-3.2-1.6-3.2C631.7,431.6,631,432.8,631,434.9L631,434.9z"/>
			<path class="st4" d="M636.2,438.8v-0.6l0.8-0.8c2-1.9,2.9-2.9,2.9-4.1c0.1-0.8-0.5-1.4-1.2-1.5c-0.1,0-0.2,0-0.3,0
				c-0.6,0-1.2,0.3-1.7,0.7l-0.3-0.7c0.6-0.5,1.4-0.8,2.2-0.8c1.2-0.1,2.3,0.8,2.4,2c0,0.1,0,0.2,0,0.3c0,1.4-1,2.6-2.7,4.2
				l-0.6,0.6l0,0h3.5v0.9L636.2,438.8z"/>
			<path class="st4" d="M647,431.9h-3l-0.3,2c0.2,0,0.4,0,0.6,0c0.6,0,1.2,0.1,1.7,0.4c0.7,0.4,1.1,1.2,1.1,2c0,1.5-1.2,2.7-2.7,2.7
				c-0.1,0-0.1,0-0.2,0c-0.7,0-1.3-0.2-1.9-0.5l0.3-0.8c0.5,0.3,1.1,0.4,1.7,0.4c0.9,0.1,1.8-0.6,1.8-1.6c0,0,0-0.1,0-0.1
				c0-1-0.7-1.7-2.2-1.7c-0.4,0-0.7,0-1.1,0.1l0.5-3.7h3.8V431.9z"/>
		</g>
		<g>
			<path class="st4" d="M711.6,438.8v-0.6l0.8-0.8c2-1.9,2.9-2.9,2.9-4.1c0.1-0.8-0.5-1.4-1.2-1.5c-0.1,0-0.2,0-0.3,0
				c-0.6,0-1.2,0.3-1.7,0.7l-0.3-0.7c0.6-0.5,1.4-0.8,2.2-0.8c1.2-0.1,2.3,0.8,2.4,2c0,0.1,0,0.2,0,0.3c0,1.4-1,2.6-2.7,4.2
				l-0.6,0.6l0,0h3.5v0.9L711.6,438.8z"/>
			<path class="st4" d="M723,434.8c0,2.6-1,4.1-2.7,4.1c-1.5,0-2.6-1.4-2.6-4s1.1-4.1,2.7-4.1S723,432.3,723,434.8z M718.8,434.9
				c0,2,0.6,3.2,1.6,3.2s1.6-1.3,1.6-3.2s-0.5-3.2-1.6-3.2C719.4,431.6,718.7,432.8,718.8,434.9L718.8,434.9z"/>
			<path class="st4" d="M724.2,437.6c0.5,0.3,1.1,0.5,1.7,0.5c1.3,0,1.8-0.9,1.8-1.5c0-1.1-1-1.6-2-1.6h-0.6v-0.8h0.6
				c0.8,0,1.7-0.4,1.7-1.3c0-0.6-0.4-1.2-1.4-1.2c-0.6,0-1.1,0.2-1.6,0.5l-0.3-0.8c0.6-0.4,1.3-0.6,2-0.6c1.5,0,2.2,0.9,2.2,1.9
				c0,0.9-0.6,1.6-1.4,1.9l0,0c1,0.1,1.7,1,1.7,2c0,1.2-1,2.3-2.8,2.3c-0.7,0-1.4-0.2-2-0.5L724.2,437.6z"/>
			<path class="st4" d="M735.3,434.8c0,2.6-1,4.1-2.7,4.1c-1.5,0-2.6-1.4-2.6-4s1.1-4.1,2.7-4.1S735.3,432.3,735.3,434.8z
				 M731.1,434.9c0,2,0.6,3.2,1.6,3.2s1.6-1.3,1.6-3.2s-0.5-3.2-1.6-3.2C731.7,431.6,731,432.8,731.1,434.9L731.1,434.9z"/>
		</g>
	</g>
	<line class="st5" x1="77.1" y1="104" x2="60.7" y2="86.4"/>
	<line class="st5" x1="93.6" y1="129.9" x2="77.1" y2="104"/>
	<line class="st5" x1="110" y1="142.4" x2="93.6" y2="129.9"/>
	<line class="st5" x1="126.4" y1="144.9" x2="110" y2="142.4"/>
	<line class="st5" x1="142.9" y1="134.9" x2="126.4" y2="144.9"/>
	<line class="st5" x1="159.3" y1="119" x2="142.9" y2="134.9"/>
	<line class="st5" x1="175.8" y1="129.9" x2="159.3" y2="119"/>
	<line class="st5" x1="192.2" y1="136.6" x2="175.8" y2="129.9"/>
	<line class="st5" x1="208.6" y1="148.3" x2="192.2" y2="136.6"/>
	<line class="st5" x1="225.1" y1="149.1" x2="208.6" y2="148.3"/>
	<line class="st5" x1="241.5" y1="141.6" x2="225.1" y2="149.1"/>
	<line class="st5" x1="258" y1="144.1" x2="241.5" y2="141.6"/>
	<line class="st5" x1="274.4" y1="129.9" x2="258" y2="144.1"/>
	<line class="st5" x1="290.8" y1="127.4" x2="274.4" y2="129.9"/>
	<line class="st5" x1="307.3" y1="131.5" x2="290.8" y2="127.4"/>
	<line class="st5" x1="323.7" y1="131.5" x2="307.3" y2="131.5"/>
	<line class="st5" x1="340.2" y1="137.4" x2="323.7" y2="131.5"/>
	<line class="st5" x1="356.6" y1="153.3" x2="340.2" y2="137.4"/>
	<line class="st5" x1="373" y1="208.4" x2="356.6" y2="153.3"/>
	<line class="st5" x1="389.5" y1="192.5" x2="373" y2="208.4"/>
	<line class="st5" x1="405.9" y1="210.9" x2="389.5" y2="192.5"/>
	<line class="st5" x1="422.4" y1="225.1" x2="405.9" y2="210.9"/>
	<line class="st5" x1="438.8" y1="239.3" x2="422.4" y2="225.1"/>
	<line class="st5" x1="455.3" y1="261.9" x2="438.8" y2="239.3"/>
	<line class="st5" x1="471.7" y1="251.8" x2="455.3" y2="261.9"/>
	<line class="st5" x1="488.1" y1="251" x2="471.7" y2="251.8"/>
	<line class="st5" x1="504.6" y1="245.2" x2="488.1" y2="251"/>
	<line class="st5" x1="521" y1="259.4" x2="504.6" y2="245.2"/>
	<rect x="646.6" y="510.8" class="st3" width="138.6" height="45.6"/>
	<g id="EUflag">
		<polygon class="st6" points="770,570.3 770,555 747.1,555 747.1,570.3 		"/>
	</g>
	<polygon class="st7" points="758.9,557.3 759.7,557.3 759.1,557.8 759.3,558.6 758.7,558.1 758.1,558.6 758.3,557.8 757.7,557.3 
		758.5,557.3 758.7,556.6 	"/>
	<polygon class="st7" points="759,567.5 759.7,567.5 759.1,567.9 759.4,568.7 758.7,568.2 758.1,568.7 758.4,567.9 757.8,567.5 
		758.5,567.5 758.7,566.8 	"/>
	<polygon class="st7" points="761.5,566.8 762.2,566.8 761.6,567.3 761.9,568 761.3,567.6 760.6,568 760.9,567.3 760.3,566.8 
		761,566.8 761.3,566.1 	"/>
	<polygon class="st7" points="761.5,558 762.2,558 761.6,558.5 761.9,559.2 761.3,558.8 760.6,559.2 760.9,558.5 760.3,558 761,558 
		761.3,557.3 	"/>
	<polygon class="st7" points="763.3,559.9 764.1,559.9 763.5,560.3 763.7,561.1 763.1,560.6 762.5,561.1 762.7,560.3 762.1,559.9 
		762.9,559.9 763.1,559.2 	"/>
	<polygon class="st7" points="763.3,565 764.1,565 763.5,565.4 763.7,566.2 763.1,565.7 762.5,566.2 762.7,565.4 762.1,565 
		762.9,565 763.1,564.3 	"/>
	<polygon class="st7" points="764,562.4 764.8,562.4 764.2,562.8 764.4,563.6 763.8,563.1 763.2,563.6 763.4,562.8 762.8,562.4 
		763.6,562.4 763.8,561.7 	"/>
	<polygon class="st7" points="756.4,558 757.1,558 756.5,558.5 756.8,559.2 756.2,558.8 755.5,559.2 755.8,558.5 755.2,558 
		755.9,558 756.2,557.3 	"/>
	<polygon class="st7" points="754.6,559.9 755.3,559.9 754.7,560.3 755,561.1 754.3,560.6 753.7,561.1 754,560.3 753.4,559.9 
		754.1,559.9 754.3,559.2 	"/>
	<polygon class="st7" points="753.9,562.4 754.7,562.4 754,562.9 754.3,563.6 753.7,563.1 753.1,563.6 753.3,562.9 752.7,562.4 
		753.4,562.4 753.7,561.7 	"/>
	<polygon class="st7" points="754.6,565 755.3,565 754.7,565.4 755,566.2 754.3,565.7 753.7,566.2 754,565.4 753.4,565 754.1,565 
		754.3,564.3 	"/>
	<polygon class="st7" points="756.4,566.8 757.2,566.8 756.6,567.3 756.8,568 756.2,567.6 755.6,568 755.8,567.3 755.2,566.8 
		756,566.8 756.2,566.1 	"/>
	<path class="st8" d="M659.8,567.2c0.6,0.5,1.3,0.8,2.1,0.7c0.6,0,1.2-0.2,1.7-0.5c0.4-0.2,0.7-0.6,0.9-1h2.8
		c-0.4,1.2-1.1,2.3-2.1,3c-1,0.6-2.2,0.9-3.4,0.9c-0.9,0-1.7-0.1-2.5-0.4c-0.7-0.3-1.4-0.7-1.9-1.3c-0.5-0.6-0.9-1.3-1.2-2
		c-0.5-1.6-0.5-3.4,0-5c0.3-0.7,0.7-1.4,1.2-2c0.5-0.6,1.2-1,1.9-1.3c0.8-0.3,1.6-0.5,2.4-0.5c0.9,0,1.8,0.2,2.6,0.6
		c0.7,0.4,1.4,0.9,1.8,1.6c0.5,0.7,0.8,1.4,1,2.2c0.2,0.8,0.3,1.7,0.2,2.6H659C658.9,565.7,659.2,566.6,659.8,567.2z M663.4,561.1
		c-0.5-0.4-1.1-0.7-1.8-0.6c-0.5,0-0.9,0.1-1.3,0.3c-0.3,0.2-0.6,0.4-0.8,0.6c-0.2,0.2-0.3,0.5-0.4,0.8c-0.1,0.3-0.1,0.5-0.1,0.8
		h5.3C664.2,562.3,663.9,561.7,663.4,561.1L663.4,561.1z M743.9,558.2v2.6h-2.1v5.5c0,0.5,0,0.9,0.2,1.1c0.3,0.2,0.7,0.4,1.1,0.3
		h0.4c0.2,0,0.4,0,0.4-0.1v2.5c-0.3,0.1-0.5,0.1-0.8,0.1h-0.9c-0.5,0-0.9,0-1.4-0.1c-0.4-0.1-0.8-0.2-1.2-0.4
		c-0.3-0.2-0.5-0.5-0.7-0.8c-0.2-0.4-0.2-0.9-0.2-1.4v-6.6h-2.1v-2.6h2.1v-3.2h3.2v3.2h2V558.2z M731.4,564.7
		c-0.2,0.1-0.4,0.1-0.6,0.2s-0.5,0.1-0.7,0.1s-0.5,0.1-0.8,0.1c-0.2,0-0.5,0.1-0.7,0.2l-0.6,0.3c-0.2,0.1-0.3,0.3-0.4,0.5
		c-0.3,0.4-0.3,1,0,1.4c0.1,0.2,0.2,0.4,0.4,0.5c0.2,0.1,0.4,0.2,0.6,0.2c0.2,0,0.5,0.1,0.7,0.1c0.5,0,1-0.1,1.5-0.3
		c0.3-0.2,0.6-0.5,0.8-0.8c0.2-0.3,0.2-0.6,0.2-0.9v-1.9C731.8,564.5,731.6,564.6,731.4,564.7 M725.1,560c0.3-0.5,0.8-0.9,1.3-1.2
		c0.5-0.3,1.1-0.5,1.7-0.6c0.6-0.1,1.3-0.2,1.9-0.2c0.6,0,1.2,0,1.8,0.1c0.6,0.1,1.1,0.2,1.6,0.5c0.5,0.2,0.8,0.6,1.1,1
		c0.3,0.5,0.4,1.1,0.4,1.7v6.1c0,0.5,0.1,1,0.2,1.5c0.1,0.4,0.2,0.8,0.4,1.1h-3.2c-0.1-0.2-0.1-0.4-0.1-0.6c0-0.2-0.1-0.4-0.1-0.6
		c-0.5,0.5-1.1,0.9-1.8,1.1c-0.7,0.2-1.4,0.3-2.1,0.3c-0.5,0-1.1-0.1-1.6-0.2c-0.5-0.1-0.9-0.3-1.3-0.6c-0.4-0.3-0.7-0.7-0.8-1.1
		c-0.2-0.5-0.3-1.1-0.3-1.6c0-0.6,0.1-1.1,0.4-1.6c0.2-0.4,0.5-0.8,0.9-1c0.4-0.3,0.8-0.5,1.3-0.6l1.4-0.3c0.5-0.1,1-0.1,1.4-0.2
		c0.4,0,0.8-0.1,1.2-0.2c0.3,0,0.6-0.2,0.8-0.4c0.2-0.2,0.3-0.5,0.3-0.8c0-0.3-0.1-0.6-0.2-0.8c-0.1-0.2-0.2-0.4-0.4-0.5
		c-0.2-0.1-0.5-0.2-0.7-0.2c-0.2,0-0.5-0.1-0.8-0.1c-0.5,0-1,0.1-1.5,0.3c-0.4,0.3-0.6,0.8-0.6,1.3h-3.2
		C724.6,561.1,724.8,560.5,725.1,560 M722.9,558.2v2.6h-2.6v5.5c-0.1,0.7,0.4,1.3,1.1,1.4c0.1,0,0.3,0,0.4,0h0.6
		c0.2,0,0.5,0,0.5-0.1v2.5c-0.5,0-0.6,0.1-1,0.1h-1c-0.5,0-0.9,0-1.4-0.1c-0.4-0.1-0.8-0.2-1.2-0.4c-0.3-0.2-0.6-0.5-0.9-0.8
		c-0.3-0.4-0.4-0.9-0.4-1.4v-6.6h-1.6v-2.6h1.6v-3.2h3.2v3.2h2.7L722.9,558.2z M706.9,567.1c0.1,0.3,0.3,0.5,0.6,0.7
		c0.2,0.2,0.5,0.3,0.8,0.4c0.3,0.1,0.6,0.1,0.9,0.1c0.2,0,0.5,0,0.7-0.1c0.2,0,0.5-0.1,0.7-0.2c0.2-0.1,0.4-0.2,0.5-0.4
		c0.1-0.2,0.2-0.5,0.2-0.7c0-0.5-0.3-0.8-1-1.1c-0.9-0.3-1.8-0.5-2.7-0.7c-0.5-0.1-0.9-0.2-1.4-0.4c-0.4-0.1-0.8-0.3-1.2-0.6
		c-0.3-0.2-0.6-0.5-0.8-0.9c-0.2-0.4-0.3-0.8-0.3-1.3c0-0.6,0.1-1.3,0.4-1.8c0.3-0.5,0.7-0.9,1.2-1.1c0.5-0.3,1-0.5,1.6-0.6
		c1.2-0.3,2.4-0.3,3.6,0c0.6,0.1,1.1,0.3,1.6,0.6c0.5,0.3,0.9,0.7,1.2,1.2c0.3,0.6,0.5,1.2,0.5,1.8h-3c0-0.5-0.3-1-0.7-1.3
		c-0.5-0.2-1-0.3-1.5-0.3h-0.6c-0.2,0-0.4,0.1-0.6,0.1c-0.2,0.1-0.3,0.2-0.4,0.3c-0.1,0.2-0.2,0.4-0.2,0.6c0,0.3,0.1,0.5,0.3,0.7
		c0.2,0.2,0.5,0.3,0.8,0.4c0.4,0.1,0.8,0.2,1.2,0.3l1.3,0.3c0.5,0.1,0.9,0.2,1.4,0.4l1.2,0.6c0.3,0.3,0.6,0.6,0.8,0.9
		c0.2,0.4,0.3,0.9,0.3,1.4c0,0.7-0.2,1.3-0.5,1.9c-0.3,0.5-0.7,0.9-1.2,1.3c-0.5,0.3-1.1,0.5-1.7,0.7c-0.7,0.1-1.3,0.2-2,0.2
		c-0.7,0-1.3-0.1-2-0.2c-0.6-0.1-1.2-0.3-1.7-0.7c-0.5-0.3-0.9-0.8-1.2-1.4c-0.4-0.6-0.6-1.4-0.5-2.1h3.1
		C706.6,566.5,706.7,566.8,706.9,567.1 M691,561.7c0.3-0.7,0.7-1.4,1.2-1.9c0.6-0.5,1.2-0.9,1.9-1.2c0.8-0.3,1.6-0.4,2.5-0.4
		c0.9,0,1.7,0.1,2.5,0.4c1.4,0.5,2.6,1.7,3.1,3.1c0.3,0.8,0.4,1.7,0.4,2.6c0,0.9-0.1,1.7-0.4,2.5c-0.3,0.7-0.7,1.4-1.2,1.9
		c-0.6,0.5-1.2,0.9-1.9,1.2c-0.8,0.3-1.6,0.4-2.5,0.4c-0.9,0-1.7-0.1-2.5-0.4c-1.4-0.5-2.6-1.7-3.1-3.1c-0.3-0.8-0.4-1.6-0.4-2.5
		C690.5,563.4,690.7,562.5,691,561.7 M693.9,565.6c0.1,0.4,0.2,0.8,0.5,1.2c0.2,0.4,0.5,0.6,0.9,0.8c0.4,0.2,0.9,0.3,1.4,0.3
		c0.5,0,1-0.1,1.4-0.3c0.4-0.2,0.7-0.5,0.9-0.8c0.5-0.8,0.7-1.7,0.6-2.6c0-0.5,0-0.9-0.1-1.4c-0.1-0.4-0.2-0.8-0.5-1.2
		c-0.2-0.3-0.5-0.6-0.9-0.8c-0.4-0.2-0.9-0.3-1.4-0.3c-0.5,0-1,0.1-1.4,0.3c-0.4,0.2-0.7,0.5-0.9,0.8c-0.2,0.4-0.4,0.8-0.5,1.2
		c-0.1,0.5-0.1,0.9-0.1,1.4C693.7,564.7,693.8,565.2,693.9,565.6 M686.1,558.2v2.6H686c0.1-0.4,0.3-0.8,0.6-1.1
		c0.3-0.3,0.6-0.6,0.9-0.8c0.3-0.2,0.7-0.4,1.1-0.5c0.4-0.1,0.7-0.2,1.1-0.2c0.2,0,0.6,0,0.6,0.1v3c-0.2-0.1-0.3-0.1-0.5-0.1h-0.6
		c-0.5,0-1,0.1-1.5,0.3c-0.4,0.2-0.7,0.5-1,0.8c-0.2,0.4-0.4,0.8-0.5,1.2c-0.1,0.5-0.2,1-0.2,1.5v5.4h-3v-12.1L686.1,558.2
		L686.1,558.2z M677.2,570.3v-1.6l0,0c-0.4,0.6-1,1.1-1.6,1.4c-0.6,0.3-1.3,0.4-2,0.4c-0.7,0.1-1.4-0.1-2.1-0.4
		c-0.5-0.2-1-0.5-1.3-1c-0.4-0.4-0.6-1-0.7-1.5c-0.1-0.7-0.2-1.3-0.2-2v-7.4h3.2v6.8c0,0.8,0.1,1.5,0.5,2.2c0.4,0.5,1,0.8,1.6,0.7
		c0.7,0.1,1.4-0.2,1.9-0.8c0.5-0.8,0.7-1.7,0.6-2.6v-6.4h3.2v12.1h-3.1L677.2,570.3z"/>
	<g>
		<path class="st4" d="M23,77.4L23,77.4l-1.8,1.2L21,77.3l2.2-1.4h1.2v12.3H23V77.4z"/>
		<path class="st4" d="M34.8,81.9c0,4.2-1.3,6.5-3.5,6.5c-2,0-3.4-2.3-3.4-6.3s1.5-6.4,3.6-6.4S34.8,78,34.8,81.9z M29.3,82.1
			c0,3.2,0.8,5,2.1,5c1.4,0,2.1-2,2.1-5.1c0-3.2-0.6-5-2.1-5C30.2,76.9,29.3,78.7,29.3,82.1L29.3,82.1z"/>
		<path class="st4" d="M42.9,81.9c0,4.2-1.3,6.5-3.5,6.5c-2,0-3.4-2.3-3.4-6.3s1.5-6.4,3.6-6.4S42.9,78,42.9,81.9z M37.4,82.1
			c0,3.2,0.8,5,2.1,5s2.1-2,2.1-5.1c0-3.2-0.6-5-2.1-5C38.2,76.9,37.4,78.7,37.4,82.1L37.4,82.1z"/>
	</g>
	<g>
		<path class="st4" d="M29.5,172.2c0.4,0,0.7,0,1.1-0.1c0.8-0.1,1.6-0.6,2.1-1.2c0.8-0.9,1.2-2.1,1.3-3.3h0
			c-0.5,0.8-1.4,1.3-2.4,1.3c-1.8,0-3-1.7-3-3.8c0-2.3,1.4-4.4,3.5-4.4s3.4,2,3.4,5.2c0.1,2.1-0.5,4.1-1.8,5.8
			c-0.8,0.9-1.8,1.5-3,1.6c-0.4,0.1-0.8,0.1-1.3,0.1L29.5,172.2z M30,165.1c0,1.5,0.8,2.6,2,2.6c0.9,0,1.6-0.5,2-1.3
			c0.1-0.2,0.1-0.4,0.1-0.6c0-2.1-0.6-3.7-2.1-3.7C30.9,162.1,30,163.4,30,165.1z"/>
		<path class="st4" d="M43.6,167.1c0,4.2-1.3,6.5-3.5,6.5c-2,0-3.4-2.3-3.4-6.3s1.5-6.4,3.6-6.4S43.6,163.2,43.6,167.1z M38,167.3
			c0,3.2,0.8,5,2.1,5s2.1-2,2.1-5.1s-0.6-5-2.1-5C38.9,162.1,38,163.9,38,167.3L38,167.3z"/>
	</g>
	<g>
		<path class="st4" d="M30.6,252.1c-1.5-0.9-2-2.9-1.1-4.5c0.6-0.9,1.5-1.5,2.6-1.5c1.6-0.1,2.9,1.2,3,2.8c0,0.1,0,0.1,0,0.2
			c0,1.2-0.6,2.3-1.7,2.9v0.1c1.8,0.9,2.5,3,1.6,4.8c-0.6,1.1-1.7,1.9-3,1.9c-1.8,0.1-3.3-1.3-3.4-3.1c0-0.1,0-0.2,0-0.3
			C28.5,254.1,29.3,252.8,30.6,252.1L30.6,252.1z M34.1,255.4c0-1.5-0.9-2.2-2.2-2.7c-1.1,0.3-1.9,1.4-1.9,2.6
			c-0.1,1.1,0.7,2.2,1.8,2.3c0.1,0,0.1,0,0.2,0c1.1,0.1,2-0.8,2.1-1.9C34.1,255.6,34.1,255.5,34.1,255.4L34.1,255.4z M30.3,249.2
			c0,1.2,0.8,1.9,2,2.3c0.9-0.3,1.6-1.2,1.5-2.2c0-1-0.5-2-1.7-2c-1,0-1.8,0.8-1.8,1.8C30.3,249.1,30.3,249.2,30.3,249.2L30.3,249.2
			z"/>
		<path class="st4" d="M43.6,252.3c0,4.2-1.3,6.5-3.5,6.5c-2,0-3.4-2.3-3.4-6.3s1.5-6.4,3.6-6.4S43.6,248.4,43.6,252.3z M38,252.5
			c0,3.2,0.8,5,2.1,5s2.1-2,2.1-5.1s-0.6-5-2.1-5C38.9,247.4,38,249.1,38,252.5z"/>
	</g>
	<g>
		<path class="st4" d="M35.4,331.5v1.1l-4.5,11.2h-1.4l4.4-10.9l0,0h-5v-1.4L35.4,331.5z"/>
		<path class="st4" d="M43.6,337.5c0,4.2-1.3,6.5-3.5,6.5c-2,0-3.4-2.3-3.4-6.4s1.5-6.4,3.6-6.4S43.6,333.6,43.6,337.5z M38,337.7
			c0,3.2,0.8,5,2.1,5s2.1-2,2.1-5.1s-0.6-5-2.1-5C38.9,332.6,38,334.4,38,337.7L38,337.7z"/>
	</g>
	<g>
		<path class="st4" d="M34.6,417.9c-0.3,0-0.7,0-1,0.1c-2.2,0.4-3.3,2.3-3.5,4.4l0,0c0.5-0.9,1.5-1.4,2.5-1.4c1.8,0,3.1,1.6,3.1,4
			s-1.3,4.4-3.4,4.4s-3.6-2-3.6-5.3c-0.1-2,0.5-4,1.7-5.6c0.8-1,2-1.6,3.3-1.8c0.3-0.1,0.7-0.1,1-0.1L34.6,417.9z M34.2,425
			c0-1.8-0.8-2.8-2.1-2.8c-0.9,0.1-1.7,0.7-2,1.5c-0.1,0.2-0.2,0.5-0.1,0.7c0,2,0.8,3.6,2.3,3.6C33.4,428,34.2,426.8,34.2,425z"/>
		<path class="st4" d="M43.6,422.8c0,4.2-1.3,6.5-3.5,6.5c-2,0-3.4-2.3-3.4-6.4s1.5-6.4,3.6-6.4S43.6,418.8,43.6,422.8z M38,423
			c0,3.2,0.8,5,2.1,5s2.1-2,2.1-5.1s-0.6-5-2.1-5C38.9,417.8,38,419.6,38,423L38,423z"/>
	</g>
</g>
<g id="Layer_2">
	<line class="st0" x1="59.9" y1="420.1" x2="719.2" y2="420.1"/>
	<line class="st9" x1="59.9" y1="420.1" x2="59.9" y2="427.7"/>
	<line class="st9" x1="76.4" y1="420.1" x2="76.4" y2="424.6"/>
	<line class="st9" x1="92.8" y1="420.1" x2="92.8" y2="424.6"/>
	<line class="st9" x1="109.3" y1="420.1" x2="109.3" y2="424.6"/>
	<line class="st9" x1="125.7" y1="420.1" x2="125.7" y2="424.6"/>
	<line class="st9" x1="142.2" y1="420.1" x2="142.2" y2="427.7"/>
	<line class="st9" x1="158.6" y1="420.1" x2="158.6" y2="424.6"/>
	<line class="st9" x1="175.1" y1="420.1" x2="175.1" y2="424.6"/>
	<line class="st9" x1="191.5" y1="420.1" x2="191.5" y2="424.6"/>
	<line class="st9" x1="208" y1="420.1" x2="208" y2="424.6"/>
	<line class="st9" x1="224.4" y1="420.1" x2="224.4" y2="427.7"/>
	<line class="st9" x1="240.9" y1="420.1" x2="240.9" y2="424.6"/>
	<line class="st9" x1="257.4" y1="420.1" x2="257.4" y2="424.6"/>
	<line class="st9" x1="273.8" y1="420.1" x2="273.8" y2="424.6"/>
	<line class="st9" x1="290.3" y1="420.1" x2="290.3" y2="424.6"/>
	<line class="st9" x1="306.7" y1="420.1" x2="306.7" y2="427.7"/>
	<line class="st9" x1="323.2" y1="420.1" x2="323.2" y2="424.6"/>
	<line class="st9" x1="339.6" y1="420.1" x2="339.6" y2="424.6"/>
	<line class="st9" x1="356.1" y1="420.1" x2="356.1" y2="424.6"/>
	<line class="st9" x1="372.5" y1="420.1" x2="372.5" y2="424.6"/>
	<line class="st9" x1="389" y1="420.1" x2="389" y2="427.7"/>
	<line class="st9" x1="405.5" y1="420.1" x2="405.5" y2="424.6"/>
	<line class="st9" x1="421.9" y1="420.1" x2="421.9" y2="424.6"/>
	<line class="st9" x1="438.4" y1="420.1" x2="438.4" y2="424.6"/>
	<line class="st9" x1="454.8" y1="420.1" x2="454.8" y2="424.6"/>
	<line class="st9" x1="471.3" y1="420.1" x2="471.3" y2="427.7"/>
	<line class="st9" x1="487.7" y1="420.1" x2="487.7" y2="424.6"/>
	<line class="st9" x1="504.2" y1="420.1" x2="504.2" y2="424.6"/>
	<line class="st9" x1="520.6" y1="420.1" x2="520.6" y2="424.6"/>
	<line class="st9" x1="537.1" y1="420.1" x2="537.1" y2="424.6"/>
	<line class="st9" x1="553.6" y1="420.1" x2="553.6" y2="427.7"/>
	<line class="st9" x1="570" y1="420.1" x2="570" y2="424.6"/>
	<line class="st9" x1="586.5" y1="420.1" x2="586.5" y2="424.6"/>
	<line class="st9" x1="602.9" y1="420.1" x2="602.9" y2="424.6"/>
	<line class="st9" x1="619.4" y1="420.1" x2="619.4" y2="424.6"/>
	<line class="st9" x1="635.8" y1="420.1" x2="635.8" y2="427.7"/>
	<line class="st9" x1="652.3" y1="420.1" x2="652.3" y2="424.6"/>
	<line class="st9" x1="668.7" y1="420.1" x2="668.7" y2="424.6"/>
	<line class="st9" x1="685.2" y1="420.1" x2="685.2" y2="424.6"/>
	<line class="st9" x1="701.7" y1="420.1" x2="701.7" y2="424.6"/>
	<line class="st9" x1="718.1" y1="420.1" x2="718.1" y2="427.7"/>
	<g>
		<g>
			<path class="st4" d="M39.7,513.1c0.6,0.3,1.2,0.5,1.9,0.5c1.1,0,1.7-0.6,1.7-1.4c0-0.8-0.4-1.2-1.6-1.6c-1.4-0.5-2.2-1.2-2.2-2.3
				c0.1-1.3,1.3-2.3,2.6-2.2c0,0,0.1,0,0.1,0c0.6,0,1.2,0.1,1.8,0.4l-0.3,0.9c-0.5-0.3-1-0.4-1.6-0.4c-1.1,0-1.6,0.7-1.6,1.2
				s0.5,1.1,1.6,1.6c1.4,0.5,2.1,1.2,2.1,2.4c0,1.2-0.9,2.4-2.9,2.4c-0.7,0-1.5-0.2-2.1-0.5L39.7,513.1z"/>
			<path class="st4" d="M51.2,511.4c0.1,1.6-1.1,3-2.7,3.1c-0.1,0-0.2,0-0.3,0c-1.5,0-2.8-1.2-2.8-2.8c0-0.1,0-0.2,0-0.3
				c-0.1-1.6,1-3,2.6-3.1c0.1,0,0.2,0,0.3,0c1.5,0,2.8,1.2,2.8,2.8C51.2,511.2,51.2,511.3,51.2,511.4z M46.5,511.5
				c0,1.3,0.7,2.3,1.8,2.3c1.1,0,1.8-1,1.8-2.3c0-1-0.5-2.3-1.8-2.3S46.5,510.3,46.5,511.5z"/>
			<path class="st4" d="M57.5,512.8c0,0.6,0,1.2,0,1.6h-0.9l-0.1-1l0,0c-0.4,0.7-1.2,1.1-2,1.1c-0.9,0-2-0.5-2-2.6v-3.5h1.1v3.2
				c0,1.1,0.4,1.9,1.3,1.9c0.6,0,1.2-0.4,1.4-1c0.1-0.2,0.1-0.4,0.1-0.5v-3.6h1.1V512.8z"/>
			<path class="st4" d="M59.3,510.3c0-0.7,0-1.3,0-1.8h0.9v1.2l0,0c0.2-0.7,0.9-1.3,1.7-1.3h0.3v1c-0.8-0.2-1.6,0.4-1.8,1.2
				c0,0.1,0,0.1,0,0.2c0,0.2,0,0.3,0,0.5v3.2h-1.1L59.3,510.3z"/>
			<path class="st4" d="M67.4,514.2c-0.5,0.2-1.1,0.3-1.7,0.3c-1.5,0.1-2.9-1.1-2.9-2.6c0-0.1,0-0.3,0-0.4c-0.1-1.7,1.2-3.1,2.9-3.2
				c0.1,0,0.2,0,0.3,0c0.5,0,1,0.1,1.5,0.3l-0.3,0.8c-0.4-0.2-0.8-0.3-1.2-0.3c-1.1,0-2.1,0.9-2.1,2c0,0.1,0,0.2,0,0.2
				c-0.1,1.1,0.7,2.1,1.8,2.2c0.1,0,0.1,0,0.2,0c0.5,0,1-0.1,1.4-0.3L67.4,514.2z"/>
			<path class="st4" d="M69.2,511.7c-0.1,1,0.7,2,1.7,2.1c0.1,0,0.2,0,0.3,0c0.6,0,1.1-0.1,1.6-0.3l0.2,0.8c-0.6,0.2-1.3,0.3-2,0.3
				c-1.5,0-2.8-1.2-2.8-2.8c0-0.1,0-0.1,0-0.2c-0.2-1.5,0.9-2.9,2.4-3.2c0.1,0,0.3,0,0.4,0c1.4,0,2.5,1.1,2.5,2.5c0,0.1,0,0.2,0,0.3
				c0,0.2,0,0.3,0,0.5L69.2,511.7z M72.4,511c0.1-0.8-0.5-1.6-1.3-1.7c-0.1,0-0.1,0-0.2,0c-0.9,0.1-1.6,0.8-1.7,1.7H72.4z"/>
			<path class="st4" d="M74.5,509.5c0-0.4,0.4-0.7,0.8-0.7c0.4,0,0.7,0.4,0.7,0.8c0,0.4-0.4,0.7-0.8,0.7
				C74.8,510.2,74.5,509.9,74.5,509.5C74.5,509.5,74.5,509.5,74.5,509.5z M74.5,513.8c0-0.4,0.4-0.7,0.8-0.7s0.7,0.4,0.7,0.8
				c0,0.4-0.4,0.7-0.8,0.7C74.8,514.6,74.5,514.2,74.5,513.8C74.5,513.8,74.5,513.8,74.5,513.8L74.5,513.8z"/>
			<path class="st4" d="M84.2,510.6H81v3h3.6v0.9h-4.7v-8.3h4.5v0.9H81v2.6h3.2L84.2,510.6z"/>
			<path class="st4" d="M90.8,512.8c0,0.6,0,1.2,0,1.6h-1v-1l0,0c-0.4,0.7-1.2,1.1-2,1.1c-0.9,0-2-0.5-2-2.6v-3.4h1.1v3.2
				c0,1.1,0.4,1.9,1.3,1.9c0.6,0,1.2-0.4,1.4-1c0.1-0.2,0.1-0.4,0.1-0.5v-3.6h1.1V512.8z"/>
			<path class="st4" d="M92.6,510.3c0-0.7,0-1.3,0-1.8h0.9v1.2l0,0c0.2-0.7,0.9-1.3,1.7-1.3h0.3v1c-0.1,0-0.2,0-0.4,0
				c-0.8,0-1.4,0.6-1.4,1.4c0,0.2,0,0.3,0,0.5v3.2h-1.1V510.3z"/>
			<path class="st4" d="M101.9,511.4c0.1,1.6-1.1,3-2.7,3.1c-0.1,0-0.2,0-0.3,0c-1.5,0-2.8-1.2-2.8-2.8c0-0.1,0-0.2,0-0.3
				c-0.1-1.6,1.1-3,2.7-3.1c0.1,0,0.2,0,0.3,0c1.5,0,2.8,1.2,2.9,2.7C101.9,511.2,101.9,511.3,101.9,511.4z M97.2,511.5
				c0,1.3,0.7,2.3,1.8,2.3s1.8-1,1.8-2.3c0-1-0.5-2.3-1.8-2.3S97.1,510.3,97.2,511.5L97.2,511.5z"/>
			<path class="st4" d="M103.2,510.4c0-0.8,0-1.4,0-1.9h1v1l0,0c0.4-0.7,1.2-1.2,2.1-1.1c1.5,0.1,2.6,1.3,2.5,2.8c0,0.1,0,0.1,0,0.2
				c0.2,1.5-0.9,2.9-2.4,3.1c-0.1,0-0.2,0-0.2,0c-0.7,0-1.4-0.3-1.8-0.9l0,0v3.2h-1.1L103.2,510.4z M104.3,512c0,0.1,0,0.3,0,0.4
				c0.2,0.7,0.9,1.3,1.6,1.3c1.1,0,1.8-0.9,1.8-2.3s-0.6-2.2-1.8-2.2c-0.8,0-1.5,0.6-1.6,1.3c0,0.1,0,0.3,0,0.4L104.3,512z"/>
			<path class="st4" d="M110.8,511.7c-0.1,1,0.7,2,1.7,2.1c0.1,0,0.2,0,0.3,0c0.6,0,1.1-0.1,1.6-0.3l0.2,0.8c-0.6,0.3-1.3,0.4-2,0.4
				c-1.5,0.1-2.9-1.1-2.9-2.7c0-0.1,0-0.2,0-0.3c-0.2-1.5,0.9-2.9,2.4-3.2c0.1,0,0.3,0,0.4,0c1.4,0,2.5,1.1,2.5,2.5
				c0,0.1,0,0.2,0,0.3c0,0.2,0,0.3,0,0.5L110.8,511.7z M113.9,511c0.1-0.8-0.5-1.6-1.3-1.7c-0.1,0-0.1,0-0.2,0
				c-0.9,0.1-1.6,0.8-1.7,1.7H113.9z"/>
			<path class="st4" d="M120.5,513c0,0.5,0,0.9,0.1,1.4h-1l-0.1-0.7l0,0c-0.4,0.6-1.1,0.9-1.8,0.9c-0.9,0.1-1.7-0.6-1.8-1.6
				c0,0,0-0.1,0-0.1c0-1.4,1.3-2.2,3.6-2.2v-0.1c0.1-0.7-0.3-1.3-1-1.4c-0.1,0-0.3,0-0.4,0c-0.6,0-1.1,0.2-1.6,0.4l-0.2-0.7
				c0.6-0.3,1.3-0.5,2-0.5c1.8,0,2.3,1.2,2.3,2.4L120.5,513z M119.4,511.4c-1.2,0-2.5,0.2-2.5,1.4c0,0.5,0.3,1,0.8,1
				c0.1,0,0.1,0,0.2,0c0.6,0,1.2-0.4,1.4-1c0-0.1,0-0.2,0-0.3L119.4,511.4z"/>
			<path class="st4" d="M122.2,510.1c0-0.6,0-1.1,0-1.6h1v1l0,0c0.4-0.7,1.2-1.1,2-1.1c0.8,0,2.1,0.5,2.1,2.5v3.5h-1.1V511
				c0-1-0.4-1.8-1.4-1.8c-0.7,0-1.2,0.5-1.4,1.1c0,0.2,0,0.3,0,0.5v3.6h-1.1L122.2,510.1z"/>
			<path class="st4" d="M135.9,510.6h-3.2v3h3.6v0.9h-4.7v-8.3h4.5v0.9h-3.4v2.6h3.2V510.6z"/>
			<path class="st4" d="M137.6,510.1c0-0.6,0-1.1,0-1.6h1v1l0,0c0.4-0.7,1.1-1.1,1.9-1.1c0.8,0,2.1,0.5,2.1,2.5v3.5h-1.1V511
				c0-1-0.4-1.8-1.4-1.8c-0.7,0-1.2,0.5-1.4,1.1c0,0.2,0,0.3,0,0.5v3.6h-1.1L137.6,510.1z"/>
			<path class="st4" d="M144.7,508.5l1.2,3.3c0.2,0.6,0.4,1.1,0.5,1.5l0,0c0.1-0.5,0.3-1,0.5-1.5l1.1-3.3h1.1l-2.3,5.9h-1l-2.3-5.9
				H144.7z"/>
			<path class="st4" d="M151.3,506.8c0,0.4-0.3,0.7-0.6,0.7c0,0,0,0-0.1,0c-0.3,0-0.6-0.3-0.6-0.6c0,0,0,0,0-0.1
				c0-0.4,0.3-0.7,0.6-0.7c0,0,0,0,0,0C151,506.2,151.3,506.4,151.3,506.8C151.3,506.8,151.3,506.8,151.3,506.8z M150.1,514.4v-5.9
				h1.1v5.9H150.1z"/>
			<path class="st4" d="M153,510.3c0-0.7,0-1.3,0-1.8h0.9v1.2l0,0c0.2-0.7,0.9-1.3,1.7-1.3h0.3v1c-0.8-0.2-1.6,0.4-1.8,1.2
				c0,0.1,0,0.1,0,0.2c0,0.2,0,0.3,0,0.5v3.2H153V510.3z"/>
			<path class="st4" d="M162.3,511.4c0.1,1.6-1.1,3-2.7,3.1c-0.1,0-0.2,0-0.3,0c-1.5,0-2.8-1.2-2.8-2.8c0-0.1,0-0.2,0-0.3
				c-0.1-1.6,1-3,2.6-3.1c0.1,0,0.2,0,0.3,0c1.5,0,2.8,1.2,2.8,2.8C162.3,511.2,162.3,511.3,162.3,511.4z M157.6,511.5
				c0,1.3,0.7,2.3,1.8,2.3s1.8-1,1.8-2.3c0-1-0.5-2.3-1.8-2.3C158.1,509.2,157.6,510.3,157.6,511.5z"/>
			<path class="st4" d="M163.6,510.1c0-0.6,0-1.1,0-1.6h1v1l0,0c0.4-0.7,1.2-1.1,2-1.1c0.8,0,2.1,0.5,2.1,2.5v3.5h-1.1V511
				c0-1-0.4-1.8-1.4-1.8c-0.7,0-1.2,0.5-1.4,1.1c-0.1,0.2-0.1,0.3-0.1,0.5v3.6h-1.1L163.6,510.1z"/>
			<path class="st4" d="M170.4,510.1c0-0.6,0-1.1,0-1.6h1v1l0,0c0.4-0.7,1.1-1.1,1.9-1.1c0.8,0,1.4,0.5,1.7,1.2l0,0
				c0.2-0.3,0.4-0.6,0.7-0.8c0.4-0.3,0.8-0.4,1.3-0.4c0.8,0,2,0.5,2,2.6v3.5h-1.1v-3.3c0-1.1-0.4-1.8-1.3-1.8c-0.6,0-1.1,0.4-1.3,1
				c-0.1,0.2-0.1,0.4-0.1,0.5v3.7h-1.1v-3.5c0-0.9-0.4-1.6-1.2-1.6c-0.6,0-1.2,0.5-1.3,1.1c-0.1,0.2-0.1,0.4-0.1,0.5v3.6h-1.1
				L170.4,510.1z"/>
			<path class="st4" d="M181.2,511.7c-0.1,1,0.7,2,1.7,2.1c0.1,0,0.2,0,0.3,0c0.6,0,1.1-0.1,1.6-0.3l0.2,0.8c-0.6,0.2-1.3,0.3-2,0.3
				c-1.5,0.1-2.9-1.1-2.9-2.7c0-0.1,0-0.2,0-0.3c-0.2-1.5,0.9-2.9,2.4-3.2c0.1,0,0.3,0,0.4,0c1.4,0,2.5,1.1,2.5,2.5
				c0,0.1,0,0.2,0,0.3c0,0.2,0,0.3,0,0.5L181.2,511.7z M184.4,511c0.1-0.8-0.5-1.6-1.3-1.7c-0.1,0-0.1,0-0.2,0
				c-0.9,0.1-1.6,0.8-1.7,1.7H184.4z"/>
			<path class="st4" d="M186.8,510.1c0-0.6,0-1.1,0-1.6h1v1l0,0c0.4-0.7,1.2-1.1,2-1.1c0.8,0,2.1,0.5,2.1,2.5v3.5h-1.1V511
				c0-1-0.4-1.8-1.4-1.8c-0.6,0-1.2,0.5-1.4,1.1c0,0.2-0.1,0.3-0.1,0.5v3.6h-1.1L186.8,510.1z"/>
			<path class="st4" d="M194.8,507.1v1.4h1.5v0.8h-1.5v3.2c0,0.7,0.2,1.1,0.8,1.1c0.2,0,0.4,0,0.6,0v0.8c-0.3,0.1-0.6,0.1-1,0.1
				c-0.4,0-0.9-0.1-1.2-0.4c-0.3-0.5-0.5-1-0.4-1.6v-3.2h-0.8v-0.8h0.9v-1.1L194.8,507.1z"/>
			<path class="st4" d="M201.5,511.8l-0.9,2.6h-1.1l2.8-8.2h1.3l2.8,8.2h-1.1l-0.9-2.6H201.5z M204.3,511l-0.8-2.4
				c-0.2-0.5-0.3-1-0.4-1.5l0,0c-0.1,0.5-0.3,1-0.4,1.5l-0.8,2.4H204.3z"/>
			<path class="st4" d="M212.5,513.6c0.1,1-0.2,2-0.8,2.7c-0.6,0.5-1.4,0.7-2.2,0.7c-0.7,0-1.4-0.2-2-0.5l0.3-0.8
				c0.5,0.3,1.1,0.5,1.7,0.5c1.1,0,1.9-0.6,1.9-2.1v-0.6l0,0c-0.4,0.6-1.1,1-1.9,1c-1.5-0.1-2.6-1.3-2.5-2.8c0,0,0-0.1,0-0.1
				c-0.2-1.5,0.9-2.9,2.5-3.1c0.1,0,0.1,0,0.2,0c0.8-0.1,1.5,0.3,1.8,1l0,0v-0.9h1c0,0.4,0,0.9,0,1.6V513.6z M211.5,510.8
				c0-0.2,0-0.3-0.1-0.5c-0.2-0.7-0.8-1.2-1.5-1.1c-1,0-1.8,0.9-1.8,2.2s0.6,2.1,1.8,2.1c0.7,0,1.3-0.4,1.5-1.1
				c0.1-0.2,0.1-0.4,0.1-0.6V510.8z"/>
			<path class="st4" d="M215,511.7c-0.1,1,0.7,2,1.7,2.1c0.1,0,0.2,0,0.3,0c0.6,0,1.1-0.1,1.7-0.3l0.2,0.8c-0.6,0.3-1.3,0.4-2,0.4
				c-1.5,0.1-2.9-1.1-2.9-2.7c0-0.1,0-0.2,0-0.3c-0.2-1.5,0.9-2.9,2.4-3.2c0.1,0,0.3,0,0.4,0c1.4,0,2.5,1.1,2.5,2.5
				c0,0.1,0,0.2,0,0.3c0,0.2,0,0.3,0,0.5L215,511.7z M218.1,511c0.1-0.8-0.5-1.6-1.3-1.7c-0.1,0-0.1,0-0.2,0
				c-0.9,0.1-1.6,0.8-1.7,1.7H218.1z"/>
			<path class="st4" d="M220.5,510.1c0-0.6,0-1.1,0-1.6h1v1l0,0c0.4-0.7,1.2-1.1,2-1.1c0.8,0,2.1,0.5,2.1,2.5v3.5h-1.1V511
				c0-1-0.4-1.8-1.4-1.8c-0.7,0-1.2,0.5-1.4,1.1c-0.1,0.2-0.1,0.3-0.1,0.5v3.6h-1.1L220.5,510.1z"/>
			<path class="st4" d="M231.5,514.2c-0.5,0.2-1.1,0.3-1.7,0.3c-1.5,0.1-2.9-1.1-3-2.6c0-0.1,0-0.3,0-0.4c-0.1-1.7,1.2-3.1,2.9-3.2
				c0.1,0,0.2,0,0.3,0c0.5,0,1,0.1,1.5,0.3l-0.2,0.8c-0.4-0.2-0.8-0.3-1.2-0.3c-1.1,0-2.1,0.8-2.1,2c0,0.1,0,0.2,0,0.3
				c-0.1,1.1,0.7,2.1,1.8,2.2c0.1,0,0.1,0,0.2,0c0.5,0,0.9-0.1,1.3-0.3L231.5,514.2z"/>
			<path class="st4" d="M233.4,508.5l1.3,3.5c0.2,0.4,0.3,0.9,0.4,1.2l0,0c0.1-0.4,0.2-0.8,0.4-1.2l1.2-3.5h1.1l-1.6,4.2
				c-0.4,1.4-1.1,2.6-2,3.7c-0.4,0.3-0.8,0.6-1.3,0.7l-0.3-0.9c0.3-0.1,0.7-0.3,0.9-0.5c0.4-0.3,0.7-0.7,0.9-1.2
				c0-0.1,0.1-0.2,0.1-0.3c0-0.1,0-0.2-0.1-0.3l-2.2-5.5L233.4,508.5z"/>
		</g>
		<g>
			<path class="st4" d="M39.8,518.9c0.7-0.1,1.5-0.2,2.3-0.2c1.2-0.1,2.4,0.3,3.3,1c0.8,0.8,1.2,1.9,1.2,3c0,1.2-0.4,2.3-1.2,3.2
				c-1,0.8-2.3,1.3-3.7,1.2c-0.7,0-1.3,0-1.9-0.1V518.9z M40.8,526.2c0.3,0,0.7,0,1.1,0c1.7,0.2,3.3-1,3.5-2.8c0-0.2,0-0.5,0-0.7
				c0.2-1.6-1-3-2.6-3.2c-0.2,0-0.5,0-0.7,0c-0.4,0-0.8,0-1.3,0.1L40.8,526.2z"/>
			<path class="st4" d="M52.1,525.6c0,0.5,0,0.9,0.1,1.4h-1l-0.1-0.7l0,0c-0.4,0.6-1.1,0.9-1.8,0.9c-0.9,0.1-1.7-0.6-1.8-1.6
				c0,0,0-0.1,0-0.1c0-1.4,1.3-2.2,3.6-2.2v-0.1c0.1-0.7-0.3-1.3-1-1.4c-0.1,0-0.3,0-0.4,0c-0.6,0-1.1,0.2-1.6,0.4l-0.2-0.7
				c0.6-0.3,1.3-0.5,2-0.5c1.8,0,2.3,1.2,2.3,2.4L52.1,525.6z M51,524c-1.2,0-2.5,0.2-2.5,1.4c0,0.5,0.3,1,0.8,1c0.1,0,0.1,0,0.2,0
				c0.6,0,1.2-0.4,1.4-1c0-0.1,0-0.2,0-0.3L51,524z"/>
			<path class="st4" d="M55.1,519.7v1.4h1.5v0.8h-1.5v3.2c0,0.7,0.2,1.1,0.8,1.1c0.2,0,0.4,0,0.6,0v0.8c-0.3,0.1-0.5,0.1-0.8,0.1
				c-0.4,0-0.9-0.1-1.2-0.5c-0.3-0.5-0.5-1-0.4-1.6v-3.2h-0.9v-0.8h0.9V520L55.1,519.7z"/>
			<path class="st4" d="M62,525.6c0,0.5,0,0.9,0.1,1.4h-1l-0.1-0.7l0,0c-0.4,0.6-1.1,0.9-1.8,0.9c-0.9,0.1-1.7-0.6-1.8-1.6
				c0,0,0-0.1,0-0.1c0-1.4,1.3-2.2,3.6-2.2v-0.1c0.1-0.7-0.3-1.3-1-1.4c-0.1,0-0.3,0-0.4,0c-0.6,0-1.1,0.1-1.6,0.4l-0.2-0.6
				c0.6-0.3,1.3-0.5,2-0.5c1.8,0,2.3,1.2,2.3,2.4L62,525.6z M60.9,524c-1.2,0-2.5,0.2-2.5,1.4c0,0.5,0.4,1,0.9,1c0,0,0.1,0,0.1,0
				c0.6,0,1.2-0.4,1.4-1c0-0.1,0-0.2,0-0.3L60.9,524z"/>
			<path class="st4" d="M67.5,519.4c0,0.4-0.2,0.7-0.6,0.7c0,0,0,0-0.1,0c-0.3,0-0.6-0.3-0.6-0.6c0,0,0,0,0,0c0-0.4,0.2-0.7,0.6-0.7
				c0,0,0.1,0,0.1,0C67.2,518.7,67.5,519,67.5,519.4C67.5,519.4,67.5,519.4,67.5,519.4z M66.3,527v-5.9h1.1v5.9H66.3z"/>
			<path class="st4" d="M69.2,522.7c0-0.6,0-1.1,0-1.6h1v1l0,0c0.4-0.7,1.2-1.1,2-1.1c0.8,0,2.1,0.5,2.1,2.5v3.5h-1.1v-3.4
				c0-1-0.4-1.8-1.4-1.8c-0.7,0-1.2,0.5-1.4,1.1c0,0.2,0,0.3,0,0.5v3.6h-1.1L69.2,522.7z"/>
			<path class="st4" d="M80.2,526.8c-0.5,0.2-1.1,0.4-1.7,0.4c-1.5,0.1-2.9-1.1-3-2.6c0-0.1,0-0.3,0-0.4c-0.1-1.7,1.2-3.1,2.9-3.2
				c0.1,0,0.2,0,0.3,0c0.5,0,1,0.1,1.5,0.3l-0.3,0.8c-0.4-0.2-0.8-0.3-1.2-0.3c-1.2,0-2.2,1-2.2,2.2c0,1.2,1,2.2,2.2,2.2
				c0.5,0,0.9-0.1,1.3-0.3L80.2,526.8z"/>
			<path class="st4" d="M81.5,518.3h1.1v8.7h-1.1V518.3z"/>
			<path class="st4" d="M89.3,525.4c0,0.6,0,1.2,0,1.6h-1v-1l0,0c-0.4,0.7-1.2,1.1-2,1.1c-0.9,0-2-0.5-2-2.6v-3.5h1.1v3.2
				c0,1.1,0.4,1.9,1.3,1.9c0.6,0,1.2-0.4,1.4-1c0.1-0.2,0.1-0.4,0.1-0.5v-3.6h1.1V525.4z"/>
			<path class="st4" d="M96.3,518.3v7.2c0,0.5,0,1.1,0,1.5h-1v-1l0,0c-0.4,0.7-1.2,1.2-2,1.2c-1.5,0-2.7-1.3-2.7-2.8
				c0-0.1,0-0.2,0-0.3c-0.2-1.5,0.9-2.9,2.4-3.2c0.1,0,0.2,0,0.3,0c0.7,0,1.4,0.3,1.8,0.9l0,0v-3.5H96.3z M95.2,523.5
				c0-0.1,0-0.3,0-0.4c-0.2-0.8-0.9-1.3-1.7-1.2c-1.1,0-1.8,1-1.8,2.3c0,1.3,0.6,2.2,1.8,2.2c0.8,0,1.4-0.5,1.6-1.3
				c0-0.2,0-0.3,0-0.5L95.2,523.5z"/>
			<path class="st4" d="M99.2,519.4c0,0.4-0.3,0.7-0.7,0.7c-0.4,0-0.7-0.3-0.7-0.7c0-0.4,0.3-0.7,0.6-0.7c0,0,0,0,0,0
				c0.4,0,0.7,0.2,0.7,0.6C99.2,519.3,99.2,519.4,99.2,519.4z M98,527v-5.9h1.1v5.9H98z"/>
			<path class="st4" d="M100.9,522.7c0-0.6,0-1.1,0-1.6h1v1l0,0c0.4-0.7,1.2-1.1,2-1.1c0.8,0,2.1,0.5,2.1,2.5v3.5h-1.1v-3.4
				c0-1-0.4-1.8-1.4-1.8c-0.7,0-1.2,0.5-1.4,1.1c-0.1,0.2-0.1,0.3-0.1,0.5v3.6h-1.1L100.9,522.7z"/>
			<path class="st4" d="M112.7,526.1c0.1,1-0.2,2-0.9,2.7c-0.6,0.5-1.4,0.7-2.2,0.7c-0.7,0-1.4-0.1-2-0.5l0.3-0.8
				c0.5,0.3,1.1,0.5,1.7,0.5c1.1,0,1.9-0.6,1.9-2.1V526l0,0c-0.4,0.6-1.1,1-1.9,1c-1.5-0.1-2.6-1.3-2.5-2.8c0,0,0-0.1,0-0.1
				c-0.2-1.5,0.9-2.9,2.4-3.1c0.1,0,0.2,0,0.2,0c0.8,0,1.5,0.4,1.8,1l0,0v-0.9h1c0,0.4,0,0.9,0,1.6L112.7,526.1z M111.7,523.4
				c0-0.2,0-0.3,0-0.5c-0.2-0.7-0.8-1.2-1.5-1.1c-1,0-1.8,0.9-1.8,2.2s0.6,2.1,1.8,2.1c0.7,0,1.3-0.4,1.5-1.1
				c0.1-0.2,0.1-0.4,0.1-0.6L111.7,523.4z"/>
			<path class="st4" d="M118.3,519.4c0,0.4-0.3,0.7-0.6,0.7c0,0,0,0-0.1,0c-0.4,0-0.7-0.3-0.7-0.6c0,0,0,0,0,0
				c0-0.4,0.3-0.7,0.6-0.7c0,0,0,0,0,0C118,518.7,118.3,519,118.3,519.4C118.3,519.4,118.3,519.4,118.3,519.4z M117.1,527v-5.9h1.1
				v5.9H117.1z"/>
			<path class="st4" d="M120,522.7c0-0.6,0-1.1,0-1.6h1l0.1,1l0,0c0.4-0.7,1.2-1.1,2-1.1c0.8,0,2.1,0.5,2.1,2.5v3.5H124v-3.4
				c0-1-0.4-1.8-1.4-1.8c-0.7,0-1.2,0.5-1.4,1.1c-0.1,0.2-0.1,0.3-0.1,0.5v3.6H120L120,522.7z"/>
			<path class="st4" d="M128,519.7v1.4h1.5v0.8H128v3.2c0,0.7,0.2,1.1,0.8,1.1c0.2,0,0.4,0,0.6,0v0.8c-0.3,0.1-0.6,0.2-1,0.2
				c-0.4,0-0.9-0.1-1.2-0.5c-0.3-0.5-0.5-1-0.4-1.6V522H126v-0.8h0.9V520L128,519.7z"/>
			<path class="st4" d="M131.3,524.2c-0.1,1,0.7,2,1.7,2.1c0.1,0,0.2,0,0.3,0c0.6,0,1.1-0.1,1.6-0.3l0.2,0.8c-0.6,0.3-1.3,0.4-2,0.4
				c-1.5,0.1-2.9-1.1-2.9-2.7c0-0.1,0-0.2,0-0.3c-0.2-1.6,1-3,2.5-3.2c0.1,0,0.2,0,0.3,0c1.4,0,2.5,1.2,2.5,2.5c0,0.1,0,0.2,0,0.3
				c0,0.2,0,0.3,0,0.5L131.3,524.2z M134.5,523.5c0.1-0.8-0.5-1.6-1.3-1.7c-0.1,0-0.1,0-0.2,0c-0.9,0.1-1.6,0.8-1.7,1.8H134.5z"/>
			<path class="st4" d="M136.9,522.9c0-0.7,0-1.3,0-1.8h1v1.2l0,0c0.2-0.7,0.9-1.3,1.7-1.3h0.3v1c-0.1,0-0.3,0-0.4,0
				c-0.8,0-1.4,0.6-1.4,1.4c0,0.1,0,0.3,0,0.5v3.2h-1.1V522.9z"/>
			<path class="st4" d="M140.9,522.7c0-0.6,0-1.1,0-1.6h1v1l0,0c0.4-0.7,1.2-1.1,2-1.1c0.8,0,2.1,0.5,2.1,2.5v3.5h-1.1v-3.4
				c0-1-0.4-1.8-1.4-1.8c-0.7,0-1.2,0.5-1.4,1.1c0,0.2-0.1,0.3-0.1,0.5v3.6h-1.1L140.9,522.7z"/>
			<path class="st4" d="M151.9,525.6c0,0.5,0,0.9,0.1,1.4h-1l-0.1-0.7l0,0c-0.4,0.6-1.1,0.9-1.8,0.9c-0.9,0.1-1.7-0.6-1.8-1.6
				c0,0,0-0.1,0-0.1c0-1.4,1.3-2.2,3.6-2.2v-0.1c0.1-0.7-0.3-1.3-1-1.4c-0.1,0-0.3,0-0.4,0c-0.6,0-1.1,0.1-1.6,0.4l-0.3-0.7
				c0.6-0.3,1.3-0.5,2-0.5c1.8,0,2.3,1.2,2.3,2.4L151.9,525.6z M150.8,524c-1.2,0-2.5,0.2-2.5,1.4c0,0.5,0.3,1,0.8,1
				c0.1,0,0.1,0,0.2,0c0.6,0,1.2-0.4,1.4-1c0-0.1,0-0.2,0-0.3L150.8,524z"/>
			<path class="st4" d="M154.9,519.7v1.4h1.5v0.8h-1.5v3.2c0,0.7,0.2,1.1,0.8,1.1c0.2,0,0.4,0,0.6,0v0.8c-0.3,0.1-0.6,0.2-1,0.2
				c-0.4,0-0.9-0.1-1.2-0.5c-0.3-0.5-0.5-1-0.4-1.6V522h-0.9v-0.8h0.9V520L154.9,519.7z"/>
			<path class="st4" d="M158.8,519.4c0,0.4-0.3,0.7-0.6,0.7c0,0,0,0-0.1,0c-0.4,0-0.7-0.3-0.7-0.6c0,0,0,0,0,0
				c0-0.4,0.3-0.7,0.6-0.7c0,0,0,0,0,0C158.5,518.7,158.8,519,158.8,519.4C158.8,519.4,158.8,519.4,158.8,519.4z M157.6,527v-5.9
				h1.1v5.9H157.6z"/>
			<path class="st4" d="M165.8,524c0.1,1.6-1.1,3-2.7,3.1c-0.1,0-0.2,0-0.3,0c-1.5,0-2.8-1.2-2.8-2.8c0-0.1,0-0.2,0-0.3
				c-0.1-1.6,1.1-3,2.7-3.1c0.1,0,0.2,0,0.3,0c1.5,0,2.8,1.2,2.8,2.8C165.9,523.8,165.9,523.9,165.8,524z M161.2,524
				c0,1.3,0.7,2.3,1.8,2.3s1.8-1,1.8-2.3c0-1-0.5-2.3-1.8-2.3C161.7,521.7,161.2,522.9,161.2,524L161.2,524z"/>
			<path class="st4" d="M167.2,522.7c0-0.6,0-1.1,0-1.6h1l0.1,1l0,0c0.4-0.7,1.1-1.1,1.9-1.1c0.8,0,2.1,0.5,2.1,2.5v3.5h-1.1v-3.4
				c0-1-0.4-1.8-1.4-1.8c-0.7,0-1.2,0.5-1.4,1.1c-0.1,0.2-0.1,0.3-0.1,0.5v3.6h-1.1L167.2,522.7z"/>
			<path class="st4" d="M178.2,525.6c0,0.5,0,0.9,0.1,1.4h-1l-0.1-0.7l0,0c-0.4,0.6-1.1,0.9-1.8,0.9c-0.9,0.1-1.7-0.6-1.8-1.6
				c0,0,0-0.1,0-0.1c0-1.4,1.3-2.2,3.6-2.2v-0.1c0.1-0.7-0.3-1.3-1-1.4c-0.1,0-0.3,0-0.4,0c-0.6,0-1.1,0.2-1.6,0.4l-0.2-0.7
				c0.6-0.3,1.3-0.5,1.9-0.5c1.8,0,2.3,1.2,2.3,2.4L178.2,525.6z M177.1,524c-1.2,0-2.5,0.2-2.5,1.4c0,0.5,0.3,1,0.8,1
				c0,0,0.1,0,0.1,0c0.7,0,1.2-0.4,1.5-1c0-0.1,0-0.2,0-0.3L177.1,524z"/>
			<path class="st4" d="M179.9,518.3h1.1v8.7h-1.1V518.3z"/>
			<path class="st4" d="M189.6,525.6c0,0.5,0,0.9,0.1,1.4h-0.9l-0.1-0.7l0,0c-0.4,0.6-1.1,0.9-1.8,0.9c-0.9,0.1-1.7-0.6-1.8-1.6
				c0,0,0-0.1,0-0.1c0-1.4,1.3-2.2,3.6-2.2v-0.1c0.1-0.7-0.3-1.3-1-1.4c-0.1,0-0.3,0-0.4,0c-0.6,0-1.1,0.2-1.6,0.4l-0.2-0.7
				c0.6-0.3,1.3-0.5,2-0.5c1.8,0,2.3,1.2,2.3,2.4L189.6,525.6z M188.5,524c-1.2,0-2.5,0.2-2.5,1.4c0,0.5,0.3,1,0.8,1
				c0.1,0,0.1,0,0.2,0c0.6,0,1.2-0.4,1.4-1c0-0.1,0-0.2,0-0.3L188.5,524z"/>
			<path class="st4" d="M191.6,521.1l1.2,3.3c0.2,0.5,0.4,1,0.5,1.5l0,0c0.1-0.5,0.3-1,0.5-1.5l1.1-3.3h1.1l-2.3,5.9h-1l-2.3-5.9
				H191.6z"/>
			<path class="st4" d="M198.3,519.4c0,0.4-0.3,0.7-0.6,0.7c0,0,0,0-0.1,0c-0.3,0-0.6-0.3-0.6-0.6c0,0,0,0,0,0
				c0-0.4,0.3-0.7,0.6-0.7c0,0,0,0,0,0C198,518.7,198.3,519,198.3,519.4C198.3,519.4,198.3,519.4,198.3,519.4z M197.1,527v-5.9h1.1
				v5.9H197.1z"/>
			<path class="st4" d="M204.1,525.6c0,0.5,0,0.9,0.1,1.4h-1l-0.1-0.7l0,0c-0.4,0.6-1.1,0.9-1.8,0.9c-0.9,0.1-1.7-0.6-1.8-1.6
				c0,0,0-0.1,0-0.1c0-1.4,1.3-2.2,3.6-2.2v-0.1c0.1-0.7-0.3-1.3-1-1.4c-0.1,0-0.3,0-0.4,0c-0.6,0-1.1,0.2-1.6,0.4l-0.2-0.6
				c0.6-0.3,1.3-0.5,1.9-0.5c1.8,0,2.3,1.2,2.3,2.4V525.6z M203.1,524c-1.2,0-2.5,0.2-2.5,1.4c0,0.5,0.3,1,0.8,1c0,0,0.1,0,0.1,0
				c0.7,0,1.2-0.4,1.5-1c0-0.1,0-0.2,0-0.3L203.1,524z"/>
			<path class="st4" d="M207.1,519.7v1.4h1.5v0.8h-1.5v3.2c0,0.7,0.2,1.1,0.8,1.1c0.2,0,0.4,0,0.6,0v0.8c-0.3,0.1-0.6,0.2-1,0.2
				c-0.4,0-0.9-0.1-1.2-0.5c-0.3-0.5-0.5-1-0.4-1.6V522h-0.9v-0.8h0.9V520L207.1,519.7z"/>
			<path class="st4" d="M211.1,519.4c0,0.4-0.3,0.7-0.6,0.7c0,0,0,0-0.1,0c-0.3,0-0.6-0.3-0.6-0.6c0,0,0,0,0,0
				c0-0.4,0.3-0.7,0.6-0.7c0,0,0,0,0,0C210.8,518.7,211.1,519,211.1,519.4C211.1,519.4,211.1,519.4,211.1,519.4z M209.9,527v-5.9
				h1.1v5.9H209.9z"/>
			<path class="st4" d="M218.1,524c0.1,1.6-1,3-2.6,3.1c-0.1,0-0.2,0-0.3,0c-1.5,0-2.8-1.2-2.8-2.8c0-0.1,0-0.2,0-0.3
				c-0.1-1.6,1.1-3,2.7-3.1c0.1,0,0.2,0,0.3,0c1.5,0,2.8,1.2,2.8,2.8C218.1,523.8,218.1,523.9,218.1,524z M213.4,524
				c0,1.3,0.7,2.3,1.8,2.3s1.8-1,1.8-2.3c0-1-0.5-2.3-1.8-2.3C214,521.7,213.4,522.9,213.4,524L213.4,524z"/>
			<path class="st4" d="M219.4,522.7c0-0.6,0-1.1,0-1.6h1v1l0,0c0.4-0.7,1.2-1.1,2-1.1c0.8,0,2.1,0.5,2.1,2.5v3.5h-1.1v-3.4
				c0-1-0.4-1.8-1.4-1.8c-0.7,0-1.2,0.5-1.4,1.1c0,0.2,0,0.3,0,0.5v3.6h-1.1L219.4,522.7z"/>
			<path class="st4" d="M233,525.6c0,0.5,0,0.9,0.1,1.4h-1l-0.1-0.7l0,0c-0.4,0.6-1.1,0.9-1.8,0.9c-0.9,0.1-1.7-0.6-1.8-1.5
				c0-0.1,0-0.1,0-0.2c0-1.4,1.3-2.2,3.6-2.2v-0.1c0.1-0.7-0.3-1.3-1-1.4c-0.1,0-0.3,0-0.4,0c-0.6,0-1.1,0.2-1.6,0.4l-0.2-0.7
				c0.6-0.3,1.3-0.5,1.9-0.5c1.8,0,2.3,1.2,2.3,2.4L233,525.6z M232,524c-1.2,0-2.5,0.2-2.5,1.4c0,0.5,0.3,1,0.8,1c0,0,0.1,0,0.1,0
				c0.6,0,1.2-0.4,1.4-1c0-0.1,0-0.2,0-0.3L232,524z"/>
			<path class="st4" d="M234.8,522.7c0-0.6,0-1.1,0-1.6h1l0.1,1l0,0c0.4-0.7,1.2-1.1,2-1.1c0.8,0,2.1,0.5,2.1,2.5v3.5h-1.1v-3.4
				c0-1-0.4-1.8-1.4-1.8c-0.7,0-1.2,0.5-1.4,1.1c-0.1,0.2-0.1,0.3-0.1,0.5v3.6h-1.1L234.8,522.7z"/>
			<path class="st4" d="M246.6,518.3v7.2c0,0.5,0,1.1,0,1.5h-1v-1l0,0c-0.4,0.7-1.2,1.2-2,1.2c-1.5-0.1-2.6-1.4-2.6-2.9
				c0,0,0-0.1,0-0.1c-0.2-1.5,0.9-2.9,2.4-3.2c0.1,0,0.2,0,0.3,0c0.7,0,1.4,0.3,1.8,0.9l0,0v-3.5H246.6z M245.6,523.5
				c0-0.1,0-0.3,0-0.4c-0.2-0.7-0.8-1.2-1.6-1.2c-1.1,0-1.8,1-1.8,2.3c0,1.3,0.6,2.2,1.8,2.2c0.8,0,1.4-0.5,1.6-1.3
				c0-0.2,0-0.3,0-0.5V523.5z"/>
			<path class="st4" d="M252.2,519.4c0,0.4-0.3,0.7-0.6,0.7c0,0,0,0-0.1,0c-0.3,0-0.6-0.3-0.6-0.6c0,0,0,0,0,0
				c0-0.4,0.3-0.7,0.6-0.7c0,0,0,0,0,0C251.9,518.7,252.2,519,252.2,519.4C252.3,519.4,252.2,519.4,252.2,519.4z M251,527v-5.9h1.1
				v5.9H251z"/>
			<path class="st4" d="M253.9,522.7c0-0.6,0-1.1,0-1.6h1v1l0,0c0.4-0.7,1.2-1.1,2-1.1c0.8,0,2.1,0.5,2.1,2.5v3.5h-1.1v-3.4
				c0-1-0.4-1.8-1.4-1.8c-0.7,0-1.2,0.5-1.4,1.1c0,0.2-0.1,0.3-0.1,0.5v3.6h-1.1L253.9,522.7z"/>
			<path class="st4" d="M265.8,518.3v7.2c0,0.5,0,1.1,0,1.5h-1v-1l0,0c-0.4,0.7-1.2,1.2-2,1.2c-1.5-0.1-2.6-1.3-2.6-2.8
				c0-0.1,0-0.1,0-0.2c-0.2-1.5,0.9-2.9,2.4-3.2c0.1,0,0.2,0,0.3,0c0.7,0,1.4,0.3,1.8,0.9l0,0v-3.5H265.8z M264.8,523.5
				c0-0.1,0-0.3,0-0.4c-0.2-0.7-0.8-1.2-1.6-1.2c-1.1,0-1.8,1-1.8,2.3c0,1.3,0.6,2.2,1.8,2.2c0.8,0,1.4-0.5,1.6-1.3
				c0-0.2,0-0.3,0-0.5V523.5z"/>
			<path class="st4" d="M268.8,519.4c0,0.4-0.3,0.7-0.6,0.7c0,0,0,0-0.1,0c-0.3,0-0.6-0.3-0.6-0.6c0,0,0,0,0,0
				c0-0.4,0.3-0.7,0.6-0.7c0,0,0,0,0,0C268.5,518.7,268.8,519,268.8,519.4C268.8,519.4,268.8,519.4,268.8,519.4z M267.6,527v-5.9
				h1.1v5.9H267.6z"/>
			<path class="st4" d="M270.5,522.9c0-0.7,0-1.3,0-1.8h0.9v1.2l0,0c0.2-0.7,0.9-1.3,1.7-1.3h0.3v1c-0.8-0.2-1.6,0.4-1.8,1.2
				c0,0.1,0,0.1,0,0.2c0,0.2,0,0.3,0,0.5v3.2h-1.1L270.5,522.9z"/>
			<path class="st4" d="M275,524.2c-0.1,1,0.7,2,1.7,2.1c0.1,0,0.2,0,0.3,0c0.6,0,1.1-0.1,1.6-0.3l0.2,0.8c-0.6,0.3-1.3,0.4-2,0.4
				c-1.5,0.1-2.9-1.1-2.9-2.7c0-0.1,0-0.2,0-0.3c-0.2-1.5,0.8-2.9,2.4-3.2c0.1,0,0.3,0,0.4,0c1.4,0,2.5,1.1,2.5,2.5
				c0,0.1,0,0.2,0,0.3c0,0.2,0,0.3,0,0.5L275,524.2z M278.1,523.5c0.1-0.8-0.5-1.6-1.3-1.7c-0.1,0-0.1,0-0.2,0
				c-0.9,0.1-1.6,0.8-1.7,1.8H278.1z"/>
			<path class="st4" d="M284.7,526.8c-0.5,0.2-1.1,0.4-1.7,0.4c-1.5,0.1-2.9-1.1-3-2.6c0-0.1,0-0.3,0-0.4c-0.1-1.7,1.2-3.1,2.9-3.2
				c0.1,0,0.2,0,0.3,0c0.5,0,1,0.1,1.5,0.3l-0.3,0.8c-0.4-0.2-0.8-0.3-1.2-0.3c-1.2,0-2.2,1-2.2,2.2c0,1.2,1,2.2,2.2,2.2
				c0.5,0,0.9-0.1,1.3-0.3L284.7,526.8z"/>
			<path class="st4" d="M287.4,519.7v1.4h1.6v0.8h-1.6v3.2c0,0.7,0.2,1.1,0.8,1.1c0.2,0,0.4,0,0.6,0v0.8c-0.3,0.1-0.6,0.2-1,0.2
				c-0.4,0-0.9-0.1-1.2-0.5c-0.3-0.5-0.5-1-0.4-1.6V522h-0.9v-0.8h0.9V520L287.4,519.7z"/>
			<path class="st4" d="M298.6,526.8c-0.7,0.3-1.4,0.4-2.2,0.4c-2.1,0.1-3.9-1.5-4.1-3.6c0-0.2,0-0.4,0-0.6
				c-0.1-2.3,1.6-4.2,3.9-4.3c0.2,0,0.3,0,0.5,0c0.7,0,1.3,0.1,2,0.4l-0.3,0.9c-0.5-0.2-1.1-0.4-1.7-0.4c-1.7-0.1-3.1,1.2-3.2,2.9
				c0,0.2,0,0.3,0,0.5c-0.2,1.6,1,3.1,2.7,3.3c0.2,0,0.3,0,0.5,0c0.6,0,1.2-0.1,1.8-0.3L298.6,526.8z"/>
			<path class="st4" d="M306.7,522.8c0,2.8-1.7,4.4-3.8,4.4c-2.1,0-3.8-1.7-3.7-3.8c0-0.1,0-0.2,0-0.4c-0.2-2.2,1.3-4.1,3.5-4.3
				c0.1,0,0.2,0,0.3,0c2.1,0,3.8,1.7,3.7,3.8C306.8,522.5,306.8,522.7,306.7,522.8z M300.3,522.9c0,1.8,1,3.4,2.6,3.4
				c1.7,0,2.6-1.6,2.6-3.4c0-1.7-0.9-3.4-2.6-3.4S300.3,521.1,300.3,522.9L300.3,522.9z"/>
			<path class="st4" d="M307.8,527v-0.7l0.9-0.8c2-1.9,3-3,3-4.2c0.1-0.8-0.5-1.5-1.2-1.6c-0.1,0-0.2,0-0.3,0
				c-0.6,0-1.2,0.3-1.7,0.7l-0.4-0.8c0.6-0.5,1.4-0.8,2.2-0.8c1.2-0.1,2.3,0.8,2.4,2c0,0.1,0,0.2,0,0.3c0,1.4-1.1,2.6-2.8,4.3
				l-0.6,0.6h3.6v0.9L307.8,527z"/>
			<path class="st4" d="M317.6,524.2c-0.1,1,0.7,2,1.7,2.1c0.1,0,0.2,0,0.3,0c0.6,0,1.1-0.1,1.6-0.3l0.2,0.8c-0.6,0.3-1.3,0.4-2,0.4
				c-1.5,0.1-2.9-1.1-2.9-2.7c0-0.1,0-0.2,0-0.3c-0.2-1.6,1-3,2.5-3.2c0.1,0,0.2,0,0.3,0c1.4,0,2.5,1.1,2.5,2.5c0,0.1,0,0.2,0,0.3
				c0,0.2,0,0.3,0,0.5L317.6,524.2z M320.7,523.5c0.1-0.8-0.5-1.6-1.3-1.7c-0.1,0-0.1,0-0.2,0c-0.9,0.1-1.6,0.8-1.7,1.8H320.7z"/>
			<path class="st4" d="M323.2,522.7c0-0.6,0-1.1,0-1.6h0.9v1l0,0c0.4-0.7,1.1-1.1,1.9-1.1c0.8,0,1.4,0.5,1.7,1.2l0,0
				c0.2-0.3,0.4-0.6,0.7-0.8c0.4-0.3,0.8-0.4,1.3-0.4c0.8,0,2,0.5,2,2.6v3.5h-1.1v-3.3c0-1.2-0.4-1.8-1.3-1.8c-0.6,0-1.1,0.4-1.3,1
				c-0.1,0.2-0.1,0.4-0.1,0.5v3.7h-1.1v-3.5c0-1-0.4-1.6-1.2-1.6c-0.7,0-1.2,0.5-1.4,1.1c-0.1,0.2-0.1,0.4-0.1,0.5v3.6h-0.9V522.7z"
				/>
			<path class="st4" d="M334.5,519.4c0,0.4-0.3,0.7-0.6,0.7c0,0,0,0-0.1,0c-0.3,0-0.6-0.3-0.6-0.6c0,0,0,0,0,0
				c0-0.4,0.3-0.7,0.6-0.7c0,0,0,0,0,0C334.2,518.7,334.5,519,334.5,519.4C334.5,519.4,334.5,519.4,334.5,519.4z M333.3,527v-5.9
				h1.1v5.9H333.3z"/>
			<path class="st4" d="M336,525.9c0.4,0.3,0.9,0.4,1.4,0.4c0.8,0,1.1-0.4,1.1-0.9s-0.3-0.8-1.1-1.1c-1.1-0.4-1.6-1-1.6-1.7
				c0-1,0.9-1.8,1.9-1.7c0.1,0,0.1,0,0.2,0c0.5,0,1,0.1,1.4,0.4l-0.3,0.8c-0.4-0.2-0.8-0.4-1.2-0.4c-0.6,0-1,0.4-1,0.8
				c0,0.4,0.3,0.7,1.1,1c1,0.4,1.6,0.9,1.6,1.8s-0.8,1.8-2.2,1.8c-0.6,0-1.2-0.1-1.7-0.4L336,525.9z"/>
			<path class="st4" d="M340.9,525.9c0.4,0.3,0.9,0.4,1.4,0.4c0.8,0,1.1-0.4,1.1-0.9s-0.3-0.8-1.1-1.1c-1.1-0.4-1.6-1-1.6-1.7
				c0-1,0.9-1.8,1.9-1.7c0,0,0.1,0,0.1,0c0.5,0,1,0.1,1.4,0.4l-0.3,0.8c-0.4-0.2-0.8-0.4-1.2-0.4c-0.6,0-1,0.4-1,0.8
				c0,0.4,0.4,0.7,1.1,1c1,0.4,1.6,0.9,1.6,1.8s-0.8,1.8-2.2,1.8c-0.6,0-1.2-0.1-1.7-0.4L340.9,525.9z"/>
			<path class="st4" d="M347.1,519.4c0,0.4-0.3,0.7-0.6,0.7c0,0,0,0-0.1,0c-0.3,0-0.6-0.3-0.6-0.6c0,0,0,0,0,0
				c0-0.4,0.3-0.7,0.6-0.7c0,0,0,0,0,0C346.8,518.7,347.1,519,347.1,519.4C347.1,519.4,347.1,519.4,347.1,519.4z M345.9,527v-5.9
				h1.1v5.9H345.9z"/>
			<path class="st4" d="M354.1,524c0.1,1.6-1.1,3-2.7,3.1c-0.1,0-0.2,0-0.3,0c-1.5,0-2.8-1.2-2.8-2.8c0-0.1,0-0.2,0-0.3
				c-0.1-1.6,1-3,2.6-3.1c0.1,0,0.2,0,0.3,0c1.5,0,2.8,1.2,2.8,2.8C354.1,523.8,354.1,523.9,354.1,524z M349.4,524
				c0,1.3,0.7,2.3,1.8,2.3c1.1,0,1.8-1,1.8-2.3c0-1-0.5-2.3-1.8-2.3C350,521.7,349.4,522.9,349.4,524L349.4,524z"/>
			<path class="st4" d="M355.5,522.7c0-0.6,0-1.1,0-1.6h1v1l0,0c0.4-0.7,1.2-1.1,2-1.1c0.8,0,2.1,0.5,2.1,2.5v3.5h-1.1v-3.4
				c0-1-0.4-1.8-1.4-1.8c-0.7,0-1.2,0.5-1.4,1.1c0,0.2-0.1,0.3-0.1,0.5v3.6h-1.1L355.5,522.7z"/>
			<path class="st4" d="M362.1,525.9c0.4,0.3,0.9,0.4,1.4,0.4c0.8,0,1.1-0.4,1.1-0.9s-0.3-0.8-1.1-1.1c-1.1-0.4-1.6-1-1.6-1.7
				c0-1,0.9-1.8,1.9-1.7c0,0,0.1,0,0.1,0c0.5,0,1,0.1,1.4,0.4l-0.3,0.8c-0.4-0.2-0.8-0.4-1.2-0.4c-0.6,0-1,0.4-1,0.8
				c0,0.4,0.3,0.7,1.1,1c1,0.4,1.6,0.9,1.6,1.8s-0.8,1.8-2.2,1.8c-0.6,0-1.2-0.1-1.7-0.4L362.1,525.9z"/>
			<path class="st4" d="M366.3,528.5c0.3-1,0.6-1.9,0.7-2.9l1.2-0.1c-0.3,1-0.7,2-1.2,3L366.3,528.5z"/>
			<path class="st4" d="M372.7,524.2c-0.1,1,0.7,2,1.7,2.1c0.1,0,0.2,0,0.3,0c0.6,0,1.1-0.1,1.6-0.3l0.2,0.8c-0.6,0.3-1.3,0.4-2,0.4
				c-1.5,0.1-2.9-1.1-2.9-2.7c0-0.1,0-0.2,0-0.3c-0.2-1.6,1-3,2.5-3.2c0.1,0,0.2,0,0.3,0c1.6,0.3,2.6,1.7,2.4,3.3L372.7,524.2z
				 M375.9,523.5c0.1-0.8-0.5-1.6-1.3-1.7c-0.1,0-0.1,0-0.2,0c-0.9,0.1-1.6,0.8-1.7,1.8H375.9z"/>
			<path class="st4" d="M378.7,521.1l0.8,1.3c0.2,0.3,0.4,0.6,0.6,1l0,0c0.2-0.3,0.4-0.6,0.6-1l0.8-1.3h1.2l-2,2.9l2.1,3.1h-1.2
				l-0.9-1.3c-0.2-0.4-0.4-0.7-0.6-1l0,0c-0.2,0.4-0.4,0.7-0.6,1l-0.9,1.3h-1.2l2.1-3l-2-2.9L378.7,521.1z"/>
			<path class="st4" d="M387.9,526.8c-0.5,0.2-1.1,0.3-1.7,0.3c-1.5,0.1-2.9-1.1-3-2.6c0-0.1,0-0.3,0-0.4c-0.1-1.7,1.2-3.1,2.9-3.2
				c0.1,0,0.2,0,0.3,0c0.5,0,1,0.1,1.5,0.3l-0.2,0.8c-0.4-0.2-0.8-0.3-1.2-0.3c-1.2,0-2.2,1-2.2,2.2c0,1.2,1,2.2,2.2,2.2
				c0.5,0,0.9-0.1,1.3-0.3L387.9,526.8z"/>
			<path class="st4" d="M389.2,518.3h1.1v8.7h-1.1V518.3z"/>
			<path class="st4" d="M397,525.4c0,0.6,0,1.2,0,1.6h-1v-1l0,0c-0.4,0.7-1.2,1.1-2,1.1c-0.9,0-2-0.5-2-2.6v-3.5h1.1v3.2
				c0,1.1,0.4,1.9,1.3,1.9c0.6,0,1.2-0.4,1.4-1c0.1-0.2,0.1-0.4,0.1-0.5v-3.6h1.1L397,525.4z"/>
			<path class="st4" d="M403.9,518.3v7.2c0,0.5,0,1.1,0,1.5H403v-1l0,0c-0.4,0.7-1.2,1.2-2,1.2c-1.5-0.1-2.6-1.4-2.6-2.9
				c0,0,0-0.1,0-0.1c-0.2-1.5,0.9-2.9,2.4-3.2c0.1,0,0.2,0,0.3,0c0.7,0,1.4,0.3,1.8,0.9l0,0v-3.5H403.9z M402.9,523.5
				c0-0.1,0-0.3,0-0.4c-0.2-0.7-0.8-1.2-1.6-1.2c-1.1,0-1.8,1-1.8,2.3c0,1.3,0.6,2.2,1.8,2.2c0.8,0,1.4-0.5,1.6-1.3
				c0-0.2,0-0.3,0-0.5L402.9,523.5z"/>
			<path class="st4" d="M406.9,519.4c0,0.4-0.3,0.7-0.6,0.7c0,0,0,0-0.1,0c-0.3,0-0.6-0.3-0.6-0.6c0,0,0,0,0,0
				c0-0.4,0.3-0.7,0.6-0.7c0,0,0,0,0,0C406.6,518.7,406.9,519,406.9,519.4C406.9,519.4,406.9,519.4,406.9,519.4z M405.7,527v-5.9
				h1.1v5.9H405.7z"/>
			<path class="st4" d="M408.6,522.7c0-0.6,0-1.1,0-1.6h1l0.1,1l0,0c0.4-0.7,1.1-1.1,1.9-1.1c0.8,0,2.1,0.5,2.1,2.5v3.5h-1.1v-3.4
				c0-1-0.4-1.8-1.4-1.8c-0.7,0-1.2,0.5-1.4,1.1c-0.1,0.2-0.1,0.3-0.1,0.5v3.6h-1.1V522.7z"/>
			<path class="st4" d="M420.5,526.1c0.1,1-0.2,2-0.8,2.7c-0.6,0.5-1.4,0.7-2.2,0.7c-0.7,0-1.4-0.1-2-0.5l0.3-0.8
				c0.5,0.3,1.1,0.5,1.8,0.5c1.1,0,1.9-0.6,1.9-2.1V526l0,0c-0.4,0.6-1.1,1-1.9,1c-1.5-0.1-2.6-1.3-2.5-2.8c0,0,0-0.1,0-0.1
				c-0.2-1.5,0.9-2.9,2.4-3.1c0.1,0,0.2,0,0.2,0c0.8,0,1.5,0.4,1.8,1l0,0v-0.9h1c0,0.4,0,0.9,0,1.6L420.5,526.1z M419.4,523.4
				c0-0.2,0-0.3,0-0.5c-0.2-0.7-0.8-1.2-1.5-1.1c-1,0-1.8,0.9-1.8,2.2s0.6,2.1,1.8,2.1c0.7,0,1.3-0.4,1.5-1.1
				c0.1-0.2,0.1-0.4,0.1-0.6L419.4,523.4z"/>
			<path class="st4" d="M424.8,518.3h1.1v8.7h-1.1V518.3z"/>
			<path class="st4" d="M431.9,525.6c0,0.5,0,0.9,0.1,1.4h-1l-0.1-0.7l0,0c-0.4,0.6-1.1,0.9-1.8,0.9c-0.9,0.1-1.7-0.6-1.8-1.5
				c0-0.1,0-0.1,0-0.2c0-1.4,1.3-2.2,3.6-2.2v-0.1c0.1-0.7-0.3-1.3-1-1.4c-0.1,0-0.3,0-0.4,0c-0.6,0-1.1,0.1-1.6,0.4l-0.3-0.7
				c0.6-0.3,1.3-0.5,2-0.5c1.8,0,2.3,1.2,2.3,2.4L431.9,525.6z M430.9,524c-1.2,0-2.5,0.2-2.5,1.4c0,0.5,0.4,1,0.9,1
				c0,0,0.1,0,0.1,0c0.6,0,1.2-0.4,1.4-1c0-0.1,0-0.2,0-0.3L430.9,524z"/>
			<path class="st4" d="M433.6,522.7c0-0.6,0-1.1,0-1.6h1v1l0,0c0.4-0.7,1.2-1.1,2-1.1c0.8,0,2.1,0.5,2.1,2.5v3.5h-1.1v-3.4
				c0-1-0.4-1.8-1.4-1.8c-0.7,0-1.2,0.5-1.4,1.1c0,0.2-0.1,0.3-0.1,0.5v3.6h-1.1L433.6,522.7z"/>
			<path class="st4" d="M445.5,518.3v7.2c0,0.5,0,1.1,0,1.5h-1v-1l0,0c-0.4,0.7-1.2,1.2-2,1.2c-1.5-0.1-2.6-1.4-2.6-2.9
				c0,0,0-0.1,0-0.1c-0.2-1.5,0.9-2.9,2.4-3.2c0.1,0,0.2,0,0.3,0c0.7,0,1.4,0.3,1.8,0.9l0,0v-3.5H445.5z M444.5,523.5
				c0-0.1,0-0.3,0-0.4c-0.2-0.7-0.8-1.2-1.6-1.2c-1.1,0-1.8,1-1.8,2.3c0,1.3,0.6,2.2,1.8,2.2c0.8,0,1.4-0.5,1.6-1.3
				c0-0.2,0-0.3,0-0.5L444.5,523.5z"/>
			<path class="st4" d="M454.9,525.4c0,0.6,0,1.2,0,1.6h-1l-0.1-1l0,0c-0.4,0.7-1.1,1.1-1.8,1.1c-0.9,0-2-0.5-2-2.6v-3.5h1.1v3.3
				c0,1.1,0.4,1.9,1.3,1.9c0.6,0,1.2-0.4,1.4-1c0.1-0.2,0.1-0.4,0.1-0.5v-3.6h1.1L454.9,525.4z"/>
			<path class="st4" d="M456.6,525.9c0.4,0.3,0.9,0.4,1.4,0.4c0.8,0,1.1-0.4,1.1-0.9s-0.3-0.8-1.1-1.1c-1.1-0.4-1.6-1-1.6-1.7
				c0-1,0.9-1.8,1.9-1.7c0,0,0.1,0,0.1,0c0.5,0,1,0.1,1.4,0.4l-0.3,0.8c-0.4-0.2-0.8-0.4-1.2-0.4c-0.6,0-1,0.4-1,0.8
				c0,0.4,0.3,0.7,1.1,1c1,0.4,1.6,0.9,1.6,1.8s-0.8,1.8-2.2,1.8c-0.6,0-1.2-0.1-1.7-0.4L456.6,525.9z"/>
			<path class="st4" d="M462.1,524.2c-0.1,1,0.7,2,1.7,2.1c0.1,0,0.2,0,0.3,0c0.6,0,1.1-0.1,1.6-0.3l0.2,0.8c-0.6,0.3-1.3,0.4-2,0.4
				c-1.5,0.1-2.9-1.1-2.9-2.7c0-0.1,0-0.2,0-0.3c-0.2-1.5,0.8-2.9,2.4-3.2c0.1,0,0.3,0,0.4,0c1.4,0,2.5,1.1,2.5,2.5
				c0,0.1,0,0.2,0,0.3c0,0.2,0,0.3,0,0.5L462.1,524.2z M465.3,523.5c0.1-0.8-0.5-1.6-1.3-1.7c-0.1,0-0.1,0-0.2,0
				c-0.9,0.1-1.6,0.8-1.7,1.8H465.3z"/>
			<path class="st4" d="M466.8,528.5c0.3-1,0.6-1.9,0.7-2.9l1.2-0.1c-0.3,1-0.7,2-1.2,3L466.8,528.5z"/>
			<path class="st4" d="M472.7,518.3h1.1v8.7h-1.1V518.3z"/>
			<path class="st4" d="M479.7,525.6c0,0.5,0,0.9,0.1,1.4h-1l-0.1-0.7l0,0c-0.4,0.6-1.1,0.9-1.8,0.9c-0.9,0.1-1.7-0.6-1.8-1.6
				c0,0,0-0.1,0-0.1c0-1.4,1.3-2.2,3.6-2.2v-0.1c0.1-0.7-0.3-1.3-1-1.4c-0.1,0-0.3,0-0.4,0c-0.6,0-1.1,0.1-1.6,0.4l-0.3-0.7
				c0.6-0.3,1.3-0.5,2-0.5c1.8,0,2.3,1.2,2.3,2.4L479.7,525.6z M478.7,524c-1.2,0-2.5,0.2-2.5,1.4c0,0.5,0.4,1,0.9,1
				c0,0,0.1,0,0.1,0c0.6,0,1.2-0.4,1.4-1c0-0.1,0-0.2,0-0.3L478.7,524z"/>
			<path class="st4" d="M481.4,522.7c0-0.6,0-1.1,0-1.6h1v1l0,0c0.4-0.7,1.2-1.1,2-1.1c0.8,0,2.1,0.5,2.1,2.5v3.5h-1.1v-3.4
				c0-1-0.4-1.8-1.4-1.8c-0.7,0-1.2,0.5-1.4,1.1c0,0.2-0.1,0.3-0.1,0.5v3.6h-1.1V522.7z"/>
			<path class="st4" d="M493.4,518.3v7.2c0,0.5,0,1.1,0,1.5h-1v-1l0,0c-0.4,0.7-1.2,1.2-2,1.2c-1.5-0.1-2.6-1.4-2.6-2.9
				c0,0,0-0.1,0-0.1c-0.2-1.5,0.9-2.9,2.4-3.2c0.1,0,0.2,0,0.3,0c0.7,0,1.4,0.3,1.8,0.9l0,0v-3.5H493.4z M492.3,523.5
				c0-0.1,0-0.3,0-0.4c-0.2-0.7-0.8-1.2-1.6-1.2c-1.1,0-1.8,1-1.8,2.3c0,1.3,0.6,2.2,1.8,2.2c0.8,0,1.4-0.5,1.6-1.3
				c0-0.2,0-0.3,0-0.5L492.3,523.5z"/>
			<path class="st4" d="M502.7,525.4c0,0.6,0,1.2,0,1.6h-1l-0.1-1l0,0c-0.4,0.7-1.1,1.1-1.9,1.1c-0.9,0-2-0.5-2-2.6v-3.5h1.1v3.2
				c0,1.1,0.4,1.9,1.3,1.9c0.6,0,1.2-0.4,1.4-1c0.1-0.2,0.1-0.4,0.1-0.5v-3.6h1.1L502.7,525.4z"/>
			<path class="st4" d="M504.4,525.9c0.4,0.3,0.9,0.4,1.4,0.4c0.8,0,1.1-0.4,1.1-0.9s-0.3-0.8-1.1-1.1c-1.1-0.4-1.6-1-1.6-1.7
				c0-1,0.9-1.8,1.9-1.7c0,0,0.1,0,0.1,0c0.5,0,1,0.1,1.4,0.4l-0.3,0.8c-0.4-0.2-0.8-0.4-1.2-0.4c-0.6,0-1,0.4-1,0.8
				c0,0.4,0.3,0.7,1.1,1c1,0.4,1.6,0.9,1.6,1.8s-0.8,1.8-2.2,1.8c-0.6,0-1.2-0.1-1.7-0.4L504.4,525.9z"/>
			<path class="st4" d="M510,524.2c-0.1,1,0.7,2,1.7,2.1c0.1,0,0.2,0,0.3,0c0.6,0,1.1-0.1,1.6-0.3l0.2,0.8c-0.6,0.3-1.3,0.4-2,0.4
				c-1.5,0.1-2.9-1.1-2.9-2.7c0-0.1,0-0.2,0-0.3c-0.2-1.5,0.8-2.9,2.4-3.2c0.1,0,0.3,0,0.4,0c1.4,0,2.5,1.1,2.5,2.5
				c0,0.1,0,0.2,0,0.3c0,0.2,0,0.3,0,0.5L510,524.2z M513.1,523.5c0.1-0.8-0.5-1.6-1.3-1.7c-0.1,0-0.1,0-0.2,0
				c-0.9,0.1-1.6,0.8-1.7,1.8H513.1z"/>
			<path class="st4" d="M522.3,526.8c-0.5,0.2-1.1,0.3-1.7,0.3c-1.5,0.1-2.9-1.1-3-2.6c0-0.1,0-0.3,0-0.4c-0.1-1.7,1.2-3.1,2.9-3.2
				c0.1,0,0.2,0,0.3,0c0.5,0,1,0.1,1.5,0.3l-0.2,0.8c-0.4-0.2-0.8-0.3-1.3-0.3c-1.2,0-2.2,1-2.2,2.2c0,1.2,1,2.2,2.2,2.2
				c0.5,0,0.9-0.1,1.3-0.3L522.3,526.8z"/>
			<path class="st4" d="M523.6,518.3h1.1v3.7l0,0c0.2-0.3,0.5-0.6,0.8-0.8c0.3-0.2,0.7-0.3,1.1-0.3c0.8,0,2.1,0.5,2.1,2.5v3.5h-1.1
				v-3.4c0-1-0.4-1.8-1.4-1.8c-0.6,0-1.2,0.5-1.4,1.1c-0.1,0.2-0.1,0.3-0.1,0.5v3.6h-1.1L523.6,518.3z"/>
			<path class="st4" d="M534.5,525.6c0,0.5,0,0.9,0.1,1.4h-1l-0.1-0.7l0,0c-0.4,0.6-1.1,0.9-1.8,0.9c-0.9,0.1-1.7-0.6-1.8-1.5
				c0-0.1,0-0.1,0-0.2c0-1.4,1.3-2.2,3.6-2.2v-0.1c0.1-0.7-0.3-1.3-1-1.4c-0.1,0-0.3,0-0.4,0c-0.6,0-1.1,0.2-1.6,0.4l-0.3-0.7
				c0.6-0.3,1.3-0.5,2-0.5c1.8,0,2.3,1.2,2.3,2.4L534.5,525.6z M533.5,524c-1.2,0-2.5,0.2-2.5,1.4c0,0.5,0.3,1,0.8,1
				c0,0,0.1,0,0.1,0c0.6,0,1.2-0.4,1.4-1c0-0.1,0-0.2,0-0.3L533.5,524z"/>
			<path class="st4" d="M536.3,522.7c0-0.6,0-1.1,0-1.6h1v1l0,0c0.4-0.7,1.2-1.1,2-1.1c0.8,0,2.1,0.5,2.1,2.5v3.5h-1v-3.4
				c0-1-0.4-1.8-1.4-1.8c-0.7,0-1.2,0.5-1.4,1.1c-0.1,0.2-0.1,0.3-0.1,0.5v3.6h-1.1L536.3,522.7z"/>
			<path class="st4" d="M548.2,526.1c0.1,1-0.2,2-0.9,2.7c-0.6,0.5-1.4,0.7-2.2,0.7c-0.7,0-1.4-0.1-2-0.5l0.3-0.8
				c0.5,0.3,1.1,0.5,1.7,0.5c1.1,0,1.9-0.6,1.9-2.1V526l0,0c-0.4,0.6-1.1,1-1.9,1c-1.5-0.1-2.6-1.3-2.5-2.8c0,0,0-0.1,0-0.1
				c-0.2-1.5,0.9-2.9,2.4-3.1c0.1,0,0.2,0,0.2,0c0.8,0,1.5,0.4,1.8,1l0,0v-0.9h1c0,0.4,0,0.9,0,1.6L548.2,526.1z M547.1,523.4
				c0-0.2,0-0.3-0.1-0.5c-0.2-0.7-0.8-1.2-1.5-1.1c-1,0-1.8,0.9-1.8,2.2s0.6,2.1,1.8,2.1c0.7,0,1.3-0.4,1.5-1.1
				c0.1-0.2,0.1-0.4,0.1-0.6V523.4z"/>
			<path class="st4" d="M550.5,524.2c-0.1,1,0.7,2,1.7,2.1c0.1,0,0.2,0,0.3,0c0.6,0,1.1-0.1,1.6-0.3l0.2,0.8c-0.6,0.3-1.3,0.4-2,0.4
				c-1.5,0.1-2.9-1.1-2.9-2.7c0-0.1,0-0.2,0-0.3c-0.2-1.6,1-3,2.5-3.2c0.1,0,0.2,0,0.3,0c1.4,0,2.5,1.2,2.5,2.5c0,0.1,0,0.2,0,0.3
				c0,0.2,0,0.3,0,0.5L550.5,524.2z M553.7,523.5c0.1-0.8-0.5-1.6-1.3-1.7c-0.1,0-0.1,0-0.2,0c-0.9,0.1-1.6,0.8-1.7,1.8H553.7z"/>
			<path class="st4" d="M562.8,525.6c0,0.5,0,0.9,0.1,1.4h-1l-0.1-0.7l0,0c-0.4,0.6-1.1,0.9-1.8,0.9c-0.9,0.1-1.7-0.6-1.8-1.6
				c0,0,0-0.1,0-0.1c0-1.4,1.3-2.2,3.6-2.2v-0.1c0.1-0.7-0.3-1.3-1-1.4c-0.1,0-0.3,0-0.4,0c-0.6,0-1.1,0.2-1.6,0.4l-0.2-0.7
				c0.6-0.3,1.3-0.5,1.9-0.5c1.8,0,2.3,1.2,2.3,2.4L562.8,525.6z M561.8,524c-1.2,0-2.5,0.2-2.5,1.4c0,0.5,0.3,1,0.8,1
				c0,0,0.1,0,0.1,0c0.7,0,1.2-0.4,1.5-1c0-0.1,0-0.2,0-0.3L561.8,524z"/>
			<path class="st4" d="M564.6,522.7c0-0.6,0-1.1,0-1.6h0.9l0.1,1l0,0c0.4-0.7,1.2-1.1,2-1.1c0.8,0,2.1,0.5,2.1,2.5v3.5h-1.1v-3.4
				c0-1-0.4-1.8-1.4-1.8c-0.7,0-1.2,0.5-1.4,1.1c-0.1,0.2-0.1,0.3-0.1,0.5v3.6h-1.1L564.6,522.7z"/>
			<path class="st4" d="M576.5,518.3v7.2c0,0.5,0,1.1,0,1.5h-1v-1l0,0c-0.4,0.7-1.2,1.2-2,1.2c-1.5-0.1-2.6-1.4-2.6-2.9
				c0,0,0-0.1,0-0.1c-0.2-1.5,0.9-2.9,2.4-3.2c0.1,0,0.2,0,0.3,0c0.7,0,1.4,0.3,1.8,0.9l0,0v-3.5H576.5z M575.4,523.5
				c0-0.1,0-0.3,0-0.4c-0.2-0.7-0.8-1.2-1.6-1.2c-1.1,0-1.8,1-1.8,2.3c0,1.3,0.6,2.2,1.8,2.2c0.8,0,1.4-0.5,1.6-1.3
				c0-0.2,0-0.3,0-0.5L575.4,523.5z"/>
			<path class="st4" d="M581,527v-5.1h-0.8v-0.8h0.8v-0.3c-0.1-0.8,0.2-1.5,0.7-2.1c0.4-0.4,0.9-0.5,1.4-0.5c0.3,0,0.6,0.1,0.9,0.2
				l-0.1,0.8c-0.2-0.1-0.4-0.1-0.7-0.1c-0.9,0-1.2,0.8-1.2,1.7v0.3h1.4v0.8H582v5.1L581,527z"/>
			<path class="st4" d="M589.6,524c0.1,1.6-1,3-2.6,3.1c-0.1,0-0.2,0-0.3,0c-1.5,0-2.8-1.2-2.8-2.8c0-0.1,0-0.2,0-0.3
				c-0.1-1.6,1.1-3,2.7-3.1c0.1,0,0.2,0,0.3,0c1.5,0,2.8,1.2,2.8,2.8C589.7,523.8,589.7,523.9,589.6,524z M585,524
				c0,1.3,0.7,2.3,1.8,2.3c1.1,0,1.8-1,1.8-2.3c0-1-0.5-2.3-1.8-2.3C585.5,521.7,585,522.9,585,524L585,524z"/>
			<path class="st4" d="M591,522.9c0-0.7,0-1.3,0-1.8h0.9v1.2l0,0c0.2-0.7,0.9-1.3,1.7-1.3h0.3v1c-0.1,0-0.3,0-0.4,0
				c-0.8,0-1.4,0.6-1.4,1.4c0,0.2,0,0.3,0,0.5v3.2H591L591,522.9z"/>
			<path class="st4" d="M595.5,524.2c-0.1,1,0.7,2,1.7,2.1c0.1,0,0.2,0,0.3,0c0.6,0,1.1-0.1,1.6-0.3l0.2,0.8c-0.6,0.3-1.3,0.4-2,0.4
				c-1.5,0.1-2.9-1.1-2.9-2.7c0-0.1,0-0.2,0-0.3c-0.2-1.6,1-3,2.5-3.2c0.1,0,0.2,0,0.3,0c1.4,0,2.5,1.1,2.5,2.5c0,0.1,0,0.2,0,0.3
				c0,0.2,0,0.3,0,0.5L595.5,524.2z M598.6,523.5c0.1-0.8-0.5-1.6-1.3-1.7c-0.1,0-0.1,0-0.2,0c-0.9,0.1-1.6,0.8-1.7,1.8H598.6z"/>
			<path class="st4" d="M600.9,525.9c0.4,0.3,0.9,0.4,1.4,0.4c0.8,0,1.1-0.4,1.1-0.9s-0.3-0.8-1.1-1.1c-1.1-0.4-1.6-1-1.6-1.7
				c0-1,0.9-1.8,1.9-1.7c0.1,0,0.1,0,0.2,0c0.5,0,1,0.1,1.4,0.4l-0.3,0.8c-0.4-0.2-0.8-0.4-1.2-0.4c-0.6,0-1,0.4-1,0.8
				c0,0.4,0.3,0.7,1.1,1c1,0.4,1.6,0.9,1.6,1.8s-0.8,1.8-2.2,1.8c-0.6,0-1.2-0.1-1.7-0.4L600.9,525.9z"/>
			<path class="st4" d="M607.2,519.7v1.4h1.5v0.8h-1.5v3.2c0,0.7,0.2,1.1,0.8,1.1c0.2,0,0.4,0,0.6,0v0.8c-0.3,0.1-0.6,0.2-1,0.2
				c-0.4,0-0.9-0.1-1.2-0.5c-0.3-0.5-0.5-1-0.4-1.6V522h-0.9v-0.8h1V520L607.2,519.7z"/>
			<path class="st4" d="M609.9,522.9c0-0.7,0-1.3,0-1.8h1v1.2l0,0c0.2-0.7,0.9-1.3,1.7-1.3h0.3v1c-0.1,0-0.3,0-0.4,0
				c-0.8,0-1.4,0.6-1.4,1.4c0,0.2,0,0.3,0,0.5v3.2H610L609.9,522.9z"/>
			<path class="st4" d="M614.6,521.1l1.3,3.5c0.2,0.4,0.3,0.8,0.4,1.2l0,0c0.1-0.4,0.2-0.8,0.4-1.2l1.2-3.5h1.1l-1.6,4.2
				c-0.4,1.4-1.1,2.6-2,3.7c-0.4,0.3-0.8,0.6-1.3,0.7l-0.3-0.9c0.3-0.1,0.7-0.3,1-0.5c0.4-0.3,0.7-0.7,0.9-1.2
				c0-0.1,0.1-0.2,0.1-0.3c0-0.1,0-0.2-0.1-0.3l-2.2-5.5L614.6,521.1z"/>
		</g>
	</g>
	<line class="st10" x1="402.1" y1="470.6" x2="432.3" y2="470.6"/>
	<line class="st11" x1="310.5" y1="470.6" x2="340.7" y2="470.6"/>
	<g>
		<path class="st12" d="M443.8,470.2H440v2.4h4.1v1.9h-6.4v-10.1h6.3v1.9h-4v2.1h3.7L443.8,470.2z"/>
		<path class="st12" d="M448,464.4v5.8c0,1.8,0.7,2.6,1.8,2.6s1.9-0.8,1.9-2.6v-5.8h2.3v5.7c0,3.1-1.6,4.6-4.2,4.6s-4-1.4-4-4.6
			v-5.6L448,464.4z"/>
		<path class="st12" d="M461.5,465.2v2h1.6v1.7h-1.6v2.6c0,0.9,0.2,1.3,0.9,1.3c0.2,0,0.5,0,0.7-0.1v1.7c-0.5,0.1-1,0.2-1.5,0.2
			c-0.6,0-1.3-0.2-1.7-0.6c-0.5-0.6-0.7-1.4-0.6-2.2v-3h-1v-1.7h1v-1.4L461.5,465.2z"/>
		<path class="st12" d="M470.5,472.7c0,0.6,0,1.2,0.1,1.8h-2.1l-0.1-0.7h0c-0.5,0.6-1.3,0.9-2.1,0.9c-1.2,0.1-2.3-0.9-2.4-2.1
			c0,0,0-0.1,0-0.1c0-1.9,1.7-2.8,4.3-2.8v-0.1c0-0.4-0.2-1-1.3-1c-0.7,0-1.4,0.2-2,0.6l-0.4-1.5c0.9-0.5,1.9-0.7,2.9-0.7
			c2.4,0,3.2,1.4,3.2,3.2L470.5,472.7z M468.3,471c-1.2,0-2.1,0.3-2.1,1.1c0,0.5,0.3,0.8,0.8,0.9c0,0,0.1,0,0.1,0
			c0.5,0,1-0.3,1.2-0.8c0-0.1,0-0.3,0-0.4L468.3,471z"/>
		<path class="st12" d="M472.4,469.6c0-1.1,0-1.8-0.1-2.4h2l0.1,1.4h0.1c0.3-0.9,1.1-1.5,2-1.5c0.2,0,0.3,0,0.5,0v2.1
			c-0.2,0-0.4-0.1-0.6-0.1c-0.7-0.1-1.4,0.4-1.6,1.1c0,0.2,0,0.3,0,0.5v3.7h-2.3L472.4,469.6z"/>
		<path class="st12" d="M484.9,473.5c0.1,1.2-0.3,2.4-1.1,3.3c-0.9,0.7-1.9,1-3,0.9c-0.9,0-1.8-0.2-2.6-0.6l0.5-1.7
			c0.7,0.4,1.4,0.6,2.1,0.6c1,0.1,1.8-0.6,1.9-1.6c0-0.1,0-0.2,0-0.4v-0.5l0,0c-0.5,0.6-1.2,1-2,0.9c-1.8,0-3.1-1.5-3.1-3.6
			c0-2.4,1.5-3.9,3.3-3.9c0.8,0,1.6,0.4,2,1l0,0l0.1-0.9h2c0,0.5-0.1,1.1-0.1,2.2L484.9,473.5z M482.6,470.1c0-0.1,0-0.3,0-0.4
			c-0.1-0.6-0.6-1-1.2-1c-0.8,0-1.5,0.8-1.5,2.1c0,1.1,0.5,2,1.5,2c0.6,0,1.1-0.4,1.2-0.9c0.1-0.2,0.1-0.4,0.1-0.6L482.6,470.1z"/>
		<path class="st12" d="M488.5,471.6c0.1,1,1,1.4,2.1,1.4c0.7,0,1.4-0.1,2-0.3l0.3,1.6c-0.8,0.3-1.8,0.5-2.7,0.5
			c-2.5,0-3.9-1.4-3.9-3.7c-0.1-2,1.4-3.8,3.4-3.9c0.1,0,0.2,0,0.3,0c2.4,0,3.3,1.9,3.3,3.7c0,0.3,0,0.6-0.1,0.9H488.5z M491.2,470
			c0.1-0.7-0.4-1.4-1.2-1.5c0,0-0.1,0-0.1,0c-0.8,0-1.4,0.7-1.4,1.5H491.2z"/>
		<path class="st12" d="M497.2,465.2v2h1.6v1.7h-1.6v2.6c0,0.9,0.2,1.3,0.9,1.3c0.2,0,0.5,0,0.7-0.1v1.7c-0.5,0.1-1,0.2-1.5,0.2
			c-0.6,0-1.3-0.2-1.7-0.6c-0.5-0.6-0.7-1.4-0.6-2.2v-3h-1v-1.7h1v-1.4L497.2,465.2z"/>
	</g>
	<g>
		<path class="st4" d="M354.3,470.2h-3.7v2.4h4.1v1.9h-6.4v-10.1h6.2v1.9h-3.9v2.1h3.7V470.2z"/>
		<path class="st4" d="M358.5,464.4v5.8c0,1.8,0.7,2.6,1.8,2.6s1.9-0.8,1.9-2.6v-5.8h2.3v5.7c0,3.1-1.6,4.6-4.2,4.6s-4-1.4-4-4.6
			v-5.6L358.5,464.4z"/>
	</g>
	<rect y="1.9" class="st3" width="785.2" height="40"/>
	<g>
		<path class="st4" d="M222.3,16.9c-1.1,0.4-2.3,0.6-3.5,0.6c-1.7,0.1-3.3-0.5-4.5-1.7c-1.5-1.4-2.2-3.9-2.2-6.8
			c0.1-6.1,3.6-8.7,7.2-8.7c0.9,0,1.9,0.1,2.7,0.5l-0.6,2.8c-0.6-0.3-1.3-0.4-1.9-0.4c-2.3,0-4,1.5-4,5.9c0,4.1,1.6,5.5,3.1,5.5
			c0.2,0,0.4,0,0.6-0.1v-4.1h-1.5V7.9h4.5L222.3,16.9z"/>
		<path class="st4" d="M224.4,8.8c0-1.2,0-2.5-0.1-3.7h2.8l0.2,1.8h0.1c0.3-1.1,1.3-1.9,2.4-2c0.2,0,0.5,0,0.7,0.1v3.2
			c-0.2,0-0.5,0-0.7,0c-1,0.1-1.8,0.8-2,1.7c-0.1,0.4-0.1,0.8-0.1,1.2v6.2h-3.3V8.8z"/>
		<path class="st4" d="M234.4,12.4c-0.1,1.3,0.8,2.5,2.1,2.6c0.2,0,0.3,0,0.5,0c0.8,0,1.6-0.1,2.3-0.4l0.4,2.3
			c-1.1,0.4-2.2,0.6-3.3,0.6c-3.4,0-5.2-2.2-5.2-6c0-4.1,2.1-6.6,4.9-6.6s4.2,2.1,4.2,5.8c0,0.6,0,1.1-0.1,1.7H234.4z M237.4,10.1
			c0-1.6-0.4-2.8-1.4-2.8s-1.5,1.6-1.5,2.8H237.4z"/>
		<path class="st4" d="M244.9,12.4c-0.1,1.3,0.8,2.5,2.1,2.6c0.2,0,0.3,0,0.5,0c0.8,0,1.6-0.1,2.3-0.4l0.4,2.3
			c-1.1,0.4-2.2,0.6-3.3,0.6c-3.4,0-5.2-2.2-5.2-6c0-4.1,2.2-6.6,4.9-6.6s4.2,2.1,4.2,5.8c0,0.6,0,1.1-0.1,1.7H244.9z M247.9,10.1
			c0-1.6-0.4-2.8-1.4-2.8s-1.5,1.6-1.5,2.9L247.9,10.1z"/>
		<path class="st4" d="M252.7,8.8c0-1.3-0.1-2.5-0.1-3.7h2.8l0.2,1.4h0.1c0.7-1,1.8-1.6,3-1.6c2.3,0,3.3,1.8,3.3,4.6v7.9h-3.3V9.7
			c0-1-0.2-2-1.2-2c-0.5,0-1,0.4-1.2,1.1c-0.1,0.4-0.2,0.7-0.2,1.1v7.5h-3.3L252.7,8.8z"/>
		<path class="st4" d="M264.2,0h3.3v6.4h0c0.3-0.4,0.6-0.7,1-1c0.5-0.3,1.1-0.4,1.6-0.5c2.3,0,3.1,1.9,3.1,5v7.5h-3.3V9.9
			c0-1.2-0.2-2.3-1.2-2.3c-0.5,0-1,0.3-1.3,1.2c-0.1,0.3-0.1,0.6-0.1,0.9v7.6h-3.3L264.2,0z"/>
		<path class="st4" d="M284.6,11.2c0,5.1-2.8,6.4-4.7,6.4c-2.9,0-4.7-2.3-4.7-6.3c0-4.4,2.3-6.4,4.7-6.4
			C282.9,4.9,284.6,7.3,284.6,11.2z M278.5,11.2c0,2.1,0.3,3.9,1.5,3.9s1.4-2.1,1.4-3.9s-0.3-3.8-1.4-3.8S278.5,9.5,278.5,11.2
			L278.5,11.2z"/>
		<path class="st4" d="M295.4,13.6c0,1.3,0,2.6,0.1,3.7h-2.8l-0.2-1.3h-0.1c-0.6,0.9-1.7,1.5-2.9,1.5c-2.3,0-3.3-1.7-3.3-5V5.1h3.3
			v7c0,1.6,0.3,2.6,1.2,2.6c0.5,0,0.9-0.4,1.1-0.8c0.1-0.3,0.2-0.7,0.2-1V5.1h3.3V13.6z"/>
		<path class="st4" d="M297.7,14.4c0.7,0.4,1.4,0.6,2.2,0.7c0.9,0,1.3-0.4,1.3-1.1s-0.4-1-1.4-1.7c-2-1.1-2.5-2.4-2.5-3.5
			c-0.1-2.1,1.6-3.8,3.7-3.9c0.1,0,0.2,0,0.3,0c0.9,0,1.7,0.2,2.5,0.6l-0.6,2.4c-0.5-0.3-1.1-0.5-1.7-0.5c-0.9,0-1.2,0.5-1.2,1.1
			s0.3,0.8,1.4,1.5c1.5,0.7,2.4,2.1,2.5,3.7c0,2.5-1.8,3.9-4.3,3.9c-1,0-1.9-0.2-2.8-0.7L297.7,14.4z"/>
		<path class="st4" d="M308.7,12.4c-0.2,1.3,0.8,2.5,2.1,2.6c0.2,0,0.3,0,0.5,0c0.8,0,1.6-0.1,2.3-0.4l0.4,2.3
			c-1.1,0.4-2.2,0.6-3.3,0.6c-3.4,0-5.2-2.2-5.2-6c0-4.1,2.2-6.6,4.9-6.6s4.2,2.1,4.2,5.8c0,0.6,0,1.1-0.1,1.7H308.7z M311.6,10.1
			c0-1.6-0.4-2.8-1.4-2.8s-1.5,1.6-1.5,2.8H311.6z"/>
		<path class="st4" d="M329.4,16c0,2.6-0.5,4.1-1.5,5c-1.1,1-2.5,1.4-4,1.3c-1,0-2.1-0.2-3-0.6l0.6-2.5c0.7,0.4,1.5,0.5,2.3,0.5
			c1.6,0,2.3-1.1,2.3-3V16H326c-0.5,0.8-1.3,1.3-2.2,1.2c-2.7,0-3.8-3-3.8-5.9c0-4.1,1.9-6.5,4.1-6.5c1,0,1.9,0.6,2.3,1.5h0l0.2-1.2
			h2.9c-0.1,1.1-0.1,2.4-0.1,3.9L329.4,16z M326.1,9.5c0-0.3,0-0.6-0.1-0.9c-0.1-0.5-0.5-1-1-1c-1.2,0-1.7,1.6-1.7,3.6
			c0,2.3,0.6,3.4,1.6,3.4c0.5,0,1-0.4,1.1-0.9c0.1-0.3,0.2-0.7,0.1-1L326.1,9.5z"/>
		<path class="st4" d="M339.9,14.5c0,0.9,0,1.9,0.2,2.8h-2.9l-0.1-1.2h-0.1c-0.6,0.9-1.6,1.4-2.7,1.4c-1.9,0-3.2-1.6-3.2-3.7
			c0-3.2,2.8-4.5,5.6-4.6V9c0.1-0.9-0.6-1.6-1.4-1.7c-0.1,0-0.2,0-0.3,0c-0.9,0-1.8,0.2-2.5,0.7l-0.6-2.2c1.2-0.6,2.5-0.9,3.8-0.9
			c3.7,0,4.3,2.6,4.3,5.1L339.9,14.5z M336.6,11.4c-1.1,0-2.6,0.4-2.6,2.1c0,1.2,0.7,1.7,1.2,1.7c0.6,0,1.2-0.4,1.4-1
			c0.1-0.2,0.1-0.4,0.1-0.6V11.4z"/>
		<path class="st4" d="M342.1,14.4c0.7,0.4,1.4,0.6,2.2,0.7c0.9,0,1.3-0.4,1.3-1.1s-0.4-1-1.4-1.7c-2-1.1-2.5-2.4-2.5-3.5
			c-0.1-2.1,1.6-3.8,3.7-3.9c0.1,0,0.2,0,0.3,0c0.9,0,1.7,0.2,2.5,0.6l-0.6,2.4c-0.5-0.3-1.1-0.5-1.7-0.5c-0.9,0-1.2,0.5-1.2,1.1
			s0.3,0.8,1.4,1.5c1.5,0.7,2.4,2.1,2.5,3.7c0,2.5-1.8,3.9-4.3,3.9c-1,0-1.9-0.2-2.8-0.7L342.1,14.4z"/>
		<path class="st4" d="M357,12.4c-0.2,1.3,0.8,2.5,2.1,2.6c0.2,0,0.3,0,0.5,0c0.8,0,1.6-0.1,2.3-0.4l0.4,2.3
			c-1.1,0.4-2.2,0.6-3.3,0.6c-3.4,0-5.2-2.2-5.2-6c0-4.1,2.1-6.6,4.9-6.6s4.2,2.1,4.2,5.8c0,0.6,0,1.1-0.1,1.7H357z M360,10.1
			c0-1.6-0.4-2.8-1.4-2.8s-1.5,1.6-1.5,2.8H360z"/>
		<path class="st4" d="M364.8,8.8c0-1.3,0-2.5-0.1-3.7h2.9l0.2,1.4l0,0c0.6-1,1.7-1.6,2.9-1.6c1.2-0.1,2.3,0.6,2.7,1.7l0,0
			c0.3-0.5,0.7-0.9,1.2-1.2c0.5-0.3,1.1-0.5,1.7-0.5c2.2,0,3.2,1.8,3.2,4.7v7.8h-3.3v-7.2c0-1.4-0.1-2.5-1.1-2.5
			c-0.6,0-1.1,0.5-1.2,1.1c-0.1,0.3-0.1,0.6-0.1,0.9v7.8h-3.3V9.7c0-0.9-0.1-2.1-1.1-2.1c-0.6,0-1.1,0.5-1.2,1.1
			C368,9,368,9.3,368,9.6v7.7h-3.3L364.8,8.8z"/>
		<path class="st4" d="M385.1,1.8c0.1,0.9-0.6,1.7-1.6,1.8c-0.1,0-0.1,0-0.2,0c-0.9,0-1.6-0.8-1.6-1.7c0,0,0-0.1,0-0.1
			c0-0.9,0.7-1.7,1.7-1.7S385.1,0.9,385.1,1.8C385.1,1.8,385.1,1.8,385.1,1.8L385.1,1.8z M381.8,17.3V5.1h3.3v12.2H381.8z"/>
		<path class="st4" d="M387.3,14.4c0.7,0.4,1.4,0.6,2.2,0.7c0.9,0,1.3-0.4,1.3-1.1s-0.4-1-1.4-1.7c-2-1.1-2.5-2.4-2.5-3.5
			c-0.1-2.1,1.6-3.8,3.7-3.9c0.1,0,0.2,0,0.3,0c0.9,0,1.7,0.2,2.5,0.6l-0.6,2.4c-0.5-0.3-1.1-0.5-1.7-0.5c-0.9,0-1.2,0.5-1.2,1.1
			s0.3,0.8,1.4,1.5c1.5,0.7,2.5,2.1,2.5,3.7c0,2.5-1.8,3.9-4.3,3.9c-1,0-1.9-0.2-2.8-0.7L387.3,14.4z"/>
		<path class="st4" d="M395.5,14.4c0.7,0.4,1.4,0.6,2.2,0.7c0.9,0,1.3-0.4,1.3-1.1s-0.4-1-1.4-1.7c-2-1.1-2.5-2.4-2.5-3.5
			c-0.1-2.1,1.6-3.8,3.7-3.9c0.1,0,0.2,0,0.3,0c0.9,0,1.7,0.2,2.5,0.6L401,7.8c-0.5-0.3-1.1-0.5-1.7-0.5c-0.9,0-1.2,0.5-1.2,1.1
			s0.3,0.8,1.4,1.5c1.5,0.6,2.5,2.1,2.5,3.7c0,2.5-1.8,3.9-4.3,3.9c-1,0-1.9-0.2-2.8-0.7L395.5,14.4z"/>
		<path class="st4" d="M407,1.8c0,0.9-0.7,1.7-1.7,1.7s-1.7-0.7-1.7-1.7c0,0,0,0,0,0c-0.1-0.9,0.6-1.7,1.6-1.8c0,0,0.1,0,0.1,0
			c0.9,0,1.7,0.7,1.7,1.7C407,1.8,407,1.8,407,1.8z M403.7,17.3V5.1h3.3v12.2H403.7z"/>
		<path class="st4" d="M418.2,11.2c0,5.1-2.8,6.4-4.7,6.4c-2.9,0-4.7-2.3-4.7-6.3c0-4.4,2.3-6.4,4.7-6.4
			C416.5,4.9,418.2,7.3,418.2,11.2z M412.1,11.2c0,2.1,0.3,3.9,1.5,3.9s1.4-2.1,1.4-3.9s-0.3-3.8-1.4-3.8S412.1,9.5,412.1,11.2z"/>
		<path class="st4" d="M420.1,8.8c0-1.3,0-2.5-0.1-3.7h2.8l0.2,1.4l0,0c0.7-1,1.8-1.6,3-1.6c2.3,0,3.3,1.8,3.3,4.6v7.9H426V9.7
			c0-1-0.2-2-1.2-2c-0.5,0-1,0.4-1.2,1.1c-0.1,0.4-0.2,0.7-0.2,1.1v7.5h-3.3L420.1,8.8z"/>
		<path class="st4" d="M431.5,14.4c0.7,0.4,1.4,0.6,2.2,0.7c0.9,0,1.3-0.4,1.3-1.1s-0.4-1-1.4-1.7c-2-1.1-2.5-2.4-2.5-3.5
			c-0.1-2.1,1.6-3.8,3.7-3.9c0.1,0,0.2,0,0.3,0c0.9,0,1.7,0.2,2.5,0.6L437,7.8c-0.5-0.3-1.1-0.5-1.7-0.5c-0.9,0-1.2,0.5-1.2,1.1
			s0.3,0.8,1.4,1.5c1.5,0.6,2.5,2.1,2.5,3.7c0,2.5-1.8,3.9-4.3,3.9c-1,0-1.9-0.2-2.8-0.7L431.5,14.4z"/>
		<path class="st4" d="M438.5,20.5c0.8-2.2,1.3-4.4,1.7-6.7l3.3-0.2c-0.7,2.3-1.7,4.6-2.9,6.7L438.5,20.5z"/>
		<path class="st4" d="M452.6,4.1L452.6,4.1l-2.8,1.4L449.2,3l3.7-1.9h2.9v16.3h-3.3V4.1z"/>
		<path class="st4" d="M460.6,14.8c0.5,0,1,0,1.5-0.1c0.7-0.2,1.4-0.5,1.9-1c0.8-0.9,1.4-2.1,1.6-3.3h-0.1c-0.6,0.7-1.4,1-2.3,1
			c-2.1,0-3.8-1.9-3.8-4.9c0-2.8,1.7-5.7,4.8-5.7s4.6,2.8,4.6,6.7c0.1,2.9-0.8,5.7-2.7,7.9c-1.1,1.1-2.5,1.8-4,2.1
			c-0.5,0.1-1,0.1-1.5,0.1L460.6,14.8z M462.6,6.3c0,1.6,0.5,2.9,1.5,2.9c0.5,0,1-0.3,1.2-0.8c0.2-0.6,0.2-1.1,0.1-1.7
			c0-2.2-0.6-3.4-1.5-3.4S462.5,4.3,462.6,6.3L462.6,6.3z"/>
		<path class="st4" d="M471.3,14.8c0.5,0,1,0,1.5-0.1c0.7-0.2,1.4-0.5,1.9-1c0.8-0.9,1.4-2.1,1.6-3.3h-0.1c-0.6,0.7-1.4,1-2.3,1
			c-2.1,0-3.8-1.9-3.8-4.9c0-2.8,1.7-5.7,4.8-5.7s4.6,2.8,4.6,6.7c0.1,2.9-0.8,5.7-2.7,7.9c-1.1,1.1-2.5,1.8-4,2.1
			c-0.5,0.1-1,0.1-1.5,0.1L471.3,14.8z M473.3,6.3c0,1.6,0.5,2.9,1.5,2.9c0.5,0,1-0.4,1.2-0.8c0.2-0.6,0.2-1.1,0.1-1.7
			c0-2.2-0.6-3.4-1.5-3.4S473.2,4.3,473.3,6.3L473.3,6.3z"/>
		<path class="st4" d="M490.2,9.1c0,5.8-2.1,8.4-4.8,8.4c-3.6,0-4.8-4.1-4.8-8.3c0-4.7,1.5-8.4,4.9-8.4
			C489.4,0.8,490.2,5.2,490.2,9.1z M484,9.2c0,3.8,0.4,5.5,1.5,5.5s1.4-1.8,1.4-5.5c0-3.5-0.3-5.5-1.4-5.5S484,5.4,484,9.2z"/>
		<path class="st4" d="M496.5,9.2v2.3h-5V9.2H496.5z"/>
		<path class="st4" d="M497.9,17.3v-2.2l1.6-2.1c2.1-2.7,3.8-4.9,3.8-7.2c0.1-1.1-0.7-2.1-1.8-2.2c-0.1,0-0.2,0-0.3,0
			c-0.9,0-1.7,0.3-2.4,0.8l-0.6-2.5c1.1-0.7,2.4-1,3.6-1c3.6,0,4.7,2.4,4.7,4.7c0,3.1-1.9,5.5-3.8,7.7l-1,1.2v0h5v2.9L497.9,17.3z"
			/>
		<path class="st4" d="M518.1,9.1c0,5.8-2.1,8.4-4.8,8.4c-3.6,0-4.8-4.1-4.8-8.3c0-4.7,1.5-8.4,4.9-8.4
			C517.2,0.8,518.1,5.2,518.1,9.1z M511.9,9.2c0,3.8,0.4,5.5,1.5,5.5s1.4-1.8,1.4-5.5c0-3.5-0.3-5.5-1.4-5.5S511.8,5.4,511.9,9.2z"
			/>
		<path class="st4" d="M523.1,4.1L523.1,4.1l-2.8,1.4L519.8,3l3.7-1.9h2.9v16.3h-3.3L523.1,4.1z"/>
		<path class="st4" d="M532.3,8.7c-1.2-0.8-2-2.1-2-3.6c0-2.4,1.9-4.3,4.3-4.3c0.1,0,0.2,0,0.3,0c2.2-0.1,4.1,1.6,4.2,3.8
			c0,0.1,0,0.1,0,0.2c0,1.5-0.8,2.9-2.2,3.6l0,0c1.6,0.8,2.6,2.5,2.5,4.3c0.1,2.6-1.9,4.7-4.5,4.8c-0.1,0-0.3,0-0.4,0
			c-2.8,0-4.8-1.8-4.8-4.4C529.8,11.3,530.7,9.6,532.3,8.7L532.3,8.7z M536.3,12.9c0-1.3-0.7-2.4-1.9-3c-0.9,0.7-1.4,1.7-1.4,2.9
			c0,1.4,0.6,2.6,1.7,2.6S536.3,14.3,536.3,12.9L536.3,12.9z M533.4,5c0,1.1,0.6,2,1.6,2.5c0.8-0.5,1.2-1.4,1.1-2.4
			c0-1.1-0.4-2.1-1.3-2.1S533.4,4,533.4,5L533.4,5z"/>
		<path class="st4" d="M550,0c-1.9,3.1-2.8,6.6-2.7,10.2c-0.1,3.6,0.8,7.1,2.7,10.1h-2.4c-2-3-3-6.5-2.9-10.1
			c0.1-4.9,1.5-8.3,2.9-10.2H550z"/>
		<path class="st4" d="M557.4,5.8c0,3.5-1.6,5-3.2,5c-2.3,0-3.3-2.5-3.3-4.9c0-2.6,1.2-5,3.3-5C556.7,0.8,557.4,3.5,557.4,5.8z
			 M553.1,5.8c0,2.1,0.3,3.3,1.1,3.3s1-1.2,1-3.2s-0.2-3.3-1-3.3S553.1,3.8,553.1,5.8L553.1,5.8z M553.4,17.6l8.8-16.8h1.7
			l-8.8,16.8H553.4z M566.4,12.4c0,3.5-1.6,5-3.2,5c-2.3,0-3.3-2.5-3.3-4.9c0-2.6,1.2-5,3.3-5C565.7,7.5,566.5,10.2,566.4,12.4
			L566.4,12.4z M562.1,12.4c0,2.1,0.3,3.3,1.1,3.3s1-1.2,1-3.2s-0.2-3.3-1-3.3S562.2,10.5,562.1,12.4L562.1,12.4z"/>
		<path class="st4" d="M567.3,20.3c1.8-3.1,2.8-6.6,2.7-10.2c0.1-3.6-0.8-7.1-2.7-10.1h2.4c1.4,1.8,2.9,5.2,2.9,10.1
			s-1.5,8.3-2.9,10.2L567.3,20.3z"/>
	</g>
	<rect x="1" y="30.8" class="st3" width="785.7" height="24.7"/>
	<g>
		<path class="st4" d="M331.9,31.1c-1.3,1.8-2,4-1.9,6.2c0,2.2,0.6,4.3,1.9,6.1h-1c-1.3-1.7-2-3.9-2-6.1c0-2.2,0.7-4.4,2-6.1
			L331.9,31.1z"/>
		<path class="st4" d="M334.8,32.3c0,0.4-0.3,0.8-0.7,0.8c0,0-0.1,0-0.1,0c-0.4,0-0.8-0.3-0.8-0.7c0,0,0,0,0-0.1
			c0-0.4,0.3-0.8,0.8-0.8c0,0,0,0,0,0C334.4,31.4,334.8,31.8,334.8,32.3C334.8,32.2,334.8,32.2,334.8,32.3z M333.3,41.6v-7.3h1.3
			v7.3H333.3z"/>
		<path class="st4" d="M336.8,36.3c0-0.8,0-1.4-0.1-2h1.2l0.1,1.2l0,0c0.5-0.9,1.4-1.4,2.4-1.3c1,0,2.6,0.6,2.6,3.1v4.3h-1.3v-4.2
			c0-1.2-0.4-2.1-1.7-2.1c-0.8,0-1.5,0.6-1.8,1.3c-0.1,0.2-0.1,0.4-0.1,0.6v4.4h-1.3L336.8,36.3z"/>
		<path class="st4" d="M351.4,30.9v8.8c0,0.7,0,1.4,0.1,1.9h-1.2l-0.1-1.3l0,0c-0.5,0.9-1.4,1.5-2.5,1.4c-1.8,0-3.1-1.5-3.1-3.7
			c0-2.4,1.5-3.9,3.3-3.9c0.9-0.1,1.7,0.4,2.2,1.1l0,0v-4.3H351.4z M350.1,37.3c0-0.2,0-0.4-0.1-0.6c-0.2-0.9-1-1.5-1.9-1.5
			c-1.4,0-2.2,1.2-2.2,2.8s0.7,2.7,2.1,2.7c0.9,0,1.7-0.7,1.9-1.5c0-0.2,0.1-0.4,0.1-0.6L350.1,37.3z"/>
		<path class="st4" d="M354.3,38.2c-0.1,1.3,0.8,2.4,2.1,2.5c0.1,0,0.3,0,0.4,0c0.7,0,1.4-0.1,2-0.4l0.2,1c-0.8,0.3-1.6,0.5-2.4,0.5
			c-1.9,0.1-3.5-1.3-3.6-3.2c0-0.2,0-0.3,0-0.5c0-2.2,1.3-3.9,3.4-3.9c2.4,0,3,2.1,3,3.4c0,0.2,0,0.4,0,0.6L354.3,38.2z M358.2,37.2
			c0.1-1-0.6-1.9-1.7-2.1c-0.1,0-0.1,0-0.2,0c-1.1,0.1-2,1-2,2.1L358.2,37.2z"/>
		<path class="st4" d="M361.7,34.3l1,1.6c0.3,0.4,0.5,0.8,0.8,1.2l0,0c0.2-0.4,0.5-0.8,0.7-1.2l1-1.5h1.4l-2.4,3.5l2.5,3.8h-1.5
			l-1.1-1.6c-0.3-0.4-0.5-0.8-0.8-1.3l0,0c-0.2,0.4-0.5,0.8-0.8,1.3l-1,1.6h-1.5l2.6-3.7l-2.5-3.6L361.7,34.3z"/>
		<path class="st4" d="M373.6,33L373.6,33l-1.7,0.9l-0.2-1l2.1-1.1h1.1v9.8h-1.3L373.6,33z"/>
		<path class="st4" d="M379.2,40.6c0.4,0,0.7,0,1.1,0c0.7-0.1,1.4-0.4,2-0.9c0.7-0.7,1.2-1.6,1.3-2.6h0c-0.6,0.7-1.4,1-2.3,1
			c-1.6,0-2.8-1.2-2.9-2.8c0-0.1,0-0.2,0-0.2c-0.1-1.8,1.4-3.4,3.2-3.5c0,0,0.1,0,0.1,0c2,0,3.2,1.6,3.2,4.1
			c0.1,1.7-0.5,3.3-1.7,4.6c-0.8,0.7-1.8,1.2-2.8,1.3c-0.4,0.1-0.8,0.1-1.2,0.1L379.2,40.6z M379.7,35c-0.1,1,0.6,2,1.7,2.1
			c0.1,0,0.1,0,0.2,0c0.8,0,1.5-0.3,1.9-1c0.1-0.2,0.1-0.3,0.1-0.5c0-1.7-0.6-2.9-2-2.9C380.5,32.7,379.7,33.6,379.7,35L379.7,35z"
			/>
		<path class="st4" d="M386.9,40.6c0.4,0,0.7,0,1.1,0c0.8-0.1,1.5-0.4,2-0.9c0.7-0.7,1.2-1.6,1.3-2.6l0,0c-0.6,0.7-1.4,1-2.3,1
			c-1.6,0-2.8-1.2-2.9-2.8c0-0.1,0-0.2,0-0.2c-0.1-1.8,1.4-3.4,3.2-3.5c0,0,0.1,0,0.1,0c2,0,3.2,1.6,3.2,4.1
			c0.1,1.7-0.5,3.3-1.7,4.6c-0.8,0.7-1.8,1.2-2.8,1.3c-0.4,0.1-0.8,0.1-1.2,0.1L386.9,40.6z M387.4,35c-0.1,1,0.6,2,1.6,2.1
			c0.1,0,0.1,0,0.2,0c0.8,0,1.5-0.3,1.9-1c0.1-0.1,0.1-0.3,0.1-0.5c0-1.7-0.6-2.9-2-2.9C388.2,32.7,387.4,33.6,387.4,35z"/>
		<path class="st4" d="M400.4,36.6c0,3.3-1.2,5.1-3.4,5.1c-1.9,0-3.2-1.8-3.2-5s1.4-5.1,3.4-5.1S400.4,33.5,400.4,36.6z M395.1,36.7
			c0,2.5,0.8,4,2,4s2-1.6,2-4.1s-0.6-4-2-4C395.9,32.7,395.1,34.1,395.1,36.7z"/>
		<path class="st4" d="M404.7,36.5v-0.9h7.7v0.9H404.7z M404.7,39.5v-0.9h7.7v0.9H404.7z"/>
		<path class="st4" d="M419.7,33L419.7,33L418,34l-0.2-1l2.1-1.1h1.1v9.8h-1.3L419.7,33z"/>
		<path class="st4" d="M431,36.6c0,3.3-1.2,5.1-3.4,5.1c-1.9,0-3.2-1.8-3.2-5s1.4-5.1,3.4-5.1S431,33.5,431,36.6z M425.7,36.7
			c0,2.5,0.8,4,2,4s2-1.6,2-4.1s-0.6-4-2-4C426.6,32.7,425.8,34.1,425.7,36.7L425.7,36.7z"/>
		<path class="st4" d="M438.7,36.6c0,3.3-1.2,5.1-3.4,5.1c-1.9,0-3.2-1.8-3.2-5s1.4-5.1,3.4-5.1S438.7,33.5,438.7,36.6z M433.4,36.7
			c0,2.5,0.8,4,2,4s2-1.6,2-4.1s-0.6-4-2-4C434.3,32.7,433.4,34.1,433.4,36.7z"/>
		<path class="st4" d="M439.6,43.4c1.3-1.8,1.9-3.9,1.9-6.1c0.1-2.2-0.6-4.3-1.9-6.1h1c1.3,1.7,2.1,3.9,2,6.1c0,2.2-0.7,4.4-2,6.1
			H439.6z"/>
	</g>
</g>
</svg>
