<?xml version="1.0" encoding="utf-8"?>
<!-- Generator: Adobe Illustrator 25.2.3, SVG Export Plug-In . SVG Version: 6.00 Build 0)  -->
<svg version="1.1" id="Calque_1" xmlns="http://www.w3.org/2000/svg" xmlns:xlink="http://www.w3.org/1999/xlink" x="0px" y="0px"
	 viewBox="0 0 623.7 624.7" style="enable-background:new 0 0 623.7 624.7;" xml:space="preserve">
<style type="text/css">
	.st0{fill:#318380;}
</style>
<g id="Vrstva_2">
	<g id="Vrstva_2-2">
		<path class="st0" d="M290.5,512.1c-11.6,0-22.9-3.4-32.5-9.8l-59.4-39.6c-13.9-9.3-21.9-17.8-25.7-27.5c-4.8-12.1-2.5-25.3,6.6-39
			c4.3-6.5,13.1-8.3,19.6-4s8.3,13.1,4,19.6l-0.1,0.1c-5.6,8.4-4.3,11.7-3.8,13c1.5,3.8,6.6,8.6,15,14.3l59.4,39.6
			c14,9.3,32.8,5.5,42.1-8.4c21-31.7,53.6-53.9,90.8-61.8c44.8-9.7,124.7-33.1,156.2-80.4c59.1-88.6,35.2-208.3-53.4-267.4
			c-59.2-39.5-135.4-43.2-198.1-9.5c-7,3.5-15.5,0.7-19-6.3c-3.4-6.7-0.9-15,5.7-18.7c107.7-57.7,241.7-17.1,299.4,90.5
			c38.5,71.9,34.3,159.2-10.9,227.1c-19.4,29.1-65.3,68.8-173.8,92.3c-30,6.4-56.3,24.3-73.2,49.9
			C328.5,502.3,310.2,512.1,290.5,512.1z"/>
		<path class="st0" d="M237.6,592.7c-7.5,0-14.9-2.2-21.2-6.4l-79.3-52.9c-17.6-11.7-22.4-35.5-10.6-53.1l0,0l38.2-57.2
			c4.3-6.5,13.1-8.3,19.6-3.9l0,0l119.5,79.6c6.5,4.3,8.3,13.1,3.9,19.6l0,0l-38.2,57.2C262.4,586.3,250.4,592.7,237.6,592.7
			L237.6,592.7z M180.4,450.5L150.1,496c-3,4.6-1.8,10.7,2.7,13.8l0,0l79.4,52.9l0,0c4.6,3,10.7,1.8,13.8-2.7c0,0,0-0.1,0.1-0.1
			l30.3-45.5L180.4,450.5z"/>
		<path class="st0" d="M179.7,624.7c-7.9,0-15.6-2.3-22.2-6.7l0,0l-27-18c-18.5-12.3-23.5-37.2-11.2-55.7l0,0l18.4-27.6
			c4.3-6.5,13.1-8.3,19.7-3.9l70.3,46.8c6.5,4.3,8.3,13.1,3.9,19.7l-18.4,27.6c-5.9,8.9-15.1,15-25.5,17.1
			C185,624.5,182.4,624.7,179.7,624.7z M153.4,544.2L142.9,560c-3.6,5.4-2.1,12.8,3.3,16.4l27,18l0,0c5.4,3.6,12.8,2.2,16.4-3.3l0,0
			l10.5-15.8L153.4,544.2z"/>
		<path class="st0" d="M545.1,290.6c-2.2,0-4.4-0.5-6.4-1.5c-7-3.5-9.7-12.1-6.2-19c25.6-50.1,0.3-115.2,0-115.9
			c-2.9-7.3,0.6-15.5,7.9-18.4c7.3-2.9,15.5,0.6,18.4,7.9l0,0c1.2,3.1,30.4,77.5-1.1,139.3C555.3,287.6,550.4,290.6,545.1,290.6z"/>
		<path class="st0" d="M285.3,378.1c-36.7,0-83.8-8.1-124.2-41.1c-38.5-31.5-45.9-60.9-55.4-98.2C94.6,195.1,79.5,135.1,2.9,33.9
			C-1.8,27.7-0.6,18.8,5.6,14c1.8-1.3,3.9-2.3,6-2.6c1.6-0.3,40.6-7.2,94.1-3C177,14,240.1,36.7,288.5,74.1
			c72.3,56,113.5,144,122.4,261.7c0.1,1,0.1,1.9,0,2.9c-0.4,4-2.6,7.7-5.9,10c-0.3,0.2-0.7,0.5-1,0.7
			c-20.4,12.2-60.4,25.7-103.8,28.2C295.5,377.9,290.5,378.1,285.3,378.1z M57.4,61.7c52.8,79.5,65.8,131,75.8,170.1
			c9.1,35.9,14.6,57.6,45.8,83.2c39,31.9,86.5,36.3,119.5,34.3c21.8-1.3,52-6.9,75.4-16.6c-21.6-24.3-70-77.2-125.3-130.1
			c-43.7-41.8-83.2-75.3-117.3-99.6C110.1,87.8,82.2,70.2,57.4,61.7z M68.4,35.5c22.7,8,49,22.8,79.5,44.6
			c35.2,25.1,75.8,59.5,120.5,102.2c44,42,83.6,84.1,109.1,112.1c-14.1-87.5-49.7-153.9-106.2-197.8C216,53.7,150,40.4,104.4,36.8
			C91.4,35.7,79.3,35.4,68.4,35.5L68.4,35.5z"/>
		<path class="st0" d="M212.6,170.1h-0.9L98.3,163c-7.8-0.5-13.7-7.2-13.3-15c0.5-7.8,7.2-13.7,15-13.3l113.4,7.1
			c7.8,0.4,13.8,7.1,13.4,14.9C226.5,164.3,220.2,170.2,212.6,170.1L212.6,170.1z"/>
		<path class="st0" d="M311.8,269.3c-0.4,0-0.7,0-1.1,0l-184.2-14.2c-7.8-0.8-13.5-7.7-12.7-15.5c0.7-7.6,7.3-13.2,14.9-12.8
			L312.9,241c7.8,0.6,13.7,7.4,13.1,15.2C325.4,263.6,319.2,269.3,311.8,269.3L311.8,269.3z"/>
		<path class="st0" d="M205.5,155.9c-6.3,0-11.9-4.2-13.6-10.3l-28.3-99.2c-2.2-7.5,2.1-15.4,9.6-17.6s15.4,2.1,17.6,9.6
			c0,0.1,0,0.2,0.1,0.2l28.4,99.2c2.1,7.5-2.2,15.4-9.8,17.5C208.1,155.8,206.8,155.9,205.5,155.9z"/>
		<path class="st0" d="M318.9,262.2c-6.6,0-12.3-4.6-13.8-11L269.6,95.3c-1.7-7.6,3-15.2,10.7-17s15.2,3,17,10.7l35.4,155.9
			c1.7,7.7-3.1,15.2-10.7,17C321,262.1,319.9,262.2,318.9,262.2L318.9,262.2z"/>
		<path class="st0" d="M467.7,92.2c-3.2,0-6.3-1.1-8.9-3.1c-29.4-23.5-79.4-11.6-79.9-11.5c-7.6,1.7-15.2-3.1-16.9-10.8
			c-1.6-7.4,2.8-14.7,10.1-16.7c2.6-0.7,64-15.5,104.4,16.9c6.1,4.9,7.1,13.8,2.2,19.9C476.1,90.2,472,92.2,467.7,92.2L467.7,92.2z"
			/>
	</g>
</g>
</svg>
