<svg xmlns="http://www.w3.org/2000/svg" viewBox="0 0 623.67 624.73"><defs><style>.cls-1{fill:#fff;}</style></defs><g id="Vrstva_2" data-name="Vrstva 2"><g id="Vrstva_2-2" data-name="Vrstva 2"><path class="cls-1" d="M290.5,512.11A58.38,58.38,0,0,1,258,502.27L198.6,462.65c-13.95-9.29-21.87-17.77-25.69-27.5-4.76-12.15-2.53-25.29,6.64-39a14.17,14.17,0,1,1,23.58,15.72c-5.61,8.42-4.31,11.72-3.83,13,1.51,3.83,6.56,8.63,15,14.27l59.43,39.61a30.39,30.39,0,0,0,42.1-8.42,145.64,145.64,0,0,1,90.8-61.82c44.83-9.73,124.74-33.11,156.23-80.36A192.79,192.79,0,0,0,311.41,51.23a14.18,14.18,0,0,1-13.37-25A221.14,221.14,0,0,1,586.47,343.81c-19.42,29.13-65.33,68.79-173.81,92.33A117.51,117.51,0,0,0,339.43,486,58.69,58.69,0,0,1,290.5,512.11Z"/><path class="cls-1" d="M237.61,592.66a38.06,38.06,0,0,1-21.16-6.44L137.1,533.33a38.28,38.28,0,0,1-10.62-53.1L164.64,423a14.17,14.17,0,0,1,19.65-3.94L303.77,498.7a14.17,14.17,0,0,1,3.94,19.65L269.55,575.6a38.46,38.46,0,0,1-31.94,17.06ZM180.36,450.5,150.07,496a9.94,9.94,0,0,0,2.75,13.79l79.36,52.89h0A9.92,9.92,0,0,0,246,559.87l30.3-45.45Z"/><path class="cls-1" d="M179.69,624.73A39.86,39.86,0,0,1,157.5,618h0l-27-18a40.15,40.15,0,0,1-11.14-55.7l18.37-27.57a14.19,14.19,0,0,1,19.66-3.93l70.28,46.85a14.17,14.17,0,0,1,3.93,19.65l-18.38,27.58a39.9,39.9,0,0,1-25.54,17.1A40.54,40.54,0,0,1,179.69,624.73Zm-26.26-80.52L142.91,560a11.82,11.82,0,0,0,3.28,16.38l27,18h0a11.81,11.81,0,0,0,16.39-3.28l10.52-15.77Z"/><path class="cls-1" d="M545.09,290.58a14,14,0,0,1-6.42-1.55A14.16,14.16,0,0,1,532.48,270c25.56-50.12.28-115.23,0-115.88a14.17,14.17,0,0,1,26.33-10.5c1.25,3.13,30.37,77.54-1.1,139.26A14.16,14.16,0,0,1,545.09,290.58Z"/><path class="cls-1" d="M285.27,378.09c-36.66,0-83.84-8.12-124.17-41.11-38.49-31.49-45.94-60.91-55.37-98.17C94.64,195.06,79.47,135.13,2.87,33.94a14.17,14.17,0,0,1,8.79-22.5c1.63-.3,40.59-7.15,94.1-3C177,14,240.15,36.66,288.53,74.1c72.29,56,113.49,144,122.43,261.72a13.86,13.86,0,0,1,0,2.88,14.09,14.09,0,0,1-5.85,10c-.34.24-.69.47-1,.68-20.4,12.21-60.37,25.66-103.79,28.23C295.5,377.93,290.49,378.09,285.27,378.09ZM57.43,61.71c52.81,79.48,65.85,131,75.77,170.15,9.11,35.92,14.6,57.61,45.85,83.18,39,31.9,86.51,36.26,119.52,34.31,21.75-1.29,52-6.93,75.45-16.62-21.65-24.28-69.95-77.23-125.3-130.09-43.72-41.76-83.18-75.26-117.29-99.58C110.1,87.85,82.22,70.22,57.43,61.71Zm11-26.23c22.69,8,49,22.79,79.52,44.56,35.23,25.12,75.76,59.52,120.48,102.24,44,42,83.56,84.07,109.15,112.12-14.07-87.5-49.71-153.9-106.25-197.75C216,53.74,150,40.4,104.45,36.77,91.45,35.73,79.31,35.41,68.45,35.48Z"/><path class="cls-1" d="M212.61,170.11l-.9,0L98.33,163a14.17,14.17,0,1,1,1.77-28.29l113.38,7.09a14.17,14.17,0,0,1-.87,28.32Z"/><path class="cls-1" d="M311.83,269.32c-.37,0-.74,0-1.11,0L126.47,255.11a14.18,14.18,0,0,1,2.18-28.27L312.9,241a14.17,14.17,0,0,1-1.07,28.3Z"/><path class="cls-1" d="M205.5,155.94a14.19,14.19,0,0,1-13.62-10.28L163.54,46.44a14.17,14.17,0,1,1,27.25-7.78l28.35,99.21a14.19,14.19,0,0,1-13.64,18.07Z"/><path class="cls-1" d="M318.88,262.24a14.17,14.17,0,0,1-13.8-11L269.64,95.3A14.17,14.17,0,0,1,297.28,89l35.44,155.91a14.2,14.2,0,0,1-13.84,17.32Z"/><path class="cls-1" d="M467.71,92.16a14.14,14.14,0,0,1-8.85-3.11C429.45,65.52,379.5,77.44,379,77.57a14.18,14.18,0,0,1-6.85-27.51c2.6-.65,64-15.5,104.42,16.86a14.17,14.17,0,0,1-8.86,25.24Z"/></g></g></svg>