<svg xmlns="http://www.w3.org/2000/svg" width="815.25" height="341.97" viewBox="0 0 815.25 341.97"><g id="Calque_2" data-name="Calque 2"><path d="M23.62,115.23a17.88,17.88,0,0,1,3-.23,5,5,0,0,1,3.4,1,3.33,3.33,0,0,1,1.06,2.54,3.59,3.59,0,0,1-.93,2.6,5.07,5.07,0,0,1-3.71,1.33,5.37,5.37,0,0,1-1.26-.11v4.86H23.62Zm1.57,5.85a5.18,5.18,0,0,0,1.29.13c1.9,0,3.05-.94,3.05-2.58s-1.15-2.39-2.87-2.39a6.76,6.76,0,0,0-1.47.12Z" transform="translate(-23.41 -31.8)"/><path d="M32.86,121.23c0-1,0-1.91-.08-2.72h1.39l.07,1.73h.06a2.62,2.62,0,0,1,2.43-1.91,3,3,0,0,1,.43,0v1.5a2.24,2.24,0,0,0-.54,0,2.21,2.21,0,0,0-2.13,2,5.5,5.5,0,0,0-.05.74v4.64H32.86Z" transform="translate(-23.41 -31.8)"/><path d="M40.58,116.06a1,1,0,0,1-1,1,.92.92,0,0,1-1-1,1,1,0,0,1,1-1A1,1,0,0,1,40.58,116.06Zm-1.77,11.16v-8.71H40.4v8.71Z" transform="translate(-23.41 -31.8)"/><path d="M43,120.87c0-.92,0-1.64-.08-2.36h1.39l.07,1.42h.06a3,3,0,0,1,2.75-1.6,2.58,2.58,0,0,1,2.45,1.74h0a3.46,3.46,0,0,1,1-1.13,2.89,2.89,0,0,1,1.9-.61c1.17,0,2.89.75,2.89,3.78v5.11H53.94v-4.91c0-1.7-.63-2.69-1.89-2.69a2.07,2.07,0,0,0-1.89,1.43,2.42,2.42,0,0,0-.13.79v5.38H48.48V122c0-1.39-.61-2.38-1.82-2.38a2.19,2.19,0,0,0-2,1.59,2.07,2.07,0,0,0-.13.77v5.24H43Z" transform="translate(-23.41 -31.8)"/><path d="M64.16,125.13a14.53,14.53,0,0,0,.13,2.09H62.86l-.12-1.1h-.06a3.22,3.22,0,0,1-2.66,1.3,2.48,2.48,0,0,1-2.67-2.5c0-2.11,1.88-3.26,5.24-3.24v-.18a1.78,1.78,0,0,0-2-2,4.12,4.12,0,0,0-2.28.65L58,119.08a5.63,5.63,0,0,1,2.88-.75c2.66,0,3.31,1.82,3.31,3.54Zm-1.53-2.36c-1.73,0-3.69.27-3.69,2a1.38,1.38,0,0,0,1.47,1.51,2.21,2.21,0,0,0,2.15-1.46,1.93,1.93,0,0,0,.07-.5Z" transform="translate(-23.41 -31.8)"/><path d="M66.71,121.23c0-1,0-1.91-.07-2.72H68l.07,1.73h.05a2.64,2.64,0,0,1,2.43-1.91,3,3,0,0,1,.44,0v1.5a2.28,2.28,0,0,0-.54,0,2.21,2.21,0,0,0-2.13,2,5.5,5.5,0,0,0,0,.74v4.64H66.71Z" transform="translate(-23.41 -31.8)"/><path d="M73.63,118.51l1.89,5.15c.21.57.43,1.26.57,1.78h0c.16-.52.34-1.19.56-1.82l1.72-5.11h1.68l-2.38,6.21c-1.13,3-1.91,4.5-3,5.45a4.39,4.39,0,0,1-1.94,1l-.4-1.31a4.21,4.21,0,0,0,1.39-.78,5,5,0,0,0,1.33-1.76,1.21,1.21,0,0,0,.13-.38,1.12,1.12,0,0,0-.13-.41l-3.2-8Z" transform="translate(-23.41 -31.8)"/><path d="M86.23,123.15a2.78,2.78,0,0,0,3,3,5.73,5.73,0,0,0,2.42-.45l.28,1.13a7.08,7.08,0,0,1-2.91.56A4.06,4.06,0,0,1,84.71,123c0-2.63,1.55-4.68,4.09-4.68,2.86,0,3.6,2.48,3.6,4.08a4.48,4.48,0,0,1-.05.74ZM90.87,122a2.25,2.25,0,0,0-2.2-2.56A2.6,2.6,0,0,0,86.24,122Z" transform="translate(-23.41 -31.8)"/><path d="M94.36,120.87c0-.92,0-1.64-.07-2.36h1.4l.09,1.44h0a3.22,3.22,0,0,1,2.88-1.62c1.21,0,3.08.72,3.08,3.71v5.18h-1.59v-5c0-1.41-.52-2.58-2-2.58a2.29,2.29,0,0,0-2.13,1.62,2.37,2.37,0,0,0-.1.74v5.24H94.36Z" transform="translate(-23.41 -31.8)"/><path d="M105.23,123.15a2.79,2.79,0,0,0,3,3,5.65,5.65,0,0,0,2.41-.45l.29,1.13a7.12,7.12,0,0,1-2.91.56,4.06,4.06,0,0,1-4.29-4.41c0-2.63,1.55-4.68,4.09-4.68,2.86,0,3.6,2.48,3.6,4.08a3.47,3.47,0,0,1-.06.74Zm4.65-1.13a2.25,2.25,0,0,0-2.2-2.56,2.6,2.6,0,0,0-2.43,2.56Z" transform="translate(-23.41 -31.8)"/><path d="M113.37,121.23c0-1,0-1.91-.07-2.72h1.38l.08,1.73h0a2.64,2.64,0,0,1,2.43-1.91,2.9,2.9,0,0,1,.43,0v1.5a2.24,2.24,0,0,0-2.66,2,4.18,4.18,0,0,0-.06.74v4.64h-1.58Z" transform="translate(-23.41 -31.8)"/><path d="M126.56,125.94c0,2-.41,3.23-1.24,4a4.8,4.8,0,0,1-3.18,1,5.59,5.59,0,0,1-2.9-.72l.39-1.22a4.75,4.75,0,0,0,2.56.7c1.62,0,2.81-.84,2.81-3.06v-1h0a3.09,3.09,0,0,1-2.77,1.46c-2.16,0-3.71-1.84-3.71-4.25,0-3,1.93-4.61,3.94-4.61a2.89,2.89,0,0,1,2.72,1.49h0l0-1.31h1.41c-.06.61-.08,1.33-.08,2.37ZM125,122a2.19,2.19,0,0,0-.09-.71,2.26,2.26,0,0,0-2.21-1.69c-1.52,0-2.6,1.28-2.6,3.3,0,1.71.89,3.13,2.58,3.13a2.27,2.27,0,0,0,2.19-1.62,2.79,2.79,0,0,0,.13-.85Z" transform="translate(-23.41 -31.8)"/><path d="M129.75,118.51l1.89,5.15c.22.57.43,1.26.58,1.78h0c.16-.52.34-1.19.56-1.82l1.73-5.11h1.67l-2.37,6.21c-1.14,3-1.91,4.5-3,5.45a4.42,4.42,0,0,1-1.95,1l-.39-1.31a4.18,4.18,0,0,0,1.38-.78,4.91,4.91,0,0,0,1.34-1.76,1.14,1.14,0,0,0,.12-.38,1.05,1.05,0,0,0-.12-.41l-3.21-8Z" transform="translate(-23.41 -31.8)"/><path d="M141.47,121.35c0-1.11,0-2-.08-2.84h1.41l.09,1.49h0a3.38,3.38,0,0,1,3.09-1.67c2.13,0,3.71,1.78,3.71,4.41,0,3.13-1.93,4.68-4,4.68a3,3,0,0,1-2.68-1.37h0v4.74h-1.56Zm1.56,2.32a2.23,2.23,0,0,0,.08.65,2.44,2.44,0,0,0,2.37,1.86c1.68,0,2.65-1.37,2.65-3.37,0-1.73-.92-3.22-2.59-3.22a2.5,2.5,0,0,0-2.4,1.94,2.78,2.78,0,0,0-.11.63Z" transform="translate(-23.41 -31.8)"/><path d="M151.71,121.23c0-1,0-1.91-.07-2.72H153l.07,1.73h.06a2.63,2.63,0,0,1,2.43-1.91,2.9,2.9,0,0,1,.43,0v1.5a2.24,2.24,0,0,0-2.66,2,4.18,4.18,0,0,0-.06.74v4.64h-1.58Z" transform="translate(-23.41 -31.8)"/><path d="M165.3,122.79a4.27,4.27,0,0,1-4.34,4.63,4.16,4.16,0,0,1-4.18-4.48,4.26,4.26,0,0,1,4.33-4.61A4.12,4.12,0,0,1,165.3,122.79Zm-6.9.09c0,1.91,1.08,3.35,2.63,3.35s2.65-1.42,2.65-3.38c0-1.48-.74-3.34-2.61-3.34S158.4,121.24,158.4,122.88Z" transform="translate(-23.41 -31.8)"/><path d="M174.8,114.44V125c0,.77,0,1.66.08,2.25h-1.41l-.07-1.51h-.05a3.16,3.16,0,0,1-2.94,1.71c-2.11,0-3.74-1.78-3.74-4.43,0-2.9,1.8-4.66,3.9-4.66a2.92,2.92,0,0,1,2.63,1.31h0v-5.2Zm-1.56,7.61a3,3,0,0,0-.07-.66,2.34,2.34,0,0,0-2.29-1.82c-1.64,0-2.61,1.44-2.61,3.35s.88,3.22,2.57,3.22a2.4,2.4,0,0,0,2.33-1.89,3,3,0,0,0,.07-.68Z" transform="translate(-23.41 -31.8)"/><path d="M184.74,124.83c0,.91,0,1.71.07,2.39h-1.4l-.09-1.42h0a3.25,3.25,0,0,1-2.88,1.62c-1.37,0-3-.77-3-3.82v-5.09H179v4.8c0,1.66.52,2.8,1.94,2.8a2.28,2.28,0,0,0,2.09-1.46,2.21,2.21,0,0,0,.15-.81v-5.33h1.58Z" transform="translate(-23.41 -31.8)"/><path d="M193.58,126.92a6.29,6.29,0,0,1-2.5.5,4.14,4.14,0,0,1-4.34-4.45,4.44,4.44,0,0,1,4.68-4.64,4.89,4.89,0,0,1,2.19.47l-.36,1.2a3.82,3.82,0,0,0-1.83-.41,3,3,0,0,0-3.08,3.29,3,3,0,0,0,3,3.26,4.54,4.54,0,0,0,1.95-.41Z" transform="translate(-23.41 -31.8)"/><path d="M197.57,116.42v2.09h2.27v1.2h-2.27v4.7c0,1.08.31,1.7,1.19,1.7a3,3,0,0,0,.92-.11l.07,1.2a4.2,4.2,0,0,1-1.4.22,2.22,2.22,0,0,1-1.71-.67,3.34,3.34,0,0,1-.62-2.28v-4.76h-1.35v-1.2H196v-1.62Z" transform="translate(-23.41 -31.8)"/><path d="M201.41,125.62a4.41,4.41,0,0,0,2.1.61c1.14,0,1.68-.56,1.68-1.3s-.45-1.15-1.61-1.58c-1.58-.58-2.32-1.42-2.32-2.47,0-1.4,1.15-2.55,3-2.55a4,4,0,0,1,2.12.54L206,120a3.33,3.33,0,0,0-1.78-.52c-.93,0-1.44.54-1.44,1.19s.51,1,1.64,1.49c1.5.56,2.29,1.31,2.29,2.61,0,1.55-1.21,2.63-3.24,2.63a5,5,0,0,1-2.45-.61Z" transform="translate(-23.41 -31.8)"/><path d="M27,136.33a11.88,11.88,0,0,0-2.25,7.38A12.2,12.2,0,0,0,27,151H25.76a11.66,11.66,0,0,1-2.35-7.31,11.88,11.88,0,0,1,2.35-7.36Z" transform="translate(-23.41 -31.8)"/><path d="M29.56,144.75a2.79,2.79,0,0,0,3,3,5.68,5.68,0,0,0,2.41-.45l.29,1.13a7.14,7.14,0,0,1-2.92.56,4.06,4.06,0,0,1-4.28-4.41c0-2.63,1.55-4.68,4.09-4.68,2.86,0,3.6,2.48,3.6,4.08a3.47,3.47,0,0,1-.06.74Zm4.65-1.13a2.26,2.26,0,0,0-2.2-2.56,2.6,2.6,0,0,0-2.43,2.56Z" transform="translate(-23.41 -31.8)"/><path d="M37.1,147.88a1.08,1.08,0,0,1,1.08-1.13,1.06,1.06,0,0,1,1.07,1.13,1.08,1.08,0,1,1-2.15,0Z" transform="translate(-23.41 -31.8)"/><path d="M48.66,147.54c0,2-.41,3.23-1.24,4a4.82,4.82,0,0,1-3.19,1,5.64,5.64,0,0,1-2.9-.72l.4-1.22a4.75,4.75,0,0,0,2.56.7c1.62,0,2.81-.84,2.81-3.06v-.95h0a3.09,3.09,0,0,1-2.77,1.46c-2.16,0-3.71-1.84-3.71-4.25,0-3,1.92-4.61,3.94-4.61a2.92,2.92,0,0,1,2.72,1.49h0l0-1.31h1.4c0,.61-.07,1.33-.07,2.37Zm-1.58-4a2.19,2.19,0,0,0-.09-.71,2.27,2.27,0,0,0-2.22-1.69c-1.51,0-2.59,1.28-2.59,3.3,0,1.71.88,3.13,2.57,3.13A2.28,2.28,0,0,0,47,146a2.79,2.79,0,0,0,.13-.85Z" transform="translate(-23.41 -31.8)"/><path d="M50.62,147.88a1.08,1.08,0,0,1,1.08-1.13,1,1,0,0,1,1.06,1.13,1.07,1.07,0,1,1-2.14,0Z" transform="translate(-23.41 -31.8)"/><path d="M58.54,142.47c0-.92,0-1.64-.07-2.36h1.4l.09,1.44h0a3.22,3.22,0,0,1,2.88-1.62c1.21,0,3.08.72,3.08,3.71v5.18H64.37v-5c0-1.41-.52-2.58-2-2.58a2.29,2.29,0,0,0-2.13,1.62,2.37,2.37,0,0,0-.1.74v5.24H58.54Z" transform="translate(-23.41 -31.8)"/><path d="M74.65,146.73a14.53,14.53,0,0,0,.13,2.09H73.36l-.13-1.1h0a3.25,3.25,0,0,1-2.67,1.3,2.48,2.48,0,0,1-2.66-2.5c0-2.11,1.87-3.26,5.24-3.24v-.18a1.78,1.78,0,0,0-2-2,4.15,4.15,0,0,0-2.29.65l-.36-1.07a5.63,5.63,0,0,1,2.88-.75c2.66,0,3.31,1.82,3.31,3.54Zm-1.53-2.36c-1.73,0-3.69.27-3.69,2a1.39,1.39,0,0,0,1.48,1.51,2.2,2.2,0,0,0,2.14-1.46,1.93,1.93,0,0,0,.07-.5Z" transform="translate(-23.41 -31.8)"/><path d="M79,138v2.09h2.27v1.2H79V146c0,1.08.31,1.7,1.19,1.7a3,3,0,0,0,.92-.11l.07,1.2a4.2,4.2,0,0,1-1.4.22,2.22,2.22,0,0,1-1.71-.67,3.34,3.34,0,0,1-.62-2.28v-4.76H76.14v-1.2h1.35v-1.62Z" transform="translate(-23.41 -31.8)"/><path d="M90.38,146.43c0,.91,0,1.71.08,2.39H89.05L89,147.4h0A3.27,3.27,0,0,1,86.05,149c-1.37,0-3-.77-3-3.82v-5.09h1.58v4.8c0,1.66.53,2.8,1.95,2.8a2.29,2.29,0,0,0,2.09-1.46,2.21,2.21,0,0,0,.14-.81v-5.33h1.58Z" transform="translate(-23.41 -31.8)"/><path d="M93,142.83c0-1,0-1.91-.07-2.72h1.39l.07,1.73h0a2.64,2.64,0,0,1,2.43-1.91c.16,0,.29,0,.43,0v1.5a2.24,2.24,0,0,0-2.66,2,4.24,4.24,0,0,0-.05.74v4.64H93Z" transform="translate(-23.41 -31.8)"/><path d="M104.93,146.73a14.64,14.64,0,0,0,.12,2.09h-1.42l-.12-1.1h-.06a3.22,3.22,0,0,1-2.66,1.3,2.48,2.48,0,0,1-2.67-2.5c0-2.11,1.87-3.26,5.24-3.24v-.18a1.78,1.78,0,0,0-2-2,4.18,4.18,0,0,0-2.29.65l-.36-1.07a5.67,5.67,0,0,1,2.89-.75c2.66,0,3.31,1.82,3.31,3.54Zm-1.53-2.36c-1.73,0-3.69.27-3.69,2a1.38,1.38,0,0,0,1.47,1.51,2.21,2.21,0,0,0,2.15-1.46,1.93,1.93,0,0,0,.07-.5Z" transform="translate(-23.41 -31.8)"/><path d="M107.48,136h1.59v12.78h-1.59Z" transform="translate(-23.41 -31.8)"/><path d="M123,147.54c0,2-.41,3.23-1.24,4a4.82,4.82,0,0,1-3.19,1,5.62,5.62,0,0,1-2.9-.72l.4-1.22a4.7,4.7,0,0,0,2.56.7c1.62,0,2.8-.84,2.8-3.06v-.95h0a3.09,3.09,0,0,1-2.77,1.46c-2.17,0-3.71-1.84-3.71-4.25,0-3,1.92-4.61,3.94-4.61a2.92,2.92,0,0,1,2.72,1.49h0l.06-1.31h1.4c0,.61-.07,1.33-.07,2.37Zm-1.58-4a2.19,2.19,0,0,0-.09-.71,2.27,2.27,0,0,0-2.22-1.69c-1.51,0-2.59,1.28-2.59,3.3,0,1.71.88,3.13,2.57,3.13a2.28,2.28,0,0,0,2.2-1.62,2.79,2.79,0,0,0,.13-.85Z" transform="translate(-23.41 -31.8)"/><path d="M131.73,146.73a14.53,14.53,0,0,0,.13,2.09h-1.43l-.12-1.1h-.06a3.22,3.22,0,0,1-2.66,1.3,2.48,2.48,0,0,1-2.67-2.5c0-2.11,1.88-3.26,5.24-3.24v-.18a1.78,1.78,0,0,0-2-2,4.12,4.12,0,0,0-2.28.65l-.36-1.07a5.63,5.63,0,0,1,2.88-.75c2.66,0,3.31,1.82,3.31,3.54Zm-1.53-2.36c-1.73,0-3.69.27-3.69,2a1.38,1.38,0,0,0,1.47,1.51,2.2,2.2,0,0,0,2.15-1.46,1.93,1.93,0,0,0,.07-.5Z" transform="translate(-23.41 -31.8)"/><path d="M134.07,147.22a4.41,4.41,0,0,0,2.1.61c1.14,0,1.68-.56,1.68-1.3s-.45-1.15-1.6-1.58c-1.59-.58-2.33-1.42-2.33-2.47,0-1.4,1.16-2.55,3-2.55a4,4,0,0,1,2.13.54l-.38,1.15a3.37,3.37,0,0,0-1.79-.52c-.93,0-1.44.54-1.44,1.19s.51,1,1.64,1.49c1.5.56,2.29,1.31,2.29,2.61,0,1.55-1.21,2.63-3.24,2.63a5,5,0,0,1-2.45-.61Z" transform="translate(-23.41 -31.8)"/><path d="M140.19,151.05a27.27,27.27,0,0,0,1.08-4.32l1.76-.18a22.65,22.65,0,0,1-1.73,4.38Z" transform="translate(-23.41 -31.8)"/><path d="M155,148.52a6.31,6.31,0,0,1-2.51.5,4.14,4.14,0,0,1-4.33-4.45,4.44,4.44,0,0,1,4.68-4.64,5,5,0,0,1,2.19.46l-.36,1.21a3.82,3.82,0,0,0-1.83-.41,3,3,0,0,0-3.08,3.29,3,3,0,0,0,3,3.26,4.54,4.54,0,0,0,1.95-.41Z" transform="translate(-23.41 -31.8)"/><path d="M156.82,142.83c0-1,0-1.91-.07-2.72h1.38l.08,1.73h0a2.64,2.64,0,0,1,2.43-1.91c.16,0,.29,0,.43,0v1.5a2.24,2.24,0,0,0-2.66,2,4.18,4.18,0,0,0-.06.74v4.64h-1.58Z" transform="translate(-23.41 -31.8)"/><path d="M170,146.43c0,.91,0,1.71.07,2.39h-1.4l-.09-1.42h0a3.26,3.26,0,0,1-2.88,1.62c-1.37,0-3-.77-3-3.82v-5.09h1.59v4.8c0,1.66.52,2.8,1.94,2.8a2.29,2.29,0,0,0,2.09-1.46,2.21,2.21,0,0,0,.14-.81v-5.33H170Z" transform="translate(-23.41 -31.8)"/><path d="M180.13,136v10.53c0,.77,0,1.66.07,2.25h-1.4l-.07-1.51h-.06a3.15,3.15,0,0,1-2.93,1.71c-2.11,0-3.75-1.78-3.75-4.43,0-2.9,1.8-4.66,3.91-4.66a2.93,2.93,0,0,1,2.63,1.31h0V136Zm-1.56,7.61a2.53,2.53,0,0,0-.08-.66,2.33,2.33,0,0,0-2.28-1.82c-1.64,0-2.61,1.44-2.61,3.35,0,1.76.88,3.22,2.57,3.22a2.4,2.4,0,0,0,2.32-1.89,2.49,2.49,0,0,0,.08-.68Z" transform="translate(-23.41 -31.8)"/><path d="M183.66,144.75a2.78,2.78,0,0,0,3,3,5.71,5.71,0,0,0,2.41-.45l.29,1.13a7.14,7.14,0,0,1-2.92.56,4.06,4.06,0,0,1-4.29-4.41c0-2.63,1.55-4.68,4.09-4.68,2.87,0,3.6,2.48,3.6,4.08a3.59,3.59,0,0,1-.05.74Zm4.64-1.13a2.25,2.25,0,0,0-2.19-2.56,2.59,2.59,0,0,0-2.43,2.56Z" transform="translate(-23.41 -31.8)"/><path d="M203.5,144.39a4.28,4.28,0,0,1-4.34,4.63,4.16,4.16,0,0,1-4.18-4.48,4.26,4.26,0,0,1,4.32-4.61A4.13,4.13,0,0,1,203.5,144.39Zm-6.9.09c0,1.91,1.08,3.35,2.63,3.35s2.64-1.42,2.64-3.38c0-1.48-.73-3.33-2.61-3.33S196.6,142.84,196.6,144.48Z" transform="translate(-23.41 -31.8)"/><path d="M207.26,137.66a1,1,0,0,1-1,1,.93.93,0,0,1-1-1,1,1,0,0,1,1-1A1,1,0,0,1,207.26,137.66Zm-1.77,11.16v-8.71h1.59v8.71Z" transform="translate(-23.41 -31.8)"/><path d="M209.7,136h1.59v12.78H209.7Z" transform="translate(-23.41 -31.8)"/><path d="M212.74,151.05a25.26,25.26,0,0,0,1.08-4.32l1.77-.18a22.65,22.65,0,0,1-1.73,4.38Z" transform="translate(-23.41 -31.8)"/><path d="M227.52,148.52a6.25,6.25,0,0,1-2.5.5,4.14,4.14,0,0,1-4.34-4.45,4.44,4.44,0,0,1,4.68-4.64,5.06,5.06,0,0,1,2.2.46l-.36,1.21a3.87,3.87,0,0,0-1.84-.41,3,3,0,0,0-3.08,3.29,3,3,0,0,0,3,3.26,4.49,4.49,0,0,0,1.94-.41Z" transform="translate(-23.41 -31.8)"/><path d="M237.15,144.39a4.27,4.27,0,0,1-4.33,4.63,4.15,4.15,0,0,1-4.18-4.48,4.26,4.26,0,0,1,4.32-4.61A4.12,4.12,0,0,1,237.15,144.39Zm-6.89.09c0,1.91,1.08,3.35,2.63,3.35s2.64-1.42,2.64-3.38c0-1.48-.73-3.33-2.61-3.33S230.26,142.84,230.26,144.48Z" transform="translate(-23.41 -31.8)"/><path d="M245.27,146.73a14.53,14.53,0,0,0,.13,2.09H244l-.13-1.1h0a3.25,3.25,0,0,1-2.67,1.3,2.48,2.48,0,0,1-2.66-2.5c0-2.11,1.87-3.26,5.24-3.24v-.18a1.79,1.79,0,0,0-2-2,4.14,4.14,0,0,0-2.28.65l-.36-1.07a5.63,5.63,0,0,1,2.88-.75c2.66,0,3.31,1.82,3.31,3.54Zm-1.53-2.36c-1.73,0-3.69.27-3.69,2a1.39,1.39,0,0,0,1.48,1.51,2.2,2.2,0,0,0,2.14-1.46,1.93,1.93,0,0,0,.07-.5Z" transform="translate(-23.41 -31.8)"/><path d="M247.83,136h1.58v12.78h-1.58Z" transform="translate(-23.41 -31.8)"/><path d="M251.12,151a12.26,12.26,0,0,0,2.25-7.35,12.07,12.07,0,0,0-2.25-7.32h1.22a11.54,11.54,0,0,1,2.36,7.32,11.85,11.85,0,0,1-2.36,7.35Z" transform="translate(-23.41 -31.8)"/></g><g id="Calque_3" data-name="Calque 3"><path d="M280,200.23h-3.69V198.9h9v1.33h-3.71V211H280Z" transform="translate(-23.41 -31.8)"/><path d="M285.75,205c0-1,0-1.91-.07-2.72h1.39l.07,1.73h.05a2.64,2.64,0,0,1,2.43-1.91,2.86,2.86,0,0,1,.43,0v1.49a2.92,2.92,0,0,0-.54,0,2.21,2.21,0,0,0-2.12,2,4.38,4.38,0,0,0-.05.74V211h-1.59Z" transform="translate(-23.41 -31.8)"/><path d="M297.67,209a14.72,14.72,0,0,0,.13,2.09h-1.43l-.12-1.1h-.06a3.24,3.24,0,0,1-2.66,1.3,2.49,2.49,0,0,1-2.67-2.51c0-2.1,1.88-3.26,5.24-3.24v-.18a1.78,1.78,0,0,0-2-2,4.2,4.2,0,0,0-2.28.65l-.36-1.06a5.64,5.64,0,0,1,2.88-.76c2.66,0,3.31,1.82,3.31,3.55Zm-1.53-2.36c-1.73,0-3.69.27-3.69,2a1.38,1.38,0,0,0,1.47,1.51,2.21,2.21,0,0,0,2.15-1.45,2,2,0,0,0,.07-.51Z" transform="translate(-23.41 -31.8)"/><path d="M300.22,204.68c0-.92,0-1.64-.07-2.36h1.41l.09,1.44h0a3.22,3.22,0,0,1,2.88-1.62c1.21,0,3.08.72,3.08,3.71V211h-1.58v-5c0-1.4-.53-2.57-2-2.57a2.27,2.27,0,0,0-2.12,1.62,2.1,2.1,0,0,0-.11.74V211h-1.59Z" transform="translate(-23.41 -31.8)"/><path d="M310,209.43a4.41,4.41,0,0,0,2.1.62c1.14,0,1.68-.56,1.68-1.3s-.45-1.15-1.6-1.58c-1.59-.58-2.33-1.43-2.33-2.47,0-1.41,1.16-2.56,3-2.56a4.07,4.07,0,0,1,2.12.54l-.37,1.15a3.49,3.49,0,0,0-1.79-.52c-.93,0-1.44.54-1.44,1.19s.51,1.05,1.64,1.5c1.5.55,2.29,1.31,2.29,2.61,0,1.54-1.21,2.63-3.24,2.63a5,5,0,0,1-2.45-.62Z" transform="translate(-23.41 -31.8)"/><path d="M317.5,211v-7.51h-1.2v-1.21h1.2v-.41a4.17,4.17,0,0,1,1-3,3,3,0,0,1,2.13-.82,3.54,3.54,0,0,1,1.35.26l-.22,1.22a2.26,2.26,0,0,0-1-.2c-1.35,0-1.69,1.17-1.69,2.52v.47h2.11v1.21h-2.11V211Z" transform="translate(-23.41 -31.8)"/><path d="M330.25,206.61a4.27,4.27,0,0,1-4.34,4.63,4.16,4.16,0,0,1-4.18-4.49,4.26,4.26,0,0,1,4.32-4.61A4.12,4.12,0,0,1,330.25,206.61Zm-6.9.09c0,1.91,1.08,3.35,2.63,3.35s2.65-1.43,2.65-3.39c0-1.47-.74-3.33-2.61-3.33S323.35,205.06,323.35,206.7Z" transform="translate(-23.41 -31.8)"/><path d="M332.25,205c0-1,0-1.91-.08-2.72h1.39l.07,1.73h.06a2.62,2.62,0,0,1,2.43-1.91,3,3,0,0,1,.43,0v1.49a3,3,0,0,0-.54,0,2.21,2.21,0,0,0-2.13,2,5.74,5.74,0,0,0-.05.74V211h-1.58Z" transform="translate(-23.41 -31.8)"/><path d="M338.2,204.68c0-.92,0-1.64-.07-2.36h1.39l.07,1.42h.05a3,3,0,0,1,2.76-1.6,2.57,2.57,0,0,1,2.45,1.75h0a3.4,3.4,0,0,1,1-1.14,3,3,0,0,1,1.91-.61c1.17,0,2.88.76,2.88,3.78V211h-1.55v-4.92c0-1.69-.63-2.68-1.89-2.68a2.08,2.08,0,0,0-1.89,1.42,2.73,2.73,0,0,0-.12.79V211h-1.55v-5.22c0-1.39-.61-2.38-1.82-2.38a2.37,2.37,0,0,0-2.09,2.36V211H338.2Z" transform="translate(-23.41 -31.8)"/><path d="M359.34,209a14.82,14.82,0,0,0,.12,2.09H358l-.13-1.1h-.05a3.26,3.26,0,0,1-2.66,1.3,2.49,2.49,0,0,1-2.67-2.51c0-2.1,1.87-3.26,5.24-3.24v-.18a1.79,1.79,0,0,0-2-2,4.26,4.26,0,0,0-2.29.65l-.36-1.06a5.66,5.66,0,0,1,2.88-.76c2.67,0,3.32,1.82,3.32,3.55Zm-1.53-2.36c-1.73,0-3.69.27-3.69,2a1.38,1.38,0,0,0,1.47,1.51,2.2,2.2,0,0,0,2.14-1.45,1.63,1.63,0,0,0,.08-.51Z" transform="translate(-23.41 -31.8)"/><path d="M363.73,200.23v2.09H366v1.21h-2.27v4.7c0,1.08.3,1.69,1.19,1.69a2.94,2.94,0,0,0,.91-.11l.08,1.21a4.32,4.32,0,0,1-1.41.22,2.28,2.28,0,0,1-1.71-.67,3.43,3.43,0,0,1-.61-2.29v-4.75h-1.35v-1.21h1.35V200.7Z" transform="translate(-23.41 -31.8)"/><path d="M369.54,199.87a1,1,0,0,1-1,1,.94.94,0,0,1-.95-1,1,1,0,0,1,1-1A1,1,0,0,1,369.54,199.87ZM367.78,211v-8.72h1.58V211Z" transform="translate(-23.41 -31.8)"/><path d="M379.88,206.61a4.28,4.28,0,0,1-4.34,4.63,4.16,4.16,0,0,1-4.18-4.49,4.26,4.26,0,0,1,4.32-4.61A4.13,4.13,0,0,1,379.88,206.61Zm-6.9.09c0,1.91,1.08,3.35,2.63,3.35s2.64-1.43,2.64-3.39c0-1.47-.73-3.33-2.61-3.33S373,205.06,373,206.7Z" transform="translate(-23.41 -31.8)"/><path d="M381.87,204.68c0-.92,0-1.64-.07-2.36h1.4l.09,1.44h0a3.22,3.22,0,0,1,2.88-1.62c1.21,0,3.08.72,3.08,3.71V211H387.7v-5c0-1.4-.52-2.57-2-2.57a2.29,2.29,0,0,0-2.13,1.62,2.37,2.37,0,0,0-.1.74V211h-1.59Z" transform="translate(-23.41 -31.8)"/><path d="M397.44,199.87a1,1,0,0,1-1,1,.94.94,0,0,1-.95-1,1,1,0,1,1,2,0ZM395.68,211v-8.72h1.58V211Z" transform="translate(-23.41 -31.8)"/><path d="M399.89,204.68c0-.92,0-1.64-.07-2.36h1.4l.09,1.44h0a3.22,3.22,0,0,1,2.88-1.62c1.2,0,3.08.72,3.08,3.71V211h-1.59v-5c0-1.4-.52-2.57-2-2.57a2.29,2.29,0,0,0-2.13,1.62,2.35,2.35,0,0,0-.11.74V211h-1.58Z" transform="translate(-23.41 -31.8)"/><path d="M411.72,200.23v2.09H414v1.21h-2.26v4.7c0,1.08.3,1.69,1.18,1.69a3,3,0,0,0,.92-.11l.07,1.21a4.2,4.2,0,0,1-1.4.22,2.28,2.28,0,0,1-1.71-.67,3.43,3.43,0,0,1-.61-2.29v-4.75h-1.35v-1.21h1.35V200.7Z" transform="translate(-23.41 -31.8)"/><path d="M423.54,206.61a4.27,4.27,0,0,1-4.34,4.63,4.15,4.15,0,0,1-4.17-4.49,4.26,4.26,0,0,1,4.32-4.61A4.12,4.12,0,0,1,423.54,206.61Zm-6.89.09c0,1.91,1.08,3.35,2.63,3.35s2.64-1.43,2.64-3.39c0-1.47-.74-3.33-2.61-3.33S416.65,205.06,416.65,206.7Z" transform="translate(-23.41 -31.8)"/><path d="M277.4,231a4.45,4.45,0,0,0,2.11.62c1.13,0,1.67-.56,1.67-1.3s-.45-1.15-1.6-1.58c-1.59-.58-2.32-1.43-2.32-2.47,0-1.41,1.15-2.56,3-2.56a4.14,4.14,0,0,1,2.13.54l-.38,1.15a3.42,3.42,0,0,0-1.78-.52c-.94,0-1.44.54-1.44,1.19s.5,1.05,1.63,1.5c1.5.55,2.29,1.31,2.29,2.61,0,1.54-1.2,2.63-3.24,2.63a5,5,0,0,1-2.45-.62Z" transform="translate(-23.41 -31.8)"/><path d="M285.63,228.57a2.78,2.78,0,0,0,3,3,5.71,5.71,0,0,0,2.41-.45l.29,1.14a7.14,7.14,0,0,1-2.92.56,4.07,4.07,0,0,1-4.29-4.42c0-2.62,1.55-4.68,4.09-4.68,2.86,0,3.6,2.49,3.6,4.09a4.57,4.57,0,0,1-.05.74Zm4.64-1.14a2.24,2.24,0,0,0-2.19-2.55,2.6,2.6,0,0,0-2.44,2.55Z" transform="translate(-23.41 -31.8)"/><path d="M300,232.33a6,6,0,0,1-2.5.51,4.14,4.14,0,0,1-4.34-4.45,4.44,4.44,0,0,1,4.68-4.65,5,5,0,0,1,2.2.47l-.36,1.21a3.85,3.85,0,0,0-1.84-.42,3,3,0,0,0-3.08,3.3,3,3,0,0,0,3,3.26,4.47,4.47,0,0,0,1.94-.42Z" transform="translate(-23.41 -31.8)"/><path d="M309.6,228.21a4.27,4.27,0,0,1-4.34,4.63,4.15,4.15,0,0,1-4.17-4.49,4.26,4.26,0,0,1,4.32-4.61A4.12,4.12,0,0,1,309.6,228.21Zm-6.89.09c0,1.91,1.08,3.35,2.63,3.35s2.64-1.43,2.64-3.39c0-1.47-.73-3.33-2.61-3.33S302.71,226.66,302.71,228.3Z" transform="translate(-23.41 -31.8)"/><path d="M311.6,226.28c0-.92,0-1.64-.07-2.36h1.4l.09,1.44h0a3.22,3.22,0,0,1,2.88-1.62c1.21,0,3.08.72,3.08,3.71v5.19h-1.59v-5c0-1.4-.52-2.57-2-2.57a2.29,2.29,0,0,0-2.13,1.62,2.35,2.35,0,0,0-.11.74v5.24H311.6Z" transform="translate(-23.41 -31.8)"/><path d="M329.1,219.85v10.54c0,.77,0,1.65.07,2.25h-1.4l-.08-1.52h-.05a3.14,3.14,0,0,1-2.94,1.72c-2.1,0-3.74-1.79-3.74-4.43,0-2.9,1.8-4.67,3.91-4.67a2.92,2.92,0,0,1,2.63,1.32h0v-5.21Zm-1.57,7.62a3.05,3.05,0,0,0-.07-.67,2.33,2.33,0,0,0-2.29-1.82c-1.64,0-2.61,1.45-2.61,3.35s.88,3.23,2.58,3.23a2.4,2.4,0,0,0,2.32-1.89,3,3,0,0,0,.07-.69Z" transform="translate(-23.41 -31.8)"/><path d="M337.86,230.55a14.72,14.72,0,0,0,.13,2.09h-1.42l-.13-1.1h-.05a3.28,3.28,0,0,1-2.67,1.3,2.49,2.49,0,0,1-2.66-2.51c0-2.1,1.87-3.26,5.24-3.24v-.18a1.79,1.79,0,0,0-2-2,4.24,4.24,0,0,0-2.29.65l-.36-1.06a5.64,5.64,0,0,1,2.88-.76c2.67,0,3.31,1.82,3.31,3.55Zm-1.53-2.36c-1.73,0-3.69.27-3.69,2a1.39,1.39,0,0,0,1.48,1.51,2.2,2.2,0,0,0,2.14-1.45,2,2,0,0,0,.07-.51Z" transform="translate(-23.41 -31.8)"/><path d="M340.42,226.64c0-1,0-1.91-.07-2.72h1.38l.07,1.73h.06a2.63,2.63,0,0,1,2.43-1.91,2.86,2.86,0,0,1,.43,0v1.49a2.92,2.92,0,0,0-.54,0,2.19,2.19,0,0,0-2.12,2,4.35,4.35,0,0,0-.06.74v4.65h-1.58Z" transform="translate(-23.41 -31.8)"/><path d="M347.33,223.92l1.89,5.15c.22.58.43,1.26.58,1.78h0c.16-.52.34-1.18.56-1.81l1.73-5.12h1.67l-2.37,6.21c-1.14,3-1.91,4.51-3,5.46a4.42,4.42,0,0,1-1.95,1l-.39-1.32a4.05,4.05,0,0,0,1.38-.77,4.87,4.87,0,0,0,1.34-1.77,1.1,1.1,0,0,0,.12-.37,1.08,1.08,0,0,0-.12-.42l-3.21-8Z" transform="translate(-23.41 -31.8)"/><path d="M359.05,226.77c0-1.12,0-2-.08-2.85h1.41l.09,1.5h0a3.37,3.37,0,0,1,3.09-1.68c2.13,0,3.71,1.78,3.71,4.41,0,3.14-1.93,4.69-4,4.69a3.06,3.06,0,0,1-2.68-1.37h0v4.73h-1.56Zm1.56,2.32a2.7,2.7,0,0,0,.07.65,2.45,2.45,0,0,0,2.38,1.85c1.68,0,2.65-1.37,2.65-3.36,0-1.73-.92-3.23-2.59-3.23a2.51,2.51,0,0,0-2.4,1.95,2.78,2.78,0,0,0-.11.63Z" transform="translate(-23.41 -31.8)"/><path d="M369.29,226.64c0-1,0-1.91-.07-2.72h1.38l.07,1.73h.06a2.63,2.63,0,0,1,2.43-1.91,2.86,2.86,0,0,1,.43,0v1.49a2.92,2.92,0,0,0-.54,0,2.19,2.19,0,0,0-2.12,2,4.35,4.35,0,0,0-.06.74v4.65h-1.58Z" transform="translate(-23.41 -31.8)"/><path d="M382.88,228.21a4.27,4.27,0,0,1-4.34,4.63,4.16,4.16,0,0,1-4.18-4.49,4.26,4.26,0,0,1,4.33-4.61A4.12,4.12,0,0,1,382.88,228.21Zm-6.9.09c0,1.91,1.08,3.35,2.63,3.35s2.65-1.43,2.65-3.39c0-1.47-.74-3.33-2.61-3.33S376,226.66,376,228.3Z" transform="translate(-23.41 -31.8)"/><path d="M392.38,219.85v10.54c0,.77,0,1.65.08,2.25h-1.41l-.07-1.52h-.05a3.15,3.15,0,0,1-2.94,1.72c-2.11,0-3.74-1.79-3.74-4.43,0-2.9,1.8-4.67,3.9-4.67a2.91,2.91,0,0,1,2.63,1.32h0v-5.21Zm-1.56,7.62a3.05,3.05,0,0,0-.07-.67,2.34,2.34,0,0,0-2.29-1.82c-1.64,0-2.61,1.45-2.61,3.35s.88,3.23,2.57,3.23a2.4,2.4,0,0,0,2.33-1.89,3,3,0,0,0,.07-.69Z" transform="translate(-23.41 -31.8)"/><path d="M402.32,230.24c0,.92,0,1.71.07,2.4H401l-.09-1.43h0a3.23,3.23,0,0,1-2.88,1.63c-1.37,0-3-.78-3-3.82v-5.1h1.59v4.81c0,1.66.52,2.79,1.94,2.79a2.28,2.28,0,0,0,2.09-1.46,2.13,2.13,0,0,0,.15-.81v-5.33h1.58Z" transform="translate(-23.41 -31.8)"/><path d="M411.16,232.33a6.1,6.1,0,0,1-2.51.51,4.14,4.14,0,0,1-4.33-4.45,4.44,4.44,0,0,1,4.68-4.65,5,5,0,0,1,2.19.47l-.36,1.21A3.8,3.8,0,0,0,409,225a3,3,0,0,0-3.08,3.3,3,3,0,0,0,3,3.26,4.52,4.52,0,0,0,1.95-.42Z" transform="translate(-23.41 -31.8)"/><path d="M415.15,221.83v2.09h2.27v1.21h-2.27v4.7c0,1.08.31,1.69,1.19,1.69a3,3,0,0,0,.92-.11l.07,1.21a4.2,4.2,0,0,1-1.4.22,2.26,2.26,0,0,1-1.71-.67,3.37,3.37,0,0,1-.62-2.29v-4.75h-1.35v-1.21h1.35V222.3Z" transform="translate(-23.41 -31.8)"/><path d="M419,231a4.41,4.41,0,0,0,2.1.62c1.14,0,1.68-.56,1.68-1.3s-.45-1.15-1.61-1.58c-1.58-.58-2.32-1.43-2.32-2.47,0-1.41,1.15-2.56,3-2.56a4.07,4.07,0,0,1,2.12.54l-.37,1.15a3.49,3.49,0,0,0-1.79-.52c-.93,0-1.44.54-1.44,1.19s.51,1.05,1.64,1.5c1.5.55,2.29,1.31,2.29,2.61,0,1.54-1.21,2.63-3.24,2.63a5,5,0,0,1-2.45-.62Z" transform="translate(-23.41 -31.8)"/><path d="M431.91,221.47a1,1,0,0,1-1,1,.94.94,0,0,1-.95-1,1,1,0,1,1,2,0Zm-1.76,11.17v-8.72h1.58v8.72Z" transform="translate(-23.41 -31.8)"/><path d="M434.36,226.28c0-.92,0-1.64-.07-2.36h1.4l.09,1.44h0a3.22,3.22,0,0,1,2.88-1.62c1.2,0,3.08.72,3.08,3.71v5.19h-1.59v-5c0-1.4-.52-2.57-2-2.57a2.29,2.29,0,0,0-2.12,1.62,2.35,2.35,0,0,0-.11.74v5.24h-1.58Z" transform="translate(-23.41 -31.8)"/><path d="M278.41,32.83a20.3,20.3,0,0,1,3.33-.27,7.07,7.07,0,0,1,4.92,1.51,5.54,5.54,0,0,1,1.73,4.36,6.49,6.49,0,0,1-1.75,4.72,7.57,7.57,0,0,1-5.38,1.74,25.16,25.16,0,0,1-2.85-.14ZM280,43.56a13.83,13.83,0,0,0,1.58.07c3.37,0,5.17-1.87,5.17-5.15,0-2.86-1.6-4.68-4.92-4.68A8.83,8.83,0,0,0,280,34Z" transform="translate(-23.41 -31.8)"/><path d="M292.11,33.62a1,1,0,0,1-1,1,.92.92,0,0,1-1-1,1,1,0,0,1,1-1A1,1,0,0,1,292.11,33.62Zm-1.77,11.17V36.07h1.59v8.72Z" transform="translate(-23.41 -31.8)"/><path d="M294.56,38.79c0-1,0-1.91-.08-2.72h1.39l.07,1.73H296a2.62,2.62,0,0,1,2.43-1.91,2.86,2.86,0,0,1,.43,0v1.49a2.24,2.24,0,0,0-.54,0,2.21,2.21,0,0,0-2.13,2,5.74,5.74,0,0,0-.05.74v4.65h-1.58Z" transform="translate(-23.41 -31.8)"/><path d="M301.14,40.72a2.78,2.78,0,0,0,3,3,5.73,5.73,0,0,0,2.42-.45l.28,1.14a7.12,7.12,0,0,1-2.91.55,4.06,4.06,0,0,1-4.29-4.41c0-2.63,1.55-4.68,4.09-4.68,2.86,0,3.6,2.49,3.6,4.09a4.57,4.57,0,0,1-.05.74Zm4.65-1.14a2.24,2.24,0,0,0-2.2-2.55,2.59,2.59,0,0,0-2.43,2.55Z" transform="translate(-23.41 -31.8)"/><path d="M315.49,44.48a6.08,6.08,0,0,1-2.5.5,4.14,4.14,0,0,1-4.34-4.44,4.44,4.44,0,0,1,4.68-4.65,4.9,4.9,0,0,1,2.2.47l-.36,1.21a3.85,3.85,0,0,0-1.84-.42,3,3,0,0,0-3.08,3.3,3,3,0,0,0,3,3.26,4.47,4.47,0,0,0,1.94-.42Z" transform="translate(-23.41 -31.8)"/><path d="M319.49,34v2.09h2.26v1.21h-2.26V42c0,1.08.3,1.69,1.18,1.69a3,3,0,0,0,.92-.11l.07,1.21a4.24,4.24,0,0,1-1.4.21,2.27,2.27,0,0,1-1.71-.66,3.43,3.43,0,0,1-.61-2.29V37.28h-1.35V36.07h1.35V34.45Z" transform="translate(-23.41 -31.8)"/><path d="M333.56,44.48a6.08,6.08,0,0,1-2.5.5,4.14,4.14,0,0,1-4.34-4.44,4.44,4.44,0,0,1,4.68-4.65,4.9,4.9,0,0,1,2.2.47l-.36,1.21a3.85,3.85,0,0,0-1.84-.42,3,3,0,0,0-3.08,3.3,3,3,0,0,0,3,3.26,4.47,4.47,0,0,0,1.94-.42Z" transform="translate(-23.41 -31.8)"/><path d="M343.19,40.36A4.26,4.26,0,0,1,338.85,45a4.14,4.14,0,0,1-4.17-4.48A4.26,4.26,0,0,1,339,35.89,4.12,4.12,0,0,1,343.19,40.36Zm-6.89.09c0,1.9,1.08,3.35,2.63,3.35s2.64-1.43,2.64-3.39c0-1.48-.73-3.33-2.61-3.33S336.3,38.81,336.3,40.45Z" transform="translate(-23.41 -31.8)"/><path d="M345.19,38.43c0-.92,0-1.64-.07-2.36h1.4l.09,1.44h0a3.22,3.22,0,0,1,2.88-1.62c1.2,0,3.08.72,3.08,3.71v5.19H351v-5c0-1.4-.52-2.57-2-2.57a2.29,2.29,0,0,0-2.13,1.62,2.35,2.35,0,0,0-.11.74v5.24h-1.58Z" transform="translate(-23.41 -31.8)"/><path d="M355,43.18a4.49,4.49,0,0,0,2.11.62c1.13,0,1.67-.56,1.67-1.3s-.45-1.15-1.6-1.59c-1.58-.57-2.32-1.42-2.32-2.46,0-1.41,1.15-2.56,3-2.56a4,4,0,0,1,2.12.54l-.38,1.15a3.42,3.42,0,0,0-1.78-.52c-.94,0-1.44.54-1.44,1.19s.5,1,1.64,1.49c1.49.56,2.28,1.32,2.28,2.61,0,1.55-1.2,2.63-3.24,2.63a5,5,0,0,1-2.45-.61Z" transform="translate(-23.41 -31.8)"/><path d="M369.6,42.39c0,.92,0,1.71.07,2.4h-1.4l-.09-1.43h0A3.24,3.24,0,0,1,365.26,45c-1.37,0-3-.77-3-3.81v-5.1h1.59v4.81c0,1.65.52,2.79,1.94,2.79a2.29,2.29,0,0,0,2.09-1.46,2.18,2.18,0,0,0,.14-.81V36.07h1.59Z" transform="translate(-23.41 -31.8)"/><path d="M372.22,38.43c0-.92,0-1.64-.07-2.36h1.39l.07,1.42h.06a3,3,0,0,1,2.75-1.6,2.57,2.57,0,0,1,2.45,1.75h0a3.42,3.42,0,0,1,1-1.14,2.94,2.94,0,0,1,1.9-.61c1.17,0,2.88.76,2.88,3.78v5.12h-1.54V39.87c0-1.69-.63-2.68-1.89-2.68a2.09,2.09,0,0,0-1.9,1.42,2.73,2.73,0,0,0-.12.79v5.39h-1.55V39.56c0-1.38-.61-2.37-1.82-2.37a2.37,2.37,0,0,0-2.09,2.36v5.24h-1.55Z" transform="translate(-23.41 -31.8)"/><path d="M387.24,38.92c0-1.12,0-2-.08-2.85h1.41l.09,1.5h0a3.37,3.37,0,0,1,3.09-1.68c2.13,0,3.71,1.78,3.71,4.41,0,3.13-1.92,4.68-4,4.68a3,3,0,0,1-2.68-1.37h0v4.74h-1.56Zm1.56,2.32a2.27,2.27,0,0,0,.08.65,2.44,2.44,0,0,0,2.37,1.85c1.68,0,2.65-1.37,2.65-3.37,0-1.72-.92-3.22-2.59-3.22a2.51,2.51,0,0,0-2.4,2,2.68,2.68,0,0,0-.11.63Z" transform="translate(-23.41 -31.8)"/><path d="M399.39,34v2.09h2.27v1.21h-2.27V42c0,1.08.3,1.69,1.19,1.69a2.94,2.94,0,0,0,.91-.11l.08,1.21a4.36,4.36,0,0,1-1.41.21,2.27,2.27,0,0,1-1.71-.66,3.43,3.43,0,0,1-.61-2.29V37.28h-1.35V36.07h1.35V34.45Z" transform="translate(-23.41 -31.8)"/><path d="M405.2,33.62a1,1,0,0,1-1,1,.93.93,0,0,1-.95-1,1,1,0,0,1,1-1A1,1,0,0,1,405.2,33.62Zm-1.76,11.17V36.07H405v8.72Z" transform="translate(-23.41 -31.8)"/><path d="M415.54,40.36A4.27,4.27,0,0,1,411.2,45,4.14,4.14,0,0,1,407,40.5a4.26,4.26,0,0,1,4.32-4.61A4.13,4.13,0,0,1,415.54,40.36Zm-6.9.09c0,1.9,1.08,3.35,2.63,3.35s2.64-1.43,2.64-3.39c0-1.48-.73-3.33-2.61-3.33S408.64,38.81,408.64,40.45Z" transform="translate(-23.41 -31.8)"/><path d="M417.53,38.43c0-.92,0-1.64-.07-2.36h1.4l.09,1.44h0a3.22,3.22,0,0,1,2.88-1.62c1.21,0,3.08.72,3.08,3.71v5.19h-1.59v-5c0-1.4-.52-2.57-2-2.57a2.29,2.29,0,0,0-2.13,1.62,2.37,2.37,0,0,0-.1.74v5.24h-1.59Z" transform="translate(-23.41 -31.8)"/><path d="M470.69,40.72a2.78,2.78,0,0,0,3,3,5.71,5.71,0,0,0,2.41-.45l.29,1.14a7.17,7.17,0,0,1-2.92.55,4.06,4.06,0,0,1-4.29-4.41c0-2.63,1.55-4.68,4.09-4.68,2.86,0,3.6,2.49,3.6,4.09a4.57,4.57,0,0,1-.05.74Zm4.64-1.14A2.24,2.24,0,0,0,473.14,37a2.59,2.59,0,0,0-2.44,2.55Z" transform="translate(-23.41 -31.8)"/><path d="M478.23,43.85a1.08,1.08,0,0,1,1.08-1.14,1.05,1.05,0,0,1,1.06,1.14,1.06,1.06,0,0,1-1.1,1.13A1.05,1.05,0,0,1,478.23,43.85Z" transform="translate(-23.41 -31.8)"/><path d="M489.79,43.51c0,2-.42,3.22-1.25,4a4.73,4.73,0,0,1-3.18,1,5.59,5.59,0,0,1-2.9-.72l.39-1.23a4.75,4.75,0,0,0,2.56.71c1.62,0,2.81-.85,2.81-3.06v-1h0a3.08,3.08,0,0,1-2.77,1.46c-2.16,0-3.71-1.84-3.71-4.25,0-3,1.93-4.61,3.94-4.61a2.89,2.89,0,0,1,2.72,1.49h0l.05-1.31h1.41c-.06.61-.07,1.33-.07,2.38Zm-1.59-4a2.13,2.13,0,0,0-.09-.7,2.26,2.26,0,0,0-2.21-1.7c-1.51,0-2.6,1.28-2.6,3.3,0,1.71.89,3.13,2.58,3.13a2.29,2.29,0,0,0,2.2-1.62,2.71,2.71,0,0,0,.12-.84Z" transform="translate(-23.41 -31.8)"/><path d="M496.21,38.43c0-.92,0-1.64-.07-2.36h1.4l.09,1.44h0a3.22,3.22,0,0,1,2.88-1.62c1.21,0,3.08.72,3.08,3.71v5.19H502v-5c0-1.4-.52-2.57-2-2.57a2.29,2.29,0,0,0-2.13,1.62,2.35,2.35,0,0,0-.11.74v5.24h-1.58Z" transform="translate(-23.41 -31.8)"/><path d="M512.32,42.7a14.72,14.72,0,0,0,.13,2.09H511l-.12-1.1h0A3.27,3.27,0,0,1,508.18,45a2.48,2.48,0,0,1-2.66-2.5c0-2.11,1.87-3.26,5.23-3.24v-.18a1.78,1.78,0,0,0-2-2,4.23,4.23,0,0,0-2.28.65l-.36-1.06a5.64,5.64,0,0,1,2.88-.76c2.66,0,3.31,1.82,3.31,3.55Zm-1.53-2.36c-1.73,0-3.69.27-3.69,2a1.39,1.39,0,0,0,1.48,1.51,2.2,2.2,0,0,0,2.14-1.46,1.93,1.93,0,0,0,.07-.5Z" transform="translate(-23.41 -31.8)"/><path d="M516.71,34v2.09H519v1.21h-2.27V42c0,1.08.31,1.69,1.19,1.69a3.06,3.06,0,0,0,.92-.11l.07,1.21a4.29,4.29,0,0,1-1.4.21,2.26,2.26,0,0,1-1.71-.66,3.37,3.37,0,0,1-.62-2.29V37.28h-1.35V36.07h1.35V34.45Z" transform="translate(-23.41 -31.8)"/><path d="M528.05,42.39c0,.92,0,1.71.08,2.4h-1.41l-.09-1.43h0A3.26,3.26,0,0,1,523.71,45c-1.36,0-3-.77-3-3.81v-5.1h1.58v4.81c0,1.65.52,2.79,2,2.79a2.26,2.26,0,0,0,2.08-1.46,2,2,0,0,0,.15-.81V36.07h1.58Z" transform="translate(-23.41 -31.8)"/><path d="M530.68,38.79c0-1,0-1.91-.07-2.72H532l.08,1.73h0a2.64,2.64,0,0,1,2.43-1.91,2.86,2.86,0,0,1,.43,0v1.49a2.24,2.24,0,0,0-2.66,2,4.35,4.35,0,0,0-.06.74v4.65h-1.58Z" transform="translate(-23.41 -31.8)"/><path d="M542.6,42.7a14.82,14.82,0,0,0,.12,2.09H541.3l-.13-1.1h0A3.24,3.24,0,0,1,538.46,45a2.48,2.48,0,0,1-2.67-2.5c0-2.11,1.87-3.26,5.24-3.24v-.18a1.79,1.79,0,0,0-2-2,4.26,4.26,0,0,0-2.29.65l-.36-1.06a5.66,5.66,0,0,1,2.88-.76c2.67,0,3.32,1.82,3.32,3.55Zm-1.53-2.36c-1.73,0-3.69.27-3.69,2a1.38,1.38,0,0,0,1.47,1.51A2.2,2.2,0,0,0,541,42.35a1.62,1.62,0,0,0,.08-.5Z" transform="translate(-23.41 -31.8)"/><path d="M545.15,32h1.59V44.79h-1.59Z" transform="translate(-23.41 -31.8)"/><path d="M560.67,43.51c0,2-.41,3.22-1.24,4a4.78,4.78,0,0,1-3.19,1,5.62,5.62,0,0,1-2.9-.72l.4-1.23a4.68,4.68,0,0,0,2.55.71c1.62,0,2.81-.85,2.81-3.06v-1h0a3.11,3.11,0,0,1-2.78,1.46c-2.16,0-3.71-1.84-3.71-4.25,0-3,1.93-4.61,3.95-4.61a2.92,2.92,0,0,1,2.72,1.49h0l.06-1.31h1.4c0,.61-.07,1.33-.07,2.38Zm-1.59-4a1.89,1.89,0,0,0-.09-.7,2.25,2.25,0,0,0-2.21-1.7c-1.51,0-2.59,1.28-2.59,3.3,0,1.71.88,3.13,2.57,3.13a2.28,2.28,0,0,0,2.2-1.62,2.71,2.71,0,0,0,.12-.84Z" transform="translate(-23.41 -31.8)"/><path d="M569.4,42.7a14.82,14.82,0,0,0,.12,2.09H568.1l-.12-1.1h-.06A3.24,3.24,0,0,1,565.26,45a2.48,2.48,0,0,1-2.67-2.5c0-2.11,1.88-3.26,5.24-3.24v-.18a1.78,1.78,0,0,0-2-2,4.26,4.26,0,0,0-2.29.65l-.35-1.06a5.64,5.64,0,0,1,2.88-.76c2.66,0,3.31,1.82,3.31,3.55Zm-1.53-2.36c-1.73,0-3.69.27-3.69,2a1.38,1.38,0,0,0,1.47,1.51,2.21,2.21,0,0,0,2.15-1.46,1.93,1.93,0,0,0,.07-.5Z" transform="translate(-23.41 -31.8)"/><path d="M571.74,43.18a4.41,4.41,0,0,0,2.1.62c1.14,0,1.68-.56,1.68-1.3s-.45-1.15-1.6-1.59c-1.59-.57-2.33-1.42-2.33-2.46,0-1.41,1.15-2.56,3-2.56a4,4,0,0,1,2.12.54l-.37,1.15a3.49,3.49,0,0,0-1.79-.52c-.93,0-1.44.54-1.44,1.19s.51,1,1.64,1.49c1.5.56,2.29,1.32,2.29,2.61,0,1.55-1.21,2.63-3.24,2.63a5,5,0,0,1-2.45-.61Z" transform="translate(-23.41 -31.8)"/><path d="M583.06,44.79V37.28h-1.21V36.07h1.21v-.41a4.21,4.21,0,0,1,1-3,3,3,0,0,1,2.12-.81,3.46,3.46,0,0,1,1.35.26l-.21,1.22a2.29,2.29,0,0,0-1-.2c-1.35,0-1.69,1.17-1.69,2.52v.47h2.1v1.21h-2.1v7.51Z" transform="translate(-23.41 -31.8)"/><path d="M595.8,40.36A4.26,4.26,0,0,1,591.47,45a4.15,4.15,0,0,1-4.18-4.48,4.26,4.26,0,0,1,4.32-4.61A4.12,4.12,0,0,1,595.8,40.36Zm-6.89.09c0,1.9,1.08,3.35,2.63,3.35s2.64-1.43,2.64-3.39c0-1.48-.73-3.33-2.61-3.33S588.91,38.81,588.91,40.45Z" transform="translate(-23.41 -31.8)"/><path d="M597.8,38.79c0-1,0-1.91-.07-2.72h1.39l.07,1.73h0a2.64,2.64,0,0,1,2.43-1.91,2.86,2.86,0,0,1,.43,0v1.49a2.24,2.24,0,0,0-2.66,2,4.38,4.38,0,0,0-.05.74v4.65H597.8Z" transform="translate(-23.41 -31.8)"/><path d="M278.36,53.6h1.58v5.46h0a2.94,2.94,0,0,1,1.13-1.14,3.26,3.26,0,0,1,1.62-.43c1.17,0,3,.72,3,3.71v5.19h-1.58v-5c0-1.4-.52-2.57-2-2.57a2.3,2.3,0,0,0-2.12,1.56,2.06,2.06,0,0,0-.11.76v5.26h-1.58Z" transform="translate(-23.41 -31.8)"/><path d="M289.23,62.32a2.78,2.78,0,0,0,3,3,5.71,5.71,0,0,0,2.41-.45l.29,1.14a7.17,7.17,0,0,1-2.92.55,4.06,4.06,0,0,1-4.28-4.41c0-2.63,1.54-4.68,4.08-4.68,2.87,0,3.6,2.49,3.6,4.09a3.65,3.65,0,0,1,0,.74Zm4.64-1.14a2.24,2.24,0,0,0-2.19-2.55,2.58,2.58,0,0,0-2.43,2.55Z" transform="translate(-23.41 -31.8)"/><path d="M303.49,64.3a14.82,14.82,0,0,0,.12,2.09h-1.42l-.13-1.1H302a3.26,3.26,0,0,1-2.67,1.29,2.48,2.48,0,0,1-2.66-2.5c0-2.11,1.87-3.26,5.24-3.24v-.18a1.79,1.79,0,0,0-2-2,4.24,4.24,0,0,0-2.29.65l-.36-1.06a5.64,5.64,0,0,1,2.88-.76c2.67,0,3.32,1.82,3.32,3.55ZM302,61.94c-1.73,0-3.7.27-3.7,2a1.39,1.39,0,0,0,1.48,1.51A2.2,2.2,0,0,0,301.88,64a1.62,1.62,0,0,0,.08-.5Z" transform="translate(-23.41 -31.8)"/><path d="M307.88,55.58v2.09h2.27v1.21h-2.27v4.7c0,1.08.3,1.69,1.18,1.69a3,3,0,0,0,.92-.11l.07,1.21a4.24,4.24,0,0,1-1.4.21,2.27,2.27,0,0,1-1.71-.66,3.43,3.43,0,0,1-.61-2.29V58.88H305V57.67h1.35V56.05Z" transform="translate(-23.41 -31.8)"/><path d="M313.69,55.22a1,1,0,0,1-1,1,.93.93,0,0,1-.95-1,1,1,0,0,1,1-1A1,1,0,0,1,313.69,55.22Zm-1.76,11.17V57.67h1.58v8.72Z" transform="translate(-23.41 -31.8)"/><path d="M316.14,60c0-.92,0-1.64-.07-2.36h1.4l.09,1.44h0a3.22,3.22,0,0,1,2.88-1.62c1.2,0,3.08.72,3.08,3.71v5.19H322v-5c0-1.4-.52-2.57-2-2.57a2.29,2.29,0,0,0-2.12,1.62,2.35,2.35,0,0,0-.11.74v5.24h-1.58Z" transform="translate(-23.41 -31.8)"/><path d="M333.58,65.11c0,2-.41,3.22-1.24,4a4.76,4.76,0,0,1-3.19,1.05,5.64,5.64,0,0,1-2.9-.72l.4-1.23a4.75,4.75,0,0,0,2.56.71c1.62,0,2.81-.85,2.81-3.06v-1h0a3.09,3.09,0,0,1-2.77,1.46c-2.16,0-3.71-1.84-3.71-4.25,0-3,1.92-4.61,3.94-4.61a2.9,2.9,0,0,1,2.72,1.5h0l.05-1.32h1.4c0,.61-.07,1.33-.07,2.38Zm-1.58-4a2.13,2.13,0,0,0-.09-.7,2.26,2.26,0,0,0-2.22-1.69c-1.51,0-2.59,1.27-2.59,3.29,0,1.71.88,3.13,2.57,3.13a2.28,2.28,0,0,0,2.2-1.62,2.72,2.72,0,0,0,.13-.84Z" transform="translate(-23.41 -31.8)"/><path d="M347.89,62a4.26,4.26,0,0,1-4.34,4.62,4.14,4.14,0,0,1-4.17-4.48,4.26,4.26,0,0,1,4.32-4.61A4.12,4.12,0,0,1,347.89,62Zm-6.89.09c0,1.9,1.08,3.35,2.62,3.35S346.27,64,346.27,62c0-1.48-.74-3.33-2.61-3.33S341,60.41,341,62.05Z" transform="translate(-23.41 -31.8)"/><path d="M349.89,60.39c0-1,0-1.91-.07-2.72h1.38l.07,1.73h.06a2.63,2.63,0,0,1,2.43-1.91,2.86,2.86,0,0,1,.43,0V59a2.92,2.92,0,0,0-.54,0,2.19,2.19,0,0,0-2.12,2,4.35,4.35,0,0,0-.06.74v4.65h-1.58Z" transform="translate(-23.41 -31.8)"/><path d="M359.37,64.78a4.49,4.49,0,0,0,2.11.62c1.13,0,1.67-.56,1.67-1.3s-.45-1.15-1.6-1.59c-1.58-.57-2.32-1.42-2.32-2.46,0-1.41,1.15-2.56,3-2.56a4,4,0,0,1,2.12.54L364,59.18a3.42,3.42,0,0,0-1.78-.52c-.94,0-1.44.54-1.44,1.19s.5,1,1.64,1.49c1.49.56,2.28,1.32,2.28,2.61,0,1.55-1.2,2.63-3.24,2.63A5,5,0,0,1,359,66Z" transform="translate(-23.41 -31.8)"/><path d="M374.6,62a4.26,4.26,0,0,1-4.34,4.62,4.14,4.14,0,0,1-4.17-4.48,4.26,4.26,0,0,1,4.32-4.61A4.12,4.12,0,0,1,374.6,62Zm-6.89.09c0,1.9,1.08,3.35,2.63,3.35S373,64,373,62c0-1.48-.74-3.33-2.61-3.33S367.71,60.41,367.71,62.05Z" transform="translate(-23.41 -31.8)"/><path d="M376.6,53.6h1.58V66.39H376.6Z" transform="translate(-23.41 -31.8)"/><path d="M387,64.3a13.38,13.38,0,0,0,.13,2.09h-1.43l-.12-1.1h-.06a3.24,3.24,0,0,1-2.66,1.29,2.48,2.48,0,0,1-2.67-2.5c0-2.11,1.88-3.26,5.24-3.24v-.18a1.79,1.79,0,0,0-2-2,4.2,4.2,0,0,0-2.28.65l-.37-1.06a5.67,5.67,0,0,1,2.89-.76c2.66,0,3.31,1.82,3.31,3.55Zm-1.53-2.36c-1.73,0-3.69.27-3.69,2a1.38,1.38,0,0,0,1.47,1.51A2.21,2.21,0,0,0,385.37,64a1.93,1.93,0,0,0,.07-.5Z" transform="translate(-23.41 -31.8)"/><path d="M389.52,60.39c0-1,0-1.91-.07-2.72h1.39l.07,1.73h0a2.64,2.64,0,0,1,2.43-1.91,3,3,0,0,1,.44,0V59a3,3,0,0,0-.54,0,2.2,2.2,0,0,0-2.13,2,5.74,5.74,0,0,0-.05.74v4.65h-1.59Z" transform="translate(-23.41 -31.8)"/><path d="M401.13,55.58v2.09h2.27v1.21h-2.27v4.7c0,1.08.31,1.69,1.19,1.69a3,3,0,0,0,.92-.11l.07,1.21a4.24,4.24,0,0,1-1.4.21,2.26,2.26,0,0,1-1.71-.66,3.37,3.37,0,0,1-.62-2.29V58.88h-1.35V57.67h1.35V56.05Z" transform="translate(-23.41 -31.8)"/><path d="M405.18,53.6h1.59v5.46h0a3,3,0,0,1,1.14-1.14,3.23,3.23,0,0,1,1.62-.43c1.17,0,3,.72,3,3.71v5.19H411v-5c0-1.4-.53-2.57-2-2.57a2.29,2.29,0,0,0-2.12,1.56,2.06,2.06,0,0,0-.11.76v5.26h-1.59Z" transform="translate(-23.41 -31.8)"/><path d="M416.05,62.32a2.78,2.78,0,0,0,3,3,5.73,5.73,0,0,0,2.42-.45l.28,1.14a7.12,7.12,0,0,1-2.91.55,4.06,4.06,0,0,1-4.29-4.41c0-2.63,1.55-4.68,4.09-4.68,2.86,0,3.6,2.49,3.6,4.09a4.57,4.57,0,0,1-.05.74Zm4.65-1.14a2.24,2.24,0,0,0-2.2-2.55,2.59,2.59,0,0,0-2.43,2.55Z" transform="translate(-23.41 -31.8)"/><path d="M424.19,60.39c0-1,0-1.91-.07-2.72h1.38l.08,1.73h.05a2.64,2.64,0,0,1,2.43-1.91,2.86,2.86,0,0,1,.43,0V59a2.92,2.92,0,0,0-.54,0,2.2,2.2,0,0,0-2.12,2,4.35,4.35,0,0,0-.06.74v4.65h-1.58Z" transform="translate(-23.41 -31.8)"/><path d="M430.15,60c0-.92,0-1.64-.07-2.36h1.38l.07,1.42h.06a3,3,0,0,1,2.75-1.6,2.57,2.57,0,0,1,2.45,1.75h0a3.4,3.4,0,0,1,1-1.14,3,3,0,0,1,1.91-.61c1.17,0,2.88.76,2.88,3.78v5.12h-1.55V61.47c0-1.69-.63-2.68-1.89-2.68a2.07,2.07,0,0,0-1.89,1.42,2.72,2.72,0,0,0-.13.79v5.39H435.6V61.16c0-1.38-.61-2.37-1.81-2.37a2.33,2.33,0,0,0-2.09,2.36v5.24h-1.55Z" transform="translate(-23.41 -31.8)"/><path d="M451.28,64.3a14.72,14.72,0,0,0,.13,2.09H450l-.12-1.1h-.06a3.24,3.24,0,0,1-2.66,1.29,2.48,2.48,0,0,1-2.66-2.5c0-2.11,1.87-3.26,5.24-3.24v-.18a1.79,1.79,0,0,0-2-2,4.23,4.23,0,0,0-2.28.65l-.36-1.06a5.64,5.64,0,0,1,2.88-.76c2.66,0,3.31,1.82,3.31,3.55Zm-1.53-2.36c-1.73,0-3.69.27-3.69,2a1.38,1.38,0,0,0,1.48,1.51A2.2,2.2,0,0,0,449.68,64a1.93,1.93,0,0,0,.07-.5Z" transform="translate(-23.41 -31.8)"/><path d="M453.84,53.6h1.58V66.39h-1.58Z" transform="translate(-23.41 -31.8)"/><path d="M462.06,66.39V58.88h-1.2V57.67h1.2v-.41a4.21,4.21,0,0,1,1-3,3.06,3.06,0,0,1,2.12-.81,3.56,3.56,0,0,1,1.36.26l-.22,1.22a2.26,2.26,0,0,0-1-.2c-1.35,0-1.69,1.17-1.69,2.52v.47h2.1v1.21h-2.1v7.51Z" transform="translate(-23.41 -31.8)"/><path d="M474.81,62a4.26,4.26,0,0,1-4.34,4.62,4.15,4.15,0,0,1-4.18-4.48,4.26,4.26,0,0,1,4.32-4.61A4.12,4.12,0,0,1,474.81,62Zm-6.9.09c0,1.9,1.08,3.35,2.63,3.35S473.19,64,473.19,62c0-1.48-.74-3.33-2.61-3.33S467.91,60.41,467.91,62.05Z" transform="translate(-23.41 -31.8)"/><path d="M476.8,60.39c0-1,0-1.91-.07-2.72h1.39l.07,1.73h.05a2.64,2.64,0,0,1,2.43-1.91,3,3,0,0,1,.44,0V59a3,3,0,0,0-.54,0,2.2,2.2,0,0,0-2.13,2,5.74,5.74,0,0,0-.05.74v4.65H476.8Z" transform="translate(-23.41 -31.8)"/><path d="M486.29,64.78a4.45,4.45,0,0,0,2.11.62c1.13,0,1.67-.56,1.67-1.3s-.45-1.15-1.6-1.59c-1.59-.57-2.33-1.42-2.33-2.46,0-1.41,1.16-2.56,3-2.56a4,4,0,0,1,2.13.54l-.38,1.15a3.42,3.42,0,0,0-1.78-.52c-.94,0-1.44.54-1.44,1.19s.5,1,1.63,1.49c1.5.56,2.29,1.32,2.29,2.61,0,1.55-1.21,2.63-3.24,2.63a5,5,0,0,1-2.45-.61Z" transform="translate(-23.41 -31.8)"/><path d="M499.75,64.3a14.72,14.72,0,0,0,.13,2.09h-1.42l-.13-1.1h-.05a3.26,3.26,0,0,1-2.67,1.29,2.48,2.48,0,0,1-2.66-2.5c0-2.11,1.87-3.26,5.24-3.24v-.18a1.79,1.79,0,0,0-2-2,4.24,4.24,0,0,0-2.29.65l-.36-1.06a5.64,5.64,0,0,1,2.88-.76c2.67,0,3.31,1.82,3.31,3.55Zm-1.53-2.36c-1.72,0-3.69.27-3.69,2A1.39,1.39,0,0,0,496,65.41,2.2,2.2,0,0,0,498.15,64a1.58,1.58,0,0,0,.07-.5Z" transform="translate(-23.41 -31.8)"/><path d="M502.31,60c0-.92,0-1.64-.07-2.36h1.4l.09,1.44h0a3.22,3.22,0,0,1,2.88-1.62c1.2,0,3.08.72,3.08,3.71v5.19h-1.59v-5c0-1.4-.52-2.57-2-2.57A2.29,2.29,0,0,0,504,60.41a2.35,2.35,0,0,0-.11.74v5.24h-1.58Z" transform="translate(-23.41 -31.8)"/><path d="M514.06,55.22a1,1,0,0,1-1,1,.93.93,0,0,1-.95-1,1,1,0,0,1,1-1A1,1,0,0,1,514.06,55.22ZM512.3,66.39V57.67h1.58v8.72Z" transform="translate(-23.41 -31.8)"/><path d="M518.42,55.58v2.09h2.27v1.21h-2.27v4.7c0,1.08.3,1.69,1.19,1.69a3.06,3.06,0,0,0,.92-.11l.07,1.21a4.36,4.36,0,0,1-1.41.21,2.29,2.29,0,0,1-1.71-.66,3.43,3.43,0,0,1-.61-2.29V58.88h-1.35V57.67h1.35V56.05Z" transform="translate(-23.41 -31.8)"/><path d="M523.21,57.67l1.89,5.15c.21.58.43,1.26.57,1.78h0c.16-.52.34-1.19.56-1.82L528,57.67h1.67l-2.38,6.21c-1.13,3-1.9,4.5-3,5.46a4.63,4.63,0,0,1-1.94,1L522,69a4.17,4.17,0,0,0,1.39-.77,5.06,5.06,0,0,0,1.33-1.77,1,1,0,0,0,.13-.37,1.16,1.16,0,0,0-.13-.42l-3.2-8Z" transform="translate(-23.41 -31.8)"/><path d="M534.92,53.6h1.59v5.46h0a2.94,2.94,0,0,1,1.13-1.14,3.26,3.26,0,0,1,1.62-.43c1.17,0,3,.72,3,3.71v5.19h-1.58v-5c0-1.4-.52-2.57-2-2.57a2.3,2.3,0,0,0-2.12,1.56,2.06,2.06,0,0,0-.11.76v5.26h-1.59Z" transform="translate(-23.41 -31.8)"/><path d="M552.8,62a4.26,4.26,0,0,1-4.34,4.62,4.15,4.15,0,0,1-4.18-4.48,4.26,4.26,0,0,1,4.33-4.61A4.12,4.12,0,0,1,552.8,62Zm-6.9.09c0,1.9,1.08,3.35,2.63,3.35S551.18,64,551.18,62c0-1.48-.74-3.33-2.61-3.33S545.9,60.41,545.9,62.05Z" transform="translate(-23.41 -31.8)"/><path d="M556.71,55.58v2.09H559v1.21h-2.26v4.7c0,1.08.3,1.69,1.18,1.69a3,3,0,0,0,.92-.11l.07,1.21a4.24,4.24,0,0,1-1.4.21,2.27,2.27,0,0,1-1.71-.66,3.43,3.43,0,0,1-.61-2.29V58.88h-1.35V57.67h1.35V56.05Z" transform="translate(-23.41 -31.8)"/><path d="M565.2,57.67l1.17,4.43c.23,1,.47,1.87.63,2.77h0c.2-.88.49-1.82.78-2.75l1.42-4.45h1.33L571.93,62c.33,1,.58,2,.78,2.84h0a26.94,26.94,0,0,1,.67-2.82l1.24-4.38h1.57l-2.81,8.72H572l-1.33-4.16a29.51,29.51,0,0,1-.78-2.87h0a25.07,25.07,0,0,1-.8,2.88l-1.4,4.15h-1.44l-2.63-8.72Z" transform="translate(-23.41 -31.8)"/><path d="M583.87,64.3a14.82,14.82,0,0,0,.12,2.09h-1.42l-.12-1.1h-.06a3.25,3.25,0,0,1-2.66,1.29,2.48,2.48,0,0,1-2.67-2.5c0-2.11,1.87-3.26,5.24-3.24v-.18a1.79,1.79,0,0,0-2-2,4.26,4.26,0,0,0-2.29.65l-.36-1.06a5.66,5.66,0,0,1,2.88-.76c2.67,0,3.32,1.82,3.32,3.55Zm-1.53-2.36c-1.73,0-3.69.27-3.69,2a1.38,1.38,0,0,0,1.47,1.51A2.2,2.2,0,0,0,582.26,64a1.62,1.62,0,0,0,.08-.5Z" transform="translate(-23.41 -31.8)"/><path d="M588.26,55.58v2.09h2.27v1.21h-2.27v4.7c0,1.08.3,1.69,1.19,1.69a3.06,3.06,0,0,0,.92-.11l.07,1.21a4.36,4.36,0,0,1-1.41.21,2.27,2.27,0,0,1-1.71-.66,3.43,3.43,0,0,1-.61-2.29V58.88h-1.35V57.67h1.35V56.05Z" transform="translate(-23.41 -31.8)"/><path d="M593.08,62.32a2.78,2.78,0,0,0,3,3,5.65,5.65,0,0,0,2.41-.45l.29,1.14a7.17,7.17,0,0,1-2.92.55,4.06,4.06,0,0,1-4.28-4.41c0-2.63,1.55-4.68,4.09-4.68,2.86,0,3.6,2.49,3.6,4.09a3.53,3.53,0,0,1-.06.74Zm4.65-1.14a2.25,2.25,0,0,0-2.2-2.55,2.59,2.59,0,0,0-2.43,2.55Z" transform="translate(-23.41 -31.8)"/><path d="M601.22,60.39c0-1,0-1.91-.07-2.72h1.38l.07,1.73h.06a2.63,2.63,0,0,1,2.43-1.91,2.86,2.86,0,0,1,.43,0V59a2.92,2.92,0,0,0-.54,0,2.19,2.19,0,0,0-2.12,2,4.35,4.35,0,0,0-.06.74v4.65h-1.58Z" transform="translate(-23.41 -31.8)"/></g><g id="Calque_4" data-name="Calque 4"><path d="M510.46,241.24a18.64,18.64,0,0,1,3-.25,5.06,5.06,0,0,1,3.51,1,3.11,3.11,0,0,1,.95,2.32,3.18,3.18,0,0,1-2.27,3.08v.06a3,3,0,0,1,1.77,2.45,19.23,19.23,0,0,0,.93,3.33h-1.62a14.88,14.88,0,0,1-.79-2.9c-.36-1.68-1-2.31-2.45-2.36H512v5.26h-1.57Zm1.57,5.53h1.6c1.67,0,2.73-.92,2.73-2.3,0-1.57-1.13-2.25-2.79-2.25a7.06,7.06,0,0,0-1.54.12Z" transform="translate(-23.41 -31.8)"/><path d="M521,249.15a2.78,2.78,0,0,0,3,3,5.5,5.5,0,0,0,2.41-.45l.29,1.14a7.12,7.12,0,0,1-2.91.56,4.07,4.07,0,0,1-4.29-4.42c0-2.62,1.55-4.68,4.09-4.68,2.86,0,3.6,2.49,3.6,4.09a3.53,3.53,0,0,1-.06.74Zm4.65-1.14a2.25,2.25,0,0,0-2.2-2.55,2.6,2.6,0,0,0-2.43,2.55Z" transform="translate(-23.41 -31.8)"/><path d="M529.34,253.22v-7.51h-1.21V244.5h1.21V244a3.49,3.49,0,0,1,3.8-3.78,4.39,4.39,0,0,1,2.21.57L534.9,242a3.35,3.35,0,0,0-1.83-.51c-1.68,0-2.16,1.17-2.16,2.56v.43H536v8.72h-1.59v-7.51h-3.47v7.51Z" transform="translate(-23.41 -31.8)"/><path d="M538.59,246.86c0-.92,0-1.64-.07-2.36h1.41l.08,1.44h0a3.22,3.22,0,0,1,2.88-1.62c1.21,0,3.08.72,3.08,3.71v5.19h-1.58v-5c0-1.4-.53-2.57-2-2.57a2.27,2.27,0,0,0-2.12,1.62,2.1,2.1,0,0,0-.11.74v5.24h-1.59Z" transform="translate(-23.41 -31.8)"/><path d="M549.47,249.15a2.77,2.77,0,0,0,3,3,5.58,5.58,0,0,0,2.42-.45l.28,1.14a7.08,7.08,0,0,1-2.91.56A4.07,4.07,0,0,1,548,249c0-2.62,1.55-4.68,4.09-4.68,2.86,0,3.6,2.49,3.6,4.09a4.57,4.57,0,0,1,0,.74Zm4.64-1.14a2.24,2.24,0,0,0-2.2-2.55,2.6,2.6,0,0,0-2.43,2.55Z" transform="translate(-23.41 -31.8)"/><path d="M557.6,247.22c0-1,0-1.91-.07-2.72h1.38l.08,1.73h0a2.64,2.64,0,0,1,2.43-1.91,2.86,2.86,0,0,1,.43,0v1.49a2.92,2.92,0,0,0-.54,0,2.21,2.21,0,0,0-2.12,2,4.35,4.35,0,0,0-.06.74v4.65H557.6Z" transform="translate(-23.41 -31.8)"/><path d="M565.32,242.05a1,1,0,0,1-1,1,.94.94,0,0,1-.95-1,1,1,0,0,1,1-1A1,1,0,0,1,565.32,242.05Zm-1.76,11.17V244.5h1.58v8.72Z" transform="translate(-23.41 -31.8)"/><path d="M568.65,249.15a2.78,2.78,0,0,0,3,3,5.5,5.5,0,0,0,2.41-.45l.29,1.14a7.12,7.12,0,0,1-2.91.56,4.07,4.07,0,0,1-4.29-4.42c0-2.62,1.55-4.68,4.09-4.68,2.86,0,3.6,2.49,3.6,4.09a3.53,3.53,0,0,1-.06.74ZM573.3,248a2.25,2.25,0,0,0-2.2-2.55,2.6,2.6,0,0,0-2.43,2.55Z" transform="translate(-23.41 -31.8)"/><path d="M576.57,251.61a4.49,4.49,0,0,0,2.11.62c1.13,0,1.67-.56,1.67-1.3s-.45-1.15-1.6-1.58c-1.58-.58-2.32-1.43-2.32-2.47a2.7,2.7,0,0,1,3-2.56,4.11,4.11,0,0,1,2.13.54l-.38,1.16a3.32,3.32,0,0,0-1.78-.53c-.94,0-1.44.54-1.44,1.19s.5,1,1.64,1.5c1.49.55,2.28,1.31,2.28,2.61,0,1.55-1.2,2.63-3.24,2.63a5,5,0,0,1-2.45-.62Z" transform="translate(-23.41 -31.8)"/><path d="M637.74,248.79a4.27,4.27,0,0,1-4.34,4.63,4.16,4.16,0,0,1-4.18-4.49,4.26,4.26,0,0,1,4.32-4.61A4.12,4.12,0,0,1,637.74,248.79Zm-6.9.09c0,1.91,1.08,3.35,2.63,3.35s2.65-1.43,2.65-3.39c0-1.47-.74-3.33-2.61-3.33S630.84,247.24,630.84,248.88Z" transform="translate(-23.41 -31.8)"/><path d="M641.5,242.05a1,1,0,0,1-1,1,.94.94,0,0,1-1-1,1,1,0,1,1,2,0Zm-1.77,11.17V244.5h1.59v8.72Z" transform="translate(-23.41 -31.8)"/><path d="M644,240.43h1.58v12.79H644Z" transform="translate(-23.41 -31.8)"/><path d="M652,247.35c0-1.12,0-2-.07-2.85h1.4l.09,1.5h0a3.38,3.38,0,0,1,3.1-1.68c2.12,0,3.71,1.79,3.71,4.41,0,3.14-1.93,4.69-4,4.69a3.08,3.08,0,0,1-2.69-1.37h0v4.73H652Zm1.57,2.32a2.7,2.7,0,0,0,.07.65,2.44,2.44,0,0,0,2.38,1.85c1.67,0,2.64-1.37,2.64-3.36,0-1.73-.92-3.23-2.59-3.23a2.49,2.49,0,0,0-2.39,1.95,2.32,2.32,0,0,0-.11.63Z" transform="translate(-23.41 -31.8)"/><path d="M662.25,247.22c0-1,0-1.91-.07-2.72h1.39l.07,1.73h.05a2.64,2.64,0,0,1,2.43-1.91,3,3,0,0,1,.44,0v1.49a3,3,0,0,0-.54,0,2.21,2.21,0,0,0-2.13,2,5.74,5.74,0,0,0,0,.74v4.65h-1.59Z" transform="translate(-23.41 -31.8)"/><path d="M675.84,248.79a4.27,4.27,0,0,1-4.33,4.63,4.15,4.15,0,0,1-4.18-4.49,4.26,4.26,0,0,1,4.32-4.61A4.12,4.12,0,0,1,675.84,248.79Zm-6.89.09c0,1.91,1.08,3.35,2.63,3.35s2.64-1.43,2.64-3.39c0-1.47-.73-3.33-2.61-3.33S669,247.24,669,248.88Z" transform="translate(-23.41 -31.8)"/><path d="M685.35,240.43V251c0,.77,0,1.65.07,2.25H684l-.08-1.51h-.05a3.15,3.15,0,0,1-2.93,1.71c-2.11,0-3.75-1.79-3.75-4.43,0-2.9,1.8-4.67,3.91-4.67a2.92,2.92,0,0,1,2.63,1.32h0v-5.21Zm-1.57,7.62a3.05,3.05,0,0,0-.07-.67,2.33,2.33,0,0,0-2.29-1.81c-1.64,0-2.61,1.44-2.61,3.34s.88,3.23,2.58,3.23a2.4,2.4,0,0,0,2.32-1.89,3,3,0,0,0,.07-.69Z" transform="translate(-23.41 -31.8)"/><path d="M695.28,250.82c0,.92,0,1.71.08,2.4H694l-.09-1.42h0a3.28,3.28,0,0,1-2.89,1.62c-1.36,0-3-.78-3-3.82v-5.1h1.58v4.81c0,1.66.53,2.79,2,2.79a2.26,2.26,0,0,0,2.08-1.46,2,2,0,0,0,.15-.81V244.5h1.58Z" transform="translate(-23.41 -31.8)"/><path d="M704.12,252.91a6,6,0,0,1-2.5.51,4.14,4.14,0,0,1-4.34-4.45,4.45,4.45,0,0,1,4.68-4.65,5,5,0,0,1,2.2.47L703.8,246a3.85,3.85,0,0,0-1.84-.42,3,3,0,0,0-3.08,3.3,3,3,0,0,0,3,3.26,4.47,4.47,0,0,0,1.94-.42Z" transform="translate(-23.41 -31.8)"/><path d="M708.12,242.41v2.09h2.27v1.21h-2.27v4.7c0,1.08.3,1.69,1.18,1.69a2.69,2.69,0,0,0,.92-.11l.08,1.21a4.32,4.32,0,0,1-1.41.22,2.28,2.28,0,0,1-1.71-.67,3.43,3.43,0,0,1-.61-2.29v-4.75h-1.35V244.5h1.35v-1.62Z" transform="translate(-23.41 -31.8)"/><path d="M712,251.61a4.45,4.45,0,0,0,2.11.62c1.13,0,1.67-.56,1.67-1.3s-.45-1.15-1.6-1.58c-1.59-.58-2.33-1.43-2.33-2.47,0-1.4,1.16-2.56,3-2.56a4.14,4.14,0,0,1,2.13.54l-.38,1.16a3.32,3.32,0,0,0-1.78-.53c-.94,0-1.44.54-1.44,1.19s.5,1,1.63,1.5c1.5.55,2.29,1.31,2.29,2.61,0,1.55-1.21,2.63-3.24,2.63a5,5,0,0,1-2.45-.62Z" transform="translate(-23.41 -31.8)"/><path d="M510.46,284.43a17.72,17.72,0,0,1,3-.24,5,5,0,0,1,3.4,1,3.33,3.33,0,0,1,1.06,2.54,3.53,3.53,0,0,1-.94,2.59,5,5,0,0,1-3.7,1.33,5.41,5.41,0,0,1-1.26-.1v4.86h-1.57Zm1.57,5.85a5.23,5.23,0,0,0,1.29.12c1.89,0,3-.93,3-2.57s-1.15-2.4-2.86-2.4a6.59,6.59,0,0,0-1.47.13Z" transform="translate(-23.41 -31.8)"/><path d="M527.42,292a4.27,4.27,0,0,1-4.34,4.63,4.16,4.16,0,0,1-4.18-4.49,4.26,4.26,0,0,1,4.32-4.61A4.13,4.13,0,0,1,527.42,292Zm-6.9.09c0,1.91,1.08,3.35,2.63,3.35S525.8,294,525.8,292c0-1.47-.74-3.33-2.61-3.33S520.52,290.44,520.52,292.08Z" transform="translate(-23.41 -31.8)"/><path d="M529.92,287.7l1.17,4.43c.23,1,.46,1.88.63,2.78h0c.2-.89.49-1.82.78-2.76L534,287.7h1.33l1.35,4.36c.32,1,.58,2,.78,2.85h.05a26.33,26.33,0,0,1,.66-2.83l1.25-4.38H541l-2.81,8.72h-1.43l-1.34-4.16a29.29,29.29,0,0,1-.77-2.86h0a24.21,24.21,0,0,1-.79,2.88l-1.4,4.14h-1.44l-2.63-8.72Z" transform="translate(-23.41 -31.8)"/><path d="M543.24,292.35a2.78,2.78,0,0,0,3,3,5.56,5.56,0,0,0,2.41-.45l.29,1.14a7.14,7.14,0,0,1-2.92.56,4.07,4.07,0,0,1-4.29-4.42c0-2.62,1.55-4.68,4.09-4.68,2.87,0,3.6,2.49,3.6,4.09a4.57,4.57,0,0,1,0,.74Zm4.64-1.14a2.24,2.24,0,0,0-2.19-2.55,2.59,2.59,0,0,0-2.43,2.55Z" transform="translate(-23.41 -31.8)"/><path d="M551.37,290.42c0-1,0-1.91-.07-2.72h1.39l.07,1.73h0a2.64,2.64,0,0,1,2.43-1.91,3,3,0,0,1,.44,0v1.49a3,3,0,0,0-.54,0,2.21,2.21,0,0,0-2.13,2,5.74,5.74,0,0,0,0,.74v4.65h-1.59Z" transform="translate(-23.41 -31.8)"/><path d="M561.07,290.55c0-1.12,0-2-.07-2.85h1.41l.09,1.5h0a3.39,3.39,0,0,1,3.1-1.68c2.13,0,3.71,1.79,3.71,4.41,0,3.14-1.93,4.69-4,4.69a3.06,3.06,0,0,1-2.68-1.37h0V300h-1.57Zm1.57,2.32a2.7,2.7,0,0,0,.07.65,2.45,2.45,0,0,0,2.38,1.85c1.67,0,2.65-1.36,2.65-3.36,0-1.73-.92-3.23-2.6-3.23a2.5,2.5,0,0,0-2.39,2,2.78,2.78,0,0,0-.11.63Z" transform="translate(-23.41 -31.8)"/><path d="M571.32,283.63h1.58v12.79h-1.58Z" transform="translate(-23.41 -31.8)"/><path d="M581.69,294.33a14.73,14.73,0,0,0,.12,2.09h-1.42l-.13-1.1h0a3.26,3.26,0,0,1-2.66,1.3,2.49,2.49,0,0,1-2.67-2.51c0-2.1,1.87-3.26,5.24-3.24v-.18a1.79,1.79,0,0,0-2-2,4.26,4.26,0,0,0-2.29.65l-.36-1.06a5.66,5.66,0,0,1,2.88-.76c2.67,0,3.32,1.82,3.32,3.55ZM580.16,292c-1.73,0-3.69.27-3.69,2a1.39,1.39,0,0,0,1.47,1.52,2.2,2.2,0,0,0,2.14-1.46,1.63,1.63,0,0,0,.08-.51Z" transform="translate(-23.41 -31.8)"/><path d="M584.24,290.06c0-.92,0-1.64-.07-2.36h1.4l.09,1.44h0a3.22,3.22,0,0,1,2.88-1.62c1.21,0,3.08.72,3.08,3.71v5.19h-1.59v-5c0-1.4-.52-2.57-2-2.57a2.29,2.29,0,0,0-2.13,1.62,2.35,2.35,0,0,0-.11.74v5.24h-1.58Z" transform="translate(-23.41 -31.8)"/><path d="M596.07,285.61v2.09h2.27v1.21h-2.27v4.7c0,1.08.3,1.69,1.18,1.69a2.69,2.69,0,0,0,.92-.11l.08,1.21a4.32,4.32,0,0,1-1.41.22,2.28,2.28,0,0,1-1.71-.67,3.43,3.43,0,0,1-.61-2.29v-4.75h-1.35V287.7h1.35v-1.62Z" transform="translate(-23.41 -31.8)"/><path d="M599.9,294.82a4.57,4.57,0,0,0,2.11.61c1.13,0,1.67-.56,1.67-1.3s-.45-1.15-1.6-1.58c-1.59-.58-2.32-1.43-2.32-2.47a2.7,2.7,0,0,1,3-2.56,4.14,4.14,0,0,1,2.13.54l-.38,1.16a3.32,3.32,0,0,0-1.78-.53c-.94,0-1.44.54-1.44,1.19s.5,1.05,1.63,1.5c1.5.55,2.29,1.31,2.29,2.61,0,1.55-1.2,2.63-3.24,2.63a5,5,0,0,1-2.45-.62Z" transform="translate(-23.41 -31.8)"/><path d="M649.81,292.35a2.78,2.78,0,0,0,3,3,5.58,5.58,0,0,0,2.42-.45l.28,1.14a7.08,7.08,0,0,1-2.91.56,4.07,4.07,0,0,1-4.29-4.42c0-2.62,1.55-4.68,4.09-4.68,2.86,0,3.6,2.49,3.6,4.09a4.57,4.57,0,0,1,0,.74Zm4.65-1.14a2.24,2.24,0,0,0-2.2-2.55,2.6,2.6,0,0,0-2.43,2.55Z" transform="translate(-23.41 -31.8)"/><path d="M658,283.63h1.59v12.79H658Z" transform="translate(-23.41 -31.8)"/><path d="M663.08,292.35a2.78,2.78,0,0,0,3,3,5.53,5.53,0,0,0,2.41-.45l.29,1.14a7.14,7.14,0,0,1-2.92.56,4.06,4.06,0,0,1-4.28-4.42c0-2.62,1.55-4.68,4.09-4.68,2.86,0,3.6,2.49,3.6,4.09a3.53,3.53,0,0,1-.06.74Zm4.65-1.14a2.25,2.25,0,0,0-2.2-2.55,2.59,2.59,0,0,0-2.43,2.55Z" transform="translate(-23.41 -31.8)"/><path d="M677.43,296.11a6.08,6.08,0,0,1-2.5.51,4.14,4.14,0,0,1-4.34-4.45,4.44,4.44,0,0,1,4.68-4.65,5,5,0,0,1,2.19.47l-.36,1.21a3.8,3.8,0,0,0-1.83-.42,3,3,0,0,0-3.08,3.3,3,3,0,0,0,3,3.26,4.52,4.52,0,0,0,1.95-.42Z" transform="translate(-23.41 -31.8)"/><path d="M681.42,285.61v2.09h2.27v1.21h-2.27v4.7c0,1.08.31,1.69,1.19,1.69a2.73,2.73,0,0,0,.92-.11l.07,1.21a4.2,4.2,0,0,1-1.4.22,2.26,2.26,0,0,1-1.71-.67,3.37,3.37,0,0,1-.62-2.29v-4.75h-1.35V287.7h1.35v-1.62Z" transform="translate(-23.41 -31.8)"/><path d="M685.47,290.42c0-1,0-1.91-.07-2.72h1.39l.07,1.73h0a2.64,2.64,0,0,1,2.43-1.91,3,3,0,0,1,.44,0v1.49a3,3,0,0,0-.54,0,2.21,2.21,0,0,0-2.13,2,4.38,4.38,0,0,0-.05.74v4.65h-1.59Z" transform="translate(-23.41 -31.8)"/><path d="M693.19,285.25a1,1,0,1,1-2,0,1,1,0,0,1,1-1A1,1,0,0,1,693.19,285.25Zm-1.76,11.17V287.7H693v8.72Z" transform="translate(-23.41 -31.8)"/><path d="M701.85,296.11a6,6,0,0,1-2.5.51,4.14,4.14,0,0,1-4.34-4.45,4.45,4.45,0,0,1,4.68-4.65,5,5,0,0,1,2.2.47l-.36,1.21a3.85,3.85,0,0,0-1.84-.42,3,3,0,0,0-3.08,3.3,3,3,0,0,0,3,3.26,4.47,4.47,0,0,0,1.94-.42Z" transform="translate(-23.41 -31.8)"/><path d="M705.47,285.25a1,1,0,0,1-1,1,.94.94,0,0,1-1-1,1,1,0,1,1,2,0Zm-1.76,11.17V287.7h1.58v8.72Z" transform="translate(-23.41 -31.8)"/><path d="M709.83,285.61v2.09h2.27v1.21h-2.27v4.7c0,1.08.3,1.69,1.18,1.69a2.69,2.69,0,0,0,.92-.11l.08,1.21a4.32,4.32,0,0,1-1.41.22,2.28,2.28,0,0,1-1.71-.67,3.43,3.43,0,0,1-.61-2.29v-4.75h-1.35V287.7h1.35v-1.62Z" transform="translate(-23.41 -31.8)"/><path d="M714.61,287.7l1.89,5.15c.22.58.44,1.26.58,1.78h0c.16-.52.34-1.18.56-1.81l1.72-5.12h1.68l-2.38,6.21c-1.13,3-1.91,4.51-3,5.46a4.44,4.44,0,0,1-1.94,1l-.4-1.32a4,4,0,0,0,1.39-.77,5,5,0,0,0,1.33-1.76,1.3,1.3,0,0,0,.13-.38,1.16,1.16,0,0,0-.13-.42l-3.2-8Z" transform="translate(-23.41 -31.8)"/><path d="M512,327.48v12.14h-1.59V327.48Z" transform="translate(-23.41 -31.8)"/><path d="M514.89,333.26c0-.92,0-1.64-.08-2.36h1.41l.09,1.44h0a3.25,3.25,0,0,1,2.88-1.62c1.21,0,3.08.72,3.08,3.71v5.19h-1.58v-5c0-1.4-.52-2.57-2-2.57a2.29,2.29,0,0,0-2.12,1.62,2.35,2.35,0,0,0-.11.74v5.24h-1.58Z" transform="translate(-23.41 -31.8)"/><path d="M532.38,326.83v10.54c0,.77,0,1.65.08,2.25h-1.41L531,338.1h-.05a3.15,3.15,0,0,1-2.94,1.72c-2.11,0-3.74-1.79-3.74-4.43,0-2.9,1.8-4.67,3.9-4.67a2.91,2.91,0,0,1,2.63,1.32h0v-5.21Zm-1.56,7.62a3.05,3.05,0,0,0-.07-.67,2.33,2.33,0,0,0-2.29-1.81c-1.64,0-2.61,1.44-2.61,3.34s.88,3.23,2.57,3.23a2.41,2.41,0,0,0,2.33-1.89,3,3,0,0,0,.07-.69Z" transform="translate(-23.41 -31.8)"/><path d="M542.32,337.22c0,.92,0,1.71.07,2.4H541l-.09-1.42h0a3.25,3.25,0,0,1-2.88,1.62c-1.37,0-3-.78-3-3.82v-5.1h1.59v4.81c0,1.66.52,2.79,1.94,2.79a2.29,2.29,0,0,0,2.09-1.46,2.14,2.14,0,0,0,.14-.81V330.9h1.59Z" transform="translate(-23.41 -31.8)"/><path d="M544.73,338a4.45,4.45,0,0,0,2.11.62c1.13,0,1.67-.56,1.67-1.3s-.45-1.15-1.6-1.58c-1.59-.58-2.32-1.43-2.32-2.47a2.7,2.7,0,0,1,3-2.56,4.14,4.14,0,0,1,2.13.54l-.38,1.16a3.32,3.32,0,0,0-1.78-.53c-.94,0-1.44.54-1.44,1.19s.5,1.05,1.63,1.5c1.5.55,2.29,1.31,2.29,2.61,0,1.55-1.21,2.63-3.24,2.63a5,5,0,0,1-2.45-.62Z" transform="translate(-23.41 -31.8)"/><path d="M554,328.81v2.09h2.27v1.21H554v4.7c0,1.08.31,1.69,1.19,1.69a2.77,2.77,0,0,0,.92-.11l.07,1.21a4.25,4.25,0,0,1-1.4.22,2.26,2.26,0,0,1-1.71-.67,3.37,3.37,0,0,1-.62-2.29v-4.75h-1.35V330.9h1.35v-1.62Z" transform="translate(-23.41 -31.8)"/><path d="M558,333.62c0-1,0-1.91-.07-2.72h1.39l.07,1.73h.05a2.64,2.64,0,0,1,2.43-1.91,2.86,2.86,0,0,1,.43,0v1.49a2.86,2.86,0,0,0-.53,0,2.21,2.21,0,0,0-2.13,2,4.38,4.38,0,0,0,0,.74v4.65H558Z" transform="translate(-23.41 -31.8)"/><path d="M565.75,328.45a1,1,0,1,1-2,0,1,1,0,0,1,1-1A1,1,0,0,1,565.75,328.45ZM564,339.62V330.9h1.58v8.72Z" transform="translate(-23.41 -31.8)"/><path d="M574.32,337.53a14.72,14.72,0,0,0,.13,2.09H573l-.13-1.1h0a3.28,3.28,0,0,1-2.67,1.3,2.49,2.49,0,0,1-2.66-2.51c0-2.1,1.87-3.26,5.24-3.24v-.18a1.79,1.79,0,0,0-2-2,4.24,4.24,0,0,0-2.29.65l-.36-1.06a5.64,5.64,0,0,1,2.88-.76c2.67,0,3.31,1.82,3.31,3.55Zm-1.53-2.36c-1.73,0-3.69.27-3.69,2a1.4,1.4,0,0,0,1.48,1.52,2.2,2.2,0,0,0,2.14-1.46,2,2,0,0,0,.07-.51Z" transform="translate(-23.41 -31.8)"/><path d="M576.88,326.83h1.58v12.79h-1.58Z" transform="translate(-23.41 -31.8)"/><path d="M584.94,333.75c0-1.12,0-2-.07-2.85h1.4l.09,1.5h0a3.4,3.4,0,0,1,3.1-1.68c2.12,0,3.71,1.79,3.71,4.41,0,3.14-1.93,4.69-4,4.69a3.08,3.08,0,0,1-2.69-1.37h0v4.73h-1.57Zm1.57,2.32a2.7,2.7,0,0,0,.07.65,2.44,2.44,0,0,0,2.38,1.85c1.67,0,2.64-1.37,2.64-3.36,0-1.73-.92-3.23-2.59-3.23a2.49,2.49,0,0,0-2.39,1.95,2.32,2.32,0,0,0-.11.63Z" transform="translate(-23.41 -31.8)"/><path d="M595.18,333.62c0-1,0-1.91-.07-2.72h1.39l.07,1.73h0a2.64,2.64,0,0,1,2.43-1.91,3,3,0,0,1,.44,0v1.49a3,3,0,0,0-.54,0,2.21,2.21,0,0,0-2.13,2,5.74,5.74,0,0,0-.05.74v4.65h-1.59Z" transform="translate(-23.41 -31.8)"/><path d="M608.77,335.19a4.27,4.27,0,0,1-4.33,4.63,4.16,4.16,0,0,1-4.18-4.49,4.26,4.26,0,0,1,4.32-4.61A4.12,4.12,0,0,1,608.77,335.19Zm-6.89.09c0,1.91,1.08,3.35,2.63,3.35s2.64-1.43,2.64-3.39c0-1.47-.73-3.33-2.61-3.33S601.88,333.64,601.88,335.28Z" transform="translate(-23.41 -31.8)"/><path d="M617,339.31a6,6,0,0,1-2.5.51,4.14,4.14,0,0,1-4.34-4.45,4.45,4.45,0,0,1,4.68-4.65,5,5,0,0,1,2.2.47l-.36,1.21a3.85,3.85,0,0,0-1.84-.42,3,3,0,0,0-3.08,3.3,3,3,0,0,0,3,3.26,4.47,4.47,0,0,0,1.94-.42Z" transform="translate(-23.41 -31.8)"/><path d="M619.61,335.55a2.78,2.78,0,0,0,3,3,5.56,5.56,0,0,0,2.41-.45l.29,1.14a7.14,7.14,0,0,1-2.92.56,4.06,4.06,0,0,1-4.28-4.42c0-2.62,1.54-4.68,4.08-4.68,2.87,0,3.6,2.49,3.6,4.09a3.65,3.65,0,0,1,0,.74Zm4.64-1.14a2.24,2.24,0,0,0-2.19-2.55,2.59,2.59,0,0,0-2.43,2.55Z" transform="translate(-23.41 -31.8)"/><path d="M627.53,338a4.42,4.42,0,0,0,2.11.62c1.13,0,1.67-.56,1.67-1.3s-.45-1.15-1.6-1.58c-1.59-.58-2.33-1.43-2.33-2.47,0-1.4,1.16-2.56,3-2.56a4.14,4.14,0,0,1,2.13.54l-.38,1.16a3.32,3.32,0,0,0-1.78-.53c-.94,0-1.45.54-1.45,1.19s.51,1.05,1.64,1.5c1.5.55,2.29,1.31,2.29,2.61,0,1.55-1.21,2.63-3.24,2.63a5,5,0,0,1-2.45-.62Z" transform="translate(-23.41 -31.8)"/><path d="M634.66,338a4.41,4.41,0,0,0,2.1.62c1.14,0,1.68-.56,1.68-1.3s-.45-1.15-1.61-1.58c-1.58-.58-2.32-1.43-2.32-2.47,0-1.4,1.15-2.56,3-2.56a4.07,4.07,0,0,1,2.12.54l-.37,1.16a3.39,3.39,0,0,0-1.79-.53c-.93,0-1.44.54-1.44,1.19s.51,1.05,1.64,1.5c1.5.55,2.29,1.31,2.29,2.61,0,1.55-1.21,2.63-3.24,2.63a5,5,0,0,1-2.45-.62Z" transform="translate(-23.41 -31.8)"/><path d="M642.88,335.55a2.78,2.78,0,0,0,3,3,5.5,5.5,0,0,0,2.41-.45l.29,1.14a7.12,7.12,0,0,1-2.91.56,4.07,4.07,0,0,1-4.29-4.42c0-2.62,1.55-4.68,4.09-4.68,2.86,0,3.6,2.49,3.6,4.09a3.53,3.53,0,0,1-.06.74Zm4.65-1.14a2.25,2.25,0,0,0-2.2-2.55,2.6,2.6,0,0,0-2.43,2.55Z" transform="translate(-23.41 -31.8)"/><path d="M650.8,338a4.49,4.49,0,0,0,2.11.62c1.13,0,1.67-.56,1.67-1.3s-.45-1.15-1.6-1.58c-1.58-.58-2.32-1.43-2.32-2.47,0-1.4,1.15-2.56,3-2.56a4.1,4.1,0,0,1,2.12.54l-.38,1.16a3.32,3.32,0,0,0-1.78-.53c-.94,0-1.44.54-1.44,1.19s.5,1.05,1.64,1.5c1.49.55,2.28,1.31,2.28,2.61,0,1.55-1.2,2.63-3.24,2.63a5,5,0,0,1-2.45-.62Z" transform="translate(-23.41 -31.8)"/><path d="M701,335.55a2.78,2.78,0,0,0,3,3,5.5,5.5,0,0,0,2.41-.45l.29,1.14a7.08,7.08,0,0,1-2.91.56,4.07,4.07,0,0,1-4.29-4.42c0-2.62,1.55-4.68,4.09-4.68,2.86,0,3.6,2.49,3.6,4.09a4.57,4.57,0,0,1,0,.74Zm4.65-1.14a2.25,2.25,0,0,0-2.2-2.55,2.6,2.6,0,0,0-2.43,2.55Z" transform="translate(-23.41 -31.8)"/><path d="M708.55,338.68a1.07,1.07,0,0,1,1.08-1.13,1,1,0,0,1,1.06,1.13,1.07,1.07,0,0,1-1.1,1.14A1.06,1.06,0,0,1,708.55,338.68Z" transform="translate(-23.41 -31.8)"/><path d="M720.1,338.34c0,2-.41,3.22-1.24,4a4.8,4.8,0,0,1-3.19,1,5.58,5.58,0,0,1-2.89-.72l.39-1.22a4.84,4.84,0,0,0,2.56.7c1.62,0,2.81-.85,2.81-3.06v-1h0a3.09,3.09,0,0,1-2.77,1.46c-2.16,0-3.71-1.84-3.71-4.25,0-2.95,1.93-4.61,3.94-4.61a2.91,2.91,0,0,1,2.72,1.5h0l0-1.32h1.41c-.06.61-.08,1.34-.08,2.38Zm-1.58-4a2.13,2.13,0,0,0-.09-.7,2.26,2.26,0,0,0-2.22-1.69c-1.51,0-2.59,1.28-2.59,3.29,0,1.71.88,3.14,2.58,3.14a2.28,2.28,0,0,0,2.19-1.63,2.72,2.72,0,0,0,.13-.84Z" transform="translate(-23.41 -31.8)"/><path d="M732.74,339.31a6.08,6.08,0,0,1-2.5.51,4.14,4.14,0,0,1-4.34-4.45,4.44,4.44,0,0,1,4.68-4.65,5,5,0,0,1,2.19.47l-.36,1.21a3.8,3.8,0,0,0-1.83-.42,3,3,0,0,0-3.08,3.3,3,3,0,0,0,3,3.26,4.52,4.52,0,0,0,2-.42Z" transform="translate(-23.41 -31.8)"/><path d="M742.37,335.19a4.27,4.27,0,0,1-4.34,4.63,4.16,4.16,0,0,1-4.18-4.49,4.26,4.26,0,0,1,4.32-4.61A4.12,4.12,0,0,1,742.37,335.19Zm-6.9.09c0,1.91,1.08,3.35,2.63,3.35s2.65-1.43,2.65-3.39c0-1.47-.74-3.33-2.61-3.33S735.47,333.64,735.47,335.28Z" transform="translate(-23.41 -31.8)"/><path d="M745.93,334.9h0c.21-.31.5-.68.75-1l2.58-3h1.89l-3.35,3.59,3.84,5.13h-1.95l-3-4.18-.81.9v3.28h-1.56V326.83h1.56Z" transform="translate(-23.41 -31.8)"/><path d="M753.69,335.55a2.78,2.78,0,0,0,3,3,5.56,5.56,0,0,0,2.41-.45l.29,1.14a7.14,7.14,0,0,1-2.92.56,4.06,4.06,0,0,1-4.28-4.42c0-2.62,1.54-4.68,4.08-4.68,2.87,0,3.61,2.49,3.61,4.09a3.53,3.53,0,0,1-.06.74Zm4.64-1.14a2.24,2.24,0,0,0-2.19-2.55,2.59,2.59,0,0,0-2.43,2.55Z" transform="translate(-23.41 -31.8)"/><path d="M765.8,339.62v-7.51h-1.2V330.9h1.2v-.41a4.17,4.17,0,0,1,1-3,3,3,0,0,1,2.13-.81,3.56,3.56,0,0,1,1.35.25l-.22,1.22a2.26,2.26,0,0,0-1-.2c-1.35,0-1.69,1.17-1.69,2.52v.47h2.11v1.21h-2.11v7.51Z" transform="translate(-23.41 -31.8)"/><path d="M770.9,333.62c0-1,0-1.91-.08-2.72h1.39l.07,1.73h.06a2.63,2.63,0,0,1,2.43-1.91,2.86,2.86,0,0,1,.43,0v1.49a2.92,2.92,0,0,0-.54,0,2.19,2.19,0,0,0-2.12,2,4.35,4.35,0,0,0-.06.74v4.65H770.9Z" transform="translate(-23.41 -31.8)"/><path d="M784.49,335.19a4.27,4.27,0,0,1-4.34,4.63,4.16,4.16,0,0,1-4.18-4.49,4.26,4.26,0,0,1,4.32-4.61A4.12,4.12,0,0,1,784.49,335.19Zm-6.9.09c0,1.91,1.08,3.35,2.63,3.35s2.65-1.43,2.65-3.39c0-1.47-.74-3.33-2.61-3.33S777.59,333.64,777.59,335.28Z" transform="translate(-23.41 -31.8)"/><path d="M786.48,333.26c0-.92,0-1.64-.07-2.36h1.39l.07,1.43h.06a3,3,0,0,1,2.75-1.61,2.57,2.57,0,0,1,2.45,1.75h0a3.58,3.58,0,0,1,1-1.13,2.92,2.92,0,0,1,1.91-.62c1.17,0,2.88.76,2.88,3.78v5.12H797.4V334.7c0-1.69-.63-2.68-1.89-2.68a2.1,2.1,0,0,0-1.9,1.42,2.84,2.84,0,0,0-.12.79v5.39h-1.55V334.4c0-1.39-.61-2.38-1.82-2.38a2.37,2.37,0,0,0-2.09,2.36v5.24h-1.55Z" transform="translate(-23.41 -31.8)"/><path d="M811.52,339.31a6,6,0,0,1-2.5.51,4.14,4.14,0,0,1-4.34-4.45,4.45,4.45,0,0,1,4.68-4.65,5,5,0,0,1,2.2.47l-.36,1.21a3.85,3.85,0,0,0-1.84-.42,3,3,0,0,0-3.07,3.3,3,3,0,0,0,3,3.26,4.47,4.47,0,0,0,1.94-.42Z" transform="translate(-23.41 -31.8)"/><path d="M821.16,335.19a4.28,4.28,0,0,1-4.34,4.63,4.15,4.15,0,0,1-4.18-4.49,4.26,4.26,0,0,1,4.32-4.61A4.13,4.13,0,0,1,821.16,335.19Zm-6.9.09c0,1.91,1.08,3.35,2.63,3.35s2.64-1.43,2.64-3.39c0-1.47-.73-3.33-2.61-3.33S814.26,333.64,814.26,335.28Z" transform="translate(-23.41 -31.8)"/><path d="M824.72,334.9h0c.22-.31.51-.68.76-1l2.57-3H830l-3.34,3.59,3.83,5.13h-1.94l-3-4.18-.81.9v3.28h-1.57V326.83h1.57Z" transform="translate(-23.41 -31.8)"/><path d="M832.47,335.55a2.78,2.78,0,0,0,3,3,5.58,5.58,0,0,0,2.42-.45l.29,1.14a7.18,7.18,0,0,1-2.92.56A4.07,4.07,0,0,1,831,335.4c0-2.62,1.55-4.68,4.09-4.68,2.86,0,3.6,2.49,3.6,4.09a4.57,4.57,0,0,1,0,.74Zm4.65-1.14a2.24,2.24,0,0,0-2.2-2.55,2.6,2.6,0,0,0-2.43,2.55Z" transform="translate(-23.41 -31.8)"/><path d="M518.29,356.79a4.27,4.27,0,0,1-4.34,4.63,4.16,4.16,0,0,1-4.18-4.49,4.26,4.26,0,0,1,4.33-4.61A4.12,4.12,0,0,1,518.29,356.79Zm-6.9.09c0,1.91,1.08,3.35,2.63,3.35s2.65-1.43,2.65-3.39c0-1.47-.74-3.33-2.61-3.33S511.39,355.24,511.39,356.88Z" transform="translate(-23.41 -31.8)"/><path d="M520.77,352.5l1.71,4.88c.29.81.53,1.53.71,2.25h0c.2-.72.45-1.44.74-2.25l1.69-4.88h1.66l-3.42,8.72h-1.52l-3.31-8.72Z" transform="translate(-23.41 -31.8)"/><path d="M529.52,357.15a2.78,2.78,0,0,0,3,3,5.53,5.53,0,0,0,2.41-.45l.29,1.14a7.14,7.14,0,0,1-2.92.56A4.06,4.06,0,0,1,528,357c0-2.62,1.55-4.68,4.09-4.68,2.86,0,3.6,2.49,3.6,4.09a3.53,3.53,0,0,1-.06.74Zm4.65-1.14a2.25,2.25,0,0,0-2.2-2.55,2.59,2.59,0,0,0-2.43,2.55Z" transform="translate(-23.41 -31.8)"/><path d="M537.66,354.86c0-.92,0-1.64-.08-2.36H539l.09,1.44h0a3.21,3.21,0,0,1,2.88-1.62c1.2,0,3.07.72,3.07,3.71v5.19h-1.58v-5c0-1.4-.52-2.57-2-2.57a2.29,2.29,0,0,0-2.12,1.62,2.35,2.35,0,0,0-.11.74v5.24h-1.58Z" transform="translate(-23.41 -31.8)"/><path d="M547.43,359.61a4.45,4.45,0,0,0,2.11.62c1.13,0,1.67-.56,1.67-1.3s-.45-1.15-1.6-1.58c-1.59-.58-2.32-1.43-2.32-2.47a2.7,2.7,0,0,1,3-2.56,4.11,4.11,0,0,1,2.13.54L552,354a3.32,3.32,0,0,0-1.78-.53c-.94,0-1.44.54-1.44,1.19s.5,1.05,1.64,1.5c1.49.55,2.28,1.31,2.28,2.61,0,1.55-1.2,2.63-3.24,2.63a5,5,0,0,1-2.45-.62Z" transform="translate(-23.41 -31.8)"/><path d="M565.88,358.82c0,.92,0,1.71.07,2.4h-1.4l-.09-1.42h0a3.25,3.25,0,0,1-2.88,1.62c-1.37,0-3-.78-3-3.82v-5.1h1.58v4.81c0,1.66.52,2.79,1.94,2.79a2.27,2.27,0,0,0,2.09-1.46,2.13,2.13,0,0,0,.15-.81V352.5h1.58Z" transform="translate(-23.41 -31.8)"/><path d="M568.29,359.61a4.49,4.49,0,0,0,2.11.62c1.13,0,1.67-.56,1.67-1.3s-.45-1.15-1.6-1.58c-1.58-.58-2.32-1.43-2.32-2.47a2.7,2.7,0,0,1,3-2.56,4.11,4.11,0,0,1,2.13.54L572.9,354a3.32,3.32,0,0,0-1.78-.53c-.94,0-1.44.54-1.44,1.19s.5,1.05,1.64,1.5c1.49.55,2.28,1.31,2.28,2.61,0,1.55-1.2,2.63-3.24,2.63a5,5,0,0,1-2.45-.62Z" transform="translate(-23.41 -31.8)"/><path d="M576.52,357.15a2.78,2.78,0,0,0,3,3,5.56,5.56,0,0,0,2.41-.45l.29,1.14a7.14,7.14,0,0,1-2.92.56A4.06,4.06,0,0,1,575,357c0-2.62,1.54-4.68,4.08-4.68,2.87,0,3.6,2.49,3.6,4.09a3.65,3.65,0,0,1-.05.74Zm4.64-1.14a2.24,2.24,0,0,0-2.19-2.55,2.59,2.59,0,0,0-2.43,2.55Z" transform="translate(-23.41 -31.8)"/><path d="M592.16,348.43V359c0,.77,0,1.65.07,2.25h-1.4l-.07-1.51h-.06a3.14,3.14,0,0,1-2.93,1.71c-2.11,0-3.75-1.79-3.75-4.43,0-2.9,1.8-4.67,3.91-4.67a2.92,2.92,0,0,1,2.63,1.32h0v-5.21Zm-1.56,7.62a2.56,2.56,0,0,0-.08-.67,2.31,2.31,0,0,0-2.28-1.81c-1.64,0-2.61,1.44-2.61,3.34s.88,3.23,2.57,3.23a2.39,2.39,0,0,0,2.32-1.89,2.56,2.56,0,0,0,.08-.69Z" transform="translate(-23.41 -31.8)"/><path d="M598.62,354.86c0-.92,0-1.64-.07-2.36h1.39l.07,1.43h0a3,3,0,0,1,2.76-1.61,2.57,2.57,0,0,1,2.45,1.75h0a3.61,3.61,0,0,1,1-1.14,3,3,0,0,1,1.91-.61c1.17,0,2.88.76,2.88,3.78v5.12h-1.55V356.3c0-1.69-.63-2.68-1.89-2.68a2.09,2.09,0,0,0-1.89,1.42,2.84,2.84,0,0,0-.12.79v5.39h-1.55V356c0-1.39-.61-2.38-1.82-2.38a2.37,2.37,0,0,0-2.09,2.36v5.24h-1.55Z" transform="translate(-23.41 -31.8)"/><path d="M621.52,356.79a4.27,4.27,0,0,1-4.34,4.63,4.16,4.16,0,0,1-4.18-4.49,4.26,4.26,0,0,1,4.32-4.61A4.12,4.12,0,0,1,621.52,356.79Zm-6.9.09c0,1.91,1.08,3.35,2.63,3.35s2.65-1.43,2.65-3.39c0-1.47-.74-3.33-2.61-3.33S614.62,355.24,614.62,356.88Z" transform="translate(-23.41 -31.8)"/><path d="M623.3,359.61a4.45,4.45,0,0,0,2.11.62c1.13,0,1.67-.56,1.67-1.3s-.45-1.15-1.6-1.58c-1.59-.58-2.32-1.43-2.32-2.47a2.7,2.7,0,0,1,3-2.56,4.11,4.11,0,0,1,2.13.54l-.38,1.16a3.32,3.32,0,0,0-1.78-.53c-.94,0-1.44.54-1.44,1.19s.5,1.05,1.63,1.5c1.5.55,2.29,1.31,2.29,2.61,0,1.55-1.21,2.63-3.24,2.63a5,5,0,0,1-2.45-.62Z" transform="translate(-23.41 -31.8)"/><path d="M632.55,350.41v2.09h2.27v1.21h-2.27v4.7c0,1.08.31,1.69,1.19,1.69a2.73,2.73,0,0,0,.92-.11l.07,1.21a4.2,4.2,0,0,1-1.4.22,2.26,2.26,0,0,1-1.71-.67,3.37,3.37,0,0,1-.62-2.29v-4.75h-1.35V352.5H631v-1.62Z" transform="translate(-23.41 -31.8)"/><path d="M636.6,348.43h1.59v12.79H636.6Z" transform="translate(-23.41 -31.8)"/><path d="M641.43,352.5l1.89,5.15c.21.58.43,1.26.57,1.78h0c.16-.52.34-1.18.56-1.81l1.73-5.12h1.67l-2.38,6.21c-1.13,3-1.91,4.51-3,5.46a4.39,4.39,0,0,1-1.94,1l-.4-1.32a4,4,0,0,0,1.39-.77,5,5,0,0,0,1.33-1.76A1.3,1.3,0,0,0,643,361a1.16,1.16,0,0,0-.13-.42l-3.2-8Z" transform="translate(-23.41 -31.8)"/><path d="M654.91,350.05a1,1,0,0,1-1,1,.93.93,0,0,1-.95-1,1,1,0,1,1,2,0Zm-1.77,11.17V352.5h1.59v8.72Z" transform="translate(-23.41 -31.8)"/><path d="M657.36,354.86c0-.92,0-1.64-.08-2.36h1.41l.09,1.44h0a3.24,3.24,0,0,1,2.89-1.62c1.2,0,3.07.72,3.07,3.71v5.19h-1.58v-5c0-1.4-.52-2.57-2-2.57a2.29,2.29,0,0,0-2.12,1.62,2.35,2.35,0,0,0-.11.74v5.24h-1.58Z" transform="translate(-23.41 -31.8)"/><path d="M671.16,348.43h1.57v5.48h0a3.23,3.23,0,0,1,3-1.59c2.18,0,3.7,1.8,3.7,4.43,0,3.12-2,4.67-3.93,4.67a3.16,3.16,0,0,1-2.93-1.62h0l-.09,1.42h-1.35c0-.6.07-1.48.07-2.25Zm1.57,9.29a2.2,2.2,0,0,0,.07.58,2.42,2.42,0,0,0,2.38,1.85c1.67,0,2.64-1.35,2.64-3.34,0-1.75-.9-3.24-2.61-3.24a2.53,2.53,0,0,0-2.39,1.94,2.26,2.26,0,0,0-.09.67Z" transform="translate(-23.41 -31.8)"/><path d="M681.4,348.43H683v12.79H681.4Z" transform="translate(-23.41 -31.8)"/><path d="M691.77,359.13a14.72,14.72,0,0,0,.13,2.09h-1.42l-.13-1.1h-.05a3.28,3.28,0,0,1-2.67,1.3,2.49,2.49,0,0,1-2.66-2.51c0-2.1,1.87-3.26,5.24-3.24v-.18a1.79,1.79,0,0,0-2-2,4.24,4.24,0,0,0-2.29.65l-.36-1.06a5.64,5.64,0,0,1,2.88-.76c2.67,0,3.31,1.82,3.31,3.55Zm-1.53-2.36c-1.73,0-3.69.27-3.69,2a1.4,1.4,0,0,0,1.48,1.52,2.2,2.2,0,0,0,2.14-1.46,2,2,0,0,0,.07-.51Z" transform="translate(-23.41 -31.8)"/><path d="M694.11,359.61a4.49,4.49,0,0,0,2.11.62c1.13,0,1.67-.56,1.67-1.3s-.45-1.15-1.6-1.58c-1.58-.58-2.32-1.43-2.32-2.47a2.7,2.7,0,0,1,3-2.56,4.11,4.11,0,0,1,2.13.54l-.38,1.16a3.32,3.32,0,0,0-1.78-.53c-.94,0-1.44.54-1.44,1.19s.5,1.05,1.64,1.5c1.49.55,2.28,1.31,2.28,2.61,0,1.55-1.2,2.63-3.24,2.63a5,5,0,0,1-2.45-.62Z" transform="translate(-23.41 -31.8)"/><path d="M703.36,350.41v2.09h2.27v1.21h-2.27v4.7c0,1.08.31,1.69,1.19,1.69a2.73,2.73,0,0,0,.92-.11l.07,1.21a4.2,4.2,0,0,1-1.4.22,2.26,2.26,0,0,1-1.71-.67,3.37,3.37,0,0,1-.62-2.29v-4.75h-1.34V352.5h1.34v-1.62Z" transform="translate(-23.41 -31.8)"/><path d="M711.39,361.22v-7.51h-1.21V352.5h1.21v-.41a4.17,4.17,0,0,1,1-3,3,3,0,0,1,2.12-.81,3.48,3.48,0,0,1,1.35.25l-.21,1.22a2.29,2.29,0,0,0-1-.2c-1.35,0-1.69,1.17-1.69,2.52v.47h2.1v1.21H713v7.51Z" transform="translate(-23.41 -31.8)"/><path d="M723.78,358.82c0,.92,0,1.71.07,2.4h-1.41l-.09-1.42h0a3.26,3.26,0,0,1-2.88,1.62c-1.37,0-3-.78-3-3.82v-5.1H718v4.81c0,1.66.53,2.79,2,2.79a2.29,2.29,0,0,0,2.09-1.46,2.14,2.14,0,0,0,.14-.81V352.5h1.59Z" transform="translate(-23.41 -31.8)"/><path d="M726.4,355.22c0-1,0-1.91-.07-2.72h1.39l.07,1.73h.05a2.64,2.64,0,0,1,2.43-1.91,3,3,0,0,1,.44,0v1.49a3,3,0,0,0-.54,0,2.21,2.21,0,0,0-2.13,2,5.74,5.74,0,0,0,0,.74v4.65H726.4Z" transform="translate(-23.41 -31.8)"/><path d="M732.36,354.86c0-.92,0-1.64-.07-2.36h1.4l.09,1.44h0a3.22,3.22,0,0,1,2.88-1.62c1.21,0,3.08.72,3.08,3.71v5.19h-1.59v-5c0-1.4-.52-2.57-2-2.57a2.29,2.29,0,0,0-2.13,1.62,2.35,2.35,0,0,0-.11.74v5.24h-1.58Z" transform="translate(-23.41 -31.8)"/><path d="M748.47,359.13a14.72,14.72,0,0,0,.13,2.09h-1.42l-.13-1.1h0a3.28,3.28,0,0,1-2.67,1.3,2.49,2.49,0,0,1-2.66-2.51c0-2.1,1.87-3.26,5.23-3.24v-.18a1.78,1.78,0,0,0-2-2,4.23,4.23,0,0,0-2.28.65l-.36-1.06a5.64,5.64,0,0,1,2.88-.76c2.66,0,3.31,1.82,3.31,3.55Zm-1.53-2.36c-1.73,0-3.69.27-3.69,2a1.39,1.39,0,0,0,1.48,1.52,2.2,2.2,0,0,0,2.14-1.46,2,2,0,0,0,.07-.51Z" transform="translate(-23.41 -31.8)"/><path d="M757.24,360.91a6.14,6.14,0,0,1-2.51.51,4.15,4.15,0,0,1-4.34-4.45,4.45,4.45,0,0,1,4.69-4.65,5,5,0,0,1,2.19.47l-.36,1.21a3.8,3.8,0,0,0-1.83-.42,3,3,0,0,0-3.08,3.3,3,3,0,0,0,3,3.26,4.52,4.52,0,0,0,2-.42Z" transform="translate(-23.41 -31.8)"/><path d="M759.86,357.15a2.78,2.78,0,0,0,3,3,5.58,5.58,0,0,0,2.42-.45l.28,1.14a7.08,7.08,0,0,1-2.91.56,4.07,4.07,0,0,1-4.29-4.42c0-2.62,1.55-4.68,4.09-4.68,2.86,0,3.6,2.49,3.6,4.09a4.57,4.57,0,0,1,0,.74Zm4.65-1.14a2.24,2.24,0,0,0-2.2-2.55,2.6,2.6,0,0,0-2.43,2.55Z" transform="translate(-23.41 -31.8)"/><path d="M767.78,359.61a4.49,4.49,0,0,0,2.11.62c1.13,0,1.67-.56,1.67-1.3s-.45-1.15-1.6-1.58c-1.58-.58-2.32-1.43-2.32-2.47,0-1.4,1.15-2.56,3-2.56a4.1,4.1,0,0,1,2.12.54l-.38,1.16a3.32,3.32,0,0,0-1.78-.53c-.94,0-1.44.54-1.44,1.19s.5,1.05,1.64,1.5c1.49.55,2.29,1.31,2.29,2.61,0,1.55-1.21,2.63-3.25,2.63a4.94,4.94,0,0,1-2.44-.62Z" transform="translate(-23.41 -31.8)"/></g><g id="Calque_7" data-name="Calque 7"><g id="Layer_2" data-name="Layer 2"><path d="M453.26,33a1,1,0,0,0,0,1.41l4.6,4.59H434.31a1,1,0,0,0,0,2h23.52l-4.57,4.57a1,1,0,0,0,0,1.43,1,1,0,0,0,1.42,0L461,40.62a.9.9,0,0,0,0-1.27L454.68,33a1,1,0,0,0-1.41,0Z" transform="translate(-23.41 -31.8)"/></g><g id="Layer_2-2" data-name="Layer 2"><path d="M612,240.75a1,1,0,0,0,0,1.41l4.6,4.59H593a1,1,0,0,0,0,2h23.52L612,253.32a1,1,0,0,0,0,1.42,1,1,0,0,0,1.43,0l6.36-6.37a.9.9,0,0,0,0-1.27l-6.36-6.36a1,1,0,0,0-1.42,0Z" transform="translate(-23.41 -31.8)"/></g><g id="Layer_2-3" data-name="Layer 2"><path d="M633.91,284.15a1,1,0,0,0,0,1.41l4.6,4.59H615a1,1,0,0,0,0,2h23.52l-4.57,4.57a1,1,0,1,0,1.42,1.43l6.36-6.37a.9.9,0,0,0,0-1.27l-6.36-6.36a1,1,0,0,0-1.42,0Z" transform="translate(-23.41 -31.8)"/></g><g id="Layer_2-4" data-name="Layer 2"><path d="M683.39,327.29a1,1,0,0,0,0,1.41l4.6,4.59H664.44a1,1,0,0,0,0,2H688l-4.57,4.57a1,1,0,0,0,0,1.42,1,1,0,0,0,1.43,0l6.36-6.37a.9.9,0,0,0,0-1.27l-6.36-6.36a1,1,0,0,0-1.42,0Z" transform="translate(-23.41 -31.8)"/></g></g><g id="Calque_5" data-name="Calque 5"><polygon points="212.44 25.98 212.44 20.46 137.44 20.46 137.44 69.46 130.44 69.46 130.44 13.46 212.44 13.46 212.44 7.98 233.94 16.98 212.44 25.98"/><polygon points="212.36 192.39 212.36 186.91 130.36 186.91 130.36 130.91 137.36 130.91 137.36 179.91 212.36 179.91 212.36 174.39 233.86 183.39 212.36 192.39"/></g><g id="Calque_6" data-name="Calque 6"><polygon points="457.96 320.47 448.96 341.97 439.96 320.47 445.48 320.47 445.48 185.51 452.48 185.51 452.48 320.47 457.96 320.47"/></g></svg>