<svg xmlns="http://www.w3.org/2000/svg" viewBox="0 0 623.58 623.58"><defs><style>.cls-1{fill:#fff;}</style></defs><g id="Vrstva_2" data-name="Vrstva 2"><g id="Vrstva_2-2" data-name="Vrstva 2"><path class="cls-1" d="M497,623.58H140.72A91.44,91.44,0,0,1,87,606.35a87.84,87.84,0,0,1-32.86-45.22L2,395.34a41.58,41.58,0,0,1,6.25-37.43A43.78,43.78,0,0,1,43.48,340.2H580.15a43.47,43.47,0,0,1,34.21,16.36,41.79,41.79,0,0,1,8.15,35.54L585.38,554.45a88.47,88.47,0,0,1-31.88,49.81A92.33,92.33,0,0,1,497,623.58ZM43.48,368.46A15.25,15.25,0,0,0,31,374.63,13.47,13.47,0,0,0,29,386.86L81.09,552.65c8,25.52,32,42.67,59.63,42.67H497A63.94,63.94,0,0,0,536.13,582a60.09,60.09,0,0,0,21.7-33.83L595,385.8a13.55,13.55,0,0,0-2.7-11.63,15.35,15.35,0,0,0-12.11-5.71Z"/><path class="cls-1" d="M602.36,446.41H35.43a14.13,14.13,0,1,1,0-28.26H602.36a14.13,14.13,0,0,1,0,28.26Z"/><path class="cls-1" d="M581.1,524.37H56.69a14.13,14.13,0,0,1,0-28.26H581.1a14.13,14.13,0,0,1,0,28.26Z"/><path class="cls-1" d="M177.15,623.58a14.14,14.14,0,0,1-13.92-11.81L120.71,356.65A14.13,14.13,0,1,1,148.58,352L191.1,607.13a14.13,14.13,0,0,1-11.61,16.26A14.38,14.38,0,0,1,177.15,623.58Z"/><path class="cls-1" d="M311.81,623.58a14.13,14.13,0,0,1-14.13-14.13V354.33a14.13,14.13,0,0,1,28.26,0V609.45A14.13,14.13,0,0,1,311.81,623.58Z"/><path class="cls-1" d="M446.47,623.58a14.38,14.38,0,0,1-2.34-.19,14.14,14.14,0,0,1-11.61-16.26L475,352a14.13,14.13,0,1,1,27.87,4.64L460.39,611.77A14.14,14.14,0,0,1,446.47,623.58Z"/><path class="cls-1" d="M253.77,368.89A14.17,14.17,0,0,1,247,342.26l293.65-159c22.9-12.4,51.31-5,63.33,16.55a43.23,43.23,0,0,1,3.65,33.44A48.71,48.71,0,0,1,584,262.1l-187.32,101a14.27,14.27,0,0,1-6.31,1.7l-136.16,4.05Zm136.16-18.22h0ZM564.38,205.5a21.4,21.4,0,0,0-10.21,2.64L313,338.78l73.19-2.18,184.37-99.45a20.13,20.13,0,0,0,9.91-11.87,15,15,0,0,0-1.17-11.7C576.34,208.37,570.6,205.5,564.38,205.5Z"/><path class="cls-1" d="M85,233.86a85.14,85.14,0,0,1-85-85V70.87A14.17,14.17,0,0,1,14.17,56.69H155.9a14.18,14.18,0,0,1,14.18,14.18v77.95A85.14,85.14,0,0,1,85,233.86ZM28.35,85v63.78A56.75,56.75,0,0,0,85,205.51h0a56.75,56.75,0,0,0,56.69-56.69V85Z"/><path class="cls-1" d="M49.61,78A14.17,14.17,0,0,1,35.43,63.78V14.17a14.18,14.18,0,0,1,28.35,0V63.78A14.17,14.17,0,0,1,49.61,78Z"/><path class="cls-1" d="M120.47,78A14.16,14.16,0,0,1,106.3,63.78V14.17a14.17,14.17,0,1,1,28.34,0V63.78A14.16,14.16,0,0,1,120.47,78Z"/><path class="cls-1" d="M155.9,127.56H14.17a14.18,14.18,0,0,1,0-28.35H155.9a14.18,14.18,0,1,1,0,28.35Z"/><path class="cls-1" d="M177.17,368.51a14.4,14.4,0,0,1-4.17-.63c-42-12.92-73-42.81-89.68-86.44C71,249.25,70.87,220.88,70.87,219.69a14.17,14.17,0,0,1,28.34,0,164.4,164.4,0,0,0,10.9,52.47c13.7,35.23,37.67,58.33,71.22,68.65a14.18,14.18,0,0,1-4.16,27.73Z"/></g></g></svg>