<?xml version="1.0" encoding="utf-8"?>
<!-- Generator: Adobe Illustrator 25.2.3, SVG Export Plug-In . SVG Version: 6.00 Build 0)  -->
<svg version="1.1" id="Calque_1" xmlns="http://www.w3.org/2000/svg" xmlns:xlink="http://www.w3.org/1999/xlink" x="0px" y="0px"
	 viewBox="0 0 623.6 623.6" style="enable-background:new 0 0 623.6 623.6;" xml:space="preserve">
<style type="text/css">
	.st0{fill:#318380;}
</style>
<g id="Vrstva_2">
	<g id="Vrstva_2-2">
		<path class="st0" d="M497,623.6H140.7c-19.3,0.1-38.1-6-53.7-17.2c-15.6-11.1-27.1-27-32.9-45.2L2,395.3
			c-4.1-12.8-1.7-26.7,6.2-37.4c8.3-11.2,21.3-17.7,35.2-17.7h536.7c13.3-0.1,25.9,6,34.2,16.4c8,10,11,23.1,8.2,35.5l-37.1,162.4
			c-4.6,19.8-15.9,37.4-31.9,49.8C537.3,616.8,517.5,623.6,497,623.6z M43.5,368.5c-4.9-0.1-9.6,2.2-12.5,6.2
			c-2.6,3.5-3.4,8.1-2,12.2l52.1,165.8c8,25.5,32,42.7,59.6,42.7H497c14.2,0,27.9-4.7,39.1-13.3c10.9-8.5,18.6-20.4,21.7-33.8
			L595,385.8c0.9-4.1,0-8.4-2.7-11.6c-3-3.7-7.4-5.8-12.1-5.7L43.5,368.5L43.5,368.5z"/>
		<path class="st0" d="M602.4,446.4h-567c-7.8,0-14.1-6.3-14.1-14.1s6.3-14.1,14.1-14.1h566.9c7.8,0,14.1,6.3,14.1,14.1
			S610.2,446.4,602.4,446.4z"/>
		<path class="st0" d="M581.1,524.4H56.7c-7.8,0-14.1-6.3-14.1-14.1s6.3-14.1,14.1-14.1h524.4c7.8,0,14.1,6.3,14.1,14.1
			S588.9,524.4,581.1,524.4z"/>
		<path class="st0" d="M177.1,623.6c-6.9,0-12.8-5-13.9-11.8l-42.5-255.1c-1.4-7.7,3.6-15,11.3-16.5c7.7-1.4,15,3.6,16.5,11.3
			c0,0.2,0.1,0.3,0.1,0.5l42.5,255.1c1.3,7.7-3.9,15-11.6,16.3C178.7,623.5,177.9,623.6,177.1,623.6z"/>
		<path class="st0" d="M311.8,623.6c-7.8,0-14.1-6.3-14.1-14.1l0,0V354.3c0-7.8,6.3-14.1,14.1-14.1s14.1,6.3,14.1,14.1v255.1
			C325.9,617.3,319.6,623.6,311.8,623.6L311.8,623.6z"/>
		<path class="st0" d="M446.5,623.6c-0.8,0-1.6-0.1-2.3-0.2c-7.7-1.3-12.9-8.6-11.6-16.3L475,352c1.1-7.7,8.3-13.1,16-12
			s13.1,8.3,12,16c0,0.2-0.1,0.4-0.1,0.6l-42.5,255.1C459.3,618.6,453.4,623.6,446.5,623.6z"/>
		<path class="st0" d="M253.8,368.9c-7.8,0-14.2-6.3-14.2-14.1c0-5.2,2.8-10,7.4-12.5l293.7-159c22.9-12.4,51.3-5,63.3,16.6
			c5.7,10.2,7,22.3,3.7,33.4c-3.7,12.4-12.2,22.7-23.6,28.8l-187.3,101c-1.9,1-4.1,1.6-6.3,1.7l-136.2,4L253.8,368.9z M389.9,350.7
			L389.9,350.7z M564.4,205.5c-3.6,0-7.1,0.9-10.2,2.6L313,338.8l73.2-2.2l184.4-99.4c4.8-2.5,8.3-6.8,9.9-11.9
			c1.2-3.9,0.8-8.1-1.2-11.7C576.3,208.4,570.6,205.5,564.4,205.5z"/>
		<path class="st0" d="M85,233.9c-46.9-0.1-84.9-38.1-85-85v-78C0,63,6.3,56.7,14.2,56.7l0,0h141.7c7.8,0,14.2,6.3,14.2,14.2v77.9
			C170,195.8,132,233.8,85,233.9z M28.4,85v63.8c0,31.3,25.4,56.7,56.7,56.7l0,0c31.3,0,56.7-25.4,56.7-56.7V85H28.4z"/>
		<path class="st0" d="M49.6,78c-7.8,0-14.2-6.3-14.2-14.2c0,0,0,0,0-0.1V14.2c0.2-7.8,6.7-14,14.6-13.8c7.5,0.2,13.6,6.3,13.8,13.8
			v49.6C63.8,71.6,57.5,78,49.6,78L49.6,78z"/>
		<path class="st0" d="M120.5,78c-7.8,0-14.2-6.3-14.2-14.1c0,0,0,0,0-0.1V14.2c0-7.8,6.3-14.2,14.2-14.2s14.2,6.3,14.2,14.2l0,0
			v49.6C134.7,71.6,128.4,78,120.5,78L120.5,78z"/>
		<path class="st0" d="M155.9,127.6H14.2c-7.8-0.2-14-6.7-13.8-14.6c0.2-7.5,6.3-13.6,13.8-13.8h141.7c7.8-0.2,14.3,6,14.6,13.8
			c0.2,7.8-6,14.3-13.8,14.6C156.4,127.6,156.2,127.6,155.9,127.6z"/>
		<path class="st0" d="M177.2,368.5c-1.4,0-2.8-0.2-4.2-0.6c-42-12.9-73-42.8-89.7-86.4c-12.3-32.2-12.4-60.6-12.4-61.8
			c0-7.8,6.3-14.2,14.2-14.2s14.2,6.3,14.2,14.2c0.7,18,4.4,35.7,10.9,52.5c13.7,35.2,37.7,58.3,71.2,68.6
			c7.5,2.3,11.7,10.2,9.4,17.7C188.9,364.5,183.4,368.5,177.2,368.5L177.2,368.5z"/>
	</g>
</g>
</svg>
