<?xml version="1.0" encoding="utf-8"?>
<!-- Generator: Adobe Illustrator 20.1.0, SVG Export Plug-In . SVG Version: 6.00 Build 0)  -->
<svg version="1.1" id="Layer_1" xmlns="http://www.w3.org/2000/svg" xmlns:xlink="http://www.w3.org/1999/xlink" x="0px" y="0px"
	 viewBox="0 0 85 85" style="enable-background:new 0 0 85 85;" xml:space="preserve">
<style type="text/css">
	.st0{fill:#164194;}
	.st1{fill:#D8E6F7;}
	.st2{fill:#EA5B0C;stroke:#FFFFFF;stroke-miterlimit:10;}
	.st3{fill:#F7B385;}
	.st4{fill:#00A3A6;}
	.st5{fill:#FFFFFF;}
	.st6{fill:#97D2D4;}
	.st7{fill:#EA5B0C;}
	.st8{fill:#F7B385;stroke:#FFFFFF;stroke-miterlimit:10;}
	.st9{fill:#DE3F0F;}
</style>
<g>
	<path class="st0" d="M57.6,72.5v-27l-9.1,8.6h-1.3v-8.6l-14.8,7v-7L23.2,54l-0.1-4v-9.5h-5.2v14.6l-1,17.2L57.6,72.5z M46,61.7h7.7
		v4.5H46V61.7z M23.7,61.7h7.5v4.5h-7.5V61.7z M35.2,61.7h7.5v4.5h-7.5C35.2,66.2,35.2,61.7,35.2,61.7z"/>
	<path class="st1" d="M20.1,40.2c0.8,0,0.1,0,0.3,0l0,0l0,0l0,0v-0.1c0-0.1,0-0.1,0-0.1c0-0.1,0.1-0.1,0.1-0.3
		c0.1-0.6,0.6-1,1.1-1.3c0.3-0.1,0.7-0.3,1-0.3c0.1,0,0.1,0,0.3,0h0.3l0.7,0.1l0.7,0.1h-0.3l-0.8,0.1c-0.3,0.1-0.7,0.1-0.9,0.3
		c-0.3,0.1-0.5,0.4-0.8,0.7c-0.1,0.1-0.1,0.3-0.1,0.5c0,0.1,0,0.1,0,0.3v0.1v0.1v0.1l0,0c0.1,0-0.1,0,0.1,0c0.4,0,0.1,0,0.1,0l0,0
		l0,0l0,0l0,0v-0.1c0-0.1,0.1-0.1,0.1-0.1c0.1-0.1,0.1-0.1,0.3-0.3c0.1-0.1,0.3-0.1,0.6-0.3c0.1,0,0.4,0,0.7,0l0.8,0.1l0.8,0.1
		l0.4,0.1c0.9,0.1,1.7,0,2.6-0.4c0.1-0.1,0.1-0.1,0.3-0.1l0.1-0.1l0.1-0.1c0.1,0,0.1-0.1,0.1-0.1c0.1-0.1,0.3-0.1,0.4-0.1
		c0.4,0,0.8,0,1.2,0.1l1.6,0.1c0.6,0.1,1.2,0,1.7-0.3c0.8-0.4,1.1-1.5,0.8-2.2c-0.1-0.3-0.4-0.6-0.8-0.8c-0.1-0.1-0.4-0.1-0.7-0.1
		h0.1c0.1,0,0.3,0,0.4,0l0.8,0.1c1.9,0.1,3.8,0.3,5.6,0.7c0.3,0.1,0.7,0.1,1,0c1.5-0.3,2.4-1.7,2.1-3.1c-0.3-1.5-1.7-2.4-3.1-2.1
		l0,0c-1.9,0.3-3.8,0.5-5.6,0.7L33.6,32c-0.3,0-0.7,0.1-1,0.1c-0.7,0.1-1.3,0.4-1.9,0.8c-0.6,0.3-1,0.8-1.5,1.2
		c-0.1,0-0.3,0.1-0.3,0.3H29l-0.1,0.1l-0.1,0.1c-0.1,0.1-0.1,0.3-0.3,0.4c-0.5,0.5-1.1,0.8-1.7,1c-0.1,0-0.1,0-0.3,0.1h-0.3
		l-0.7,0.1l-1.5,0.1l-0.7,0.1c-0.1,0-0.3,0-0.4,0.1c-0.1,0-0.3,0.1-0.4,0.1c-0.6,0.1-1.1,0.4-1.5,0.8c-0.4,0.3-0.8,0.8-0.9,1.3
		c0,0.4-0.1,0.6-0.2,0.9c0,0.1,0,0.3,0,0.4c0,0.1,0,0.1,0,0.1v0.1C19.9,40.2,19.3,40.2,20.1,40.2z"/>
</g>
<g>
	<path class="st2" d="M68.6,37L68.6,37c1.7-2.9,2.7-6.2,2.7-9.8c0-10.4-8.5-18.9-18.9-18.9s-18.9,8.5-18.9,18.9c0,3.6,1,6.9,2.7,9.8
		l0,0l0,0c0.7,1.1,1.5,2.2,2.4,3.1c2.7,3.7,6.5,10.3,6.9,16.1h6.9h6.9c0.4-5.8,4.2-12.3,6.9-16.1C67.2,39.2,67.9,38.1,68.6,37
		L68.6,37z"/>
	<path class="st2" d="M58.1,59.8H46.8c-0.7,0-1.3-0.6-1.3-1.3V58c0-0.7,0.6-1.3,1.3-1.3H58c0.7,0,1.3,0.6,1.3,1.3v0.5
		C59.4,59.2,58.8,59.8,58.1,59.8z"/>
	<path class="st2" d="M58.1,63.4H46.8c-0.7,0-1.3-0.6-1.3-1.3v-0.5c0-0.7,0.6-1.3,1.3-1.3H58c0.7,0,1.3,0.6,1.3,1.3v0.5
		C59.4,62.8,58.8,63.4,58.1,63.4z"/>
	<path class="st2" d="M58.1,67.1H46.8c-0.7,0-1.3-0.6-1.3-1.3v-0.5c0-0.7,0.6-1.3,1.3-1.3H58c0.7,0,1.3,0.6,1.3,1.3v0.5
		C59.4,66.5,58.8,67.1,58.1,67.1z"/>
	<path class="st3" d="M43.9,13.3c0,0-5.2,3.4-5.9,8.1l1.9,0.1c0,0,1.3-5.4,5.2-7.3L43.9,13.3z"/>
</g>
</svg>
