<?xml version="1.0" encoding="utf-8"?>
<!-- Generator: Adobe Illustrator 20.1.0, SVG Export Plug-In . SVG Version: 6.00 Build 0)  -->
<svg version="1.1" id="Layer_1" xmlns="http://www.w3.org/2000/svg" xmlns:xlink="http://www.w3.org/1999/xlink" x="0px" y="0px"
	 viewBox="0 0 85 85" style="enable-background:new 0 0 85 85;" xml:space="preserve">
<style type="text/css">
	.st0{fill:#164194;}
	.st1{fill:#D8E6F7;}
	.st2{fill:#EA5B0C;stroke:#FFFFFF;stroke-miterlimit:10;}
	.st3{fill:#F7B385;}
	.st4{fill:#00A3A6;}
	.st5{fill:#FFFFFF;}
	.st6{fill:#97D2D4;}
	.st7{fill:#EA5B0C;}
	.st8{fill:#F7B385;stroke:#FFFFFF;stroke-miterlimit:10;}
	.st9{fill:#DE3F0F;}
</style>
<g>
	<path class="st0" d="M58,71.6v-27L49,53.2h-1.3v-8.6l-14.8,7v-7l-9.3,8.6l-0.1-4v-9.5h-5.2v14.6l-1,17.2L58,71.6z M46.4,60.8h7.7
		v4.5h-7.7V60.8z M24.2,60.8h7.5v4.5h-7.5V60.8z M35.7,60.8h7.5v4.5h-7.5C35.7,65.3,35.7,60.8,35.7,60.8z"/>
	<path class="st1" d="M20.5,39.4c0.8,0,0.1,0,0.3,0l0,0l0,0l0,0v-0.1c0-0.1,0-0.1,0-0.1c0-0.1,0.1-0.1,0.1-0.3
		c0.1-0.6,0.6-1,1.1-1.3c0.3-0.1,0.7-0.3,1-0.3c0.1,0,0.1,0,0.3,0h0.3l0.7,0.1l0.7,0.1h-0.3L24,37.3c-0.3,0.1-0.7,0.1-0.9,0.3
		c-0.3,0.1-0.5,0.4-0.8,0.7c-0.1,0.1-0.1,0.3-0.1,0.5c0,0.1,0,0.1,0,0.3v0.1v0.1v0.1l0,0c0.1,0-0.1,0,0.1,0c0.4,0,0.1,0,0.1,0l0,0
		l0,0l0,0l0,0v-0.1c0-0.1,0.1-0.1,0.1-0.1c0.1-0.1,0.1-0.1,0.3-0.3c0.1-0.1,0.3-0.1,0.6-0.3c0.1,0,0.4,0,0.7,0l0.8,0.1l0.8,0.1
		l0.4,0.1c0.9,0.1,1.7,0,2.6-0.4c0.1-0.1,0.1-0.1,0.3-0.1l0.1-0.1l0.1-0.1c0.1,0,0.1-0.1,0.1-0.1c0.1-0.1,0.3-0.1,0.4-0.1
		c0.4,0,0.8,0,1.2,0.1l1.6,0.1c0.6,0.1,1.2,0,1.7-0.3c0.8-0.4,1.1-1.5,0.8-2.2c-0.1-0.3-0.4-0.6-0.8-0.8c-0.1-0.1-0.4-0.1-0.7-0.1
		h0.1c0.1,0,0.3,0,0.4,0l0.8,0.1c1.9,0.1,3.8,0.3,5.6,0.7c0.3,0.1,0.7,0.1,1,0c1.5-0.3,2.4-1.7,2.1-3.1c-0.3-1.5-1.7-2.4-3.1-2.1
		l0,0c-1.9,0.3-3.8,0.5-5.6,0.7l-0.7,0.1c-0.3,0-0.7,0.1-1,0.1c-0.7,0.1-1.3,0.4-1.9,0.8c-0.6,0.3-1,0.8-1.5,1.2
		c-0.1,0-0.3,0.1-0.3,0.3h0.1l-0.1,0.1l-0.1,0.1c-0.1,0.1-0.1,0.3-0.3,0.4c-0.5,0.5-1.1,0.8-1.7,1c-0.1,0-0.1,0-0.3,0.1h-0.3
		l-0.7,0.1l-1.5,0.1l-0.7,0.1c-0.1,0-0.3,0-0.4,0.1c-0.1,0-0.3,0.1-0.4,0.1c-0.6,0.1-1.1,0.4-1.5,0.8c-0.4,0.3-0.8,0.8-0.9,1.3
		c0,0.4-0.1,0.6-0.2,0.9c0,0.1,0,0.3,0,0.4c0,0.1,0,0.1,0,0.1v0.1C20.3,39.4,19.8,39.4,20.5,39.4z"/>
</g>
<g>
	<g>
		<g>
			<path class="st7" d="M53.8,13.3c0,0,2.9,14.1,8.7,19.6c5.8,5.4,11.9,14.5,6.6,24.4c-5.6,9.8-10.3,9.5-15.3,9.9
				c-3.2-0.9-9.8-0.2-15.2-10c-5.4-9.8,0.8-18.8,6.6-24.4C50.9,27.4,53.8,13.3,53.8,13.3z"/>
			<path class="st7" d="M53.8,67.6L53.8,67.6c-0.6-0.2-1.3-0.3-2-0.4c-3.5-0.6-8.9-1.5-13.6-9.8c-5.9-10.6,1.6-20.1,6.6-24.9
				c5.6-5.2,8.6-19.2,8.6-19.3l0.4-2l0.4,2c0,0.2,2.9,14,8.6,19.4c5,4.7,12.5,14.1,6.6,24.9c-5.2,9.3-10,9.7-14.6,10.1
				C54.6,67.5,54.2,67.6,53.8,67.6L53.8,67.6z M53.8,15.1c-1,4-3.8,13.6-8.4,18c-4.8,4.5-12,13.7-6.5,23.8c4.5,8,9.6,8.9,13,9.4
				c0.8,0.1,1.3,0.3,1.9,0.4c0.3,0,0.7-0.1,0.9-0.1c4.5-0.3,8.9-0.8,13.9-9.7c5.6-10.3-1.6-19.3-6.5-23.8
				C57.6,28.8,54.8,19.2,53.8,15.1z"/>
		</g>
	</g>
	<g>
		<path class="st5" d="M53.8,29.9c0,0,1.8,10,5.4,13.8c3.6,3.9,7.4,10.3,4,17.2c-3.4,6.9-6.3,6.7-9.5,7.1c-2-0.7-6.1-0.2-9.5-7.1
			c-3.3-6.9,0.5-13.4,4-17.2C52,40,53.8,29.9,53.8,29.9z"/>
	</g>
	<g>
		<path class="st9" d="M53.8,39.6c0,0,1.3,7.3,3.9,10c2.5,2.8,5.4,7.4,2.9,12.4s-4.5,5-6.8,5.1c-1.4-0.5-4.4-0.1-6.8-5.1
			c-2.4-5,0.3-9.7,2.9-12.4C52.5,46.8,53.8,39.6,53.8,39.6z"/>
	</g>
</g>
</svg>
