<?xml version="1.0" encoding="utf-8"?>
<!-- Generator: Adobe Illustrator 20.1.0, SVG Export Plug-In . SVG Version: 6.00 Build 0)  -->
<svg version="1.1" id="Layer_1" xmlns="http://www.w3.org/2000/svg" xmlns:xlink="http://www.w3.org/1999/xlink" x="0px" y="0px"
	 viewBox="0 0 85 85" style="enable-background:new 0 0 85 85;" xml:space="preserve">
<style type="text/css">
	.st0{fill:#164194;}
	.st1{fill:#D8E6F7;}
	.st2{fill:#EA5B0C;stroke:#FFFFFF;stroke-miterlimit:10;}
	.st3{fill:#F7B385;}
	.st4{fill:#00A3A6;}
	.st5{fill:#FFFFFF;}
	.st6{fill:#97D2D4;}
	.st7{fill:#EA5B0C;}
	.st8{fill:#F7B385;stroke:#FFFFFF;stroke-miterlimit:10;}
	.st9{fill:#DE3F0F;}
</style>
<polygon class="st0" points="34.4,40.3 28.4,44 28.4,41.5 24,41.5 24,46.7 20.2,49 20.2,72.1 49.2,72.1 49.2,49 "/>
<rect x="22.2" y="50.5" class="st1" width="7.4" height="7.4"/>
<rect x="39.1" y="50.5" class="st1" width="7.4" height="7.4"/>
<rect x="31" y="60.9" class="st1" width="6.8" height="11.2"/>
<g>
	<path class="st2" d="M69.8,37.2L69.8,37.2c1.7-2.9,2.7-6.2,2.7-9.8C72.5,17,64,8.5,53.6,8.5S34.7,17,34.7,27.4c0,3.6,1,6.9,2.7,9.8
		l0,0l0,0c0.7,1.1,1.5,2.2,2.4,3.1c2.7,3.7,6.5,10.3,6.9,16.1h6.9h6.9c0.4-5.8,4.2-12.3,6.9-16.1C68.4,39.4,69.1,38.3,69.8,37.2
		L69.8,37.2z"/>
	<path class="st2" d="M59.3,60H48c-0.7,0-1.3-0.6-1.3-1.3v-0.5c0-0.7,0.6-1.3,1.3-1.3h11.2c0.7,0,1.3,0.6,1.3,1.3v0.5
		C60.6,59.4,60,60,59.3,60z"/>
	<path class="st2" d="M59.3,63.6H48c-0.7,0-1.3-0.6-1.3-1.3v-0.5c0-0.7,0.6-1.3,1.3-1.3h11.2c0.7,0,1.3,0.6,1.3,1.3v0.5
		C60.6,63,60,63.6,59.3,63.6z"/>
	<path class="st2" d="M59.3,67.3H48c-0.7,0-1.3-0.6-1.3-1.3v-0.5c0-0.7,0.6-1.3,1.3-1.3h11.2c0.7,0,1.3,0.6,1.3,1.3V66
		C60.6,66.7,60,67.3,59.3,67.3z"/>
	<path class="st3" d="M45.1,13.5c0,0-5.2,3.4-5.9,8.1l1.9,0.1c0,0,1.3-5.4,5.2-7.3L45.1,13.5z"/>
</g>
</svg>
