<?xml version="1.0" encoding="utf-8"?>
<!-- Generator: Adobe Illustrator 20.1.0, SVG Export Plug-In . SVG Version: 6.00 Build 0)  -->
<svg version="1.1" id="Layer_1" xmlns="http://www.w3.org/2000/svg" xmlns:xlink="http://www.w3.org/1999/xlink" x="0px" y="0px"
	 viewBox="0 0 85 85" style="enable-background:new 0 0 85 85;" xml:space="preserve">
<style type="text/css">
	.st0{fill:#164194;}
	.st1{fill:#D8E6F7;}
	.st2{fill:#EA5B0C;stroke:#FFFFFF;stroke-miterlimit:10;}
	.st3{fill:#F7B385;}
	.st4{fill:#00A3A6;}
	.st5{fill:#FFFFFF;}
	.st6{fill:#97D2D4;}
	.st7{fill:#EA5B0C;}
	.st8{fill:#F7B385;stroke:#FFFFFF;stroke-miterlimit:10;}
	.st9{fill:#DE3F0F;}
</style>
<polygon class="st0" points="31,39.8 25,43.5 25,41 20.7,41 20.7,46.2 16.8,48.5 16.8,71.5 45.9,71.5 45.9,48.5 "/>
<rect x="18.9" y="49.9" class="st1" width="7.4" height="7.4"/>
<rect x="35.8" y="49.9" class="st1" width="7.4" height="7.4"/>
<rect x="27.7" y="60.3" class="st1" width="6.8" height="11.2"/>
<g>
	<g>
		<g>
			<path class="st7" d="M58.6,15c0,0,2.9,14.1,8.7,19.6C73.2,40,79.3,49.1,73.9,59c-5.6,9.8-10.3,9.5-15.3,9.9
				c-3.2-0.9-9.8-0.2-15.2-10C38,49.2,44.2,40.1,50,34.6C55.7,29.2,58.6,15,58.6,15z"/>
			<path class="st7" d="M58.6,69.4L58.6,69.4c-0.6-0.2-1.3-0.3-2-0.4c-3.5-0.6-8.9-1.5-13.6-9.8c-5.9-10.6,1.6-20.1,6.6-24.9
				C55.3,29,58.2,15,58.2,15l0.4-2l0.4,2c0,0.2,2.9,14,8.6,19.4c5,4.7,12.5,14.1,6.6,24.9c-5.2,9.3-10,9.7-14.6,10.1
				C59.4,69.3,59,69.4,58.6,69.4L58.6,69.4z M58.6,16.9c-1,4-3.8,13.6-8.4,18c-4.8,4.5-12,13.7-6.5,23.8c4.5,8,9.6,8.9,13,9.4
				c0.8,0.1,1.3,0.3,1.9,0.4c0.3,0,0.7-0.1,0.9-0.1c4.5-0.3,8.9-0.8,13.9-9.7C79.1,48.5,71.9,39.4,67,35
				C62.4,30.6,59.6,20.9,58.6,16.9z"/>
		</g>
	</g>
	<g>
		<path class="st5" d="M58.6,31.7c0,0,1.8,10,5.4,13.8c3.6,3.9,7.4,10.3,4,17.2c-3.4,6.9-6.3,6.7-9.5,7.1c-2-0.7-6.1-0.2-9.5-7.1
			c-3.3-6.9,0.5-13.4,4-17.2C56.9,41.8,58.6,31.7,58.6,31.7z"/>
	</g>
	<g>
		<path class="st9" d="M58.6,41.4c0,0,1.3,7.3,3.9,10c2.5,2.8,5.4,7.4,2.9,12.4c-2.4,5-4.5,5-6.8,5.1c-1.4-0.5-4.4-0.1-6.8-5.1
			c-2.4-5,0.3-9.7,2.9-12.4C57.3,48.6,58.6,41.4,58.6,41.4z"/>
	</g>
</g>
</svg>
