<svg id="Layer_2" data-name="Layer 2" xmlns="http://www.w3.org/2000/svg" viewBox="0 0 55 55"><defs><style>.cls-301{fill:#fff;}</style></defs><title>03_03_01</title><path class="cls-301" d="M51.23,26.25v6.83l1.3,21.1H2.12L3.42,33V14.9h7.52V27l.09,2.9,10.8-10.25v9L27,26.09l.64,1.43-7.35,3.57V23.25L9.58,33.4,9.38,27V16.46H5V33.09L3.78,52.63H50.87l-1.2-19.49V29.79Zm-4.5,20.48H37.56V39.9h9.17Zm-7.61-1.56h6V41.46h-6Zm-6,1.56H23.91V39.9h9.17Zm-7.61-1.56h6V41.46h-6Zm-6,1.56H10.25V39.9h9.17Zm-7.61-1.56h6V41.46h-6Z"/><path class="cls-301" d="M5.22,15.86s.36-4.29,2.15-6.23S12,8.43,14.43,6.32s1.72-7.12,2-5.12c.41,3,1.49,6.58-2.67,8.53S5.37,12.06,5.22,15.86Z"/><path class="cls-301" d="M39,8.8A12.8,12.8,0,0,0,39,34.4c7.06,0,12.8-3.08,12.8-12.8A12.82,12.82,0,0,0,39,8.8ZM39,19v2H34.05A6.88,6.88,0,0,0,34,22c0,.26,0,0,.05,1H39v2H34.72c1,1,2.86,2.71,5,2.71A6,6,0,0,0,45,24h2.7a7.93,7.93,0,0,1-8,6.25A8.36,8.36,0,0,1,31.94,25H30V23h1.5c0-1,0-.74,0-1a10,10,0,0,1,0-1H30V19h1.94c1.14-3,4.21-5.75,7.81-5.75a8.67,8.67,0,0,1,8,5.75H45a5.73,5.73,0,0,0-10.29,0Z"/></svg>