<svg id="Layer_2" data-name="Layer 2" xmlns="http://www.w3.org/2000/svg" viewBox="0 0 55 55"><defs><style>.cls-401{fill:none;}.cls-402{fill:#fff;}</style></defs><title>03_03_03</title><path class="cls-401" d="M44.44,49.87v-28l-9.3,8.95H33.82V21.82L18.65,29.2V21.82L9.22,30.77,9.1,26.68v-9.9H3.87V32l-1,17.82ZM32.56,38.7h7.93v4.63H32.56Zm-22.7,0h7.68v4.63H9.87Zm11.63,0h7.68v4.63H21.49Z"/><path class="cls-402" d="M44.44,50.65H2.83A.78.78,0,0,1,2,49.82L3.09,32V16.78A.78.78,0,0,1,3.87,16H9.1a.78.78,0,0,1,.78.78v9.91L10,29l8.16-7.75a.78.78,0,0,1,1.32.57v6.12l14-6.82a.78.78,0,0,1,1.12.7V30h.22l9.07-8.73a.78.78,0,0,1,1.33.56v28A.78.78,0,0,1,44.44,50.65ZM3.66,49.09h40V23.66l-8,7.67a.78.78,0,0,1-.54.22H33.82a.78.78,0,0,1-.78-.78v-7.7L19,29.9a.78.78,0,0,1-1.12-.7V23.65l-8.1,7.69a.78.78,0,0,1-1.32-.54l-.12-4.09V17.56H4.66V32Zm36.83-5H32.56a.78.78,0,0,1-.78-.78V38.7a.78.78,0,0,1,.78-.78h7.93a.78.78,0,0,1,.78.78v4.63A.78.78,0,0,1,40.49,44.11Zm-7.15-1.57h6.37V39.48H33.34Zm-4.17,1.57H21.49a.78.78,0,0,1-.78-.78V38.7a.78.78,0,0,1,.78-.78h7.68a.78.78,0,0,1,.78.78v4.63A.78.78,0,0,1,29.17,44.11Zm-6.9-1.57h6.11V39.48H22.28Zm-4.73,1.57H9.87a.78.78,0,0,1-.78-.78V38.7a.78.78,0,0,1,.78-.78h7.68a.78.78,0,0,1,.78.78v4.63A.78.78,0,0,1,17.54,44.11Zm-6.9-1.57h6.11V39.48H10.65Z"/><path class="cls-402" d="M3,17.09S3.09,13.62,4.44,12s3.7-1.2,5.52-3,1-5.82,1.35-4.23c.48,2.42.35,5.82-2.9,7.59S2.95,14,3,17.09Z"/><path class="cls-402" d="M18,24.53v5.08l14.05-6.82a1.69,1.69,0,0,1,1.13,0c.23.14.82.39.82.66l.6,6.5L35,31.13l8-7.65v-7L26,23.89V16.48Z"/><polygon class="cls-402" points="44 26 44 26 44 33 49 33 49 39 44 39 44 45 53 45 53 26.76 53 25.48 53 16.48 44 26"/><path class="cls-402" d="M16.9,22.92c.12-.11.12-.18.3-.2L17,21.37V11H13.2s0,.22,0,.23,0,.28,0,.39,0-.27,0-.44c0,0,0-.18,0-.18H12V26.76l0,.92Z"/></svg>