<svg id="Layer_2" data-name="Layer 2" xmlns="http://www.w3.org/2000/svg" viewBox="0 0 55 55"><defs><style>.cls-101{fill:#fff;}.cls-201{fill:#ff7bac;}</style></defs><title>03_03_02</title><circle class="cls-101" cx="12.96" cy="10.36" r="4.76"/><circle class="cls-101" cx="27.57" cy="10.36" r="4.76"/><circle class="cls-101" cx="42.27" cy="10.36" r="4.76"/><circle class="cls-101" cx="20.1" cy="19.12" r="4.98"/><circle class="cls-101" cx="34.77" cy="19.12" r="4.98"/><path class="cls-101" d="M20,41.54s0-.08,0-.12,0,0,0,0h0c0,.06,0,.12,0,.19Z"/><path class="cls-101" d="M33.87,35H23.32C19,35,16,37.06,16,40.09c0,5.56,2.71,8,4,9V41.66c0-.43-.19-1,.59-1,.53,0,.36.6.36,1V50.4a9.25,9.25,0,0,0,6,2.07c2.25,0,5-.69,6-1.87v-9c0-.36-.15-.93.38-.93.78,0,.62.58.62,1v8.21C37,49,39,45,39,40A4.65,4.65,0,0,0,33.87,35Z"/><path class="cls-201" d="M35.82,23.77s0-.08,0-.12,0,0,0,0h0c0,.06,0,.13,0,.19Z"/><path class="cls-101" d="M12.15,32.39s0,.17,0,.27v.08c0-.06,0-.13,0-.19s0-.08,0-.12,0,0,0,0Z"/><path class="cls-101" d="M40.26,31.46v.22h0v-.2s0-.07,0-.11a.93.93,0,0,0,0-.13C40.26,31.33,40.26,31.41,40.26,31.46Z"/><circle class="cls-101" cx="27.74" cy="28.77" r="4.76"/><path class="cls-201" d="M20,41.37q0,.09,0,.19v0s0-.08,0-.12,0,0,0,0Z"/><path class="cls-101" d="M22.44,28.77a4.47,4.47,0,0,1,.8-2.77H14.39c-5.22,0-5.7,2.15-5.81,5.08C8.58,37,11,38.21,13,39.53V33.08c0-.43-.17-1,.62-1,.53,0,.38.57.38.93v7.62c0,.48.3.52.94.83,0-.68,0-.78,0-1.46,0-3.57,3.34-6,7.55-6H28A5.21,5.21,0,0,1,22.44,28.77Z"/><path class="cls-101" d="M46.24,31.15A5.32,5.32,0,0,0,40.63,26H32.25A4.85,4.85,0,0,1,33,28.61c.07,2.16-1.8,5.46-5,5.39h4.87c3.5,0,4.24.52,5.66,1.85a5.68,5.68,0,0,1,1.33,4.25,19.52,19.52,0,0,1-.13,2.08L41,41.62v-9c0-.36-.15-.93.38-.93.78,0,.62.58.62,1v8.21c2-.79,3.84-4.11,4.25-8.37C46.23,32.6,46.26,31.43,46.24,31.15Z"/><path class="cls-201" d="M33.52,40.45v.08a1.92,1.92,0,0,0,0-.29C33.52,40.31,33.52,40.39,33.52,40.45Z"/><path class="cls-101" d="M49,30.28c1-1.33,4.35-3.59,4.35-9C53,18.35,52.7,16,47.48,16H39.38a4.66,4.66,0,0,1,1,2.91,5.35,5.35,0,0,1-5.54,5.64,5.36,5.36,0,0,1-5.59-5.43A6.16,6.16,0,0,1,30.16,16H24.72a4.73,4.73,0,0,1,1,2.91,5.62,5.62,0,0,1-5.46,5.71,5.5,5.5,0,0,1-5.81-5.47A4.84,4.84,0,0,1,15.53,16H7.75c-5.22,0-6.15,2.35-6.49,5.32,0,5.37,2.74,7.63,3.74,9V23.82c0-.43-.17-1,.62-1,.53,0,.38.57.38.93v7.45l1.69,1.3c0-.27,0-2.62,0-2.1C7.87,26.32,9.52,25,14,25h9.94a5.48,5.48,0,0,1,7.59,0h9.11a7.57,7.57,0,0,1,4,1A5.22,5.22,0,0,1,47,30.19c0,.47,0,1.91,0,2.2l1-1.13v-7.5c0-.36-.15-.93.38-.93.78,0,.62.58.62,1Z"/></svg>