<?xml version="1.0" encoding="utf-8"?>
<!-- Generator: Adobe Illustrator 26.2.1, SVG Export Plug-In . SVG Version: 6.00 Build 0)  -->
<svg version="1.1" id="Vrstva_1" xmlns="http://www.w3.org/2000/svg" xmlns:xlink="http://www.w3.org/1999/xlink" x="0px" y="0px"
	 viewBox="0 0 416.5 42.2" style="enable-background:new 0 0 416.5 42.2;" xml:space="preserve">
<style type="text/css">
	.st0{fill:#F0A400;}
	.st1{fill:#D69521;}
	.st2{fill:#F5B51B;}
	.st3{opacity:0.53;fill:#FCDC02;enable-background:new    ;}
	.st4{opacity:0.71;fill:#DE3F0F;enable-background:new    ;}
</style>
<g>
	<path class="st0" d="M409.2,42.2H7.3c-4,0-7.3-3.3-7.3-7.3V7.3C0,3.3,3.3,0,7.3,0h401.9c4,0,7.3,3.3,7.3,7.3v27.6
		C416.5,38.9,413.2,42.2,409.2,42.2z"/>
	<rect x="24.4" class="st1" width="88.4" height="42.2"/>
	<rect x="268.3" class="st3" width="52" height="42.2"/>
</g>
<path class="st4" d="M409.2,42.2H7.3c-4,0-7.3-3.3-7.3-7.3V7.3C0,3.3,3.3,0,7.3,0h401.9c4,0,7.3,3.3,7.3,7.3v27.6
	C416.5,38.9,413.2,42.2,409.2,42.2z"/>
		<g>
		<rect x="11.9" y="5.1" class="st2" width="6.3" height="33.1"/>
		<rect x="29.4" y="5.1" class="st2" width="6.3" height="33.1"/>
		<rect x="46.9" y="5.1" class="st2" width="6.3" height="33.1"/>
		<rect x="64.4" y="5.1" class="st2" width="6.3" height="33.1"/>
		<rect x="81.9" y="5.1" class="st2" width="6.3" height="33.1"/>
		<rect x="99.3" y="5.1" class="st2" width="6.3" height="33.1"/>
		<rect x="116.8" y="5.1" class="st2" width="6.3" height="33.1"/>
		<rect x="134.3" y="5.1" class="st2" width="6.3" height="33.1"/>
		<rect x="151.8" y="5.1" class="st2" width="6.3" height="33.1"/>
		<rect x="169.3" y="5.1" class="st2" width="6.3" height="33.1"/>
		<rect x="186.8" y="5.1" class="st2" width="6.3" height="33.1"/>
		<rect x="204.3" y="5.1" class="st2" width="6.3" height="33.1"/>
		<rect x="221.8" y="5.1" class="st2" width="6.3" height="33.1"/>
		<rect x="239.3" y="5.1" class="st2" width="6.3" height="33.1"/>
		<rect x="256.8" y="5.1" class="st2" width="6.3" height="33.1"/>
		<rect x="274.3" y="5.1" class="st2" width="6.3" height="33.1"/>
		<rect x="291.8" y="5.1" class="st2" width="6.3" height="33.1"/>
		<rect x="309.3" y="5.1" class="st2" width="6.3" height="33.1"/>
		<rect x="326.8" y="5.1" class="st2" width="6.3" height="33.1"/>
		<rect x="344.3" y="5.1" class="st2" width="6.3" height="33.1"/>
		<rect x="361.8" y="5.1" class="st2" width="6.3" height="33.1"/>
		<rect x="379.3" y="5.1" class="st2" width="6.3" height="33.1"/>
		<rect x="396.7" y="5.1" class="st2" width="6.3" height="33.1"/>
	</g>
</svg>
