<svg xmlns="http://www.w3.org/2000/svg" viewBox="0 0 630.71 623.62"><defs><style>.cls-1{fill:#fff;}</style></defs><g id="Vrstva_2" data-name="Vrstva 2"><g id="Vrstva_2-2" data-name="Vrstva 2"><path class="cls-1" d="M489,368.51H418.11a14.18,14.18,0,0,1-14.15-15l14.17-240.94a14.18,14.18,0,0,1,14.15-13.34H474.8A14.17,14.17,0,0,1,489,112.56L503.12,353.5a14.16,14.16,0,0,1-14.14,15Zm-55.84-28.35h40.8l-12.5-212.6H445.65Z"/><path class="cls-1" d="M460.62,85.09A14.18,14.18,0,0,1,449.1,62.63c1.1-1.55,11.36-15.43,30.62-25.56,18.13-9.54,47.74-17.36,85.88-.41,12.63,5.61,18.64,2.48,20.62,1.45,10.35-5.38,15.57-22.39,16.4-26.65a14.18,14.18,0,0,1,27.83,5.44c-.68,3.43-7.26,33.93-31.15,46.36-9.17,4.77-24.46,8.52-45.21-.7-21.89-9.73-42.14-10-60.2-.91a66.57,66.57,0,0,0-21.78,17.53A14.09,14.09,0,0,1,460.62,85.09Z"/><path class="cls-1" d="M226.77,368.51H155.9a14.16,14.16,0,0,1-14.14-15l14.17-240.94a14.17,14.17,0,0,1,14.15-13.34H212.6a14.18,14.18,0,0,1,14.15,13.34L240.92,353.5a14.18,14.18,0,0,1-14.15,15Zm-55.83-28.35h40.8l-12.51-212.6H183.44Z"/><path class="cls-1" d="M198.41,85a14,14,0,0,1-8.22-2.64,14.17,14.17,0,0,1-3.3-19.77,92.45,92.45,0,0,1,30.62-25.56c18.13-9.54,47.75-17.36,85.88-.41C316,42.27,322,39.14,324,38.12c10.35-5.39,15.58-22.4,16.41-26.66a14.17,14.17,0,0,1,27.82,5.44c-.67,3.43-7.25,33.93-31.14,46.36-9.18,4.77-24.47,8.53-45.22-.7-22.29-9.9-42.86-10-61.17-.41a65.46,65.46,0,0,0-20.75,17A14.17,14.17,0,0,1,198.41,85Z"/><path class="cls-1" d="M571.24,623.62H59.46A59.52,59.52,0,0,1,0,564.16V399.63a59.53,59.53,0,0,1,59.46-59.47H571.24a59.54,59.54,0,0,1,59.47,59.47V564.16A59.53,59.53,0,0,1,571.24,623.62ZM59.46,368.51a31.15,31.15,0,0,0-31.11,31.12V564.16a31.15,31.15,0,0,0,31.11,31.12H571.24a31.15,31.15,0,0,0,31.12-31.12V399.63a31.15,31.15,0,0,0-31.12-31.12Z"/><path class="cls-1" d="M148.82,497.84H78a14.17,14.17,0,0,1-14.17-14.18V427A14.16,14.16,0,0,1,78,412.8h70.87A14.16,14.16,0,0,1,163,427v56.69A14.17,14.17,0,0,1,148.82,497.84Zm-56.7-28.35h42.53V441.15H92.12Z"/><path class="cls-1" d="M278.74,497.84H207.87a14.18,14.18,0,0,1-14.17-14.18V427a14.17,14.17,0,0,1,14.17-14.17h70.87A14.16,14.16,0,0,1,292.91,427v56.69A14.17,14.17,0,0,1,278.74,497.84Zm-56.69-28.35h42.52V441.15H222.05Z"/><path class="cls-1" d="M408.66,497.84H337.79a14.18,14.18,0,0,1-14.17-14.18V427a14.17,14.17,0,0,1,14.17-14.17h70.87A14.16,14.16,0,0,1,422.83,427v56.69A14.17,14.17,0,0,1,408.66,497.84ZM352,469.49h42.52V441.15H352Z"/><path class="cls-1" d="M538.58,497.84H467.72a14.18,14.18,0,0,1-14.18-14.18V427a14.17,14.17,0,0,1,14.18-14.17h70.86A14.16,14.16,0,0,1,552.75,427v56.69A14.17,14.17,0,0,1,538.58,497.84Zm-56.69-28.35h42.52V441.15H481.89Z"/><path class="cls-1" d="M545.67,559.85H78a14.18,14.18,0,0,1,0-28.35H545.67a14.18,14.18,0,0,1,0,28.35Z"/></g></g></svg>