<svg xmlns="http://www.w3.org/2000/svg" viewBox="0 0 623.27 600.7"><defs><style>.cls-1{fill:#fff;}</style></defs><g id="Vrstva_2" data-name="Vrstva 2"><g id="Vrstva_2-2" data-name="Vrstva 2"><path class="cls-1" d="M226,536.14a14.14,14.14,0,0,1-10.4-4.54L85.72,391.5a14.17,14.17,0,0,1,.76-20l48.46-44.91a102.69,102.69,0,0,0,32.83-76.06c-.57-63.17,19.52-146.06,65.66-188.82C278.52,19.9,335.77-2,394.62.14c60.32,2.15,118,29.69,162.31,77.54s68,108,66.25,168.92c-1.7,60-27.4,115.93-72.35,157.59h0C504,447.62,422.75,460.7,367.44,458.7a120.9,120.9,0,0,0-87.16,32.24l-44.7,41.42A14.11,14.11,0,0,1,226,536.14ZM116.15,382.63l110.56,119.3L261,470.15a149.13,149.13,0,0,1,107.45-39.77c3.28.11,6.65.17,10.05.17,52.39,0,117.44-14.15,153-47.16h0c39.32-36.44,61.8-85.31,63.29-137.6,1.52-53.48-19.33-106.34-58.72-148.84C497,54.67,446.34,30.34,393.62,28.47c-51.3-1.84-101.37,17.35-140.92,54s-57.08,112.69-56.59,167.78a131,131,0,0,1-41.9,97.1Z"/><path class="cls-1" d="M163.75,572.67c-.77,0-1.54,0-2.31,0a58.79,58.79,0,0,1-41.12-18.9L51.61,479.58A59.19,59.19,0,0,1,54.79,396l24.1-22.34a14.19,14.19,0,0,1,20,.76l129.83,140.1a14.18,14.18,0,0,1-.76,20l-24.1,22.34A58.73,58.73,0,0,1,163.75,572.67Zm-76-168.56-13.7,12.7a30.83,30.83,0,0,0-1.66,43.51l68.71,74.14h0a30.79,30.79,0,0,0,43.51,1.66l13.7-12.7Z"/><path class="cls-1" d="M59.61,600.7a48.21,48.21,0,0,1-35.48-15.47L12.89,573.1a48.36,48.36,0,0,1,2.6-68.33l42.39-39.28a14.15,14.15,0,0,1,20,.77l57.71,62.26a14.19,14.19,0,0,1-.76,20L92.46,587.83A48.19,48.19,0,0,1,59.61,600.7Zm7.14-104.78-32,29.65a20,20,0,0,0-1.07,28.26L44.92,566h0A20,20,0,0,0,73.19,567l32-29.65Z"/><path class="cls-1" d="M261.85,491.62a14.16,14.16,0,0,1-10.4-4.54L131.24,357.35A14.17,14.17,0,1,1,152,338.09L272.24,467.81a14.18,14.18,0,0,1-10.39,23.81Z"/><path class="cls-1" d="M285.92,122.09a14.17,14.17,0,0,1-9.64-24.57c27.19-25.19,67.64-37.29,113.91-34.08,35.35,2.45,69.69,13.6,81.65,26.5a14.17,14.17,0,0,1-20.79,19.27c-3.73-4-27.89-15.08-62.86-17.5-22.22-1.54-63.8-.12-92.64,26.6A14.11,14.11,0,0,1,285.92,122.09Z"/><path class="cls-1" d="M445.59,398.49a14.17,14.17,0,0,1-2.23-28.17c64.36-10.35,75.76-58.66,76.21-60.71l13.87,3,13.88,2.86c-.38,1.84-4.13,18.59-18.2,37.05-13,17-37.62,38.81-81.27,45.83A14.54,14.54,0,0,1,445.59,398.49Z"/></g></g></svg>