<?xml version="1.0" encoding="utf-8"?>
<!-- Generator: Adobe Illustrator 25.0.1, SVG Export Plug-In . SVG Version: 6.00 Build 0)  -->
<svg version="1.1" id="Calque_1" xmlns="http://www.w3.org/2000/svg" xmlns:xlink="http://www.w3.org/1999/xlink" x="0px" y="0px"
	 viewBox="0 0 100 100" style="enable-background:new 0 0 100 100;" xml:space="preserve">
<style type="text/css">
	.st0{fill:#FFFFFF;}
</style>
<g id="Calque_2_1_">
</g>
<g id="Calque_4">
	<g>
		<path class="st0" d="M53.5,5.1L53.5,5.1l-3-0.1l0,0h-3v0.1C24.8,6.6,6.6,24.8,5.1,47.5H5v3v3h0.1c1.5,22.7,19.7,40.9,42.4,42.4V96
			h3h3v-0.1c22.7-1.5,40.9-19.7,42.4-42.4H96v-3v-3h-0.1C94.4,24.8,76.2,6.6,53.5,5.1z M33.5,14.9c-2.9,3.9-5.4,8.8-7.1,14.4h-9.1
			C21.2,23.1,26.8,18.1,33.5,14.9z M14.1,35.3h10.7c-0.8,3.8-1.3,7.9-1.5,12.1H11.2C11.5,43.2,12.5,39.1,14.1,35.3z M11.2,53.5h12.1
			c0.2,4.2,0.7,8.3,1.5,12.1H14.1C12.5,61.9,11.5,57.8,11.2,53.5z M17.3,71.7h9.1c1.8,5.6,4.2,10.5,7.1,14.4
			C26.8,82.9,21.2,77.9,17.3,71.7z M47.5,89.5c-6.2-1.7-11.6-8.4-14.9-17.8h14.9V89.5z M47.5,65.7H30.9c-0.8-3.8-1.4-7.9-1.6-12.1
			h18.1L47.5,65.7L47.5,65.7z M47.5,47.5H29.3c0.2-4.3,0.7-8.4,1.6-12.1h16.6V47.5z M47.5,29.3H32.6c3.3-9.4,8.6-16.1,14.9-17.8
			V29.3z M83.7,29.3h-9.1c-1.8-5.6-4.2-10.5-7.1-14.4C74.2,18.1,79.8,23.1,83.7,29.3z M53.5,11.5c6.2,1.7,11.6,8.4,14.9,17.8H53.5
			V11.5z M53.5,35.3h16.6c0.8,3.8,1.4,7.9,1.6,12.1H53.5V35.3z M53.5,53.5h18.1c-0.2,4.3-0.7,8.4-1.6,12.1H53.5V53.5z M53.5,89.5
			V71.7h14.9C65.1,81.2,59.8,87.9,53.5,89.5z M67.5,86.1c2.9-3.9,5.4-8.8,7.1-14.4h9.1C79.8,77.9,74.2,82.9,67.5,86.1z M86.9,65.7
			H76.2c0.8-3.8,1.3-7.9,1.5-12.1h12.1C89.5,57.8,88.5,61.9,86.9,65.7z M77.7,47.5c-0.2-4.2-0.7-8.3-1.5-12.1h10.7
			c1.6,3.8,2.6,7.9,2.9,12.1H77.7z"/>
	</g>
</g>
</svg>
