<?xml version="1.0" encoding="utf-8"?>
<!-- Generator: Adobe Illustrator 25.0.1, SVG Export Plug-In . SVG Version: 6.00 Build 0)  -->
<svg version="1.1" id="Calque_1" xmlns="http://www.w3.org/2000/svg" xmlns:xlink="http://www.w3.org/1999/xlink" x="0px" y="0px"
	 viewBox="0 0 100 100" style="enable-background:new 0 0 100 100;" xml:space="preserve">
<style type="text/css">
	.st0{fill:#FFFFFF;}
</style>
<g id="Calque_2_1_">
</g>
<g id="Calque_3">
	<g id="Icons_with_numbers">
		<g id="Group" transform="translate(-816.000000, -96.000000)">
			<path id="Rectangle_231" class="st0" d="M831.9,112.7V124h11.3v-11.3H831.9z M832,107h67.8c3.2,0,5.7,2.6,5.7,5.7v67.8
				c0,3.2-2.6,5.7-5.7,5.7H832c-3.2,0-5.7-2.6-5.7-5.7v-67.8C826.3,109.6,828.8,107,832,107z M888.5,169.3v11.3h11.3v-11.3H888.5z
				 M888.5,112.7V124h11.3v-11.3H888.5z M831.9,169.3v11.3h11.3v-11.3H831.9z M860.3,129.7c-3.2,0-5.7,2.6-5.7,5.6V158
				c0,3.1,2.5,5.6,5.7,5.6h11.2c3.2,0,5.7-2.6,5.7-5.6v-22.7c0-3.1-2.5-5.6-5.7-5.6H860.3z M860.2,135.3h11.3V158h-11.3V135.3z"/>
		</g>
	</g>
</g>
</svg>
