<?xml version="1.0" encoding="utf-8"?>
<!-- Generator: Adobe Illustrator 25.0.1, SVG Export Plug-In . SVG Version: 6.00 Build 0)  -->
<svg version="1.1" id="Calque_1" xmlns="http://www.w3.org/2000/svg" xmlns:xlink="http://www.w3.org/1999/xlink" x="0px" y="0px"
	 viewBox="0 0 100 100" style="enable-background:new 0 0 100 100;" xml:space="preserve">
<style type="text/css">
	.st0{fill:#FFFFFF;}
</style>
<g id="Calque_2_1_">
</g>
<g id="Calque_4">
	<g id="Page-1">
		<g id="icon-43-wind">
			<path id="wind" class="st0" d="M94.5,44.7c0-7.4-6-13.3-13.3-13.3c-7.4,0-13.3,6-13.3,13.3h6.7c0-3.7,3-6.7,6.7-6.7
				s6.7,3,6.7,6.7s-3,6.7-6.7,6.7H4.5V58h76.7C88.5,58,94.5,52,94.5,44.7L94.5,44.7z M64.5,31.3c0-7.4-6-13.3-13.3-13.3
				c-7.4,0-13.3,6-13.3,13.3l0,0h6.7c0-3.7,3-6.7,6.7-6.7s6.7,3,6.7,6.7S55,38,51.3,38h-40v6.7h40C58.5,44.7,64.5,38.7,64.5,31.3
				L64.5,31.3z M81.2,74.7c0,5.5-4.5,10-10,10l0,0c-5.5,0-10-4.5-10-10l0,0h6.7c0,1.8,1.5,3.3,3.3,3.3l0,0c1.8,0,3.3-1.5,3.3-3.3
				l0,0c0-1.8-1.5-3.3-3.4-3.3H24.5v-6.7h46.7C76.7,64.7,81.2,69.2,81.2,74.7L81.2,74.7L81.2,74.7z"/>
		</g>
	</g>
</g>
</svg>
