<svg xmlns="http://www.w3.org/2000/svg" viewBox="0 0 637.79 623.62"><defs><style>.cls-1{fill:#fff;}</style></defs><g id="Vrstva_2" data-name="Vrstva 2"><g id="Vrstva_2-2" data-name="Vrstva 2"><path class="cls-1" d="M460.63,623.62a14.08,14.08,0,0,1-7.39-2.08L325.68,543.59a14.18,14.18,0,0,1,7.39-26.27H411V389.05a34.76,34.76,0,0,0-34.59-34.72L74.74,360.24A73.32,73.32,0,0,1,0,287V78A14.17,14.17,0,0,1,14.17,63.78H531.5V14.17a14.17,14.17,0,0,1,25.31-8.75l78,99.21a14.18,14.18,0,0,1-.7,18.33l-78,85a14.17,14.17,0,0,1-24.62-9.57V148.82H152.7A25.17,25.17,0,0,0,127.56,174a32.56,32.56,0,0,0,31.8,32.39l292.31,5.31a66.86,66.86,0,0,1,65.65,66.85V517.32h92.13A14.17,14.17,0,0,1,616,544.05L467.21,622A14.1,14.1,0,0,1,460.63,623.62Zm-77.19-78,77.73,47.5,90.67-47.5H503.15A14.16,14.16,0,0,1,489,531.5v-253A38.71,38.71,0,0,0,451.16,240l-292.31-5.31A60.73,60.73,0,0,1,99.21,174a53.56,53.56,0,0,1,53.49-53.49h393a14.17,14.17,0,0,1,14.17,14.18V162L605,112.68l-45.2-57.53V78a14.17,14.17,0,0,1-14.17,14.18H28.35V287a44.94,44.94,0,0,0,45.83,44.94L376,326h.28a63.14,63.14,0,0,1,63.07,63.06V531.5a14.17,14.17,0,0,1-14.17,14.17Z"/></g></g></svg>