<?xml version="1.0" encoding="utf-8"?>
<!-- Generator: Adobe Illustrator 25.0.1, SVG Export Plug-In . SVG Version: 6.00 Build 0)  -->
<svg version="1.1" id="Calque_1" xmlns="http://www.w3.org/2000/svg" xmlns:xlink="http://www.w3.org/1999/xlink" x="0px" y="0px"
	 viewBox="0 0 100 100" style="enable-background:new 0 0 100 100;" xml:space="preserve">
<style type="text/css">
	.st0{fill:none;}
	.st1{fill:#FFFFFF;}
</style>
<g id="Calque_2_1_">
	<rect class="st0" width="100" height="100"/>
</g>
<g id="Calque_3">
	<g id="Icons_new_Arranged_Names">
		<g id="_x32_7_Cloud">
			<path id="Rectangle_1_copy_2" class="st1" d="M1,63.6c0-6.8,3.7-12.7,9.2-15.9c0.3-14.9,12.5-27,27.6-27
				c9.9,0,18.6,5.2,23.4,13.1c1.8-0.5,3.7-0.8,5.6-0.8c8.5,0,15.8,5.4,18.6,12.9C93.3,48,99,55.2,99,63.6C99,73.8,90.8,82,80.6,82
				H19.4C9.2,82,1,73.8,1,63.6z M80.5,51.4c-0.8-6.9-6.6-12.2-13.7-12.2c-3.2,0-6.2,1.1-8.6,3C55.5,33.4,47.4,27,37.7,27
				c-11.8,0-21.4,9.6-21.4,21.4c0,1.2,0.1,2.3,0.3,3.4c-5.4,1.3-9.5,6.1-9.5,11.9c0,6.8,5.5,12.2,12.2,12.2h61.3
				c6.8,0,12.2-5.5,12.2-12.2C92.9,56.9,87.4,51.4,80.5,51.4L80.5,51.4z"/>
		</g>
	</g>
</g>
</svg>
