<svg xmlns="http://www.w3.org/2000/svg" viewBox="0 0 609.45 609.45"><defs><style>.cls-1{fill:#fff;}</style></defs><g id="Vrstva_2" data-name="Vrstva 2"><g id="Vrstva_2-2" data-name="Vrstva 2"><path class="cls-1" d="M317.93,469.64a166.16,166.16,0,0,1-20.85-1.31,164.89,164.89,0,0,1-143-184.22c11.36-90.21,94-154.35,184.21-143a164.85,164.85,0,0,1,116.57,72.11A14.17,14.17,0,1,1,431.3,229a136.56,136.56,0,0,0-96.54-59.71C260,159.83,191.62,213,182.21,287.66a136.58,136.58,0,0,0,255.37,82.52,14.17,14.17,0,1,1,24.87,13.59,165,165,0,0,1-144.52,85.87Z"/><path class="cls-1" d="M343.47,299.87H343l-227.93-7.35a14.18,14.18,0,0,1,.92-28.34l227.92,7.36a14.17,14.17,0,0,1-.45,28.34Z"/><path class="cls-1" d="M336.12,366h-.47l-227.92-7.35a14.17,14.17,0,1,1,.92-28.33l227.92,7.35a14.17,14.17,0,0,1-.45,28.34Z"/><path class="cls-1" d="M304.72,609.45A304.73,304.73,0,0,1,89.25,89.25a304.73,304.73,0,0,1,431,431A302.76,302.76,0,0,1,304.72,609.45Zm0-581.1A276.37,276.37,0,0,0,109.3,500.15,276.37,276.37,0,1,0,500.15,109.3,274.52,274.52,0,0,0,304.72,28.35Z"/></g></g></svg>