<svg xmlns="http://www.w3.org/2000/svg" viewBox="0 0 616.53 616.53"><defs><style>.cls-1{fill:#fff;}</style></defs><g id="Vrstva_2" data-name="Vrstva 2"><g id="Vrstva_2-2" data-name="Vrstva 2"><path class="cls-1" d="M308.27,407.49c-72.29,0-131.1-58.82-131.1-131.11V209.06a14.16,14.16,0,0,1,14.17-14.17H425.2a14.17,14.17,0,0,1,14.17,14.17v67.32C439.37,348.67,380.56,407.49,308.27,407.49ZM205.51,223.23v53.15a102.76,102.76,0,1,0,205.51,0V223.23Z"/><path class="cls-1" d="M425.2,294.1H191.34a14.18,14.18,0,0,1,0-28.35H425.2a14.18,14.18,0,0,1,0,28.35Z"/><path class="cls-1" d="M269.29,216.15A14.17,14.17,0,0,1,255.12,202V138.2a14.17,14.17,0,1,1,28.34,0V202A14.17,14.17,0,0,1,269.29,216.15Z"/><path class="cls-1" d="M347.24,216.15A14.18,14.18,0,0,1,333.07,202V138.2a14.18,14.18,0,1,1,28.35,0V202A14.18,14.18,0,0,1,347.24,216.15Z"/><path class="cls-1" d="M308.27,616.53a308.26,308.26,0,0,1-218-526.24,308.29,308.29,0,0,1,526.24,218c0,48.08-9.59,89-28.63,121.62-16.79,28.76-40.57,50.06-68.75,61.59C467.47,512.61,421,514,381,495.65c-62.49-28.69-85.22-95-86.16-97.85a14.18,14.18,0,0,1,26.89-9C322.07,389.87,342,446.69,393,470c32.55,14.85,71.37,13.25,115.39-4.76,22.36-9.14,41.38-26.31,55-49.64,16.47-28.22,24.8-64.32,24.77-107.31A279.93,279.93,0,0,0,110.33,110.33,279.93,279.93,0,0,0,308.27,588.19a14.17,14.17,0,1,1,0,28.34Z"/></g></g></svg>