<svg xmlns="http://www.w3.org/2000/svg" viewBox="0 0 623.89 616.54"><defs><style>.cls-1{fill:#fff;}</style></defs><g id="Vrstva_2" data-name="Vrstva 2"><g id="Vrstva_2-2" data-name="Vrstva 2"><path class="cls-1" d="M311.81,155.9c-80.47,0-156.27-6.74-213.43-19C32.18,122.72,0,103.44,0,78S32.18,33.18,98.38,19c57.16-12.25,133-19,213.43-19S468.08,6.75,525.24,19c66.2,14.18,98.38,33.46,98.38,59s-32.18,44.77-98.38,59C468.08,149.16,392.28,155.9,311.81,155.9Zm0-127.55c-77.21,0-150,6.33-205,17.83C43.22,59.49,28.74,74.64,28.35,78c.39,3.29,14.87,18.45,78.46,31.75,55,11.5,127.79,17.84,205,17.84s150-6.34,205-17.84c63.48-13.28,78-28.4,78.46-31.77-.44-3.36-15-18.49-78.46-31.77C461.82,34.68,389,28.35,311.81,28.35ZM595.28,78h0Z"/><path class="cls-1" d="M231.74,355.52l-.23.43q-6.91,12.92-14.41,27,7.1.51,14.32.93,7.7-14.56,14.69-27.6Q238.87,356,231.74,355.52ZM29.34,310.21a4.44,4.44,0,0,1-1-1.93c.08-.71.81-1.95,2.5-3.59,2.4-9,5.87-22.67,9.2-38-17.55,7.52-29.25,16-35.26,25.54A29.56,29.56,0,0,0,0,308.26c0,.72,0,1.43.08,2.14,1,14.36,12.59,26.71,35,37.24q23.58,11.08,63.3,19.58c21.53,4.62,45.71,8.45,71.78,11.43a14,14,0,0,0,13.93-7.34l.19-.36a14,14,0,0,0-10.8-20.44c-24.16-2.76-46.6-6.27-66.67-10.48C51.74,328.51,33.5,315.6,29.34,310.21Z"/><path class="cls-1" d="M40,266.66l.55-.23c-.27,1.27-.54,2.52-.81,3.77-2.83,13.05-5.76,24.89-8,33.67-.32.28-.62.56-.89.82C33.24,295.69,36.71,282,40,266.66Z"/><path class="cls-1" d="M394.5,355.83c5.33,9.29,10.46,18.32,15.3,26.9q-7.29.54-14.72,1c-4.83-8.62-10.1-17.9-15.61-27.52q7.44-.37,14.77-.82Z"/><path class="cls-1" d="M623.62,308.26c0,.72,0,1.44-.08,2.15-1,14.34-12.56,26.67-34.91,37.19-15.73,7.41-36.81,13.93-63.39,19.62-20.59,4.42-43.6,8.11-68.38,11a14,14,0,0,1-13.81-7l-.19-.35a14,14,0,0,1,10.56-20.74c22.92-2.71,44.23-6.09,63.39-10.1,55.13-11.53,73.34-24.46,77.47-29.86a4.52,4.52,0,0,0,1-1.91c-.09-.7-.8-1.92-2.44-3.52-2.37-9-5.81-22.65-9.1-38,17.53,7.54,29.21,16,35.18,25.59A29.51,29.51,0,0,1,623.62,308.26Z"/><path class="cls-1" d="M620.8,525.55c-5-10.09-16.06-19.06-33.39-27,2.34,15.64,4.85,29,6.52,37.38a5.78,5.78,0,0,1,1.6,2.65,3.91,3.91,0,0,1-.74,1.57c-3.61,5.18-21.41,18.42-77.72,30.2-55,11.5-127.79,17.84-205,17.84s-150-6.34-205-17.84c-54.55-11.42-73-24.19-77.35-29.67a4.77,4.77,0,0,1-1.12-2.08c.08-.67.72-1.8,2.2-3.3,1.79-9.11,4.16-22.13,6.32-36.93C20.32,506,9.34,514.61,4,524.24A29.18,29.18,0,0,0,.26,538.59,29.94,29.94,0,0,0,.46,542a31.44,31.44,0,0,0,7.15,16.22c12.93,16.06,43,29,91,39.31,57.16,12.25,133,19,213.43,19s156.27-6.74,213.43-19c56.15-12,87.83-27.74,96.14-47.78a28.64,28.64,0,0,0,2.17-9.06v0c.05-.69.07-1.39.07-2.1A29,29,0,0,0,620.8,525.55Z"/><path class="cls-1" d="M35.08,351.19c3.76,23.8,7.61,54.65,7.61,81.1,0,21.63-2.57,45.57-5.57,66.09-2.16,14.8-4.53,27.82-6.32,36.93-.39,2-.76,3.79-1.08,5.38-1,4.68-1.6,7.56-1.72,8.09a14.18,14.18,0,0,1-13.82,11.07,14,14,0,0,1-3.12-.35,14.63,14.63,0,0,1-3.45-1.26A14.2,14.2,0,0,1,.34,542.56s0-.21.12-.54c.4-1.85,1.8-8.36,3.57-17.78,4.15-22.13,10.31-60.34,10.31-91.95,0-47.57-13.89-113.32-14-114A13.61,13.61,0,0,1,.08,314a13,13,0,0,1,.47-2.53c.06-.21,1.79-6.23,4.23-15.67C10.91,272.1,21.51,227,21.51,198.43,21.51,158.53.82,89.85.61,89.16a14.17,14.17,0,1,1,27.12-8.23c.9,3,22.13,73.38,22.13,117.5,0,19.72-4.24,45.39-9,68-.27,1.27-.54,2.52-.81,3.77-2.83,13.05-5.76,24.89-8,33.67-.41,1.55-.79,3-1.15,4.36-.57,2.11-1.07,4-1.5,5.52-.22.78-.41,1.49-.59,2.12C30,321.85,32.5,334.87,35.08,351.19Z"/><path class="cls-1" d="M623.81,540.71a14.17,14.17,0,0,1-27.94,4.5c-.09-.4-.48-2.16-1.08-5.05-.25-1.21-.54-2.63-.86-4.22-1.67-8.38-4.18-21.74-6.52-37.38-3.18-21.31-6-46.86-6-69.81,0-26.47,3.81-57.35,7.53-81.14,2.55-16.32,5.05-29.32,6.24-35.27-.18-.64-.37-1.36-.59-2.16-.42-1.54-.91-3.36-1.45-5.43-2.37-9-5.81-22.65-9.1-38-5-23.51-9.72-51-9.72-71.84,0-44.6.41-46,21.86-117.46a14.17,14.17,0,0,1,27.15,8.15c-20.66,68.87-20.66,68.87-20.66,109.31,0,28.64,10.5,73.79,16.55,97.43,2.4,9.4,4.1,15.4,4.16,15.61a12.57,12.57,0,0,1,.47,2.49,14,14,0,0,1-.22,4.32c-.14.66-13.87,66.49-13.87,114,0,34.06,7.06,75.76,11.09,96.8,1.58,8.26,2.7,13.34,2.74,13.51a15.82,15.82,0,0,1,.27,1.63Z"/><path class="cls-1" d="M426,381.42c-.9-1.86-1.88-3.73-2.93-5.63-3.76-6.76-7.84-14-12.13-21.57-17.36-30.54-38.21-66.14-55.17-94.86-6.37-10.77-12.19-20.58-17.07-28.79-9-15.2-14.89-24.95-15.08-25.27a14.18,14.18,0,0,0-23.94-.57c-.48.72-5.45,8.23-15.9,25.86-4.52,7.62-10.06,17.12-16.71,28.79-13,22.77-30.14,53.78-52.12,95q-6.9,13-14.45,27.28l-.78,1.49c-19.27,36.6-11.29,64.19-1.21,80.89.25.41.5.82.76,1.22a92.8,92.8,0,0,0,25.78,26.47c25,17.5,58.24,25.58,86.42,25.58,30,0,60-9.81,82.87-25.84A107.64,107.64,0,0,0,421.26,465q1.82-2.61,3.4-5.31a77.29,77.29,0,0,0,11-39.4C435.65,408.72,433,395.69,426,381.42ZM311.81,489h-.3c-30.31,0-59.56-10.27-77.36-26.18a59.07,59.07,0,0,1-11.33-13.39c-9.18-15.21-8.5-33,2-53q3.34-6.36,6.58-12.46,7.7-14.56,14.69-27.6c23.89-44.53,41.67-76.14,54.11-97.59,4.33-7.46,8-13.7,11.08-18.82,3.24,5.44,7,11.79,11.18,18.81,16.08,27.12,38,64.28,57,97.5,5.51,9.62,10.78,18.9,15.61,27.52l3.25,5.84c11.19,20.13,11.83,38.9,1.9,55.77a70,70,0,0,1-14.71,17.23C367.11,478.48,339.26,488.89,311.81,489Z"/></g></g></svg>