<?xml version="1.0" encoding="utf-8"?>
<!-- Generator: Adobe Illustrator 25.0.1, SVG Export Plug-In . SVG Version: 6.00 Build 0)  -->
<svg version="1.1" id="Calque_1" xmlns="http://www.w3.org/2000/svg" xmlns:xlink="http://www.w3.org/1999/xlink" x="0px" y="0px"
	 viewBox="0 0 100 100" style="enable-background:new 0 0 100 100;" xml:space="preserve">
<style type="text/css">
	.st0{fill:#FFFFFF;}
</style>
<g id="Calque_2_1_">
</g>
<g id="Calque_4">
	<g>
		<g id="Icon-Refresh" transform="translate(30.000000, 432.000000)">
			<path id="Fill-77" class="st0" d="M20.6-345.5c-20,0-36.3-16.3-36.3-36.3c0-8.8,3.2-17.4,9.1-24l3.9,3.5
				c-5.1,5.6-7.7,13-7.7,20.5c0,17.2,13.9,31.1,31.1,31.1c4.6,0,9-0.9,13-2.8l2.1,4.7C31-346.6,25.9-345.5,20.6-345.5"/>
			<path id="Fill-78" class="st0" d="M47.7-357.6l-3.9-3.5c5.1-5.6,7.9-13,7.9-20.7c0-17.2-13.9-31.1-31.1-31.1c-4.6,0-9,0.9-13,2.8
				l-2.1-4.7c4.7-2.1,9.8-3.3,15.1-3.3c20,0,36.3,16.3,36.3,36.3C57-372.9,53.6-364.3,47.7-357.6"/>
			<polyline id="Fill-79" class="st0" points="1,-384.6 -4.7,-384.6 -4.7,-401.5 -21.5,-401.5 -21.5,-407.1 1,-407.1 1,-384.6 			
				"/>
			<polyline id="Fill-80" class="st0" points="62.7,-356.6 40.3,-356.6 40.3,-379 45.9,-379 45.9,-362.2 62.7,-362.2 62.7,-356.6 
							"/>
		</g>
	</g>
</g>
</svg>
