<?xml version="1.0" encoding="utf-8"?>
<!-- Generator: Adobe Illustrator 21.0.0, SVG Export Plug-In . SVG Version: 6.00 Build 0)  -->
<svg version="1.1" id="Calque_1" xmlns="http://www.w3.org/2000/svg" xmlns:xlink="http://www.w3.org/1999/xlink" x="0px" y="0px"
	 viewBox="0 0 100 100" style="enable-background:new 0 0 100 100;" xml:space="preserve">
<style type="text/css">
	.st0{display:none;}
	.st1{display:inline;}
	.st2{fill:none;}
	.st3{fill:#41AFAA;}
</style>
<g id="Calque_1_2_" class="st0">
	<g id="Calque_2" class="st1">
		<rect class="st2" width="100" height="100"/>
	</g>
	<g id="Calque_1_1_" xmlns:sketch="http://www.bohemiancoding.com/sketch/ns" class="st1">
		<title></title>
		<g id="Icons_new_Arranged_Names_Color">
			<g id="_x31_00_Pressure_Reading">
				<path id="Oval_278_copy_2" class="st3" d="M50,89c-5.8,0-10.5-4.7-10.5-10.5c0-4,2.3-7.6,5.6-9.3L50,40l4.9,29.2
					c3.3,1.8,5.6,5.3,5.6,9.3C60.5,84.3,55.8,89,50,89z M92,61c0-23.2-18.8-42-42-42S8,37.8,8,61c0,6.1,1.3,11.9,3.6,17.1
					c-2.3,0.9-4.4,2-6.3,3.1C2.6,75,1,68.2,1,61c0-27.1,21.9-49,49-49s49,21.9,49,49c0,7.2-1.6,14-4.3,20.2c-1.9-1.1-4-2.1-6.3-3.1
					C90.7,72.9,92,67.1,92,61z"/>
				<path id="Oval_278_copy_2_1_" class="st3" d="M12.2,52.5l13.3,4.3l2.2-6.7l-13.3-4.3L12.2,52.5z"/>
				<path id="Oval_278_copy_2_2_" class="st3" d="M24.5,31.9l8.2,11.3l5.7-4.1l-8.2-11.3L24.5,31.9z"/>
				<path id="Oval_278_copy_2_3_" class="st3" d="M46.5,22.5v14h7v-14H46.5z"/>
				<path id="Oval_278_copy_2_4_" class="st3" d="M69.8,27.8l-8.2,11.3l5.7,4.1l8.2-11.3L69.8,27.8z"/>
				<path id="Oval_278_copy_2_5_" class="st3" d="M85.6,45.8l-13.3,4.3l2.2,6.7l13.3-4.3L85.6,45.8z"/>
				<path id="Oval_278_copy_2_6_" class="st3" d="M87.8,69.7l-13.3-4.3L72.3,72l13.3,4.3L87.8,69.7z"/>
				<path id="Oval_278_copy_2_7_" class="st3" d="M14.4,76.3L27.7,72l-2.2-6.7l-13.3,4.3L14.4,76.3z"/>
			</g>
		</g>
	</g>
</g>
<g id="Calque_2_1_">
	<path class="st3" d="M85,95L85,95c0,1.1-0.9,2-2,2H26.4l0,0c-5.6,0-10.1-4.5-10.1-10.1V14.1C16.3,8.5,20.8,4,26.4,4l0,0H79l0,0
		c0.8,0,1.6,0.5,1.9,1.2C80.9,5.5,81,5.7,81,6l0,0v14.2l0,0h2l0,0c0.6,0,1.1,0.2,1.4,0.6c0.4,0.4,0.6,0.9,0.6,1.4l0,0V95z
		 M20.3,86.9L20.3,86.9L20.3,86.9c0,3.4,2.7,6.1,6.1,6.1h6.1V24.2h-6.1l0,0c-2.3,0-4.4-0.8-6.1-2.1V86.9z M77,20.2V8H26.4l0,0l0,0
		c-3.3,0-6.1,2.7-6.1,6.1s2.7,6.1,6.1,6.1H77L77,20.2z M81,24.2H36.5V93H81V24.2z M26.4,16.1c-1.1,0-2-0.9-2-2s0.9-2,2-2h44.5
		c1.1,0,2,0.9,2,2s-0.9,2-2,2H26.4z"/>
</g>
</svg>
