<?xml version="1.0" encoding="utf-8"?>
<!-- Generator: Adobe Illustrator 21.0.0, SVG Export Plug-In . SVG Version: 6.00 Build 0)  -->
<svg version="1.1" id="Calque_3" xmlns="http://www.w3.org/2000/svg" xmlns:xlink="http://www.w3.org/1999/xlink" x="0px" y="0px"
	 viewBox="0 0 100 100" style="enable-background:new 0 0 100 100;" xml:space="preserve">
<style type="text/css">
	.st0{fill:#FFFFFF;}
</style>
<g id="Page-1">
	<g id="Core" transform="translate(-86.000000, -296.000000)">
		<g id="info-outline" transform="translate(86.000000, 296.000000)">
			<path id="Shape" class="st0" d="M45.7,73h9.4V44.9h-9.4L45.7,73L45.7,73z M50.4,2.7C24.6,2.7,3.5,23.8,3.5,49.6
				s21.1,46.9,46.9,46.9s46.9-21.1,46.9-46.9S76.2,2.7,50.4,2.7L50.4,2.7z M50.4,87.1c-20.6,0-37.5-16.9-37.5-37.5
				s16.9-37.5,37.5-37.5S87.9,29,87.9,49.6S71.1,87.1,50.4,87.1L50.4,87.1z M45.7,35.5h9.4v-9.4h-9.4L45.7,35.5L45.7,35.5z"/>
		</g>
	</g>
</g>
</svg>
