<?xml version="1.0" encoding="iso-8859-1"?>
<!-- Generator: Adobe Illustrator 21.0.0, SVG Export Plug-In . SVG Version: 6.00 Build 0)  -->
<svg version="1.1" id="Calque_1" xmlns="http://www.w3.org/2000/svg" xmlns:xlink="http://www.w3.org/1999/xlink" x="0px" y="0px"
	 viewBox="0 0 1792 1792" style="enable-background:new 0 0 1792 1792;" xml:space="preserve">
<path style="fill:#FFFFFF;" d="M1596,380c18.667,18.667,34.667,44,48,76s20,61.333,20,88v1152c0,26.667-9.333,49.333-28,68
	s-41.333,28-68,28H224c-26.667,0-49.333-9.333-68-28s-28-41.333-28-68V96c0-26.667,9.333-49.333,28-68s41.333-28,68-28h896
	c26.667,0,56,6.667,88,20s57.333,29.333,76,48L1596,380z M1152,136v376h376c-6.667-19.333-14-33-22-41l-313-313
	C1185,150,1171.333,142.667,1152,136z M1536,1664V640h-416c-26.667,0-49.333-9.333-68-28s-28-41.333-28-68V128H256v1536H1536z
	 M1022,1071c22,17.333,50,36,84,56c39.333-4.667,78.333-7,117-7c98,0,157,16.333,177,49c10.667,14.667,11.333,32,2,52
	c0,0.667-0.333,1.333-1,2l-2,2v1c-4,25.333-27.667,38-71,38c-32,0-70.333-6.667-115-20s-88-31-130-53c-147.333,16-278,43.667-392,83
	c-102,174.667-182.667,262-242,262c-10,0-19.333-2.333-28-7l-24-12c-0.667-0.667-2.667-2.333-6-5c-6.667-6.667-8.667-18.667-6-36
	c6-26.667,24.667-57.167,56-91.5s75.333-66.5,132-96.5c9.333-6,17-4,23,6c1.333,1.333,2,2.667,2,4
	c34.667-56.667,70.333-122.333,107-197c45.333-90.667,80-178,104-262c-16-54.667-26.167-107.833-30.5-159.5s-2.167-94.167,6.5-127.5
	c7.333-26.667,21.333-40,42-40h22c15.333,0,27,5,35,15c12,14,15,36.667,9,68c-1.333,4-2.667,6.667-4,8c0.667,2,1,4.667,1,8v30
	c-1.333,82-6,146-14,192C912.667,942.333,961.333,1021.667,1022,1071z M446,1482c34.667-16,80.333-68.667,137-158
	c-34,26.667-63.167,54.667-87.5,84C471.167,1437.333,454.667,1462,446,1482z M844,562c-10,28-10.667,72-2,132
	c0.667-4.667,3-19.333,7-44c0-2,2.333-16.333,7-43c0.667-2.667,2-5.333,4-8c-0.667-0.667-1-1.333-1-2s-0.167-1.167-0.5-1.5
	s-0.5-0.833-0.5-1.5c-0.667-14.667-5-26.667-13-36c0,0.667-0.333,1.333-1,2V562z M720,1223c90-36,184.667-63,284-81
	c-1.333-0.667-5.667-3.833-13-9.5s-12.667-10.167-16-13.5c-50.667-44.667-93-103.333-127-176c-18,57.333-45.667,123-83,197
	C745,1177.333,730,1205,720,1223z M1366,1207c-16-16-62.667-24-140-24c50.667,18.667,92,28,124,28c9.333,0,15.333-0.333,18-1
	C1368,1209.333,1367.333,1208.333,1366,1207z"/>
</svg>
