<?xml version="1.0" encoding="utf-8"?>
<!-- Generator: Adobe Illustrator 25.2.3, SVG Export Plug-In . SVG Version: 6.00 Build 0)  -->
<svg version="1.1" id="Calque_1" xmlns="http://www.w3.org/2000/svg" xmlns:xlink="http://www.w3.org/1999/xlink" x="0px" y="0px"
	 viewBox="0 0 28.9 28.9" style="enable-background:new 0 0 28.9 28.9;" xml:space="preserve">
<style type="text/css">
	.st0{fill:#318380;}
</style>
<g id="Calque_2_1_">
	<g id="Layer_1">
		<rect x="0.1" y="11.5" class="st0" width="20.2" height="1.8"/>
		<rect y="18.1" class="st0" width="14.3" height="1.8"/>
		<rect x="0.1" y="5" class="st0" width="20.2" height="1.8"/>
		<path class="st0" d="M28,18.1h-4.2V14c0.1-0.5-0.2-1-0.7-1.1c-0.5-0.1-1,0.2-1.1,0.7c0,0.1,0,0.2,0,0.3v4.2h-4.2
			c-0.5,0-0.9,0.5-0.8,1c0,0.4,0.4,0.8,0.8,0.8H22v4.1c0,0.5,0.5,0.9,1,0.8c0.4,0,0.8-0.4,0.8-0.8v-4.2H28c0.5,0,0.9-0.5,0.8-1
			C28.8,18.5,28.4,18.2,28,18.1z"/>
	</g>
</g>
</svg>
