<?xml version="1.0" encoding="utf-8"?>
<!-- Generator: Adobe Illustrator 24.3.0, SVG Export Plug-In . SVG Version: 6.00 Build 0)  -->
<svg version="1.1" id="Calque_1" xmlns="http://www.w3.org/2000/svg" xmlns:xlink="http://www.w3.org/1999/xlink" x="0px" y="0px"
	 viewBox="0 0 28.85 28.88" style="enable-background:new 0 0 28.85 28.88;" xml:space="preserve">
<style type="text/css">
	.st0{fill:#FFFFFF;}
</style>
<g id="Calque_2_1_">
	<g id="Layer_1">
		<rect x="0.07" y="11.53" class="st0" width="20.24" height="1.81"/>
		<rect y="18.13" class="st0" width="14.31" height="1.81"/>
		<rect x="0.07" y="5" class="st0" width="20.24" height="1.81"/>
		<path class="st0" d="M28,18.13h-4.21V14c0.09-0.49-0.24-0.97-0.73-1.06c-0.49-0.09-0.97,0.24-1.06,0.73
			c-0.02,0.11-0.02,0.22,0,0.33v4.16h-4.18c-0.5,0.05-0.86,0.5-0.81,1c0.04,0.43,0.38,0.76,0.81,0.81H22v4.13
			c0.05,0.5,0.5,0.86,1,0.81c0.43-0.04,0.76-0.38,0.81-0.81v-4.16H28c0.5-0.05,0.86-0.5,0.81-1C28.76,18.51,28.43,18.17,28,18.13z"
			/>
	</g>
</g>
</svg>
