<?xml version="1.0" encoding="utf-8"?>
<!-- Generator: Adobe Illustrator 21.0.0, SVG Export Plug-In . SVG Version: 6.00 Build 0)  -->
<svg version="1.1" xmlns="http://www.w3.org/2000/svg" xmlns:xlink="http://www.w3.org/1999/xlink" x="0px" y="0px"
	 viewBox="0 0 100 100" style="enable-background:new 0 0 100 100;" xml:space="preserve">
<style type="text/css">
	.st0{display:none;}
	.st1{display:inline;}
	.st2{fill:#41AFAA;}
</style>
<g id="Calque_1" class="st0">
	<g id="Calque_2" class="st1">
	</g>
	<g id="Calque_4" class="st1">
		<g id="Icons_with_numbers">
			<g id="Group" transform="translate(-240.000000, -144.000000)">
				<path id="Oval_188" class="st2" d="M290.2,223.8c14.7,0,26.7-11.9,26.7-26.7c0-8.7-4.2-16.5-10.7-21.3v-12.4
					c12.6,6,21.3,18.8,21.3,33.7c0,20.6-16.7,37.3-37.3,37.3s-37.3-16.7-37.3-37.3c0-14.9,8.7-27.7,21.3-33.7v12.4
					c-6.5,4.9-10.7,12.6-10.7,21.3C263.5,211.9,275.5,223.8,290.2,223.8z M290.2,197.2c-3,0-5.3-2.4-5.3-5.3v-32
					c0-2.9,2.4-5.3,5.3-5.3c3,0,5.3,2.4,5.3,5.3v32C295.5,194.8,293.1,197.2,290.2,197.2z"/>
			</g>
		</g>
	</g>
</g>
<g id="Calque_2_1_">
	<path class="st2" d="M50.6,9.5l-27.3,10c-2,0.7-4.3-0.3-5-2.3l-0.7-2c-0.7-2,0.3-4.3,2.3-5l27.3-10c2-0.7,4.3,0.3,5,2.3l0.7,2
		C53.7,6.5,52.7,8.8,50.6,9.5z"/>
	<path class="st2" d="M78.8,23.1L23.4,43.4c-2,0.7-4.3-0.3-5-2.3l-0.7-2c-0.7-2,0.3-4.3,2.3-5l55.4-20.3c2-0.7,4.3,0.3,5,2.3l0.7,2
		C81.8,20.1,80.8,22.4,78.8,23.1z"/>
	<path class="st2" d="M78.9,11.1L23.5,31.3c-2,0.7-4.3-0.3-5-2.3l-0.7-2c-0.7-2,0.3-4.3,2.3-5L75.5,1.7c2-0.7,4.3,0.3,5,2.3l0.7,2
		C82,8,80.9,10.3,78.9,11.1z"/>
	<path class="st2" d="M78.8,35.2L23.4,55.5c-2,0.7-4.3-0.3-5-2.3l-0.7-2c-0.7-2,0.3-4.3,2.3-5l55.4-20.3c2-0.7,4.3,0.3,5,2.3l0.7,2
		C81.8,32.2,80.8,34.5,78.8,35.2z"/>
	<g>
		<path class="st2" d="M77.8,48l-15.6,5.7v7.9h-9.3v-15l21.5-8c2.6-0.9,5.5,0.4,6.4,3C81.7,44.2,80.3,47.1,77.8,48z"/>
	</g>
	<rect x="36.5" y="47.1" class="st2" width="9.6" height="13.5"/>
	<rect x="21.9" y="50.2" class="st2" width="21" height="5.3"/>
	<path class="st2" d="M66.9,70.5l-1.8,3H33.7l-1.8-3c0,0-5.5-1.7-3.9-10.5c-0.3-1.1,19.5-1.2,21.3-1.2c0.1,0,0.1,0,0.1,0
		c1.8,0,21.6,0.1,21.3,1.2C72.4,68.8,66.9,70.5,66.9,70.5z"/>
	<path class="st2" d="M59.9,81.2H39.1c-1.3,0-2.4-1.1-2.4-2.4v-1.3c0-1.3,1.1-2.4,2.4-2.4h20.7c1.3,0,2.4,1.1,2.4,2.4v1.3
		C62.3,80.1,61.2,81.2,59.9,81.2z"/>
	<path class="st2" d="M59.7,88.6H39c-1.3,0-2.4-1.1-2.4-2.4v-1.3c0-1.3,1.1-2.4,2.4-2.4h20.7c1.3,0,2.4,1.1,2.4,2.4v1.3
		C62.2,87.5,61.1,88.6,59.7,88.6z"/>
	<path class="st2" d="M49,100C49,100,49,100,49,100C49,100,49,100,49,100C49,100,49,100,49,100z"/>
	<path class="st2" d="M58,90.2c0,0-3.5,7-8.9,7.1c0,0,0,0-0.1,0c0,0,0,0-0.1,0c-5.4-0.1-8.9-7.1-8.9-7.1H58z"/>
	<path class="st2" d="M49.1,100C49.1,100,49.1,100,49.1,100C49.1,100,49.1,100,49.1,100C49.1,100,49.1,100,49.1,100z"/>
</g>
</svg>
