<?xml version="1.0" encoding="utf-8"?>
<!-- Generator: Adobe Illustrator 21.0.0, SVG Export Plug-In . SVG Version: 6.00 Build 0)  -->
<svg version="1.1" id="Calque_1" xmlns="http://www.w3.org/2000/svg" xmlns:xlink="http://www.w3.org/1999/xlink" x="0px" y="0px"
	 viewBox="0 0 100 100" style="enable-background:new 0 0 100 100;" xml:space="preserve">
<style type="text/css">
	.st0{fill:#FFFFFF;}
</style>
<g id="Calque_2">
	<g id="slice" transform="translate(215.000000, 119.000000)">
	</g>
	<g>
		<rect x="29.8" y="70.7" class="st0" width="41.4" height="4.1"/>
		<polygon class="st0" points="25.7,8.6 75.3,8.6 75.3,29.3 79.5,29.3 79.5,4.5 21.5,4.5 21.5,29.3 25.7,29.3 		"/>
		<path class="st0" d="M71.2,83.1H29.8V79h41.4V83.1z M71.2,74.8H29.8v-4.1h41.4V74.8z"/>
		<rect x="29.8" y="79" class="st0" width="41.4" height="4.1"/>
		<path class="st0" d="M91.5,33.5H9.6C5,33.5,5,38.1,5,38.1V62c0,4.6,4.6,4.6,4.6,4.6h7.9v-4.1H9.1V37.6h82.7v24.8h-8.3v4.1h7.9
			c0,0,4.5,0,4.5-4.6V38.1C96,38.1,96,33.5,91.5,33.5z"/>
		<path class="st0" d="M81.5,45.9h-62c0,0-2.1,0-2.1,2.1s2.1,2.1,2.1,2.1h62c0,0,2.1,0,2.1-2.1S81.5,45.9,81.5,45.9z"/>
		<path class="st0" d="M21.5,95.5h57.9V62.4H21.5V95.5z M25.7,66.5h49.6v24.8H25.7V66.5z"/>
	</g>
</g>
<g id="Calque_3">
</g>
</svg>
