<?xml version="1.0" encoding="utf-8"?>
<!-- Generator: Adobe Illustrator 21.0.0, SVG Export Plug-In . SVG Version: 6.00 Build 0)  -->
<svg version="1.1" xmlns="http://www.w3.org/2000/svg" xmlns:xlink="http://www.w3.org/1999/xlink" x="0px" y="0px"
	 viewBox="0 0 100 100" style="enable-background:new 0 0 100 100;" xml:space="preserve">
<style type="text/css">
	.st0{display:none;}
	.st1{display:inline;}
	.st2{fill:#9E2626;}
	.st3{fill:#FFFFFF;}
</style>
<g id="Calque_1">
	<g id="Calque_2" class="st0">
		<g class="st1">
			<path class="st2" d="M52.1,3.9c-16.9,0-30.5,13.7-30.5,30.5S35.2,65,52.1,65s30.5-13.7,30.5-30.5S68.9,3.9,52.1,3.9z M52.4,59.7
				c-14,0-25.3-11.3-25.3-25.3S38.4,9.2,52.4,9.2s25.3,11.3,25.3,25.3S66.3,59.7,52.4,59.7z"/>
		</g>
	</g>
	<g id="Calque_2_-_copie">
		<rect x="37.6" y="75.8" class="st3" width="26" height="4.2"/>
		<rect x="37.6" y="84.1" class="st3" width="26" height="4.2"/>
		<rect x="41.5" y="91.5" class="st3" width="16.9" height="3.9"/>
		<g>
			<path class="st3" d="M49.5,3.6c-19.3,0-34.9,15.6-34.9,34.9c0,19.3,15.6,34.9,34.9,34.9c19.3,0,34.9-15.6,34.9-34.9
				C84.4,19.2,68.8,3.6,49.5,3.6z M49.7,68.1c-16.3,0-29.5-13.2-29.5-29.5S33.4,9.2,49.7,9.2s29.5,13.2,29.5,29.5S66,68.1,49.7,68.1
				z"/>
		</g>
	</g>
	<g id="Calque_3">
		<g id="Page-1" class="st0">
			<g id="Core" transform="translate(-86.000000, -296.000000)" class="st1">
				<g id="info-outline" transform="translate(86.000000, 296.000000)">
					<path id="Shape" class="st3" d="M46.4,80.1h10.8V47.9H46.4L46.4,80.1L46.4,80.1z M51.8-0.5C22.2-0.5-2,23.7-2,53.2
						S22.2,107,51.8,107s53.8-24.2,53.8-53.8S81.3-0.5,51.8-0.5L51.8-0.5z M51.8,96.2c-23.6,0-43-19.4-43-43s19.4-43,43-43
						s43,19.4,43,43S75.5,96.2,51.8,96.2L51.8,96.2z M46.4,37.1h10.8V26.3H46.4L46.4,37.1L46.4,37.1z"/>
				</g>
			</g>
		</g>
		<g>
			<path class="st3" d="M49.8,18.8c-3.4,0-6.4,1.3-8.8,3.2s-3.8,3.6-4.1,8.5H44c0.2-2.4,0.7-3.1,1.8-3.9c1-0.9,2.3-1.5,3.8-1.5
				s2.8,0.5,3.7,1.4c1,1,1.4,2.2,1.4,3.6c0,1.4-0.5,2.6-1.4,3.7L49,38c-1.3,1.3-1.5,2.3-1.8,3.1c-0.3,0.8,0,1.9,0,3.4v3h4.9v-2.1
				c0-1.6,0.7-2.8,1.4-3.7c0.2-0.3,0.8-0.7,1.3-1.1c0.5-0.5,1-1,1.8-1.6c0.6-0.6,1.3-1.1,1.6-1.5c0.3-0.3,1-1,1.7-2.1
				c1.4-1.6,1.9-3.6,1.9-6c0-3.4-1-6.1-3.3-8C56.2,19.7,53.4,18.8,49.8,18.8z"/>
			<path class="st3" d="M49.3,50.5c-1.3,0-2.3,0.5-3.2,1.4s-1.4,1.8-1.4,3.1c0,1.1,0.5,2.3,1.4,3.1c0.9,0.9,1.9,1.3,3.2,1.3
				c1.3,0,2.3-0.5,3.2-1.4s1.4-1.8,1.4-3.1c0-1.3-0.3-2.3-1.4-3.1C51.6,50.8,50.6,50.5,49.3,50.5z"/>
		</g>
	</g>
</g>
<g id="Calque_2_1_">
</g>
</svg>
