<?xml version="1.0" encoding="utf-8"?>
<!-- Generator: Adobe Illustrator 25.2.3, SVG Export Plug-In . SVG Version: 6.00 Build 0)  -->
<svg version="1.1" id="Calque_1" xmlns="http://www.w3.org/2000/svg" xmlns:xlink="http://www.w3.org/1999/xlink" x="0px" y="0px"
	 viewBox="0 0 20 20" style="enable-background:new 0 0 20 20;" xml:space="preserve">
<style type="text/css">
	.st0{fill:#318380;}
</style>
<g id="Calque_2_1_">
	<g id="Layer_1">
		<path class="st0" d="M2.8,20c-0.3,0-0.5-0.1-0.7-0.4c-0.1-0.1-0.2-0.2-0.2-0.3c0-0.1-0.1-0.2-0.2-0.4l0-0.1c0-0.1,0-0.1-0.1-0.2
			C0.7,17,0.2,15.1,0,13.2c-0.1-1.4,0.1-2.8,0.5-4.1l0,0C1,7.5,2.2,6.1,3.8,5.3c2-1,4.1-1.5,6.3-1.4l1.9-0.1L12,1.3
			c0-0.3,0.1-0.6,0.3-0.9C12.5,0.2,12.8,0,13.1,0c0.3,0,0.6,0.1,0.8,0.3l5.7,5.8C19.9,6.4,20,6.7,20,7c0,0.3-0.1,0.6-0.3,0.9
			L14.4,14c-0.4,0.5-1.1,0.5-1.6,0.1c0,0-0.1-0.1-0.1-0.1c-0.2-0.2-0.4-0.6-0.4-0.9l-0.1-2.4l-1.9,0.1c-0.7,0-1.3,0.1-1.8,0.1
			C8,11,7.5,11.1,6.9,11.2c-0.5,0.1-0.9,0.3-1.3,0.5c-0.4,0.2-0.7,0.5-1,0.8c-0.3,0.3-0.5,0.7-0.7,1.1c-0.2,0.5-0.3,1-0.4,1.5
			c-0.1,0.7-0.1,1.3-0.1,2c0,0.4,0,0.9,0.1,1.4l0,0v0.2c0,0.1,0,0.3,0,0.4c0,0.2-0.1,0.5-0.2,0.6C3.2,19.8,3,20,2.8,20z M1.4,9.5
			C1,10.7,0.9,12,1,13.2c0.2,1.7,0.7,3.4,1.5,5l0,0v0.1c0-0.5-0.1-0.9-0.1-1.3c0-0.7,0-1.5,0.1-2.2c0.1-0.6,0.3-1.2,0.5-1.8
			c0.2-0.5,0.6-1,1-1.3c0.4-0.4,0.8-0.7,1.2-0.9c0.5-0.3,1-0.5,1.5-0.6c0.6-0.1,1.1-0.2,1.7-0.3C9,9.8,9.6,9.8,10.4,9.8l2.9-0.1
			l0.1,3.5c0,0.1,0.1,0.2,0.2,0.2l0,0c0.1,0,0.1,0,0.1-0.1L19,7.2c0-0.1,0-0.1,0-0.2c0,0,0-0.1,0-0.1l-5.7-5.8C13.2,1,13.2,1,13.1,1
			C13.1,1,13,1,13,1.1c0,0-0.1,0.1-0.1,0.2L13,4.8l-2.9,0.1C5.3,5,2.3,6.6,1.4,9.5z"/>
	</g>
</g>
</svg>
