<svg xmlns="http://www.w3.org/2000/svg" viewBox="0 0 20 20"><g id="Calque_2" data-name="Calque 2"><g id="Layer_1" data-name="Layer 1"><path d="M2.8,20a.83.83,0,0,1-.7-.39,1.8,1.8,0,0,1-.21-.34c0-.1-.09-.21-.16-.35l-.05-.11a1.44,1.44,0,0,0-.07-.16A15.24,15.24,0,0,1,0,13.25,11.88,11.88,0,0,1,.47,9.17h0a6.74,6.74,0,0,1,3.32-3.9,14.33,14.33,0,0,1,6.33-1.44l1.93-.06L12,1.3a1.3,1.3,0,0,1,.31-.9,1.11,1.11,0,0,1,.81-.4,1.08,1.08,0,0,1,.83.35l5.71,5.76A1.25,1.25,0,0,1,20,7a1.33,1.33,0,0,1-.31.9L14.41,14a1.11,1.11,0,0,1-1.65.06,1.36,1.36,0,0,1-.38-.88l-.08-2.45-1.93.06c-.68,0-1.3.07-1.84.13a10.49,10.49,0,0,0-1.58.3,5,5,0,0,0-1.3.49,4.61,4.61,0,0,0-1,.77,3.67,3.67,0,0,0-.71,1.05A6.26,6.26,0,0,0,3.51,15a10.49,10.49,0,0,0-.1,2c0,.41,0,.88.1,1.39v0l0,.2a2.47,2.47,0,0,1,0,.38,1.07,1.07,0,0,1-.18.64A.78.78,0,0,1,2.8,20Zm-.17-.92ZM1.38,9.52A10.92,10.92,0,0,0,1,13.21a14.68,14.68,0,0,0,1.5,5h0l0,.12c0-.46-.07-.88-.08-1.26a11.14,11.14,0,0,1,.12-2.22,7.47,7.47,0,0,1,.5-1.76A4.42,4.42,0,0,1,4,11.74a5.35,5.35,0,0,1,1.21-.93,6.42,6.42,0,0,1,1.52-.59,12.11,12.11,0,0,1,1.7-.31c.56-.07,1.2-.12,1.92-.14l2.88-.1.13,3.5a.21.21,0,0,0,.21.21.16.16,0,0,0,.14-.07L19,7.18A.23.23,0,0,0,19,7,.21.21,0,0,0,19,6.87L13.26,1.1A.18.18,0,0,0,13.12,1a.19.19,0,0,0-.14.07.23.23,0,0,0-.06.16L13,4.77l-2.88.09C5.3,5,2.34,6.6,1.38,9.52Z" style="fill:#fff"/></g></g></svg>