<?xml version="1.0" encoding="utf-8"?>
<!-- Generator: Adobe Illustrator 25.1.0, SVG Export Plug-In . SVG Version: 6.00 Build 0)  -->
<svg version="1.1" xmlns="http://www.w3.org/2000/svg" xmlns:xlink="http://www.w3.org/1999/xlink" x="0px" y="0px"
	 viewBox="0 0 180 29.3" style="enable-background:new 0 0 180 29.3;" xml:space="preserve">
<style type="text/css">
	.st0{fill:#FFFFFF;}
	.st1{fill:#003399;}
	.st2{fill:#FFCC00;}
</style>
<g id="Calque_4">
</g>
<g id="Calque_1">
	<g id="Layer_1">
		<g>
			<path class="st0" d="M134.4,8.3v3.9h-3.1v8.2c0,0.8,0,1.4,0.3,1.6c0.3,0.3,0.8,0.4,1.6,0.4c0.3,0,0.4,0,0.7,0
				c0.2,0,0.6-0.1,0.6-0.1V26c0,0.1-0.8,0.1-1.3,0.1s-0.9,0-1.4,0c-0.7,0-1.4,0-2.1-0.2c-0.7-0.1-1.2-0.3-1.7-0.6s-0.8-0.7-1.1-1.2
				s-0.3-1.2-0.3-2.1v-9.9h-3.1V8.2h3.1V3.5h4.7v4.7L134.4,8.3L134.4,8.3z M115.7,17.9c-0.3,0.1-0.6,0.2-0.9,0.2
				c-0.3,0.1-0.7,0.1-1.1,0.2s-0.8,0.1-1.1,0.2c-0.4,0.1-0.7,0.1-1,0.3c-0.4,0.1-0.7,0.3-0.9,0.5c-0.3,0.2-0.5,0.4-0.6,0.7
				c-0.2,0.3-0.2,0.7-0.2,1.1s0.1,0.8,0.2,1.1c0.2,0.3,0.4,0.5,0.6,0.7c0.3,0.2,0.6,0.3,0.9,0.4c0.4,0.1,0.7,0.1,1.1,0.1
				c0.9,0,1.7-0.1,2.2-0.5c0.5-0.3,0.9-0.7,1.1-1.1s0.3-0.9,0.3-1.3c0.1-0.5,0-0.8,0-1.1v-1.8C116.4,17.7,116,17.8,115.7,17.9
				 M106.4,11.1c0.5-0.7,1.1-1.3,1.9-1.7c0.8-0.5,1.6-0.7,2.6-0.9c0.9-0.2,1.9-0.3,2.9-0.3c0.9,0,1.8,0.1,2.7,0.2
				c0.9,0.1,1.7,0.4,2.5,0.7c0.7,0.4,1.2,0.9,1.7,1.5s0.6,1.5,0.6,2.5v9.1c0,0.8,0.2,1.5,0.3,2.2s0.3,1.3,0.5,1.6h-4.8
				c-0.1-0.3-0.1-0.5-0.2-0.8s-0.1-0.6-0.1-0.9c-0.8,0.8-1.7,1.3-2.7,1.6s-2.1,0.5-3.2,0.5c-0.8,0-1.6-0.1-2.3-0.3
				c-0.7-0.2-1.3-0.5-1.9-0.9c-0.5-0.4-1-1-1.3-1.6c-0.3-0.7-0.4-1.4-0.4-2.3c0-1,0.2-1.8,0.5-2.4s0.8-1.2,1.3-1.5
				c0.5-0.4,1.2-0.7,1.9-0.9c0.7-0.2,1.4-0.3,2.1-0.5c0.7-0.1,1.4-0.2,2.1-0.3s1.3-0.2,1.9-0.3c0.5-0.1,1-0.3,1.3-0.6
				s0.5-0.6,0.4-1.1c0-0.5-0.1-0.9-0.3-1.2c-0.2-0.3-0.4-0.5-0.7-0.7c-0.3-0.2-0.6-0.3-1-0.3c-0.4-0.1-0.8-0.1-1.2-0.1
				c-0.9,0-1.7,0.1-2.2,0.5s-0.8,1.1-0.9,1.9h-4.8C105.6,13,105.9,11.8,106.4,11.1 M103.1,8.3v3.9h-3.9v8.2c0,0.8,0.3,1.4,0.5,1.6
				c0.3,0.3,0.9,0.4,1.7,0.4c0.3,0,0.6,0,0.9,0s0.8-0.1,0.8-0.1V26c-0.8,0.1-0.9,0.1-1.4,0.1s-1,0-1.5,0c-0.7,0-1.5,0-2.1-0.2
				c-0.7-0.1-1.3-0.3-1.8-0.6s-1-0.7-1.3-1.2s-0.5-1.2-0.5-2.1v-9.9h-2.3V8.2h2.3V3.5h4.7v4.7L103.1,8.3L103.1,8.3z M79.2,21.5
				c0.2,0.4,0.5,0.8,0.8,1s0.7,0.5,1.2,0.6c0.4,0.1,0.9,0.2,1.3,0.2c0.3,0,0.7,0,1.1-0.1s0.7-0.2,1-0.4s0.6-0.4,0.8-0.7
				c0.2-0.3,0.3-0.6,0.3-1.1c0-0.7-0.5-1.3-1.4-1.6c-1-0.4-2.3-0.7-4-1.1c-0.7-0.2-1.4-0.4-2-0.6c-0.7-0.2-1.2-0.5-1.8-0.8
				c-0.5-0.4-0.9-0.8-1.2-1.3c-0.3-0.5-0.5-1.2-0.5-1.9c0-1.1,0.2-2,0.7-2.8c0.4-0.7,1-1.3,1.7-1.7s1.5-0.7,2.4-0.9s1.8-0.2,2.8-0.2
				c0.9,0,1.9,0.1,2.7,0.3c0.9,0.2,1.7,0.5,2.4,0.9c0.7,0.4,1.3,1,1.7,1.7c0.5,0.7,0.7,1.9,0.8,2.7h-4.5c-0.1-0.8-0.4-1.6-1-1.9
				s-1.4-0.5-2.2-0.5c-0.3,0-0.6,0-0.9,0s-0.6,0.1-0.9,0.2c-0.3,0.1-0.5,0.3-0.7,0.5s-0.3,0.5-0.3,0.9s0.2,0.8,0.5,1
				c0.3,0.3,0.7,0.5,1.2,0.7s1.1,0.3,1.7,0.5c0.6,0.1,1.3,0.3,2,0.4c0.7,0.2,1.4,0.3,2,0.6c0.7,0.2,1.2,0.5,1.8,0.9
				c0.5,0.4,0.9,0.8,1.2,1.4c0.3,0.6,0.5,1.2,0.5,2c0,1.1-0.2,2.1-0.7,2.9s-1.1,1.4-1.8,1.9c-0.7,0.5-1.6,0.8-2.5,1
				c-1,0.2-1.9,0.3-2.9,0.3s-2-0.1-2.9-0.3c-1-0.2-1.8-0.5-2.6-1c-0.7-0.5-1.4-1.3-1.8-2c-0.5-0.8-0.7-1.5-0.8-3.1h4.5
				C78.9,20.8,79,21.1,79.2,21.5 M55.5,13.5c0.4-1.1,1-2.1,1.8-2.9s1.7-1.4,2.8-1.8c1.1-0.4,2.3-0.6,3.7-0.6c1.4,0,2.6,0.2,3.7,0.6
				c1.1,0.4,2,1.1,2.8,1.8c0.8,0.8,1.4,1.8,1.8,2.9s0.6,2.4,0.6,3.8s-0.2,2.6-0.6,3.8c-0.4,1.1-1,2.1-1.8,2.9s-1.7,1.4-2.8,1.8
				c-1.1,0.4-2.4,0.6-3.7,0.6c-1.4,0-2.6-0.2-3.7-0.6c-1.1-0.4-2-1-2.8-1.8s-1.4-1.8-1.8-2.9c-0.4-1.1-0.6-2.4-0.6-3.8
				S55.1,14.7,55.5,13.5 M59.8,19.4c0.1,0.7,0.4,1.3,0.7,1.8s0.8,0.9,1.3,1.3c0.5,0.3,1.2,0.5,2,0.5s1.5-0.2,2-0.5s1-0.7,1.3-1.3
				c0.3-0.5,0.6-1.1,0.7-1.8s0.2-1.3,0.2-2s-0.1-1.4-0.2-2.1c-0.1-0.7-0.4-1.3-0.7-1.8c-0.3-0.5-0.8-0.9-1.3-1.3
				c-0.6-0.3-1.2-0.5-2-0.5s-1.5,0.2-2,0.5s-1,0.8-1.3,1.3s-0.5,1.1-0.7,1.8c-0.1,0.7-0.2,1.4-0.2,2.1C59.6,18,59.7,18.7,59.8,19.4
				 M48.3,8.3v3.9h-0.1c0.2-0.8,0.5-1.2,0.9-1.7s0.8-0.9,1.3-1.3c0.5-0.3,1-0.6,1.6-0.8s1.1-0.3,1.6-0.3c0.3,0,1,0,1,0.1v4.6
				c0,0-0.4-0.1-0.7-0.1s-0.6,0-0.9,0c-0.9,0-1.6,0.1-2.2,0.4c-0.6,0.3-1.1,0.7-1.4,1.2c-0.4,0.5-0.6,1.1-0.8,1.8
				c-0.2,0.7-0.2,1.4-0.2,2.2v8.1h-4.7v-18L48.3,8.3L48.3,8.3z M35,26.3V24l0,0c-0.6,0.8-1.4,1.6-2.4,2s-1.9,0.6-3,0.6
				c-1.3,0-2.3-0.2-3.1-0.5s-1.5-0.8-1.9-1.4c-0.5-0.6-0.9-1.4-1-2.3c-0.2-0.9-0.3-1.9-0.3-3v-11H28v10.2c0,1.4,0.3,2.5,0.8,3.2
				s1.3,1.1,2.4,1.1c1.3,0,2.3-0.4,2.9-1.2s1-2.1,1-3.8V8.4h4.7v18L35,26.3L35,26.3z M9.1,21.8c0.7,0.7,1.7,1.1,3.1,1.1
				c1,0,1.8-0.2,2.5-0.6c0.7-0.5,1.1-0.7,1.3-1.4h4.2c-0.7,1.6-1.7,3.5-3.1,4.4s-3.1,1.3-5,1.3c-1.4,0-2.6-0.2-3.7-0.7
				c-1.1-0.4-2-1.1-2.8-1.9s-1.4-1.8-1.8-2.9s-0.6-2.4-0.6-3.7s0.2-2.5,0.6-3.6s1-2.1,1.8-2.9S7.3,9.4,8.4,9
				c1.1-0.5,2.3-0.7,3.6-0.7c1.5,0,2.8,0.3,3.9,0.9c1.1,0.6,2,1.3,2.7,2.3s1.2,2,1.5,3.3c0.3,1.2,0.4,2.3,0.3,3.9H7.9
				C8,20,8.3,21.1,9.1,21.8 M14.5,12.6c-0.6-0.6-1.4-0.9-2.6-0.9c-0.8,0-1.4,0.1-1.9,0.4s-0.9,0.6-1.2,1s-0.5,0.7-0.6,1.2
				C8.1,14.7,8,15.4,8,15.4h7.8C15.4,14.5,15,13.2,14.5,12.6"/>
		</g>
		<g>
			<g id="EUflag_16_">
				<polygon class="st0" points="178.7,27.7 178.7,1.5 140.3,1.5 140.3,27.7 				"/>
			</g>
			<g id="EUflag_1_">
				<polygon class="st1" points="177.8,26.8 177.8,2.4 141.2,2.4 141.2,26.8 				"/>
			</g>
			<g>
				<polygon class="st2" points="160.1,6 161.3,6 160.3,6.8 160.8,8.1 159.8,7.3 158.8,8.1 159.2,6.8 158.2,6 159.4,6 159.8,4.8 
									"/>
				<polygon class="st2" points="160.2,22.3 161.4,22.3 160.4,23 160.8,24.2 159.8,23.4 158.8,24.2 159.3,23 158.2,22.3 159.5,22.3 
					159.8,21.2 				"/>
				<polygon class="st2" points="164.2,21.2 165.4,21.2 164.4,21.9 164.9,23.1 163.9,22.4 162.8,23.1 163.2,21.9 162.3,21.2 
					163.5,21.2 163.9,20.1 				"/>
				<polygon class="st2" points="164.2,7.1 165.4,7.1 164.4,7.8 164.9,9 163.9,8.3 162.8,9 163.2,7.8 162.3,7.1 163.5,7.1 163.9,6 
									"/>
				<polygon class="st2" points="167.2,10.1 168.4,10.1 167.4,10.9 167.8,12 166.8,11.3 165.8,12 166.3,10.9 165.3,10.1 166.5,10.1 
					166.8,8.9 				"/>
				<polygon class="st2" points="167.2,18.3 168.4,18.3 167.4,19 167.8,20.2 166.8,19.5 165.8,20.2 166.3,19 165.3,18.3 166.5,18.3 
					166.8,17.1 				"/>
				<polygon class="st2" points="168.3,14.1 169.5,14.1 168.5,14.8 168.9,16 168,15.3 167,16 167.3,14.8 166.4,14.1 167.5,14.1 
					168,13 				"/>
				<polygon class="st2" points="156,7.1 157.2,7.1 156.2,7.8 156.7,9 155.7,8.3 154.7,9 155.1,7.8 154.1,7.1 155.3,7.1 155.7,6 
									"/>
				<polygon class="st2" points="153.1,10.1 154.3,10.1 153.3,10.9 153.8,12 152.8,11.3 151.8,12 152.2,10.9 151.2,10.1 152.4,10.1 
					152.8,9 				"/>
				<polygon class="st2" points="152.1,14.2 153.2,14.2 152.3,14.8 152.7,16 151.7,15.4 150.8,16 151.1,14.8 150.1,14.2 151.3,14.2 
					151.7,13 				"/>
				<polygon class="st2" points="153.1,18.3 154.3,18.3 153.3,19 153.8,20.2 152.8,19.5 151.8,20.2 152.2,19 151.2,18.3 152.4,18.3 
					152.8,17.1 				"/>
				<polygon class="st2" points="156,21.2 157.3,21.2 156.4,21.9 156.7,23.1 155.7,22.4 154.7,23.1 155.2,21.9 154.1,21.2 
					155.4,21.2 155.7,20.1 				"/>
			</g>
		</g>
	</g>
</g>
</svg>
