<?xml version="1.0" encoding="utf-8"?>
<!-- Generator: Adobe Illustrator 24.3.0, SVG Export Plug-In . SVG Version: 6.00 Build 0)  -->
<svg version="1.1" id="Layer_1" xmlns="http://www.w3.org/2000/svg" xmlns:xlink="http://www.w3.org/1999/xlink" x="0px" y="0px"
	 viewBox="0 0 300 300" style="enable-background:new 0 0 300 300;" xml:space="preserve">
<style type="text/css">
	.st0{clip-path:url(#SVGID_2_);fill:#FFFFFF;}
	.st1{opacity:0.5;}
	.st2{clip-path:url(#SVGID_4_);fill:#FFFFFF;}
	.st3{clip-path:url(#SVGID_4_);fill:#FEFEFE;}
	.st4{clip-path:url(#SVGID_4_);fill:#FDFDFD;}
	.st5{clip-path:url(#SVGID_4_);fill:#FCFCFC;}
	.st6{clip-path:url(#SVGID_4_);fill:#FBFBFB;}
	.st7{clip-path:url(#SVGID_4_);fill:#FAFAFA;}
	.st8{clip-path:url(#SVGID_4_);fill:#F9F9F9;}
	.st9{clip-path:url(#SVGID_4_);fill:#F8F8F8;}
	.st10{clip-path:url(#SVGID_4_);fill:#F7F7F7;}
	.st11{clip-path:url(#SVGID_4_);fill:#F6F6F6;}
	.st12{clip-path:url(#SVGID_4_);fill:#F5F5F5;}
	.st13{clip-path:url(#SVGID_4_);fill:#F4F4F4;}
	.st14{clip-path:url(#SVGID_4_);fill:#F3F3F3;}
	.st15{clip-path:url(#SVGID_4_);fill:#F2F2F2;}
	.st16{clip-path:url(#SVGID_4_);fill:#F1F1F1;}
	.st17{clip-path:url(#SVGID_4_);fill:#F0F0F0;}
	.st18{clip-path:url(#SVGID_4_);fill:#EFEFEF;}
	.st19{clip-path:url(#SVGID_4_);fill:#EEEEEE;}
	.st20{clip-path:url(#SVGID_4_);fill:#EDEDED;}
	.st21{clip-path:url(#SVGID_4_);fill:#ECECEC;}
	.st22{clip-path:url(#SVGID_4_);fill:#EBEBEB;}
	.st23{clip-path:url(#SVGID_4_);fill:#EAEAEA;}
	.st24{clip-path:url(#SVGID_4_);fill:#E9E9E9;}
	.st25{clip-path:url(#SVGID_4_);fill:#E8E8E8;}
	.st26{clip-path:url(#SVGID_4_);fill:#E7E7E7;}
	.st27{clip-path:url(#SVGID_4_);fill:#E6E6E6;}
	.st28{clip-path:url(#SVGID_4_);fill:#E5E5E5;}
	.st29{clip-path:url(#SVGID_4_);fill:#E4E4E4;}
	.st30{clip-path:url(#SVGID_4_);fill:#E3E3E3;}
	.st31{clip-path:url(#SVGID_4_);fill:#E2E2E2;}
	.st32{clip-path:url(#SVGID_4_);fill:#E1E1E1;}
	.st33{clip-path:url(#SVGID_4_);fill:#E0E0E0;}
	.st34{clip-path:url(#SVGID_4_);fill:#DFDFDF;}
	.st35{clip-path:url(#SVGID_4_);fill:#DEDEDE;}
	.st36{clip-path:url(#SVGID_4_);fill:#DDDDDD;}
	.st37{clip-path:url(#SVGID_4_);fill:#DCDCDC;}
	.st38{clip-path:url(#SVGID_4_);fill:#DBDBDB;}
	.st39{clip-path:url(#SVGID_4_);fill:#DADADA;}
	.st40{clip-path:url(#SVGID_4_);fill:#D9D9D9;}
	.st41{clip-path:url(#SVGID_4_);fill:#D8D8D8;}
	.st42{clip-path:url(#SVGID_4_);fill:#D7D7D7;}
	.st43{clip-path:url(#SVGID_4_);fill:#D6D6D6;}
	.st44{clip-path:url(#SVGID_4_);fill:#D5D5D5;}
	.st45{clip-path:url(#SVGID_4_);fill:#D4D4D4;}
	.st46{clip-path:url(#SVGID_4_);fill:#D3D3D3;}
	.st47{clip-path:url(#SVGID_4_);fill:#D2D2D2;}
	.st48{clip-path:url(#SVGID_4_);fill:#D1D1D1;}
	.st49{clip-path:url(#SVGID_4_);fill:#D0D0D0;}
	.st50{clip-path:url(#SVGID_4_);fill:#CFCFCF;}
	.st51{clip-path:url(#SVGID_4_);fill:#CECECE;}
	.st52{clip-path:url(#SVGID_4_);fill:#CDCDCD;}
	.st53{clip-path:url(#SVGID_4_);fill:#CCCCCC;}
	.st54{clip-path:url(#SVGID_4_);fill:#CBCBCB;}
	.st55{clip-path:url(#SVGID_4_);fill:#CACACA;}
	.st56{clip-path:url(#SVGID_4_);fill:#C9C9C9;}
	.st57{clip-path:url(#SVGID_4_);fill:#C8C8C8;}
	.st58{clip-path:url(#SVGID_4_);fill:#C7C7C7;}
	.st59{clip-path:url(#SVGID_4_);fill:#C6C6C6;}
	.st60{clip-path:url(#SVGID_4_);fill:#C5C5C5;}
	.st61{clip-path:url(#SVGID_4_);fill:#C4C4C4;}
	.st62{clip-path:url(#SVGID_4_);fill:#C2C2C2;}
	.st63{clip-path:url(#SVGID_4_);fill:#C1C1C1;}
	.st64{clip-path:url(#SVGID_4_);fill:#C0C0C0;}
	.st65{clip-path:url(#SVGID_4_);fill:#BFBFBF;}
	.st66{clip-path:url(#SVGID_4_);fill:#BEBEBE;}
	.st67{clip-path:url(#SVGID_4_);fill:#BDBDBD;}
	.st68{clip-path:url(#SVGID_4_);fill:#BCBCBC;}
	.st69{clip-path:url(#SVGID_4_);fill:#BBBBBB;}
	.st70{clip-path:url(#SVGID_4_);fill:#BABABA;}
	.st71{clip-path:url(#SVGID_4_);fill:#B9B9B9;}
	.st72{clip-path:url(#SVGID_4_);fill:#B8B8B8;}
	.st73{clip-path:url(#SVGID_4_);fill:#B7B7B7;}
	.st74{clip-path:url(#SVGID_4_);fill:#B6B6B6;}
	.st75{clip-path:url(#SVGID_4_);fill:#B5B5B5;}
	.st76{clip-path:url(#SVGID_4_);fill:#B4B4B4;}
	.st77{clip-path:url(#SVGID_4_);fill:#B3B3B3;}
	.st78{clip-path:url(#SVGID_4_);fill:#B2B2B2;}
	.st79{clip-path:url(#SVGID_4_);fill:#B1B1B1;}
	.st80{clip-path:url(#SVGID_4_);fill:#B0B0B0;}
	.st81{clip-path:url(#SVGID_4_);fill:#AFAFAF;}
	.st82{clip-path:url(#SVGID_4_);fill:#AEAEAE;}
	.st83{clip-path:url(#SVGID_4_);fill:#ADADAD;}
	.st84{clip-path:url(#SVGID_4_);fill:#ACACAC;}
	.st85{clip-path:url(#SVGID_4_);fill:#ABABAB;}
	.st86{clip-path:url(#SVGID_4_);fill:#AAAAAA;}
	.st87{clip-path:url(#SVGID_4_);fill:#A9A9A9;}
	.st88{clip-path:url(#SVGID_4_);fill:#A8A8A8;}
	.st89{clip-path:url(#SVGID_4_);fill:#A7A7A7;}
	.st90{clip-path:url(#SVGID_4_);fill:#A6A6A6;}
	.st91{clip-path:url(#SVGID_4_);fill:#A5A5A5;}
	.st92{clip-path:url(#SVGID_4_);fill:#A4A4A4;}
	.st93{clip-path:url(#SVGID_4_);fill:#A3A3A3;}
	.st94{clip-path:url(#SVGID_4_);fill:#A2A2A2;}
	.st95{clip-path:url(#SVGID_4_);fill:#A1A1A1;}
	.st96{clip-path:url(#SVGID_4_);fill:#A0A0A0;}
	.st97{clip-path:url(#SVGID_4_);fill:#9F9F9F;}
	.st98{clip-path:url(#SVGID_4_);fill:#9E9E9E;}
	.st99{clip-path:url(#SVGID_4_);fill:#9D9D9D;}
	.st100{clip-path:url(#SVGID_4_);fill:#9C9C9C;}
	.st101{clip-path:url(#SVGID_4_);fill:#9B9B9B;}
	.st102{clip-path:url(#SVGID_4_);fill:#9A9A9A;}
	.st103{clip-path:url(#SVGID_4_);fill:#999999;}
	.st104{clip-path:url(#SVGID_4_);fill:#989898;}
	.st105{clip-path:url(#SVGID_4_);fill:#979797;}
	.st106{clip-path:url(#SVGID_4_);fill:#969696;}
	.st107{clip-path:url(#SVGID_4_);fill:#959595;}
	.st108{clip-path:url(#SVGID_4_);fill:#949494;}
	.st109{clip-path:url(#SVGID_4_);fill:#939393;}
	.st110{clip-path:url(#SVGID_4_);fill:#929292;}
	.st111{clip-path:url(#SVGID_4_);fill:#919191;}
	.st112{clip-path:url(#SVGID_4_);fill:#909090;}
	.st113{clip-path:url(#SVGID_4_);fill:#8F8F8F;}
	.st114{clip-path:url(#SVGID_4_);fill:#8E8E8E;}
	.st115{clip-path:url(#SVGID_4_);fill:#8D8D8D;}
	.st116{clip-path:url(#SVGID_4_);fill:#8C8C8C;}
	.st117{clip-path:url(#SVGID_4_);fill:#8B8B8B;}
	.st118{clip-path:url(#SVGID_4_);fill:#8A8A8A;}
	.st119{clip-path:url(#SVGID_4_);fill:#898989;}
	.st120{clip-path:url(#SVGID_4_);fill:#888888;}
	.st121{clip-path:url(#SVGID_4_);fill:#878787;}
	.st122{fill:#0D4DA1;}
</style>
<g>
	<g>
		<g>
			<defs>
				<rect id="SVGID_1_" width="300" height="300"/>
			</defs>
			<clipPath id="SVGID_2_">
				<use xlink:href="#SVGID_1_"  style="overflow:visible;"/>
			</clipPath>
			<rect class="st0" width="300" height="300"/>
			<ellipse class="st0" cx="150" cy="150" rx="150" ry="15"/>
			<ellipse class="st0" cx="150" cy="150" rx="75" ry="7.5"/>
		</g>
	</g>
	<g class="st1">
		<g>
			<defs>
				<ellipse id="SVGID_3_" cx="150" cy="269" rx="147.67" ry="11.47"/>
			</defs>
			<clipPath id="SVGID_4_">
				<use xlink:href="#SVGID_3_"  style="overflow:visible;"/>
			</clipPath>
			<rect x="2.33" y="257.53" class="st2" width="295.33" height="22.94"/>
			<ellipse class="st2" cx="150" cy="269" rx="104.73" ry="10.47"/>
			<ellipse class="st3" cx="150" cy="269" rx="103.86" ry="10.39"/>
			<ellipse class="st4" cx="150" cy="269" rx="102.99" ry="10.3"/>
			<ellipse class="st5" cx="150" cy="269" rx="102.11" ry="10.21"/>
			<ellipse class="st6" cx="150" cy="269" rx="101.24" ry="10.12"/>
			<ellipse class="st7" cx="150" cy="269" rx="100.37" ry="10.04"/>
			<ellipse class="st8" cx="150" cy="269" rx="99.49" ry="9.95"/>
			<ellipse class="st9" cx="150" cy="269" rx="98.62" ry="9.86"/>
			<ellipse class="st10" cx="150" cy="269" rx="97.75" ry="9.77"/>
			<ellipse class="st11" cx="150" cy="269" rx="96.88" ry="9.69"/>
			<ellipse class="st12" cx="150" cy="269" rx="96" ry="9.6"/>
			<ellipse class="st13" cx="150" cy="269" rx="95.13" ry="9.51"/>
			<ellipse class="st14" cx="150" cy="269" rx="94.26" ry="9.43"/>
			<ellipse class="st15" cx="150" cy="269" rx="93.38" ry="9.34"/>
			<ellipse class="st16" cx="150" cy="269" rx="92.51" ry="9.25"/>
			<ellipse class="st17" cx="150" cy="269" rx="91.64" ry="9.16"/>
			<ellipse class="st18" cx="150" cy="269" rx="90.77" ry="9.08"/>
			<ellipse class="st19" cx="150" cy="269" rx="89.89" ry="8.99"/>
			<ellipse class="st20" cx="150" cy="269" rx="89.02" ry="8.9"/>
			<ellipse class="st21" cx="150" cy="269" rx="88.15" ry="8.81"/>
			<ellipse class="st22" cx="150" cy="269" rx="87.28" ry="8.73"/>
			<ellipse class="st23" cx="150" cy="269" rx="86.4" ry="8.64"/>
			<ellipse class="st24" cx="150" cy="269" rx="85.53" ry="8.55"/>
			<ellipse class="st25" cx="150" cy="269" rx="84.66" ry="8.47"/>
			<ellipse class="st26" cx="150" cy="269" rx="83.78" ry="8.38"/>
			<ellipse class="st27" cx="150" cy="269" rx="82.91" ry="8.29"/>
			<ellipse class="st28" cx="150" cy="269" rx="82.04" ry="8.2"/>
			<ellipse class="st29" cx="150" cy="269" rx="81.17" ry="8.12"/>
			<ellipse class="st30" cx="150" cy="269" rx="80.29" ry="8.03"/>
			<ellipse class="st31" cx="150" cy="269" rx="79.42" ry="7.94"/>
			<ellipse class="st32" cx="150" cy="269" rx="78.55" ry="7.85"/>
			<ellipse class="st33" cx="150" cy="269" rx="77.68" ry="7.77"/>
			<ellipse class="st34" cx="150" cy="269" rx="76.8" ry="7.68"/>
			<ellipse class="st35" cx="150" cy="269" rx="75.93" ry="7.59"/>
			<ellipse class="st36" cx="150" cy="269" rx="75.06" ry="7.51"/>
			<ellipse class="st37" cx="150" cy="269" rx="74.18" ry="7.42"/>
			<ellipse class="st38" cx="150" cy="269" rx="73.31" ry="7.33"/>
			<ellipse class="st39" cx="150" cy="269" rx="72.44" ry="7.24"/>
			<ellipse class="st40" cx="150" cy="269" rx="71.57" ry="7.16"/>
			<ellipse class="st41" cx="150" cy="269" rx="70.69" ry="7.07"/>
			<ellipse class="st42" cx="150" cy="269" rx="69.82" ry="6.98"/>
			<ellipse class="st43" cx="150" cy="269" rx="68.95" ry="6.89"/>
			<ellipse class="st44" cx="150" cy="269" rx="68.07" ry="6.81"/>
			<ellipse class="st45" cx="150" cy="269" rx="67.2" ry="6.72"/>
			<ellipse class="st46" cx="150" cy="269" rx="66.33" ry="6.63"/>
			<ellipse class="st47" cx="150" cy="269" rx="65.46" ry="6.55"/>
			<ellipse class="st48" cx="150" cy="269" rx="64.58" ry="6.46"/>
			<ellipse class="st49" cx="150" cy="269" rx="63.71" ry="6.37"/>
			<ellipse class="st50" cx="150" cy="269" rx="62.84" ry="6.28"/>
			<ellipse class="st51" cx="150" cy="269" rx="61.97" ry="6.2"/>
			<ellipse class="st52" cx="150" cy="269" rx="61.09" ry="6.11"/>
			<ellipse class="st53" cx="150" cy="269" rx="60.22" ry="6.02"/>
			<ellipse class="st54" cx="150" cy="269" rx="59.35" ry="5.93"/>
			<ellipse class="st55" cx="150" cy="269" rx="58.47" ry="5.85"/>
			<ellipse class="st56" cx="150" cy="269" rx="57.6" ry="5.76"/>
			<ellipse class="st57" cx="150" cy="269" rx="56.73" ry="5.67"/>
			<ellipse class="st58" cx="150" cy="269" rx="55.86" ry="5.59"/>
			<ellipse class="st59" cx="150" cy="269" rx="54.98" ry="5.5"/>
			<ellipse class="st60" cx="150" cy="269" rx="54.11" ry="5.41"/>
			<ellipse class="st61" cx="150" cy="269" rx="53.24" ry="5.32"/>
			<ellipse class="st62" cx="150" cy="269" rx="52.37" ry="5.24"/>
			<ellipse class="st63" cx="150" cy="269" rx="51.49" ry="5.15"/>
			<ellipse class="st64" cx="150" cy="269" rx="50.62" ry="5.06"/>
			<ellipse class="st65" cx="150" cy="269" rx="49.75" ry="4.97"/>
			<ellipse class="st66" cx="150" cy="269" rx="48.87" ry="4.89"/>
			<ellipse class="st67" cx="150" cy="269" rx="48" ry="4.8"/>
			<ellipse class="st68" cx="150" cy="269" rx="47.13" ry="4.71"/>
			<ellipse class="st69" cx="150" cy="269" rx="46.26" ry="4.63"/>
			<ellipse class="st70" cx="150" cy="269" rx="45.38" ry="4.54"/>
			<ellipse class="st71" cx="150" cy="269" rx="44.51" ry="4.45"/>
			<ellipse class="st72" cx="150" cy="269" rx="43.64" ry="4.36"/>
			<ellipse class="st73" cx="150" cy="269" rx="42.76" ry="4.28"/>
			<ellipse class="st74" cx="150" cy="269" rx="41.89" ry="4.19"/>
			<ellipse class="st75" cx="150" cy="269" rx="41.02" ry="4.1"/>
			<ellipse class="st76" cx="150" cy="269" rx="40.15" ry="4.01"/>
			<ellipse class="st77" cx="150" cy="269" rx="39.27" ry="3.93"/>
			<ellipse class="st78" cx="150" cy="269" rx="38.4" ry="3.84"/>
			<ellipse class="st79" cx="150" cy="269" rx="37.53" ry="3.75"/>
			<ellipse class="st80" cx="150" cy="269" rx="36.66" ry="3.67"/>
			<ellipse class="st81" cx="150" cy="269" rx="35.78" ry="3.58"/>
			<ellipse class="st82" cx="150" cy="269" rx="34.91" ry="3.49"/>
			<ellipse class="st83" cx="150" cy="269" rx="34.04" ry="3.4"/>
			<ellipse class="st84" cx="150" cy="269" rx="33.16" ry="3.32"/>
			<ellipse class="st85" cx="150" cy="269" rx="32.29" ry="3.23"/>
			<ellipse class="st86" cx="150" cy="269" rx="31.42" ry="3.14"/>
			<ellipse class="st87" cx="150" cy="269" rx="30.55" ry="3.05"/>
			<ellipse class="st88" cx="150" cy="269" rx="29.67" ry="2.97"/>
			<ellipse class="st89" cx="150" cy="269" rx="28.8" ry="2.88"/>
			<ellipse class="st90" cx="150" cy="269" rx="27.93" ry="2.79"/>
			<ellipse class="st91" cx="150" cy="269" rx="27.06" ry="2.71"/>
			<ellipse class="st92" cx="150" cy="269" rx="26.18" ry="2.62"/>
			<ellipse class="st93" cx="150" cy="269" rx="25.31" ry="2.53"/>
			<ellipse class="st94" cx="150" cy="269" rx="24.44" ry="2.44"/>
			<ellipse class="st95" cx="150" cy="269" rx="23.56" ry="2.36"/>
			<ellipse class="st96" cx="150" cy="269" rx="22.69" ry="2.27"/>
			<ellipse class="st97" cx="150" cy="269" rx="21.82" ry="2.18"/>
			<ellipse class="st98" cx="150" cy="269" rx="20.95" ry="2.09"/>
			<ellipse class="st99" cx="150" cy="269" rx="20.07" ry="2.01"/>
			<ellipse class="st100" cx="150" cy="269" rx="19.2" ry="1.92"/>
			<ellipse class="st101" cx="150" cy="269" rx="18.33" ry="1.83"/>
			<ellipse class="st102" cx="150" cy="269" rx="17.46" ry="1.75"/>
			<ellipse class="st103" cx="150" cy="269" rx="16.58" ry="1.66"/>
			<ellipse class="st104" cx="150" cy="269" rx="15.71" ry="1.57"/>
			<ellipse class="st105" cx="150" cy="269" rx="14.84" ry="1.48"/>
			<ellipse class="st106" cx="150" cy="269" rx="13.96" ry="1.4"/>
			<ellipse class="st107" cx="150" cy="269" rx="13.09" ry="1.31"/>
			<ellipse class="st108" cx="150" cy="269" rx="12.22" ry="1.22"/>
			<ellipse class="st109" cx="150" cy="269" rx="11.35" ry="1.13"/>
			<ellipse class="st110" cx="150" cy="269" rx="10.47" ry="1.05"/>
			<ellipse class="st111" cx="150" cy="269" rx="9.6" ry="0.96"/>
			<ellipse class="st112" cx="150" cy="269" rx="8.73" ry="0.87"/>
			<ellipse class="st113" cx="150" cy="269" rx="7.85" ry="0.79"/>
			<ellipse class="st114" cx="150" cy="269" rx="6.98" ry="0.7"/>
			<ellipse class="st115" cx="150" cy="269" rx="6.11" ry="0.61"/>
			<ellipse class="st116" cx="150" cy="269" rx="5.24" ry="0.52"/>
			<ellipse class="st117" cx="150" cy="269" rx="4.36" ry="0.44"/>
			<ellipse class="st118" cx="150" cy="269" rx="3.49" ry="0.35"/>
			<ellipse class="st119" cx="150" cy="269" rx="2.62" ry="0.26"/>
			<ellipse class="st120" cx="150" cy="269" rx="1.75" ry="0.17"/>
			<ellipse class="st121" cx="150" cy="269" rx="0.87" ry="0.09"/>
		</g>
	</g>
</g>
<g>
	<polygon class="st122" points="17.82,9.5 12.61,13.63 7.4,17.76 7.4,29.12 14.88,29.12 14.88,19.49 20.76,19.49 20.76,29.12 
		28.25,29.12 28.25,17.76 23.03,13.63 	"/>
	<polygon class="st122" points="19.36,6.52 17.6,5.15 15.84,6.52 13.08,8.69 13.08,6.34 9.19,6.34 9.19,11.74 3.42,16.26 
		4.75,17.97 17.6,7.9 30.45,17.97 31.79,16.26 	"/>
</g>
</svg>
