<svg xmlns="http://www.w3.org/2000/svg" viewBox="0 0 622.69 619.61"><defs><style>.cls-1{fill:#fff;}</style></defs><g id="Vrstva_2" data-name="Vrstva 2"><g id="Vrstva_2-2" data-name="Vrstva 2"><polygon class="cls-1" points="243.9 47.87 293.18 47.87 253.46 78.85 268.87 127.95 229.32 97.68 189.72 127.95 205.36 78.85 165.29 47.87 214.39 47.87 229.32 0 243.9 47.87"/><polygon class="cls-1" points="407.85 91.61 457.13 91.61 417.46 121.36 432.87 168.57 393.32 139.47 353.78 168.57 369.36 121.36 329.29 91.61 378.45 91.61 393.32 45.52 407.85 91.61"/><polygon class="cls-1" points="528.22 211.96 577.5 211.96 537.78 241.65 553.24 288.98 513.64 259.89 474.21 288.98 489.73 241.65 449.6 211.96 498.76 211.96 513.64 165.93 528.22 211.96"/><polygon class="cls-1" points="528.22 541.25 577.5 541.25 537.78 571.11 553.24 618.33 513.64 589.17 474.15 618.33 489.73 571.11 449.6 541.25 498.76 541.25 513.64 495.15 528.22 541.25"/><polygon class="cls-1" points="573.35 374.1 622.69 374.1 582.97 403.84 598.37 451.12 558.83 421.96 519.29 451.12 534.87 403.84 494.79 374.1 543.9 374.1 558.83 328.12 573.35 374.1"/><polygon class="cls-1" points="78.56 92 127.84 92 88.12 121.81 103.52 169.08 63.98 139.87 24.43 169.08 39.96 121.81 0 92 49.05 92 63.98 45.91 78.56 92"/><path class="cls-1" d="M306,619.61c-56.35,0-140.48-9-188.35-56.83-44.15-44.15-48.05-92.15-52.19-143C61.09,366.6,56.18,306.29,2.92,235.28a14.18,14.18,0,0,1,8.83-22.46c1.63-.29,40.59-7.15,94.09-3,71.2,5.52,134.4,28.23,182.77,65.66,72.36,56,113.57,144.17,122.46,262a14.17,14.17,0,0,1-25,10.17c-.46-.55-46.48-55.34-97.89-110.23-93.77-100.11-121-110.74-127.11-111.62a14.17,14.17,0,1,1,4-28.06C180.51,300,212.21,314.86,309,418.17c25.84,27.59,50.32,55.15,68.46,75.94-14.26-86.67-49.8-152.51-106-196.07-55.34-42.91-121.31-56.25-166.9-59.89a417,417,0,0,0-65-.05C84.67,307,89.44,365.41,93.68,417.52c4,49.4,7.2,88.43,44,125.21,65.06,65.06,220.45,45.78,222,45.58a14.17,14.17,0,0,1,3.66,28.11A482.44,482.44,0,0,1,306,619.61Z"/></g></g></svg>