<?xml version="1.0" encoding="utf-8"?>
<!-- Generator: Adobe Illustrator 25.2.3, SVG Export Plug-In . SVG Version: 6.00 Build 0)  -->
<svg version="1.1" id="Calque_1" xmlns="http://www.w3.org/2000/svg" xmlns:xlink="http://www.w3.org/1999/xlink" x="0px" y="0px"
	 viewBox="0 0 622.7 619.6" style="enable-background:new 0 0 622.7 619.6;" xml:space="preserve">
<style type="text/css">
	.st0{fill:#318380;}
</style>
<g id="Vrstva_2">
	<g id="Vrstva_2-2">
		<polygon class="st0" points="243.9,47.9 293.2,47.9 253.5,78.8 268.9,127.9 229.3,97.7 189.7,127.9 205.4,78.8 165.3,47.9 
			214.4,47.9 229.3,0 		"/>
		<polygon class="st0" points="407.9,91.6 457.1,91.6 417.5,121.4 432.9,168.6 393.3,139.5 353.8,168.6 369.4,121.4 329.3,91.6 
			378.5,91.6 393.3,45.5 		"/>
		<polygon class="st0" points="528.2,212 577.5,212 537.8,241.6 553.2,289 513.6,259.9 474.2,289 489.7,241.6 449.6,212 498.8,212 
			513.6,165.9 		"/>
		<polygon class="st0" points="528.2,541.2 577.5,541.2 537.8,571.1 553.2,618.3 513.6,589.2 474.1,618.3 489.7,571.1 449.6,541.2 
			498.8,541.2 513.6,495.1 		"/>
		<polygon class="st0" points="573.3,374.1 622.7,374.1 583,403.8 598.4,451.1 558.8,422 519.3,451.1 534.9,403.8 494.8,374.1 
			543.9,374.1 558.8,328.1 		"/>
		<polygon class="st0" points="78.6,92 127.8,92 88.1,121.8 103.5,169.1 64,139.9 24.4,169.1 40,121.8 0,92 49,92 64,45.9 		"/>
		<path class="st0" d="M306,619.6c-56.4,0-140.5-9-188.4-56.8c-44.2-44.2-48.1-92.1-52.2-143C61,366.6,56.1,306.3,2.9,235.3
			c-4.7-6.3-3.4-15.2,2.8-19.9c1.8-1.3,3.8-2.2,6-2.6c1.6-0.3,40.6-7.1,94.1-3c71.2,5.5,134.4,28.2,182.8,65.7
			c72.4,56,113.6,144.2,122.5,262c0.6,7.8-5.2,14.6-13,15.2c-4.6,0.3-9-1.5-12-5c-0.5-0.5-46.5-55.3-97.9-110.2
			c-93.8-100.1-121-110.7-127.1-111.6c-7.7-1.1-13.1-8.3-12-16s8.3-13.1,16-12l0,0c15.4,2.3,47.1,17.1,143.9,120.4
			c25.8,27.6,50.3,55.1,68.5,75.9c-14.3-86.7-49.8-152.5-106-196.1c-55.3-42.9-121.3-56.2-166.9-59.9c-21.6-1.7-43.4-1.7-65-0.1
			C84.7,307,89.4,365.4,93.7,417.5c4,49.4,7.2,88.4,44,125.2c65.1,65.1,220.5,45.8,222,45.6c7.8-1,14.9,4.5,15.9,12.2
			c1,7.8-4.5,14.9-12.2,15.9l0,0C344.3,618.6,325.2,619.7,306,619.6z"/>
	</g>
</g>
</svg>
